<?xml version="1.0" encoding="utf-8"?>
<!-- Generator: Adobe Illustrator 16.0.3, SVG Export Plug-In . SVG Version: 6.00 Build 0)  -->
<!DOCTYPE svg PUBLIC "-//W3C//DTD SVG 1.1//EN" "http://www.w3.org/Graphics/SVG/1.1/DTD/svg11.dtd">
<svg version="1.1" id="Layer_1" xmlns="http://www.w3.org/2000/svg" xmlns:xlink="http://www.w3.org/1999/xlink" x="0px" y="0px"
	 width="500px" height="380px" viewBox="0 0 500 380" enable-background="new 0 0 500 380" xml:space="preserve">
<g>
	<path fill="#CCCCCC" d="M500,375.102c0,2.709-2.241,4.898-5.005,4.898H5.004C2.241,380,0,377.811,0,375.102V4.898
		C0,2.189,2.241,0,5.004,0h489.991C497.759,0,500,2.189,500,4.898V375.102z"/>
	<g>
		<path fill="#333333" d="M192.721,24.404c1.959-0.32,4.879-0.56,8.119-0.56c3.999,0,6.799,0.6,8.718,2.12
			c1.6,1.28,2.48,3.159,2.48,5.639c0,3.439-2.44,5.799-4.759,6.639v0.12c1.879,0.76,2.919,2.56,3.599,5.039
			c0.84,3.04,1.68,6.559,2.2,7.599h-6.239c-0.44-0.76-1.08-2.959-1.88-6.279c-0.72-3.359-1.879-4.279-4.359-4.319h-1.839V51h-6.039
			V24.404z M198.76,36.002h2.399c3.04,0,4.839-1.52,4.839-3.879c0-2.479-1.68-3.719-4.479-3.759c-1.479,0-2.319,0.12-2.759,0.2
			V36.002z"/>
		<path fill="#333333" d="M223.079,44.081L221.159,51h-6.319l8.239-26.956h7.999L239.436,51h-6.559l-2.08-6.919H223.079z
			 M229.917,39.522l-1.68-5.719c-0.48-1.6-0.96-3.599-1.36-5.199h-0.08c-0.4,1.6-0.8,3.64-1.24,5.199l-1.6,5.719H229.917z"/>
		<path fill="#333333" d="M249.158,24.044V51h-6.119V24.044H249.158z"/>
		<path fill="#333333" d="M254.439,24.404c2.239-0.36,5.158-0.56,8.238-0.56c5.119,0,8.438,0.92,11.038,2.879
			c2.8,2.08,4.56,5.399,4.56,10.158c0,5.159-1.881,8.719-4.48,10.918c-2.839,2.359-7.158,3.479-12.438,3.479
			c-3.159,0-5.398-0.2-6.918-0.4V24.404z M260.558,46.401c0.521,0.12,1.36,0.12,2.12,0.12c5.52,0.04,9.118-2.999,9.118-9.438
			c0.04-5.599-3.239-8.559-8.479-8.559c-1.36,0-2.239,0.12-2.76,0.24V46.401z"/>
		<path fill="#333333" d="M305.996,29.324c-0.68-0.04-1.4,0-2.359,0.08c-5.4,0.44-7.799,3.199-8.479,6.239h0.119
			c1.279-1.32,3.08-2.08,5.52-2.08c4.359,0,8.038,3.08,8.038,8.479c0,5.159-3.959,9.398-9.599,9.398
			c-6.918,0-10.318-5.159-10.318-11.358c0-4.879,1.801-8.958,4.6-11.558c2.6-2.36,5.959-3.64,10.039-3.839
			c1.119-0.08,1.84-0.08,2.439-0.04V29.324z M302.676,42.361c0-2.399-1.279-4.479-3.879-4.479c-1.64,0-3,1-3.6,2.319
			c-0.16,0.32-0.24,0.8-0.24,1.52c0.121,2.759,1.44,5.239,4.199,5.239C301.316,46.96,302.676,45.001,302.676,42.361z"/>
		<path fill="#333333" d="M65.828,77.64c0.624,0.408,1.728,0.84,2.784,0.84c1.536,0,2.256-0.768,2.256-1.728
			c0-1.008-0.6-1.56-2.16-2.136c-2.088-0.744-3.072-1.896-3.072-3.288c0-1.872,1.512-3.408,4.008-3.408
			c1.176,0,2.208,0.336,2.856,0.72l-0.528,1.536c-0.456-0.288-1.296-0.672-2.376-0.672c-1.248,0-1.944,0.72-1.944,1.584
			c0,0.96,0.696,1.392,2.208,1.968c2.016,0.768,3.048,1.776,3.048,3.504c0,2.04-1.584,3.48-4.345,3.48
			c-1.272,0-2.448-0.312-3.264-0.792L65.828,77.64z"/>
		<path fill="#333333" d="M78.164,64.847v3.336h3.024v1.608h-3.024v6.265c0,1.44,0.408,2.256,1.584,2.256
			c0.552,0,0.96-0.072,1.224-0.144l0.096,1.584c-0.408,0.168-1.056,0.288-1.872,0.288c-0.984,0-1.776-0.312-2.28-0.888
			c-0.6-0.624-0.816-1.656-0.816-3.024v-6.336h-1.8v-1.608h1.8v-2.784L78.164,64.847z"/>
		<path fill="#333333" d="M83.563,71.807c0-1.368-0.024-2.544-0.096-3.625h1.848l0.072,2.28h0.096c0.528-1.56,1.8-2.544,3.216-2.544
			c0.24,0,0.408,0.024,0.6,0.072v1.992c-0.216-0.048-0.432-0.072-0.72-0.072c-1.488,0-2.544,1.128-2.832,2.712
			c-0.048,0.288-0.096,0.624-0.096,0.984V79.8h-2.088V71.807z"/>
		<path fill="#333333" d="M93.859,64.918c0.024,0.72-0.504,1.296-1.344,1.296c-0.744,0-1.272-0.576-1.272-1.296
			c0-0.744,0.552-1.32,1.32-1.32C93.355,63.599,93.859,64.174,93.859,64.918z M91.507,79.8V68.183h2.112V79.8H91.507z"/>
		<path fill="#333333" d="M97.123,71.975c0-1.488-0.048-2.688-0.096-3.792h1.896l0.096,1.992h0.048
			c0.864-1.416,2.232-2.256,4.128-2.256c2.808,0,4.92,2.376,4.92,5.904c0,4.176-2.544,6.241-5.28,6.241
			c-1.536,0-2.88-0.672-3.577-1.824h-0.048v6.313h-2.088V71.975z M99.211,75.071c0,0.312,0.048,0.6,0.096,0.864
			c0.384,1.464,1.656,2.472,3.168,2.472c2.232,0,3.528-1.824,3.528-4.488c0-2.328-1.224-4.32-3.456-4.32
			c-1.44,0-2.784,1.032-3.192,2.616c-0.072,0.264-0.144,0.576-0.144,0.864V75.071z"/>
		<path fill="#333333" d="M113.131,64.918c0.024,0.72-0.504,1.296-1.344,1.296c-0.744,0-1.272-0.576-1.272-1.296
			c0-0.744,0.552-1.32,1.32-1.32C112.626,63.599,113.131,64.174,113.131,64.918z M110.778,79.8V68.183h2.112V79.8H110.778z"/>
		<path fill="#333333" d="M116.394,71.327c0-1.2-0.024-2.184-0.096-3.145h1.872l0.12,1.92h0.048c0.576-1.104,1.92-2.184,3.84-2.184
			c1.608,0,4.104,0.96,4.104,4.944V79.8h-2.112v-6.697c0-1.872-0.696-3.432-2.688-3.432c-1.393,0-2.473,0.984-2.833,2.16
			c-0.096,0.264-0.144,0.624-0.144,0.984V79.8h-2.112V71.327z"/>
		<path fill="#333333" d="M139.723,68.183c-0.048,0.84-0.096,1.776-0.096,3.192v6.745c0,2.664-0.528,4.296-1.656,5.305
			c-1.128,1.056-2.76,1.392-4.224,1.392c-1.392,0-2.928-0.336-3.865-0.96l0.528-1.608c0.768,0.48,1.968,0.912,3.408,0.912
			c2.16,0,3.744-1.128,3.744-4.057v-1.296h-0.048c-0.648,1.08-1.896,1.944-3.696,1.944c-2.88,0-4.944-2.448-4.944-5.665
			c0-3.937,2.568-6.168,5.232-6.168c2.016,0,3.12,1.056,3.625,2.016h0.048l0.096-1.752H139.723z M137.539,72.767
			c0-0.36-0.024-0.672-0.12-0.96c-0.384-1.224-1.417-2.232-2.953-2.232c-2.016,0-3.456,1.705-3.456,4.393
			c0,2.28,1.152,4.176,3.432,4.176c1.296,0,2.472-0.816,2.928-2.16c0.12-0.36,0.168-0.768,0.168-1.128V72.767z"/>
		<path fill="#333333" d="M149.058,68.183l1.536,5.905c0.336,1.296,0.648,2.496,0.864,3.696h0.072
			c0.264-1.176,0.648-2.424,1.032-3.672l1.896-5.929h1.776l1.8,5.809c0.432,1.392,0.768,2.616,1.032,3.792h0.072
			c0.192-1.176,0.504-2.4,0.888-3.769l1.656-5.833h2.088L160.027,79.8h-1.92l-1.776-5.544c-0.408-1.296-0.744-2.448-1.032-3.816
			h-0.048c-0.288,1.392-0.648,2.592-1.056,3.84l-1.872,5.521h-1.92l-3.504-11.617H149.058z"/>
		<path fill="#333333" d="M168.234,64.918c0.024,0.72-0.504,1.296-1.344,1.296c-0.744,0-1.272-0.576-1.272-1.296
			c0-0.744,0.552-1.32,1.32-1.32C167.729,63.599,168.234,64.174,168.234,64.918z M165.881,79.8V68.183h2.112V79.8H165.881z"/>
		<path fill="#333333" d="M174.042,64.847v3.336h3.024v1.608h-3.024v6.265c0,1.44,0.408,2.256,1.584,2.256
			c0.552,0,0.96-0.072,1.224-0.144l0.096,1.584c-0.408,0.168-1.056,0.288-1.872,0.288c-0.984,0-1.776-0.312-2.28-0.888
			c-0.6-0.624-0.816-1.656-0.816-3.024v-6.336h-1.8v-1.608h1.8v-2.784L174.042,64.847z"/>
		<path fill="#333333" d="M179.441,62.758h2.112v7.249h0.048c0.336-0.6,0.864-1.128,1.512-1.488c0.624-0.36,1.368-0.6,2.16-0.6
			c1.561,0,4.057,0.96,4.057,4.968V79.8h-2.112v-6.672c0-1.873-0.696-3.457-2.688-3.457c-1.368,0-2.448,0.96-2.833,2.112
			c-0.12,0.288-0.144,0.6-0.144,1.008V79.8h-2.112V62.758z"/>
		<path fill="#333333" d="M207.882,62.758v14.041c0,1.032,0.024,2.208,0.096,3h-1.896l-0.096-2.016h-0.048
			c-0.648,1.296-2.064,2.28-3.96,2.28c-2.808,0-4.968-2.376-4.968-5.905c-0.024-3.864,2.376-6.24,5.208-6.24
			c1.776,0,2.976,0.84,3.504,1.776h0.048v-6.937H207.882z M205.77,72.911c0-0.264-0.024-0.624-0.096-0.888
			c-0.312-1.344-1.464-2.448-3.048-2.448c-2.184,0-3.48,1.92-3.48,4.489c0,2.352,1.152,4.296,3.432,4.296
			c1.416,0,2.712-0.936,3.096-2.521c0.072-0.288,0.096-0.576,0.096-0.912V72.911z"/>
		<path fill="#333333" d="M221.106,76.631c0,1.2,0.024,2.256,0.096,3.168h-1.872l-0.12-1.896h-0.048
			c-0.552,0.936-1.776,2.16-3.84,2.16c-1.824,0-4.008-1.008-4.008-5.088v-6.793h2.112v6.433c0,2.208,0.672,3.696,2.592,3.696
			c1.416,0,2.4-0.984,2.784-1.92c0.12-0.312,0.192-0.696,0.192-1.08v-7.129h2.112V76.631z"/>
		<path fill="#333333" d="M231.041,79.8l-0.168-1.464h-0.072c-0.648,0.912-1.896,1.729-3.552,1.729
			c-2.353,0-3.553-1.656-3.553-3.336c0-2.808,2.497-4.344,6.985-4.32v-0.24c0-0.96-0.264-2.688-2.64-2.688
			c-1.08,0-2.208,0.336-3.024,0.864l-0.48-1.392c0.96-0.624,2.352-1.032,3.816-1.032c3.552,0,4.417,2.424,4.417,4.752v4.344
			c0,1.008,0.048,1.992,0.192,2.784H231.041z M230.729,73.871c-2.304-0.048-4.92,0.36-4.92,2.616c0,1.368,0.912,2.017,1.992,2.017
			c1.512,0,2.472-0.96,2.808-1.944c0.072-0.216,0.12-0.456,0.12-0.672V73.871z"/>
		<path fill="#333333" d="M236.176,62.758h2.112V79.8h-2.112V62.758z"/>
		<path fill="#333333" d="M246.928,71.975c0-1.488-0.048-2.688-0.096-3.792h1.896l0.096,1.992h0.048
			c0.864-1.416,2.232-2.256,4.128-2.256c2.809,0,4.921,2.376,4.921,5.904c0,4.176-2.544,6.241-5.28,6.241
			c-1.536,0-2.88-0.672-3.577-1.824h-0.048v6.313h-2.088V71.975z M249.016,75.071c0,0.312,0.048,0.6,0.096,0.864
			c0.384,1.464,1.656,2.472,3.168,2.472c2.232,0,3.528-1.824,3.528-4.488c0-2.328-1.225-4.32-3.456-4.32
			c-1.44,0-2.784,1.032-3.192,2.616c-0.072,0.264-0.144,0.576-0.144,0.864V75.071z"/>
		<path fill="#333333" d="M267.016,79.8l-0.168-1.464h-0.071c-0.648,0.912-1.896,1.729-3.552,1.729
			c-2.354,0-3.553-1.656-3.553-3.336c0-2.808,2.496-4.344,6.984-4.32v-0.24c0-0.96-0.264-2.688-2.641-2.688
			c-1.08,0-2.208,0.336-3.023,0.864l-0.48-1.392c0.96-0.624,2.352-1.032,3.816-1.032c3.553,0,4.416,2.424,4.416,4.752v4.344
			c0,1.008,0.049,1.992,0.192,2.784H267.016z M266.704,73.871c-2.304-0.048-4.921,0.36-4.921,2.616c0,1.368,0.912,2.017,1.992,2.017
			c1.513,0,2.473-0.96,2.809-1.944c0.072-0.216,0.12-0.456,0.12-0.672V73.871z"/>
		<path fill="#333333" d="M272.151,71.807c0-1.368-0.024-2.544-0.096-3.625h1.849l0.071,2.28h0.097
			c0.527-1.56,1.8-2.544,3.216-2.544c0.239,0,0.408,0.024,0.601,0.072v1.992c-0.217-0.048-0.433-0.072-0.721-0.072
			c-1.488,0-2.544,1.128-2.832,2.712c-0.049,0.288-0.096,0.624-0.096,0.984V79.8h-2.089V71.807z"/>
		<path fill="#333333" d="M282.447,64.918c0.024,0.72-0.504,1.296-1.344,1.296c-0.744,0-1.271-0.576-1.271-1.296
			c0-0.744,0.551-1.32,1.319-1.32C281.943,63.599,282.447,64.174,282.447,64.918z M280.096,79.8V68.183h2.111V79.8H280.096z"/>
		<path fill="#333333" d="M288.256,64.847v3.336h3.023v1.608h-3.023v6.265c0,1.44,0.408,2.256,1.584,2.256
			c0.552,0,0.96-0.072,1.224-0.144l0.097,1.584c-0.408,0.168-1.057,0.288-1.873,0.288c-0.984,0-1.775-0.312-2.279-0.888
			c-0.601-0.624-0.816-1.656-0.816-3.024v-6.336h-1.801v-1.608h1.801v-2.784L288.256,64.847z"/>
		<path fill="#333333" d="M294.639,68.183l2.545,6.865c0.264,0.768,0.552,1.68,0.744,2.376h0.047
			c0.217-0.696,0.457-1.584,0.744-2.424l2.305-6.817h2.232l-3.168,8.281c-1.513,3.984-2.545,6.025-3.984,7.273
			c-1.033,0.912-2.064,1.272-2.593,1.368l-0.528-1.776c0.528-0.168,1.225-0.504,1.849-1.032c0.575-0.456,1.296-1.272,1.776-2.352
			c0.096-0.216,0.168-0.384,0.168-0.504c0-0.12-0.049-0.288-0.145-0.552l-4.297-10.705H294.639z"/>
		<path fill="#333333" d="M316.695,79.8l-0.168-1.464h-0.072c-0.648,0.912-1.896,1.729-3.553,1.729
			c-2.352,0-3.553-1.656-3.553-3.336c0-2.808,2.497-4.344,6.985-4.32v-0.24c0-0.96-0.265-2.688-2.64-2.688
			c-1.08,0-2.209,0.336-3.025,0.864l-0.479-1.392c0.96-0.624,2.353-1.032,3.816-1.032c3.552,0,4.417,2.424,4.417,4.752v4.344
			c0,1.008,0.047,1.992,0.191,2.784H316.695z M316.383,73.871c-2.305-0.048-4.92,0.36-4.92,2.616c0,1.368,0.912,2.017,1.992,2.017
			c1.512,0,2.472-0.96,2.808-1.944c0.072-0.216,0.12-0.456,0.12-0.672V73.871z"/>
		<path fill="#333333" d="M330.111,79.368c-0.553,0.288-1.776,0.672-3.336,0.672c-3.505,0-5.785-2.376-5.785-5.929
			c0-3.576,2.448-6.168,6.24-6.168c1.248,0,2.353,0.312,2.929,0.6l-0.48,1.632c-0.504-0.288-1.296-0.552-2.448-0.552
			c-2.664,0-4.104,1.968-4.104,4.392c0,2.688,1.728,4.345,4.031,4.345c1.201,0,1.992-0.312,2.593-0.576L330.111,79.368z"/>
		<path fill="#333333" d="M332.582,71.807c0-1.368-0.023-2.544-0.096-3.625h1.848l0.072,2.28h0.096
			c0.528-1.56,1.801-2.544,3.217-2.544c0.24,0,0.408,0.024,0.6,0.072v1.992c-0.216-0.048-0.432-0.072-0.72-0.072
			c-1.488,0-2.544,1.128-2.832,2.712c-0.048,0.288-0.097,0.624-0.097,0.984V79.8h-2.088V71.807z"/>
		<path fill="#333333" d="M350.703,73.896c0,4.296-2.977,6.168-5.785,6.168c-3.144,0-5.568-2.304-5.568-5.977
			c0-3.888,2.545-6.168,5.761-6.168C348.447,67.919,350.703,70.343,350.703,73.896z M341.486,74.015
			c0,2.544,1.464,4.464,3.528,4.464c2.017,0,3.528-1.896,3.528-4.512c0-1.968-0.984-4.464-3.48-4.464S341.486,71.807,341.486,74.015
			z"/>
		<path fill="#333333" d="M353.078,77.64c0.625,0.408,1.729,0.84,2.785,0.84c1.535,0,2.256-0.768,2.256-1.728
			c0-1.008-0.601-1.56-2.16-2.136c-2.088-0.744-3.072-1.896-3.072-3.288c0-1.872,1.512-3.408,4.008-3.408
			c1.176,0,2.209,0.336,2.856,0.72l-0.528,1.536c-0.455-0.288-1.296-0.672-2.376-0.672c-1.248,0-1.944,0.72-1.944,1.584
			c0,0.96,0.696,1.392,2.209,1.968c2.016,0.768,3.048,1.776,3.048,3.504c0,2.04-1.585,3.48-4.345,3.48
			c-1.271,0-2.448-0.312-3.264-0.792L353.078,77.64z"/>
		<path fill="#333333" d="M362.582,77.64c0.625,0.408,1.729,0.84,2.785,0.84c1.535,0,2.256-0.768,2.256-1.728
			c0-1.008-0.601-1.56-2.16-2.136c-2.088-0.744-3.072-1.896-3.072-3.288c0-1.872,1.512-3.408,4.008-3.408
			c1.176,0,2.209,0.336,2.856,0.72l-0.528,1.536c-0.455-0.288-1.296-0.672-2.376-0.672c-1.248,0-1.944,0.72-1.944,1.584
			c0,0.96,0.696,1.392,2.209,1.968c2.016,0.768,3.048,1.776,3.048,3.504c0,2.04-1.585,3.48-4.345,3.48
			c-1.271,0-2.448-0.312-3.264-0.792L362.582,77.64z"/>
		<path fill="#333333" d="M387.494,62.758v14.041c0,1.032,0.024,2.208,0.096,3h-1.896l-0.097-2.016h-0.047
			c-0.648,1.296-2.064,2.28-3.961,2.28c-2.809,0-4.969-2.376-4.969-5.905c-0.023-3.864,2.377-6.24,5.209-6.24
			c1.775,0,2.977,0.84,3.504,1.776h0.049v-6.937H387.494z M385.383,72.911c0-0.264-0.024-0.624-0.097-0.888
			c-0.312-1.344-1.464-2.448-3.048-2.448c-2.185,0-3.48,1.92-3.48,4.489c0,2.352,1.152,4.296,3.432,4.296
			c1.416,0,2.713-0.936,3.097-2.521c0.072-0.288,0.097-0.576,0.097-0.912V72.911z"/>
		<path fill="#333333" d="M390.998,71.807c0-1.368-0.024-2.544-0.096-3.625h1.848l0.072,2.28h0.096
			c0.527-1.56,1.801-2.544,3.217-2.544c0.239,0,0.407,0.024,0.6,0.072v1.992c-0.217-0.048-0.432-0.072-0.721-0.072
			c-1.488,0-2.544,1.128-2.832,2.712c-0.048,0.288-0.096,0.624-0.096,0.984V79.8h-2.088V71.807z"/>
		<path fill="#333333" d="M401.294,64.918c0.024,0.72-0.505,1.296-1.345,1.296c-0.744,0-1.271-0.576-1.271-1.296
			c0-0.744,0.552-1.32,1.32-1.32C400.789,63.599,401.294,64.174,401.294,64.918z M398.941,79.8V68.183h2.112V79.8H398.941z"/>
		<path fill="#333333" d="M405.373,68.183l2.281,6.529c0.383,1.056,0.695,2.016,0.936,2.976h0.072c0.264-0.96,0.6-1.92,0.984-2.976
			l2.256-6.529h2.208L409.55,79.8h-2.017l-4.416-11.617H405.373z"/>
		<path fill="#333333" d="M417.037,74.375c0.048,2.856,1.872,4.032,3.984,4.032c1.512,0,2.424-0.264,3.217-0.6l0.359,1.512
			c-0.744,0.336-2.016,0.72-3.864,0.72c-3.576,0-5.712-2.353-5.712-5.857c0-3.504,2.063-6.264,5.447-6.264
			c3.793,0,4.801,3.336,4.801,5.472c0,0.432-0.048,0.768-0.072,0.984H417.037z M423.229,72.863c0.024-1.344-0.552-3.433-2.929-3.433
			c-2.136,0-3.072,1.968-3.24,3.433H423.229z"/>
		<path fill="#333333" d="M427.598,77.64c0.623,0.408,1.728,0.84,2.783,0.84c1.537,0,2.256-0.768,2.256-1.728
			c0-1.008-0.6-1.56-2.16-2.136c-2.088-0.744-3.072-1.896-3.072-3.288c0-1.872,1.513-3.408,4.009-3.408
			c1.177,0,2.208,0.336,2.856,0.72l-0.527,1.536c-0.457-0.288-1.297-0.672-2.377-0.672c-1.248,0-1.944,0.72-1.944,1.584
			c0,0.96,0.696,1.392,2.208,1.968c2.017,0.768,3.049,1.776,3.049,3.504c0,2.04-1.584,3.48-4.345,3.48
			c-1.272,0-2.448-0.312-3.265-0.792L427.598,77.64z"/>
	</g>
	<g>
		<path fill="#999999" stroke="#999999" stroke-miterlimit="10" d="M12.5,153.5v173l0,0c0.521,9,23.034,18.938,50.308,18.938
			c27.273,0,49.171-9.938,49.692-18.938l0,0v-173H12.5z"/>
		<ellipse fill="#E6E6E6" stroke="#FFFFFF" stroke-miterlimit="10" cx="62.808" cy="153.038" rx="49.975" ry="19.313"/>
		<g>
			<path fill="none" d="M112.783,318.883c0,10.666-22.375,19.313-49.976,19.313c-27.6,0-49.974-8.646-49.974-19.313"/>
			<path fill="#FFFFFF" d="M46.315,324.404v10.533c0,0.773,0.018,1.659,0.071,2.262l-1.402-0.239l-0.071-1.524l-0.036-0.006
				c-0.479,0.891-1.526,1.449-2.928,1.209c-2.076-0.355-3.673-2.411-3.673-5.058c-0.018-2.901,1.757-4.381,3.851-4.022
				c1.313,0.225,2.2,1.006,2.591,1.775l0.036,0.006v-5.203L46.315,324.404z M44.754,331.753c0-0.198-0.018-0.472-0.071-0.679
				c-0.23-1.047-1.083-2.021-2.253-2.222c-1.615-0.276-2.573,1-2.573,2.927c0,1.764,0.852,3.369,2.538,3.657
				c1.047,0.179,2.005-0.359,2.289-1.499c0.053-0.207,0.071-0.42,0.071-0.672V331.753z"/>
			<path fill="#FFFFFF" d="M48.921,331.455c0-1.026-0.018-1.91-0.072-2.727l1.379,0.135l0.054,1.715l0.072,0.008
				c0.394-1.133,1.344-1.778,2.4-1.676c0.179,0.018,0.305,0.048,0.448,0.098v1.494c-0.161-0.051-0.322-0.085-0.537-0.105
				c-1.111-0.108-1.899,0.662-2.114,1.829c-0.036,0.212-0.072,0.461-0.072,0.731v4.645l-1.559-0.15V331.455z"/>
			<path fill="#FFFFFF" d="M56.634,326.889c0.018,0.541-0.377,0.951-1.007,0.917c-0.557-0.03-0.953-0.484-0.953-1.024
				c0-0.559,0.414-0.968,0.989-0.936C56.256,325.878,56.634,326.331,56.634,326.889z M54.872,337.955v-8.715l1.582,0.088v8.715
				L54.872,337.955z"/>
			<path fill="#FFFFFF" d="M59.679,329.463l1.71,4.908c0.288,0.793,0.522,1.516,0.702,2.236h0.054
				c0.198-0.719,0.45-1.438,0.738-2.229l1.693-4.887l1.656,0.01l-3.421,8.693l-1.513-0.008l-3.313-8.734L59.679,329.463z"/>
			<path fill="#FFFFFF" d="M68.418,334.027c0.036,2.141,1.401,2.939,2.981,2.843c1.131-0.069,1.814-0.31,2.407-0.597l0.269,1.117
				c-0.557,0.286-1.508,0.633-2.891,0.717c-2.676,0.164-4.274-1.503-4.274-4.131c0-2.629,1.544-4.795,4.077-4.949
				c2.837-0.174,3.592,2.283,3.592,3.885c0,0.324-0.036,0.579-0.054,0.742L68.418,334.027z M73.052,332.609
				c0.018-1.009-0.413-2.549-2.191-2.44c-1.599,0.099-2.299,1.617-2.425,2.724L73.052,332.609z"/>
			<path fill="#FFFFFF" d="M83.219,326.291l-0.036,0.006l-2.003,1.452l-0.301-1.153l2.518-1.813l1.33-0.234v11.703l-1.507,0.266
				V326.291z"/>
		</g>
		<g>
			<path fill="#009245" stroke="#009245" stroke-miterlimit="10" d="M17.5,271.5v28h0.106c0.469,8,20.408,17.043,44.954,17.043
				s44.485-9.043,44.955-17.043H107.5v-28H17.5z"/>
			<ellipse fill="#00FF00" stroke="#FFFFFF" stroke-miterlimit="10" cx="62.561" cy="271.107" rx="44.977" ry="17.382"/>
			<g>
				<path fill="none" d="M107.538,292.567c0,9.6-20.137,17.382-44.978,17.382c-24.84,0-44.977-7.782-44.977-17.382"/>
				<path fill="#FFFFFF" d="M22.146,293.18c0-1.431-0.041-2.605-0.082-3.688l1.619,0.838l0.082,1.958l0.041,0.021
					c0.738-0.979,1.906-1.181,3.525-0.342c2.397,1.243,4.201,4.461,4.201,7.854c0,4.014-2.172,4.872-4.508,3.662
					c-1.312-0.68-2.459-1.921-3.053-3.336l-0.041-0.021v6.067l-1.783-0.924V293.18z M23.929,297.08c0,0.299,0.041,0.598,0.082,0.873
					c0.328,1.576,1.414,3.108,2.705,3.777c1.906,0.988,3.012-0.191,3.012-2.753c0-2.237-1.045-4.694-2.951-5.683
					c-1.229-0.637-2.377-0.239-2.726,1.103c-0.062,0.222-0.123,0.49-0.123,0.767V297.08z"/>
				<path fill="#FFFFFF" d="M40.07,307.656l-0.156-1.447l-0.067-0.017c-0.604,0.724-1.766,1.212-3.309,0.819
					c-2.191-0.559-3.309-2.436-3.309-4.05c0-2.699,2.325-3.584,6.505-2.497v-0.23c0-0.923-0.246-2.646-2.459-3.21
					c-1.006-0.256-2.057-0.2-2.817,0.114l-0.447-1.453c0.894-0.371,2.19-0.434,3.554-0.086c3.309,0.842,4.113,3.377,4.113,5.615
					v4.176c0,0.969,0.044,1.926,0.179,2.721L40.07,307.656z M39.78,301.884c-2.146-0.593-4.583-0.82-4.583,1.349
					c0,1.314,0.85,2.154,1.855,2.41c1.408,0.358,2.302-0.337,2.615-1.203c0.067-0.19,0.112-0.41,0.112-0.617V301.884z"/>
				<path fill="#FFFFFF" d="M44.932,300.902c0-1.315-0.023-2.449-0.091-3.497l1.759,0.251l0.068,2.201l0.092,0.013
					c0.502-1.429,1.713-2.202,3.061-2.01c0.229,0.032,0.389,0.078,0.571,0.15v1.915c-0.206-0.076-0.411-0.128-0.686-0.167
					c-1.416-0.202-2.421,0.739-2.695,2.224c-0.045,0.271-0.091,0.587-0.091,0.933v5.952l-1.987-0.282V300.902z"/>
				<path fill="#FFFFFF" d="M54.774,295.393c0.023,0.693-0.483,1.207-1.289,1.144c-0.713-0.056-1.219-0.649-1.219-1.342
					c0-0.716,0.529-1.228,1.266-1.169C54.291,294.085,54.774,294.677,54.774,295.393z M52.519,309.518v-11.166l2.025,0.16v11.166
					L52.519,309.518z"/>
				<path fill="#FFFFFF" d="M60.342,295.553v3.207l2.907,0.063v1.545l-2.907-0.061v6.021c0,1.384,0.392,2.177,1.522,2.2
					c0.531,0.012,0.923-0.05,1.177-0.113l0.092,1.524c-0.392,0.153-1.015,0.256-1.799,0.239c-0.946-0.021-1.708-0.337-2.192-0.9
					c-0.577-0.612-0.785-1.608-0.785-2.923v-6.092l-1.73-0.036v-1.546l1.73,0.037v-2.677L60.342,295.553z"/>
				<path fill="#FFFFFF" d="M66.475,298.757l2.442,6.452c0.253,0.724,0.53,1.584,0.714,2.242l0.046-0.003
					c0.207-0.682,0.438-1.549,0.714-2.372l2.212-6.685l2.143-0.128l-3.042,8.141c-1.452,3.916-2.442,5.937-3.825,7.219
					c-0.991,0.936-1.981,1.341-2.488,1.463l-0.507-1.677c0.507-0.191,1.175-0.554,1.774-1.098c0.553-0.472,1.244-1.297,1.705-2.362
					c0.092-0.213,0.161-0.379,0.161-0.494s-0.046-0.274-0.138-0.522l-4.124-10.044L66.475,298.757z"/>
				<path fill="#FFFFFF" d="M80.975,308.621c0.045-0.748,0.09-2.121,0.09-3.39v-13.013l3.41-0.825v6.437l0.045-0.011
					c0.65-1.126,1.794-2.026,3.319-2.396c2.625-0.636,4.554,1.135,4.531,4.602c0,4.061-2.512,6.699-5.024,7.307
					c-1.279,0.311-2.512,0.125-3.297-1.023l-0.045,0.011l-0.135,1.602L80.975,308.621z M84.475,302.975
					c0,0.231,0.022,0.434,0.067,0.607c0.225,0.892,1.01,1.416,1.997,1.178c1.458-0.354,2.355-1.725,2.355-3.754
					c0-1.754-0.763-2.953-2.355-2.568c-0.919,0.223-1.772,1.145-1.997,2.215c-0.044,0.218-0.067,0.432-0.067,0.662V302.975z"/>
				<path fill="#FFFFFF" d="M99.567,302.46v-3.576l-5.875,3.103v-2.284l5.019-11.786l3.794-2.004v8.79l1.591-0.841v2.631
					l-1.591,0.84v3.576L99.567,302.46z M99.567,296.254v-3.322c0-0.9,0.041-1.845,0.102-2.846l-0.082,0.043
					c-0.429,1.195-0.775,2.255-1.224,3.438l-1.775,4.214v0.046L99.567,296.254z"/>
			</g>
		</g>
		<g>
		</g>
		<g>
			<path fill="#009245" stroke="#009245" stroke-miterlimit="10" d="M17.5,232.5v28h0.106c0.469,8,20.408,17.043,44.954,17.043
				s44.485-9.043,44.955-17.043H107.5v-28H17.5z"/>
			<ellipse fill="#00FF00" stroke="#FFFFFF" stroke-miterlimit="10" cx="62.561" cy="231.773" rx="44.977" ry="17.383"/>
			<g>
				<path fill="none" d="M107.538,253.234c0,9.6-20.137,17.381-44.978,17.381c-24.84,0-44.977-7.781-44.977-17.381"/>
				<path fill="#FFFFFF" d="M22.146,253.846c0-1.43-0.041-2.605-0.082-3.688l1.619,0.839l0.082,1.958l0.041,0.021
					c0.738-0.979,1.906-1.181,3.525-0.342c2.397,1.243,4.201,4.461,4.201,7.853c0,4.014-2.172,4.873-4.508,3.662
					c-1.312-0.68-2.459-1.92-3.053-3.336l-0.041-0.021v6.068l-1.783-0.924V253.846z M23.929,257.746c0,0.3,0.041,0.598,0.082,0.873
					c0.328,1.577,1.414,3.109,2.705,3.777c1.906,0.988,3.012-0.191,3.012-2.752c0-2.238-1.045-4.695-2.951-5.683
					c-1.229-0.638-2.377-0.239-2.726,1.103c-0.062,0.222-0.123,0.49-0.123,0.767V257.746z"/>
				<path fill="#FFFFFF" d="M40.07,268.323l-0.156-1.447l-0.067-0.017c-0.604,0.723-1.766,1.211-3.309,0.818
					c-2.191-0.558-3.309-2.435-3.309-4.049c0-2.699,2.325-3.584,6.505-2.497V260.9c0-0.922-0.246-2.646-2.459-3.209
					c-1.006-0.256-2.057-0.201-2.817,0.113l-0.447-1.452c0.894-0.372,2.19-0.435,3.554-0.087c3.309,0.842,4.113,3.377,4.113,5.615
					v4.176c0,0.969,0.044,1.926,0.179,2.722L40.07,268.323z M39.78,262.551c-2.146-0.593-4.583-0.82-4.583,1.348
					c0,1.314,0.85,2.154,1.855,2.41c1.408,0.359,2.302-0.336,2.615-1.203c0.067-0.189,0.112-0.409,0.112-0.617V262.551z"/>
				<path fill="#FFFFFF" d="M44.932,261.568c0-1.314-0.023-2.449-0.091-3.496l1.759,0.25l0.068,2.201l0.092,0.014
					c0.502-1.429,1.713-2.202,3.061-2.01c0.229,0.031,0.389,0.078,0.571,0.15v1.914c-0.206-0.075-0.411-0.127-0.686-0.166
					c-1.416-0.202-2.421,0.739-2.695,2.223c-0.045,0.271-0.091,0.588-0.091,0.934v5.952l-1.987-0.282V261.568z"/>
				<path fill="#FFFFFF" d="M54.774,256.059c0.023,0.693-0.483,1.207-1.289,1.145c-0.713-0.057-1.219-0.65-1.219-1.342
					c0-0.716,0.529-1.229,1.266-1.17C54.291,254.752,54.774,255.344,54.774,256.059z M52.519,270.185v-11.167l2.025,0.16v11.167
					L52.519,270.185z"/>
				<path fill="#FFFFFF" d="M60.342,256.22v3.207l2.907,0.062v1.546l-2.907-0.062v6.021c0,1.385,0.392,2.178,1.522,2.201
					c0.531,0.012,0.923-0.05,1.177-0.113l0.092,1.523c-0.392,0.154-1.015,0.256-1.799,0.24c-0.946-0.021-1.708-0.337-2.192-0.9
					c-0.577-0.612-0.785-1.609-0.785-2.924v-6.091l-1.73-0.036v-1.547l1.73,0.037v-2.676L60.342,256.22z"/>
				<path fill="#FFFFFF" d="M66.475,259.424l2.442,6.452c0.253,0.724,0.53,1.583,0.714,2.241l0.046-0.002
					c0.207-0.682,0.438-1.549,0.714-2.373l2.212-6.684l2.143-0.129l-3.042,8.141c-1.452,3.917-2.442,5.938-3.825,7.219
					c-0.991,0.937-1.981,1.342-2.488,1.464l-0.507-1.677c0.507-0.191,1.175-0.555,1.774-1.098c0.553-0.472,1.244-1.297,1.705-2.363
					c0.092-0.213,0.161-0.379,0.161-0.494s-0.046-0.273-0.138-0.521l-4.124-10.045L66.475,259.424z"/>
				<path fill="#FFFFFF" d="M80.975,269.288c0.045-0.749,0.09-2.121,0.09-3.39v-13.013l3.41-0.825v6.437l0.045-0.011
					c0.65-1.127,1.794-2.027,3.319-2.396c2.625-0.635,4.554,1.135,4.531,4.602c0,4.061-2.512,6.699-5.024,7.308
					c-1.279,0.31-2.512,0.124-3.297-1.024l-0.045,0.012l-0.135,1.602L80.975,269.288z M84.475,263.642
					c0,0.231,0.022,0.433,0.067,0.606c0.225,0.893,1.01,1.417,1.997,1.178c1.458-0.354,2.355-1.724,2.355-3.754
					c0-1.754-0.763-2.953-2.355-2.567c-0.919,0.223-1.772,1.145-1.997,2.214c-0.044,0.219-0.067,0.432-0.067,0.662V263.642z"/>
				<path fill="#FFFFFF" d="M94.63,262.295c0.551,0.033,1.815-0.035,3.081-0.703c1.612-0.852,2.428-2.158,2.428-3.289
					c0-1.477-1.306-1.456-2.673-0.734l-1.265,0.668v-2.516l1.204-0.635c1.041-0.572,2.367-1.711,2.367-2.98
					c0-0.899-0.653-1.224-1.958-0.534c-1.082,0.571-2.224,1.704-2.774,2.364l-0.633-2.203c0.796-0.997,2.387-2.391,4.101-3.296
					c2.836-1.497,4.407-0.644,4.407,1.411c0,1.592-0.795,3.258-2.428,4.766v0.045c1.591-0.517,2.876,0.166,2.876,2.127
					c0,2.653-2.061,5.68-5.427,7.457c-1.713,0.904-3.162,1.162-3.937,1.018L94.63,262.295z"/>
			</g>
		</g>
		<g>
			<path fill="#327DD8" stroke="#327DD8" stroke-miterlimit="10" d="M17.5,192.5v28h0.106c0.469,8,20.408,17.043,44.954,17.043
				s44.485-9.043,44.955-17.043H107.5v-28H17.5z"/>
			<ellipse fill="#4DC3F8" stroke="#FFFFFF" stroke-miterlimit="10" cx="62.561" cy="192.441" rx="44.977" ry="17.381"/>
			<g>
				<path fill="none" d="M107.538,213.9c0,9.6-20.137,17.383-44.978,17.383c-24.84,0-44.977-7.783-44.977-17.383"/>
				<path fill="#FFFFFF" d="M24.263,223.398c0.042-0.743,0.085-1.855,0.085-2.848v-13.496l1.838,0.805v7.014l0.042,0.02
					c0.655-0.959,1.838-1.248,3.487-0.525c2.536,1.111,4.333,4.206,4.311,7.588c0,3.992-2.303,4.967-4.586,3.966
					c-1.479-0.648-2.663-1.79-3.423-3.601l-0.063-0.027l-0.084,1.809L24.263,223.398z M26.187,219.766
					c0,0.253,0.042,0.525,0.084,0.774c0.359,1.565,1.437,3.007,2.79,3.599c1.944,0.853,3.107-0.368,3.107-2.93
					c0-2.237-1.057-4.615-3.043-5.486c-1.268-0.556-2.452-0.129-2.832,1.251c-0.042,0.212-0.105,0.461-0.105,0.784V219.766z"/>
				<path fill="#FFFFFF" d="M36.605,211.725l1.966,0.508v16.381l-1.966-0.508V211.725z"/>
				<path fill="#FFFFFF" d="M51.884,225.26c0,4.129-2.831,5.51-5.501,5.115c-2.99-0.441-5.296-2.996-5.296-6.526
					c0-3.737,2.42-5.571,5.479-5.12C49.738,219.197,51.884,221.845,51.884,225.26z M43.118,224.08c0,2.445,1.393,4.496,3.356,4.787
					c1.917,0.283,3.355-1.328,3.355-3.842c0-1.893-0.936-4.43-3.31-4.781C44.146,219.895,43.118,221.957,43.118,224.08z"/>
				<path fill="#FFFFFF" d="M62.417,230.955c-0.53,0.256-1.706,0.578-3.205,0.52c-3.366-0.134-5.557-2.505-5.557-5.92
					c0-3.438,2.352-5.836,5.995-5.691c1.199,0.049,2.26,0.391,2.813,0.689l-0.461,1.551c-0.484-0.297-1.245-0.58-2.352-0.625
					c-2.559-0.102-3.942,1.736-3.942,4.066c0,2.584,1.66,4.241,3.874,4.329c1.152,0.046,1.914-0.224,2.49-0.454L62.417,230.955z"/>
				<path fill="#FFFFFF" d="M66.817,225.174l0.046-0.002c0.277-0.406,0.668-0.91,0.991-1.319l3.272-4.02l2.442-0.124l-4.309,4.811
					l4.908,6.324l-2.465,0.127l-3.848-5.156l-1.037,1.205v4.199l-2.004,0.103v-16.38l2.004-0.104V225.174z"/>
				<path fill="#FFFFFF" d="M79.644,230.158v-2.123l1.892-2.174c3.198-3.641,4.752-5.67,4.797-7.434c0-1.223-0.721-2.031-2.41-1.656
					c-1.261,0.28-2.365,1.172-3.13,1.941l-0.969-2.299c1.104-1.1,2.815-2.172,4.797-2.612c3.311-0.735,5.135,0.843,5.135,3.565
					c0,2.515-1.779,4.918-3.896,7.326l-1.352,1.453v0.047l5.518-1.227v2.884L79.644,230.158z"/>
				<path fill="#FFFFFF" d="M98.411,224.443l-0.189-1.045l-0.063,0.029c-0.672,1.205-1.723,2.166-2.941,2.719
					c-2.08,0.944-3.32-0.154-3.32-1.953c0-2.931,2.395-5.426,6.03-7.052v-0.161c0-0.601-0.294-1.32-1.87-0.605
					c-1.05,0.477-2.164,1.375-2.836,2.141l-0.588-1.993c0.714-0.763,2.122-1.956,3.992-2.804c3.425-1.555,4.518,0.164,4.518,2.817
					v3.922c0,1.085,0.042,2.104,0.147,2.679L98.411,224.443z M98.032,219.285c-1.681,0.74-2.983,1.77-2.983,3.131
					c0,0.9,0.546,1.09,1.26,0.766c0.799-0.361,1.45-1.234,1.66-2.045c0.042-0.203,0.063-0.421,0.063-0.629V219.285z"/>
			</g>
		</g>
		<g>
			<path fill="#327DD8" stroke="#327DD8" stroke-miterlimit="10" d="M17.5,153.5v28h0.106c0.469,8,20.408,17.043,44.954,17.043
				s44.485-9.043,44.955-17.043H107.5v-28H17.5z"/>
			<ellipse fill="#4DC3F8" stroke="#FFFFFF" stroke-miterlimit="10" cx="62.561" cy="153.107" rx="44.977" ry="17.382"/>
			<g>
				<path fill="none" d="M107.538,174.567c0,9.6-20.137,17.382-44.978,17.382c-24.84,0-44.977-7.782-44.977-17.382"/>
				<path fill="#FFFFFF" d="M24.263,184.064c0.042-0.743,0.085-1.855,0.085-2.847v-13.497l1.838,0.806v7.014l0.042,0.019
					c0.655-0.958,1.838-1.248,3.487-0.525c2.536,1.111,4.333,4.206,4.311,7.588c0,3.992-2.303,4.966-4.586,3.966
					c-1.479-0.648-2.663-1.79-3.423-3.6l-0.063-0.028l-0.084,1.809L24.263,184.064z M26.187,180.432
					c0,0.253,0.042,0.526,0.084,0.775c0.359,1.565,1.437,3.006,2.79,3.599c1.944,0.852,3.107-0.369,3.107-2.93
					c0-2.238-1.057-4.616-3.043-5.487c-1.268-0.556-2.452-0.128-2.832,1.251c-0.042,0.212-0.105,0.461-0.105,0.784V180.432z"/>
				<path fill="#FFFFFF" d="M36.605,172.391l1.966,0.507v16.381l-1.966-0.508V172.391z"/>
				<path fill="#FFFFFF" d="M51.884,185.926c0,4.129-2.831,5.511-5.501,5.116c-2.99-0.441-5.296-2.997-5.296-6.527
					c0-3.738,2.42-5.572,5.479-5.12C49.738,179.864,51.884,182.511,51.884,185.926z M43.118,184.746
					c0,2.445,1.393,4.497,3.356,4.787c1.917,0.283,3.355-1.327,3.355-3.842c0-1.892-0.936-4.43-3.31-4.78
					S43.118,182.624,43.118,184.746z"/>
				<path fill="#FFFFFF" d="M62.417,191.622c-0.53,0.256-1.706,0.578-3.205,0.519c-3.366-0.133-5.557-2.504-5.557-5.919
					c0-3.438,2.352-5.836,5.995-5.691c1.199,0.048,2.26,0.39,2.813,0.688l-0.461,1.551c-0.484-0.296-1.245-0.58-2.352-0.624
					c-2.559-0.102-3.942,1.735-3.942,4.065c0,2.584,1.66,4.242,3.874,4.33c1.152,0.046,1.914-0.224,2.49-0.455L62.417,191.622z"/>
				<path fill="#FFFFFF" d="M66.817,185.841l0.046-0.002c0.277-0.406,0.668-0.911,0.991-1.32l3.272-4.02l2.442-0.125l-4.309,4.811
					l4.908,6.325l-2.465,0.126l-3.848-5.156l-1.037,1.206v4.199l-2.004,0.103v-16.381l2.004-0.103V185.841z"/>
				<path fill="#FFFFFF" d="M84.013,177.972l-0.045,0.01l-2.792,1.982l-0.563-2.505l3.874-2.707l2.838-0.63v14.996l-3.311,0.736
					V177.972z"/>
				<path fill="#FFFFFF" d="M98.411,185.11l-0.189-1.045l-0.063,0.029c-0.672,1.205-1.723,2.167-2.941,2.719
					c-2.08,0.944-3.32-0.154-3.32-1.954c0-2.93,2.395-5.425,6.03-7.051v-0.162c0-0.6-0.294-1.32-1.87-0.605
					c-1.05,0.477-2.164,1.375-2.836,2.141l-0.588-1.994c0.714-0.763,2.122-1.956,3.992-2.804c3.425-1.555,4.518,0.165,4.518,2.818
					v3.922c0,1.084,0.042,2.104,0.147,2.679L98.411,185.11z M98.032,179.952c-1.681,0.74-2.983,1.77-2.983,3.13
					c0,0.9,0.546,1.09,1.26,0.766c0.799-0.362,1.45-1.235,1.66-2.045c0.042-0.204,0.063-0.421,0.063-0.628V179.952z"/>
			</g>
		</g>
	</g>
	<g>
		<path fill="#999999" stroke="#999999" stroke-miterlimit="10" d="M137.5,153.5v173l0,0c0.521,9,23.034,18.938,50.308,18.938
			c27.273,0,49.171-9.938,49.692-18.938l0,0v-173H137.5z"/>
		<ellipse fill="#E6E6E6" stroke="#FFFFFF" stroke-miterlimit="10" cx="187.808" cy="153.038" rx="49.975" ry="19.313"/>
		<g>
			<path fill="none" d="M237.783,318.883c0,10.666-22.375,19.313-49.976,19.313c-27.6,0-49.974-8.646-49.974-19.313"/>
			<path fill="#FFFFFF" d="M171.315,324.404v10.533c0,0.773,0.018,1.659,0.071,2.262l-1.402-0.239l-0.071-1.524l-0.036-0.006
				c-0.479,0.891-1.526,1.449-2.928,1.209c-2.076-0.355-3.673-2.411-3.673-5.058c-0.018-2.901,1.757-4.381,3.851-4.022
				c1.313,0.225,2.2,1.006,2.591,1.775l0.036,0.006v-5.203L171.315,324.404z M169.754,331.753c0-0.198-0.018-0.472-0.071-0.679
				c-0.23-1.047-1.083-2.021-2.253-2.222c-1.615-0.276-2.573,1-2.573,2.927c0,1.764,0.852,3.369,2.538,3.657
				c1.047,0.179,2.005-0.359,2.289-1.499c0.053-0.207,0.071-0.42,0.071-0.672V331.753z"/>
			<path fill="#FFFFFF" d="M173.921,331.455c0-1.026-0.018-1.91-0.072-2.727l1.379,0.135l0.054,1.715l0.072,0.008
				c0.394-1.133,1.344-1.778,2.4-1.676c0.179,0.018,0.305,0.048,0.448,0.098v1.494c-0.161-0.051-0.322-0.085-0.537-0.105
				c-1.111-0.108-1.899,0.662-2.114,1.829c-0.036,0.212-0.072,0.461-0.072,0.731v4.645l-1.559-0.15V331.455z"/>
			<path fill="#FFFFFF" d="M181.634,326.889c0.018,0.541-0.377,0.951-1.007,0.917c-0.557-0.03-0.953-0.484-0.953-1.024
				c0-0.559,0.414-0.968,0.989-0.936C181.256,325.878,181.634,326.331,181.634,326.889z M179.872,337.955v-8.715l1.582,0.088v8.715
				L179.872,337.955z"/>
			<path fill="#FFFFFF" d="M184.679,329.463l1.71,4.908c0.288,0.793,0.522,1.516,0.702,2.236h0.054
				c0.198-0.719,0.45-1.438,0.738-2.229l1.693-4.887l1.656,0.01l-3.421,8.693l-1.513-0.008l-3.313-8.734L184.679,329.463z"/>
			<path fill="#FFFFFF" d="M193.418,334.027c0.036,2.141,1.401,2.939,2.981,2.843c1.131-0.069,1.814-0.31,2.407-0.597l0.269,1.117
				c-0.557,0.286-1.508,0.633-2.891,0.717c-2.676,0.164-4.274-1.503-4.274-4.131c0-2.629,1.544-4.795,4.077-4.949
				c2.837-0.174,3.592,2.283,3.592,3.885c0,0.324-0.036,0.579-0.054,0.742L193.418,334.027z M198.052,332.609
				c0.018-1.009-0.413-2.549-2.191-2.44c-1.599,0.099-2.299,1.617-2.425,2.724L198.052,332.609z"/>
			<path fill="#FFFFFF" d="M204.832,337.115v-0.973l1.224-1.422c2.943-3.363,4.273-5.111,4.291-6.879
				c0-1.188-0.567-2.186-2.287-1.883c-1.046,0.185-1.915,0.878-2.447,1.422l-0.497-1.028c0.798-0.825,1.933-1.529,3.263-1.765
				c2.482-0.438,3.528,1.106,3.528,2.781c0,2.16-1.542,4.18-3.972,6.984l-0.922,1.027v0.035l5.177-0.913v1.314L204.832,337.115z"/>
		</g>
		<g>
			<path fill="#327DD8" stroke="#327DD8" stroke-miterlimit="10" d="M142.5,271.5v28h0.106c0.469,8,20.408,17.043,44.954,17.043
				s44.485-9.043,44.955-17.043H232.5v-28H142.5z"/>
			<ellipse fill="#4DC3F8" stroke="#FFFFFF" stroke-miterlimit="10" cx="187.561" cy="271.107" rx="44.977" ry="17.382"/>
			<g>
				<path fill="none" d="M232.538,292.567c0,9.6-20.137,17.382-44.978,17.382c-24.84,0-44.977-7.782-44.977-17.382"/>
				<path fill="#FFFFFF" d="M149.263,302.064c0.042-0.742,0.085-1.855,0.085-2.848v-13.496l1.838,0.806v7.014l0.042,0.019
					c0.655-0.959,1.838-1.248,3.487-0.525c2.536,1.111,4.333,4.207,4.311,7.588c0,3.992-2.303,4.967-4.586,3.967
					c-1.479-0.648-2.663-1.791-3.423-3.601l-0.063-0.028l-0.084,1.809L149.263,302.064z M151.187,298.432
					c0,0.254,0.042,0.525,0.084,0.775c0.359,1.564,1.437,3.006,2.79,3.599c1.944,0.853,3.107-0.368,3.107-2.93
					c0-2.237-1.057-4.616-3.043-5.487c-1.268-0.555-2.452-0.128-2.832,1.252c-0.042,0.211-0.105,0.461-0.105,0.783V298.432z"/>
				<path fill="#FFFFFF" d="M161.605,290.391l1.966,0.508v16.381l-1.966-0.508V290.391z"/>
				<path fill="#FFFFFF" d="M176.884,303.926c0,4.129-2.831,5.511-5.501,5.116c-2.99-0.441-5.296-2.997-5.296-6.526
					c0-3.738,2.42-5.572,5.479-5.121C174.738,297.863,176.884,300.512,176.884,303.926z M168.118,302.746
					c0,2.445,1.393,4.497,3.356,4.787c1.917,0.283,3.355-1.327,3.355-3.842c0-1.893-0.936-4.43-3.31-4.78
					S168.118,300.623,168.118,302.746z"/>
				<path fill="#FFFFFF" d="M187.417,309.622c-0.53,0.256-1.706,0.578-3.205,0.519c-3.366-0.133-5.557-2.504-5.557-5.919
					c0-3.438,2.352-5.836,5.995-5.691c1.199,0.048,2.26,0.39,2.813,0.688l-0.461,1.551c-0.484-0.297-1.245-0.58-2.352-0.624
					c-2.559-0.102-3.942,1.735-3.942,4.065c0,2.584,1.66,4.242,3.874,4.33c1.152,0.045,1.914-0.225,2.49-0.455L187.417,309.622z"/>
				<path fill="#FFFFFF" d="M191.817,303.841l0.046-0.002c0.277-0.406,0.668-0.911,0.991-1.319l3.272-4.02l2.442-0.125l-4.309,4.811
					l4.908,6.325l-2.465,0.126l-3.848-5.156l-1.037,1.206v4.199l-2.004,0.103v-16.381l2.004-0.103V303.841z"/>
				<path fill="#FFFFFF" d="M210.703,307.479v-3.576l-6.486,1.441v-2.284l5.541-10.368l4.189-0.93v8.789l1.757-0.39v2.63
					l-1.757,0.391v3.576L210.703,307.479z M210.703,301.271v-3.322c0-0.899,0.045-1.832,0.112-2.816l-0.09,0.021
					c-0.473,1.073-0.856,2.036-1.352,3.092l-1.959,3.712v0.046L210.703,301.271z"/>
				<path fill="#FFFFFF" d="M223.411,303.109l-0.189-1.045l-0.063,0.029c-0.672,1.205-1.723,2.166-2.941,2.719
					c-2.08,0.945-3.32-0.154-3.32-1.953c0-2.93,2.395-5.425,6.03-7.051v-0.162c0-0.6-0.294-1.32-1.87-0.605
					c-1.05,0.478-2.164,1.375-2.836,2.142l-0.588-1.993c0.714-0.764,2.122-1.956,3.992-2.805c3.425-1.555,4.518,0.164,4.518,2.818
					v3.922c0,1.084,0.042,2.104,0.147,2.678L223.411,303.109z M223.032,297.952c-1.681,0.739-2.983,1.77-2.983,3.13
					c0,0.9,0.546,1.091,1.26,0.767c0.799-0.362,1.45-1.235,1.66-2.046c0.042-0.203,0.063-0.42,0.063-0.628V297.952z"/>
			</g>
		</g>
		<g>
		</g>
		<g>
			<path fill="#009245" stroke="#009245" stroke-miterlimit="10" d="M142.5,232.5v28h0.106c0.469,8,20.408,17.043,44.954,17.043
				s44.485-9.043,44.955-17.043H232.5v-28H142.5z"/>
			<ellipse fill="#00FF00" stroke="#FFFFFF" stroke-miterlimit="10" cx="187.561" cy="231.773" rx="44.977" ry="17.383"/>
			<g>
				<path fill="none" d="M232.538,253.234c0,9.6-20.137,17.381-44.978,17.381c-24.84,0-44.977-7.781-44.977-17.381"/>
				<path fill="#FFFFFF" d="M143.247,250.242c0-1.432-0.036-2.613-0.072-3.703l1.425,1.137l0.072,1.973l0.036,0.028
					c0.649-0.843,1.678-0.831,3.103,0.306c2.11,1.684,3.697,5.234,3.697,8.626c0,4.015-1.912,4.474-3.968,2.833
					c-1.154-0.921-2.165-2.373-2.688-3.897l-0.036-0.028v6.066l-1.569-1.251V250.242z M144.816,254.47
					c0,0.3,0.036,0.605,0.072,0.888c0.289,1.638,1.244,3.369,2.38,4.275c1.678,1.339,2.651,0.362,2.651-2.199
					c0-2.237-0.92-4.887-2.597-6.225c-1.082-0.863-2.092-0.677-2.398,0.602c-0.054,0.211-0.108,0.467-0.108,0.744V254.47z"/>
				<path fill="#FFFFFF" d="M160.004,267.019l-0.153-1.46l-0.065-0.021c-0.59,0.676-1.725,1.072-3.231,0.559
					c-2.14-0.729-3.232-2.693-3.232-4.309c0-2.699,2.271-3.402,6.354-1.986v-0.23c0-0.923-0.24-2.666-2.402-3.402
					c-0.982-0.336-2.009-0.363-2.751-0.108l-0.437-1.487c0.874-0.302,2.14-0.262,3.472,0.191c3.231,1.104,4.018,3.701,4.018,5.939
					v4.176c0,0.969,0.043,1.93,0.175,2.735L160.004,267.019z M159.72,261.223c-2.096-0.76-4.477-1.18-4.477,0.988
					c0,1.316,0.83,2.222,1.813,2.557c1.375,0.469,2.249-0.156,2.555-0.998c0.065-0.186,0.109-0.4,0.109-0.608V261.223z"/>
				<path fill="#FFFFFF" d="M164.796,260.572c0-1.316-0.022-2.451-0.09-3.502l1.742,0.35l0.068,2.205l0.091,0.019
					c0.498-1.399,1.697-2.104,3.032-1.837c0.226,0.046,0.385,0.102,0.565,0.184v1.914c-0.204-0.086-0.407-0.15-0.679-0.205
					c-1.403-0.281-2.398,0.603-2.67,2.07c-0.045,0.268-0.09,0.582-0.09,0.928v5.953l-1.969-0.396V260.572z"/>
				<path fill="#FFFFFF" d="M174.552,255.579c0.023,0.695-0.481,1.185-1.282,1.081c-0.71-0.092-1.213-0.71-1.213-1.402
					c0-0.715,0.526-1.201,1.259-1.106C174.071,254.248,174.552,254.864,174.552,255.579z M172.309,269.595v-11.167l2.014,0.26
					v11.166L172.309,269.595z"/>
				<path fill="#FFFFFF" d="M180.118,256.004v3.207l2.901,0.195v1.545l-2.901-0.193v6.021c0,1.384,0.392,2.194,1.52,2.27
					c0.53,0.035,0.921-0.008,1.174-0.06l0.092,1.528c-0.392,0.136-1.013,0.209-1.796,0.157c-0.944-0.063-1.704-0.414-2.188-1
					c-0.576-0.638-0.783-1.644-0.783-2.96v-6.09l-1.727-0.115v-1.547l1.727,0.116v-2.677L180.118,256.004z"/>
				<path fill="#FFFFFF" d="M186.251,259.479l2.446,6.563c0.253,0.735,0.531,1.607,0.715,2.274l0.046-0.002
					c0.208-0.672,0.438-1.528,0.715-2.34l2.215-6.584l2.146-0.031l-3.045,8.004c-1.454,3.851-2.445,5.826-3.83,7.046
					c-0.992,0.892-1.984,1.251-2.491,1.351l-0.508-1.699c0.508-0.169,1.177-0.502,1.776-1.018c0.554-0.447,1.246-1.241,1.708-2.286
					c0.092-0.209,0.162-0.372,0.162-0.487s-0.046-0.275-0.139-0.528l-4.13-10.229L186.251,259.479z"/>
				<path fill="#FFFFFF" d="M200.79,270.016c0.045-0.746,0.091-2.115,0.091-3.385v-13.012l3.454-0.613v6.438l0.045-0.008
					c0.659-1.086,1.818-1.914,3.363-2.188c2.658-0.472,4.612,1.421,4.589,4.886c0,4.061-2.544,6.541-5.089,6.992
					c-1.295,0.23-2.544-0.033-3.34-1.23l-0.045,0.008l-0.136,1.594L200.79,270.016z M204.334,264.588
					c0,0.23,0.023,0.435,0.068,0.611c0.227,0.906,1.022,1.48,2.022,1.303c1.477-0.262,2.386-1.576,2.386-3.607
					c0-1.753-0.772-3-2.386-2.715c-0.932,0.166-1.795,1.033-2.022,2.09c-0.045,0.215-0.068,0.427-0.068,0.658V264.588z"/>
				<path fill="#FFFFFF" d="M214.604,263.898c0.583,0.102,1.92,0.193,3.258-0.314c1.705-0.648,2.568-1.853,2.568-2.982
					c0-1.477-1.381-1.621-2.827-1.072l-1.338,0.508v-2.516l1.273-0.482c1.101-0.441,2.503-1.412,2.503-2.682
					c0-0.899-0.69-1.307-2.071-0.781c-1.144,0.434-2.352,1.424-2.934,2.014l-0.669-2.283c0.841-0.896,2.524-2.09,4.337-2.778
					c2.999-1.139,4.66-0.085,4.66,1.968c0,1.592-0.841,3.157-2.567,4.459v0.046c1.683-0.315,3.042,0.528,3.042,2.49
					c0,2.653-2.179,5.419-5.739,6.771c-1.812,0.688-3.344,0.763-4.164,0.521L214.604,263.898z"/>
				<path fill="#FFFFFF" d="M231.591,242.93l-1.819,4.633l0.017,0.053l2.678-3.244v2.33l-2.695,1.876l-0.017,0.085l1.836,1.119
					l-1.5,2.604l-0.96-2.678l-0.034,0.055l-0.977,4.467l-1.449,0.156l1.802-4.57v-0.047l-2.645,3.145v-2.331l2.611-1.728
					l0.017-0.063l-1.786-1.236l1.5-2.579l0.943,2.647l0.033-0.031l0.96-4.429L231.591,242.93z"/>
			</g>
		</g>
		<g>
			<path fill="#009245" stroke="#009245" stroke-miterlimit="10" d="M142.5,192.5v28h0.106c0.469,8,20.408,17.043,44.954,17.043
				s44.485-9.043,44.955-17.043H232.5v-28H142.5z"/>
			<ellipse fill="#00FF00" stroke="#FFFFFF" stroke-miterlimit="10" cx="187.561" cy="192.441" rx="44.977" ry="17.381"/>
			<g>
				<path fill="none" d="M232.538,213.9c0,9.6-20.137,17.383-44.978,17.383c-24.84,0-44.977-7.783-44.977-17.383"/>
				<path fill="#FFFFFF" d="M147.146,214.513c0-1.431-0.041-2.604-0.082-3.688l1.619,0.839l0.082,1.957l0.041,0.021
					c0.738-0.979,1.906-1.182,3.525-0.342c2.397,1.242,4.201,4.461,4.201,7.853c0,4.015-2.172,4.872-4.508,3.662
					c-1.312-0.68-2.459-1.921-3.053-3.336l-0.041-0.021v6.066l-1.783-0.924V214.513z M148.929,218.413
					c0,0.3,0.041,0.599,0.082,0.873c0.328,1.577,1.414,3.108,2.705,3.778c1.906,0.987,3.012-0.192,3.012-2.754
					c0-2.237-1.045-4.693-2.951-5.682c-1.229-0.637-2.377-0.24-2.726,1.102c-0.062,0.223-0.123,0.49-0.123,0.768V218.413z"/>
				<path fill="#FFFFFF" d="M165.07,228.99l-0.156-1.447l-0.067-0.018c-0.604,0.724-1.766,1.212-3.309,0.819
					c-2.191-0.558-3.309-2.435-3.309-4.05c0-2.699,2.325-3.584,6.505-2.496v-0.23c0-0.924-0.246-2.646-2.459-3.211
					c-1.006-0.256-2.057-0.2-2.817,0.114l-0.447-1.452c0.894-0.372,2.19-0.434,3.554-0.087c3.309,0.843,4.113,3.378,4.113,5.615
					v4.176c0,0.97,0.044,1.927,0.179,2.722L165.07,228.99z M164.78,223.217c-2.146-0.592-4.583-0.82-4.583,1.349
					c0,1.315,0.85,2.154,1.855,2.411c1.408,0.357,2.302-0.338,2.615-1.203c0.067-0.191,0.112-0.41,0.112-0.617V223.217z"/>
				<path fill="#FFFFFF" d="M169.932,222.236c0-1.316-0.023-2.449-0.091-3.498l1.759,0.251l0.068,2.202l0.092,0.012
					c0.502-1.428,1.713-2.201,3.061-2.01c0.229,0.033,0.389,0.078,0.571,0.15v1.916c-0.206-0.076-0.411-0.129-0.686-0.168
					c-1.416-0.201-2.421,0.74-2.695,2.225c-0.045,0.27-0.091,0.586-0.091,0.932v5.953l-1.987-0.283V222.236z"/>
				<path fill="#FFFFFF" d="M179.774,216.726c0.023,0.694-0.483,1.208-1.289,1.144c-0.713-0.056-1.219-0.649-1.219-1.342
					c0-0.715,0.529-1.227,1.266-1.169C179.291,215.418,179.774,216.01,179.774,216.726z M177.519,230.852v-11.166l2.025,0.16v11.166
					L177.519,230.852z"/>
				<path fill="#FFFFFF" d="M185.342,216.887v3.207l2.907,0.062v1.546l-2.907-0.062v6.021c0,1.384,0.392,2.177,1.522,2.2
					c0.531,0.012,0.923-0.049,1.177-0.113l0.092,1.525c-0.392,0.152-1.015,0.256-1.799,0.238c-0.946-0.02-1.708-0.336-2.192-0.9
					c-0.577-0.611-0.785-1.607-0.785-2.923v-6.091l-1.73-0.037v-1.545l1.73,0.036v-2.677L185.342,216.887z"/>
				<path fill="#FFFFFF" d="M191.475,220.09l2.442,6.453c0.253,0.723,0.53,1.584,0.714,2.242l0.046-0.004
					c0.207-0.682,0.438-1.549,0.714-2.372l2.212-6.685l2.143-0.127l-3.042,8.141c-1.452,3.916-2.442,5.936-3.825,7.219
					c-0.991,0.936-1.981,1.34-2.488,1.463l-0.507-1.678c0.507-0.191,1.175-0.554,1.774-1.098c0.553-0.471,1.244-1.297,1.705-2.361
					c0.092-0.214,0.161-0.379,0.161-0.494c0-0.116-0.046-0.275-0.138-0.523l-4.124-10.043L191.475,220.09z"/>
				<path fill="#FFFFFF" d="M205.975,229.955c0.045-0.749,0.09-2.121,0.09-3.391v-13.012l3.41-0.826v6.438l0.045-0.012
					c0.65-1.126,1.794-2.025,3.319-2.395c2.625-0.637,4.554,1.135,4.531,4.601c0,4.061-2.512,6.699-5.024,7.308
					c-1.279,0.31-2.512,0.124-3.297-1.023l-0.045,0.01l-0.135,1.602L205.975,229.955z M209.475,224.309
					c0,0.23,0.022,0.434,0.067,0.607c0.225,0.891,1.01,1.416,1.997,1.178c1.458-0.354,2.355-1.725,2.355-3.755
					c0-1.753-0.763-2.953-2.355-2.567c-0.919,0.223-1.772,1.145-1.997,2.214c-0.044,0.218-0.067,0.432-0.067,0.662V224.309z"/>
				<path fill="#FFFFFF" d="M219.079,226.691v-2.123l1.713-2.658c2.897-4.459,4.305-6.887,4.346-8.662
					c0-1.223-0.653-1.848-2.183-1.039c-1.142,0.604-2.142,1.777-2.835,2.743l-0.877-2.052c1-1.381,2.55-2.893,4.345-3.84
					c2.999-1.584,4.652-0.473,4.652,2.25c0,2.515-1.612,5.373-3.53,8.324l-1.224,1.799v0.047l4.998-2.64v2.884L219.079,226.691z"/>
			</g>
		</g>
		<g>
			<path fill="#327DD8" stroke="#327DD8" stroke-miterlimit="10" d="M142.5,153.5v28h0.106c0.469,8,20.408,17.043,44.954,17.043
				s44.485-9.043,44.955-17.043H232.5v-28H142.5z"/>
			<ellipse fill="#4DC3F8" stroke="#FFFFFF" stroke-miterlimit="10" cx="187.561" cy="153.107" rx="44.977" ry="17.382"/>
			<g>
				<path fill="none" d="M232.538,174.567c0,9.6-20.137,17.382-44.978,17.382c-24.84,0-44.977-7.782-44.977-17.382"/>
				<path fill="#FFFFFF" d="M148.576,183.654c0.042-0.742,0.083-1.853,0.083-2.845v-13.497l1.824,0.84v7.014l0.042,0.02
					c0.65-0.946,1.824-1.213,3.459-0.459c2.516,1.159,4.298,4.287,4.277,7.669c0,3.991-2.285,4.922-4.55,3.879
					c-1.467-0.676-2.642-1.84-3.396-3.664l-0.063-0.029l-0.084,1.807L148.576,183.654z M150.483,180.058
					c0,0.253,0.042,0.527,0.084,0.777c0.356,1.571,1.425,3.033,2.767,3.651c1.929,0.889,3.082-0.31,3.082-2.871
					c0-2.238-1.048-4.636-3.019-5.544c-1.258-0.58-2.432-0.174-2.809,1.198c-0.042,0.211-0.105,0.459-0.105,0.782V180.058z"/>
				<path fill="#FFFFFF" d="M160.826,172.173l1.96,0.529v16.38l-1.96-0.529V172.173z"/>
				<path fill="#FFFFFF" d="M176.078,185.854c0,4.13-2.827,5.486-5.494,5.069c-2.986-0.468-5.289-3.043-5.289-6.573
					c0-3.737,2.417-5.551,5.471-5.072C173.936,179.773,176.078,182.439,176.078,185.854z M167.324,184.598
					c0,2.446,1.391,4.509,3.351,4.816c1.915,0.3,3.351-1.298,3.351-3.813c0-1.892-0.935-4.438-3.305-4.809
					C168.35,180.421,167.324,182.475,167.324,184.598z"/>
				<path fill="#FFFFFF" d="M186.624,191.616c-0.53,0.253-1.706,0.567-3.205,0.497c-3.366-0.156-5.557-2.541-5.557-5.956
					c0-3.438,2.352-5.82,5.995-5.652c1.199,0.056,2.26,0.405,2.813,0.707l-0.461,1.548c-0.484-0.299-1.245-0.588-2.352-0.64
					c-2.559-0.119-3.942,1.709-3.942,4.04c0,2.584,1.66,4.252,3.874,4.355c1.152,0.054,1.914-0.211,2.49-0.438L186.624,191.616z"/>
				<path fill="#FFFFFF" d="M191.008,185.866l0.046-0.002c0.277-0.404,0.669-0.906,0.992-1.313l3.274-3.999l2.444-0.108
					l-4.312,4.782l4.911,6.357l-2.467,0.109l-3.85-5.181l-1.038,1.2v4.198l-2.006,0.09v-16.381l2.006-0.089V185.866z"/>
				<path fill="#FFFFFF" d="M208.241,178.13l-0.045,0.009l-2.798,1.956l-0.564-2.511l3.881-2.669l2.844-0.604v14.997l-3.317,0.704
					V178.13z"/>
				<path fill="#FFFFFF" d="M216.75,188.133c0.042-0.757,0.084-2.138,0.084-3.407v-13.012l3.194-1.45v6.437l0.042-0.019
					c0.609-1.246,1.681-2.355,3.109-3.003c2.458-1.116,4.266,0.302,4.245,3.772c0,4.061-2.354,7.159-4.707,8.227
					c-1.198,0.543-2.354,0.583-3.089-0.421l-0.042,0.019l-0.126,1.626L216.75,188.133z M220.028,181.847
					c0,0.23,0.021,0.429,0.063,0.594c0.21,0.851,0.945,1.232,1.87,0.813c1.366-0.62,2.206-2.155,2.206-4.186
					c0-1.753-0.714-2.813-2.206-2.136c-0.862,0.391-1.66,1.469-1.87,2.579c-0.042,0.227-0.063,0.444-0.063,0.675V181.847z"/>
			</g>
		</g>
	</g>
	<g>
		<path fill="#999999" stroke="#999999" stroke-miterlimit="10" d="M261.5,153.5v173l0,0c0.521,9,23.033,18.938,50.308,18.938
			c27.273,0,49.171-9.938,49.692-18.938l0,0v-173H261.5z"/>
		<ellipse fill="#E6E6E6" stroke="#FFFFFF" stroke-miterlimit="10" cx="311.809" cy="153.038" rx="49.975" ry="19.313"/>
		<g>
			<path fill="none" d="M361.783,318.883c0,10.666-22.375,19.313-49.977,19.313c-27.6,0-49.973-8.646-49.973-19.313"/>
			<path fill="#FFFFFF" d="M295.315,324.404v10.533c0,0.773,0.018,1.659,0.071,2.262l-1.402-0.239l-0.07-1.524l-0.036-0.006
				c-0.479,0.891-1.526,1.449-2.929,1.209c-2.076-0.355-3.673-2.411-3.673-5.058c-0.018-2.901,1.757-4.381,3.851-4.022
				c1.313,0.225,2.201,1.006,2.592,1.775l0.035,0.006v-5.203L295.315,324.404z M293.754,331.753c0-0.198-0.018-0.472-0.071-0.679
				c-0.23-1.047-1.083-2.021-2.253-2.222c-1.615-0.276-2.574,1-2.574,2.927c0,1.764,0.852,3.369,2.538,3.657
				c1.047,0.179,2.005-0.359,2.289-1.499c0.054-0.207,0.071-0.42,0.071-0.672V331.753z"/>
			<path fill="#FFFFFF" d="M297.922,331.455c0-1.026-0.018-1.91-0.072-2.727l1.379,0.135l0.055,1.715l0.071,0.008
				c0.394-1.133,1.344-1.778,2.4-1.676c0.179,0.018,0.305,0.048,0.448,0.098v1.494c-0.162-0.051-0.322-0.085-0.537-0.105
				c-1.111-0.108-1.899,0.662-2.114,1.829c-0.036,0.212-0.071,0.461-0.071,0.731v4.645l-1.559-0.15V331.455z"/>
			<path fill="#FFFFFF" d="M305.634,326.889c0.019,0.541-0.378,0.951-1.007,0.917c-0.557-0.03-0.953-0.484-0.953-1.024
				c0-0.559,0.414-0.968,0.989-0.936C305.256,325.878,305.634,326.331,305.634,326.889z M303.872,337.955v-8.715l1.582,0.088v8.715
				L303.872,337.955z"/>
			<path fill="#FFFFFF" d="M308.679,329.463l1.71,4.908c0.289,0.793,0.522,1.516,0.703,2.236h0.053
				c0.199-0.719,0.451-1.438,0.738-2.229l1.693-4.887l1.656,0.01l-3.421,8.693l-1.513-0.008l-3.313-8.734L308.679,329.463z"/>
			<path fill="#FFFFFF" d="M317.418,334.027c0.036,2.141,1.4,2.939,2.981,2.843c1.132-0.069,1.813-0.31,2.407-0.597l0.269,1.117
				c-0.557,0.286-1.509,0.633-2.892,0.717c-2.676,0.164-4.273-1.503-4.273-4.131c0-2.629,1.544-4.795,4.076-4.949
				c2.838-0.174,3.592,2.283,3.592,3.885c0,0.324-0.035,0.579-0.054,0.742L317.418,334.027z M322.052,332.609
				c0.019-1.009-0.413-2.549-2.19-2.44c-1.6,0.099-2.299,1.617-2.426,2.724L322.052,332.609z"/>
			<path fill="#FFFFFF" d="M329.205,335.231c0.442,0.21,1.471,0.479,2.553,0.288c2.004-0.354,2.624-1.76,2.606-2.729
				c-0.019-1.636-1.472-2.082-2.979-1.815l-0.868,0.153v-1.188l0.868-0.153c1.135-0.2,2.571-1.048,2.571-2.434
				c0-0.938-0.585-1.662-2.021-1.408c-0.922,0.162-1.809,0.732-2.306,1.181l-0.407-1.081c0.603-0.557,1.772-1.213,3.014-1.432
				c2.27-0.4,3.298,0.787,3.298,2.209c0,1.207-0.709,2.357-2.128,3.131v0.035c1.419,0.038,2.571,0.915,2.571,2.554
				c0,1.872-1.437,3.765-4.202,4.253c-1.295,0.229-2.43,0.014-2.996-0.264L329.205,335.231z"/>
		</g>
		<g>
			<path fill="#327DD8" stroke="#327DD8" stroke-miterlimit="10" d="M266.5,271.5v28h0.105c0.469,8,20.408,17.043,44.955,17.043
				c24.546,0,44.484-9.043,44.954-17.043H356.5v-28H266.5z"/>
			<ellipse fill="#4DC3F8" stroke="#FFFFFF" stroke-miterlimit="10" cx="311.561" cy="271.107" rx="44.977" ry="17.382"/>
			<g>
				<path fill="none" d="M356.538,292.567c0,9.6-20.138,17.382-44.978,17.382s-44.977-7.782-44.977-17.382"/>
				<path fill="#FFFFFF" d="M272.576,301.654c0.041-0.742,0.083-1.854,0.083-2.846v-13.496l1.824,0.84v7.014l0.042,0.02
					c0.65-0.946,1.824-1.213,3.459-0.459c2.516,1.158,4.299,4.287,4.277,7.668c0,3.992-2.285,4.923-4.55,3.88
					c-1.468-0.677-2.642-1.84-3.396-3.664l-0.063-0.029l-0.084,1.808L272.576,301.654z M274.483,298.058
					c0,0.253,0.042,0.526,0.084,0.776c0.356,1.572,1.425,3.033,2.767,3.651c1.93,0.889,3.082-0.31,3.082-2.871
					c0-2.237-1.048-4.636-3.019-5.544c-1.258-0.58-2.432-0.174-2.81,1.197c-0.041,0.212-0.104,0.459-0.104,0.783V298.058z"/>
				<path fill="#FFFFFF" d="M284.826,290.174l1.961,0.529v16.38l-1.961-0.528V290.174z"/>
				<path fill="#FFFFFF" d="M300.078,303.854c0,4.13-2.826,5.486-5.494,5.068c-2.986-0.467-5.289-3.043-5.289-6.572
					c0-3.738,2.417-5.551,5.472-5.072C297.936,297.773,300.078,300.439,300.078,303.854z M291.324,302.598
					c0,2.445,1.391,4.51,3.352,4.816c1.914,0.3,3.351-1.298,3.351-3.813c0-1.893-0.935-4.438-3.306-4.809
					C292.35,298.421,291.324,300.475,291.324,302.598z"/>
				<path fill="#FFFFFF" d="M310.623,309.616c-0.529,0.253-1.705,0.567-3.204,0.497c-3.366-0.156-5.557-2.541-5.557-5.955
					c0-3.438,2.353-5.82,5.995-5.652c1.199,0.056,2.26,0.404,2.813,0.707l-0.461,1.548c-0.484-0.3-1.245-0.589-2.352-0.64
					c-2.56-0.119-3.943,1.709-3.943,4.039c0,2.584,1.66,4.253,3.874,4.355c1.152,0.054,1.913-0.211,2.489-0.438L310.623,309.616z"/>
				<path fill="#FFFFFF" d="M315.008,303.866l0.047-0.003c0.276-0.404,0.668-0.906,0.991-1.313l3.274-3.998l2.443-0.107
					l-4.312,4.781l4.911,6.357l-2.467,0.109l-3.851-5.182l-1.038,1.2v4.198l-2.006,0.09v-16.381l2.006-0.089V303.866z"/>
				<path fill="#FFFFFF" d="M333.934,307.652v-3.576l-6.5,1.38v-2.284l5.553-10.314l4.197-0.892v8.79l1.76-0.373v2.629l-1.76,0.375
					v3.575L333.934,307.652z M333.934,301.445v-3.322c0-0.899,0.045-1.832,0.113-2.814l-0.091,0.019
					c-0.474,1.069-0.857,2.028-1.354,3.079l-1.963,3.693v0.046L333.934,301.445z"/>
				<path fill="#FFFFFF" d="M340.75,306.133c0.043-0.757,0.084-2.137,0.084-3.406v-13.012l3.194-1.45v6.437l0.042-0.019
					c0.609-1.245,1.681-2.354,3.109-3.003c2.459-1.116,4.266,0.302,4.244,3.771c0,4.061-2.354,7.159-4.706,8.228
					c-1.198,0.544-2.354,0.583-3.089-0.421l-0.042,0.02l-0.126,1.625L340.75,306.133z M344.028,299.847
					c0,0.23,0.021,0.429,0.063,0.595c0.209,0.85,0.945,1.231,1.869,0.813c1.366-0.621,2.207-2.156,2.207-4.186
					c0-1.754-0.715-2.813-2.207-2.137c-0.861,0.391-1.66,1.469-1.869,2.579c-0.043,0.228-0.063,0.444-0.063,0.675V299.847z"/>
			</g>
		</g>
		<g>
		</g>
		<g>
			<path fill="#327DD8" stroke="#327DD8" stroke-miterlimit="10" d="M266.5,232.5v28h0.105c0.469,8,20.408,17.043,44.955,17.043
				c24.546,0,44.484-9.043,44.954-17.043H356.5v-28H266.5z"/>
			<ellipse fill="#4DC3F8" stroke="#FFFFFF" stroke-miterlimit="10" cx="311.561" cy="231.773" rx="44.977" ry="17.383"/>
			<g>
				<path fill="none" d="M356.538,253.234c0,9.6-20.138,17.381-44.978,17.381s-44.977-7.781-44.977-17.381"/>
				<path fill="#FFFFFF" d="M273.264,262.73c0.042-0.742,0.084-1.854,0.084-2.847v-13.497l1.839,0.807v7.014l0.042,0.018
					c0.655-0.958,1.839-1.247,3.487-0.524c2.536,1.111,4.333,4.206,4.312,7.588c0,3.991-2.304,4.966-4.586,3.966
					c-1.479-0.648-2.663-1.79-3.424-3.6l-0.063-0.028l-0.085,1.809L273.264,262.73z M275.187,259.098
					c0,0.254,0.042,0.526,0.085,0.775c0.359,1.564,1.437,3.006,2.789,3.6c1.944,0.852,3.107-0.369,3.107-2.93
					c0-2.238-1.057-4.617-3.044-5.487c-1.269-0.556-2.452-0.128-2.832,1.251c-0.042,0.212-0.105,0.461-0.105,0.784V259.098z"/>
				<path fill="#FFFFFF" d="M285.605,251.058l1.965,0.507v16.381l-1.965-0.508V251.058z"/>
				<path fill="#FFFFFF" d="M300.884,264.592c0,4.13-2.831,5.512-5.501,5.117c-2.99-0.441-5.297-2.998-5.297-6.527
					c0-3.738,2.42-5.572,5.479-5.12C298.738,258.53,300.884,261.178,300.884,264.592z M292.118,263.412
					c0,2.445,1.393,4.498,3.356,4.787c1.916,0.283,3.355-1.326,3.355-3.842c0-1.892-0.937-4.43-3.311-4.779
					C293.146,259.227,292.118,261.29,292.118,263.412z"/>
				<path fill="#FFFFFF" d="M311.417,270.289c-0.53,0.256-1.706,0.578-3.204,0.519c-3.367-0.134-5.557-2.505-5.557-5.919
					c0-3.438,2.352-5.836,5.994-5.691c1.199,0.047,2.26,0.389,2.813,0.688l-0.461,1.551c-0.484-0.296-1.244-0.58-2.352-0.623
					c-2.559-0.102-3.942,1.734-3.942,4.064c0,2.584,1.66,4.242,3.874,4.33c1.152,0.046,1.913-0.225,2.489-0.455L311.417,270.289z"/>
				<path fill="#FFFFFF" d="M315.817,264.508l0.046-0.002c0.277-0.406,0.668-0.912,0.99-1.32l3.272-4.02l2.442-0.125l-4.309,4.812
					l4.908,6.325l-2.466,0.125l-3.849-5.156l-1.036,1.207v4.199l-2.005,0.102v-16.381l2.005-0.102V264.508z"/>
				<path fill="#FFFFFF" d="M329.252,265.918c0.608,0.188,2.005,0.478,3.4,0.168c1.779-0.396,2.681-1.473,2.681-2.604
					c0-1.477-1.441-1.825-2.95-1.49l-1.396,0.311v-2.515l1.329-0.296c1.148-0.277,2.612-1.041,2.612-2.311
					c0-0.899-0.721-1.408-2.162-1.088c-1.193,0.266-2.455,1.076-3.063,1.58l-0.699-2.383c0.879-0.771,2.636-1.716,4.527-2.137
					c3.131-0.695,4.865,0.604,4.865,2.656c0,1.593-0.879,3.033-2.68,4.08v0.047c1.756-0.068,3.175,0.979,3.175,2.939
					c0,2.652-2.274,5.096-5.991,5.922c-1.892,0.42-3.49,0.268-4.346-0.096L329.252,265.918z"/>
				<path fill="#FFFFFF" d="M347.41,263.776l-0.189-1.045l-0.063,0.028c-0.672,1.205-1.723,2.167-2.941,2.72
					c-2.08,0.944-3.32-0.154-3.32-1.954c0-2.93,2.396-5.424,6.031-7.051v-0.162c0-0.6-0.295-1.319-1.871-0.604
					c-1.05,0.478-2.164,1.374-2.836,2.142l-0.588-1.994c0.714-0.763,2.121-1.955,3.992-2.805c3.424-1.555,4.518,0.165,4.518,2.818
					v3.922c0,1.084,0.041,2.104,0.146,2.679L347.41,263.776z M347.032,258.619c-1.681,0.739-2.983,1.77-2.983,3.13
					c0,0.899,0.546,1.091,1.26,0.767c0.799-0.363,1.451-1.235,1.66-2.046c0.043-0.204,0.063-0.421,0.063-0.628V258.619z"/>
			</g>
		</g>
		<g>
			<path fill="#009245" stroke="#009245" stroke-miterlimit="10" d="M266.5,192.5v28h0.105c0.469,8,20.408,17.043,44.955,17.043
				c24.546,0,44.484-9.043,44.954-17.043H356.5v-28H266.5z"/>
			<ellipse fill="#00FF00" stroke="#FFFFFF" stroke-miterlimit="10" cx="311.561" cy="192.441" rx="44.977" ry="17.381"/>
			<g>
				<path fill="none" d="M356.538,213.9c0,9.6-20.138,17.383-44.978,17.383s-44.977-7.783-44.977-17.383"/>
				<path fill="#FFFFFF" d="M267.247,210.908c0-1.43-0.036-2.612-0.071-3.703l1.424,1.137l0.072,1.973l0.036,0.029
					c0.649-0.844,1.678-0.83,3.103,0.307c2.109,1.684,3.697,5.233,3.697,8.625c0,4.014-1.912,4.473-3.968,2.833
					c-1.154-0.921-2.165-2.373-2.688-3.897l-0.036-0.029v6.068l-1.569-1.252V210.908z M268.816,215.137
					c0,0.3,0.036,0.605,0.072,0.889c0.289,1.637,1.244,3.369,2.381,4.275c1.678,1.338,2.65,0.361,2.65-2.199
					c0-2.238-0.92-4.887-2.597-6.225c-1.082-0.863-2.092-0.678-2.398,0.601c-0.054,0.21-0.108,0.468-0.108,0.744V215.137z"/>
				<path fill="#FFFFFF" d="M284.004,227.686l-0.152-1.459l-0.066-0.023c-0.59,0.676-1.725,1.074-3.23,0.561
					c-2.141-0.73-3.232-2.695-3.232-4.31c0-2.7,2.271-3.401,6.354-1.985v-0.231c0-0.923-0.24-2.666-2.401-3.403
					c-0.982-0.335-2.009-0.361-2.751-0.107l-0.438-1.486c0.874-0.303,2.141-0.264,3.473,0.191c3.231,1.102,4.018,3.7,4.018,5.938
					v4.176c0,0.97,0.043,1.93,0.175,2.736L284.004,227.686z M283.721,221.891c-2.097-0.762-4.477-1.181-4.477,0.988
					c0,1.314,0.83,2.221,1.813,2.556c1.375,0.47,2.248-0.155,2.555-0.997c0.064-0.186,0.109-0.402,0.109-0.609V221.891z"/>
				<path fill="#FFFFFF" d="M288.797,221.238c0-1.314-0.023-2.449-0.091-3.502l1.742,0.351l0.067,2.205l0.092,0.019
					c0.497-1.4,1.696-2.105,3.031-1.836c0.227,0.045,0.385,0.1,0.566,0.182v1.916c-0.204-0.088-0.408-0.151-0.68-0.206
					c-1.402-0.282-2.398,0.603-2.67,2.071c-0.045,0.268-0.09,0.581-0.09,0.928v5.951l-1.969-0.395V221.238z"/>
				<path fill="#FFFFFF" d="M298.552,216.246c0.022,0.695-0.481,1.184-1.282,1.081c-0.709-0.091-1.213-0.71-1.213-1.401
					c0-0.716,0.526-1.201,1.259-1.107C298.07,214.916,298.552,215.531,298.552,216.246z M296.309,230.262v-11.166l2.014,0.259
					v11.167L296.309,230.262z"/>
				<path fill="#FFFFFF" d="M304.118,216.672v3.207l2.901,0.193v1.546l-2.901-0.194v6.021c0,1.385,0.392,2.195,1.52,2.271
					c0.53,0.035,0.921-0.008,1.175-0.061l0.092,1.529c-0.392,0.135-1.014,0.209-1.796,0.156c-0.944-0.063-1.704-0.414-2.188-1
					c-0.575-0.639-0.782-1.645-0.782-2.959v-6.092l-1.728-0.115v-1.545l1.728,0.115v-2.676L304.118,216.672z"/>
				<path fill="#FFFFFF" d="M310.252,220.146l2.445,6.563c0.254,0.734,0.531,1.607,0.715,2.273h0.047
					c0.207-0.672,0.438-1.529,0.715-2.341l2.215-6.585l2.146-0.031l-3.046,8.004c-1.453,3.852-2.445,5.827-3.83,7.047
					c-0.991,0.891-1.983,1.252-2.49,1.352l-0.508-1.7c0.508-0.169,1.176-0.501,1.775-1.019c0.555-0.445,1.246-1.24,1.708-2.285
					c0.093-0.209,0.161-0.371,0.161-0.486s-0.046-0.277-0.139-0.529l-4.129-10.229L310.252,220.146z"/>
				<path fill="#FFFFFF" d="M324.789,230.683c0.046-0.747,0.092-2.116,0.092-3.385v-13.013l3.453-0.611v6.437l0.045-0.009
					c0.66-1.085,1.818-1.914,3.363-2.188c2.658-0.471,4.612,1.42,4.59,4.885c0,4.061-2.545,6.543-5.09,6.994
					c-1.295,0.229-2.545-0.034-3.34-1.23l-0.045,0.008l-0.137,1.592L324.789,230.683z M328.334,225.256
					c0,0.23,0.023,0.434,0.068,0.61c0.227,0.905,1.022,1.479,2.021,1.302c1.478-0.262,2.387-1.576,2.387-3.605
					c0-1.754-0.773-3.002-2.387-2.715c-0.932,0.164-1.795,1.033-2.021,2.088c-0.045,0.217-0.068,0.428-0.068,0.658V225.256z"/>
				<path fill="#FFFFFF" d="M338.021,228.224v-2.122l1.813-2.441c3.064-4.094,4.553-6.344,4.596-8.113
					c0-1.223-0.689-1.93-2.309-1.315c-1.208,0.459-2.266,1.507-2.999,2.385l-0.928-2.163c1.058-1.254,2.697-2.569,4.596-3.291
					c3.172-1.204,4.919,0.117,4.919,2.839c0,2.515-1.704,5.169-3.732,7.878l-1.295,1.645v0.047l5.287-2.008v2.884L338.021,228.224z"
					/>
				<path fill="#FFFFFF" d="M355.591,203.597l-1.819,4.632l0.018,0.054l2.678-3.245v2.331l-2.695,1.876l-0.018,0.085l1.837,1.12
					l-1.499,2.602l-0.961-2.678l-0.033,0.055l-0.977,4.468l-1.449,0.155l1.803-4.57v-0.046l-2.645,3.144v-2.33l2.611-1.729
					l0.016-0.061l-1.785-1.236l1.5-2.58l0.943,2.647l0.033-0.032l0.96-4.428L355.591,203.597z"/>
			</g>
		</g>
		<g>
			<path fill="#009245" stroke="#009245" stroke-miterlimit="10" d="M266.5,153.5v28h0.105c0.469,8,20.408,17.043,44.955,17.043
				c24.546,0,44.484-9.043,44.954-17.043H356.5v-28H266.5z"/>
			<ellipse fill="#00FF00" stroke="#FFFFFF" stroke-miterlimit="10" cx="311.561" cy="153.107" rx="44.977" ry="17.382"/>
			<g>
				<path fill="none" d="M356.538,174.567c0,9.6-20.138,17.382-44.978,17.382s-44.977-7.782-44.977-17.382"/>
				<path fill="#FFFFFF" d="M271.146,175.179c0-1.43-0.041-2.605-0.082-3.688l1.619,0.839l0.082,1.958l0.041,0.021
					c0.737-0.979,1.905-1.181,3.524-0.342c2.397,1.243,4.2,4.461,4.2,7.853c0,4.014-2.172,4.873-4.508,3.662
					c-1.312-0.68-2.459-1.92-3.053-3.336l-0.041-0.021v6.067l-1.783-0.924V175.179z M272.93,179.08c0,0.3,0.041,0.598,0.082,0.873
					c0.327,1.577,1.414,3.109,2.705,3.778c1.905,0.988,3.012-0.192,3.012-2.753c0-2.238-1.045-4.694-2.951-5.682
					c-1.229-0.637-2.377-0.24-2.725,1.102c-0.063,0.222-0.123,0.49-0.123,0.767V179.08z"/>
				<path fill="#FFFFFF" d="M289.07,189.657l-0.156-1.447l-0.066-0.017c-0.604,0.723-1.767,1.211-3.309,0.819
					c-2.191-0.558-3.309-2.435-3.309-4.049c0-2.699,2.324-3.584,6.505-2.497v-0.231c0-0.923-0.246-2.646-2.459-3.21
					c-1.006-0.256-2.057-0.201-2.817,0.114l-0.446-1.452c0.894-0.372,2.19-0.434,3.554-0.087c3.309,0.842,4.113,3.377,4.113,5.615
					v4.176c0,0.969,0.045,1.926,0.18,2.722L289.07,189.657z M288.779,183.884c-2.146-0.592-4.582-0.82-4.582,1.348
					c0,1.315,0.85,2.154,1.855,2.411c1.408,0.358,2.303-0.337,2.615-1.203c0.067-0.19,0.111-0.41,0.111-0.617V183.884z"/>
				<path fill="#FFFFFF" d="M293.932,182.902c0-1.315-0.023-2.449-0.092-3.497l1.76,0.25l0.068,2.202l0.092,0.013
					c0.502-1.428,1.713-2.202,3.061-2.01c0.229,0.032,0.389,0.078,0.57,0.15v1.915c-0.205-0.076-0.41-0.128-0.686-0.167
					c-1.416-0.202-2.42,0.74-2.695,2.224c-0.045,0.271-0.091,0.587-0.091,0.933v5.953l-1.987-0.283V182.902z"/>
				<path fill="#FFFFFF" d="M303.773,177.392c0.023,0.694-0.482,1.208-1.288,1.144c-0.714-0.056-1.22-0.65-1.22-1.342
					c0-0.715,0.529-1.228,1.266-1.169C303.291,176.085,303.773,176.677,303.773,177.392z M301.52,191.518v-11.166l2.024,0.16v11.166
					L301.52,191.518z"/>
				<path fill="#FFFFFF" d="M309.342,177.553v3.207l2.907,0.062v1.546l-2.907-0.062v6.021c0,1.384,0.393,2.177,1.523,2.201
					c0.53,0.012,0.922-0.049,1.176-0.113l0.093,1.524c-0.392,0.153-1.015,0.256-1.8,0.239c-0.945-0.021-1.707-0.337-2.191-0.9
					c-0.576-0.612-0.785-1.608-0.785-2.923v-6.091l-1.73-0.037v-1.546l1.73,0.037v-2.676L309.342,177.553z"/>
				<path fill="#FFFFFF" d="M315.475,180.757l2.443,6.453c0.253,0.723,0.529,1.583,0.713,2.242l0.047-0.003
					c0.207-0.682,0.438-1.549,0.715-2.373l2.211-6.684l2.143-0.128l-3.041,8.141c-1.451,3.916-2.442,5.937-3.824,7.219
					c-0.991,0.936-1.982,1.341-2.488,1.463l-0.508-1.677c0.508-0.191,1.176-0.554,1.774-1.098c0.554-0.472,1.244-1.297,1.705-2.362
					c0.093-0.213,0.161-0.379,0.161-0.494s-0.046-0.274-0.139-0.522l-4.123-10.044L315.475,180.757z"/>
				<path fill="#FFFFFF" d="M329.975,190.622c0.045-0.749,0.09-2.121,0.09-3.39v-13.012l3.41-0.826v6.437l0.045-0.011
					c0.65-1.126,1.795-2.026,3.319-2.396c2.624-0.636,4.554,1.135,4.531,4.601c0,4.061-2.513,6.699-5.024,7.308
					c-1.279,0.31-2.512,0.124-3.297-1.024l-0.045,0.011l-0.135,1.602L329.975,190.622z M333.475,184.975
					c0,0.231,0.022,0.433,0.066,0.607c0.225,0.892,1.01,1.417,1.997,1.178c1.458-0.354,2.354-1.724,2.354-3.754
					c0-1.753-0.762-2.953-2.354-2.567c-0.919,0.223-1.772,1.145-1.997,2.214c-0.044,0.218-0.066,0.432-0.066,0.662V184.975z"/>
				<path fill="#FFFFFF" d="M347.037,173.386l-0.041,0.022l-2.529,2.697l-0.511-2.361l3.509-3.699l2.57-1.357v14.996l-2.998,1.583
					V173.386z"/>
			</g>
		</g>
	</g>
	<g>
		<path fill="#999999" stroke="#999999" stroke-miterlimit="10" d="M386.5,153.5v173l0,0c0.521,9,23.033,18.938,50.308,18.938
			c27.273,0,49.171-9.938,49.692-18.938l0,0v-173H386.5z"/>
		<ellipse fill="#E6E6E6" stroke="#FFFFFF" stroke-miterlimit="10" cx="436.809" cy="153.038" rx="49.975" ry="19.313"/>
		<g>
			<path fill="none" d="M486.783,318.883c0,10.666-22.375,19.313-49.977,19.313c-27.6,0-49.973-8.646-49.973-19.313"/>
			<path fill="#FFFFFF" d="M420.315,324.404v10.533c0,0.773,0.018,1.659,0.071,2.262l-1.402-0.239l-0.07-1.524l-0.036-0.006
				c-0.479,0.891-1.526,1.449-2.929,1.209c-2.076-0.355-3.673-2.411-3.673-5.058c-0.018-2.901,1.757-4.381,3.851-4.022
				c1.313,0.225,2.201,1.006,2.592,1.775l0.035,0.006v-5.203L420.315,324.404z M418.754,331.753c0-0.198-0.018-0.472-0.071-0.679
				c-0.23-1.047-1.083-2.021-2.253-2.222c-1.615-0.276-2.574,1-2.574,2.927c0,1.764,0.852,3.369,2.538,3.657
				c1.047,0.179,2.005-0.359,2.289-1.499c0.054-0.207,0.071-0.42,0.071-0.672V331.753z"/>
			<path fill="#FFFFFF" d="M422.922,331.455c0-1.026-0.018-1.91-0.072-2.727l1.379,0.135l0.055,1.715l0.071,0.008
				c0.394-1.133,1.344-1.778,2.4-1.676c0.179,0.018,0.305,0.048,0.448,0.098v1.494c-0.162-0.051-0.322-0.085-0.537-0.105
				c-1.111-0.108-1.899,0.662-2.114,1.829c-0.036,0.212-0.071,0.461-0.071,0.731v4.645l-1.559-0.15V331.455z"/>
			<path fill="#FFFFFF" d="M430.634,326.889c0.019,0.541-0.378,0.951-1.007,0.917c-0.557-0.03-0.953-0.484-0.953-1.024
				c0-0.559,0.414-0.968,0.989-0.936C430.256,325.878,430.634,326.331,430.634,326.889z M428.872,337.955v-8.715l1.582,0.088v8.715
				L428.872,337.955z"/>
			<path fill="#FFFFFF" d="M433.679,329.463l1.71,4.908c0.289,0.793,0.522,1.516,0.703,2.236h0.053
				c0.199-0.719,0.451-1.438,0.738-2.229l1.693-4.887l1.656,0.01l-3.421,8.693l-1.513-0.008l-3.313-8.734L433.679,329.463z"/>
			<path fill="#FFFFFF" d="M442.418,334.027c0.036,2.141,1.4,2.939,2.981,2.843c1.132-0.069,1.813-0.31,2.407-0.597l0.269,1.117
				c-0.557,0.286-1.509,0.633-2.892,0.717c-2.676,0.164-4.273-1.503-4.273-4.131c0-2.629,1.544-4.795,4.076-4.949
				c2.838-0.174,3.592,2.283,3.592,3.885c0,0.324-0.035,0.579-0.054,0.742L442.418,334.027z M447.052,332.609
				c0.019-1.009-0.413-2.549-2.19-2.44c-1.6,0.099-2.299,1.617-2.426,2.724L447.052,332.609z"/>
			<path fill="#FFFFFF" d="M458.654,336.265v-3.187l-5.354,0.944v-1.044l5.141-8.38l1.686-0.297v7.274l1.613-0.285v1.242
				l-1.613,0.285v3.187L458.654,336.265z M458.654,331.836v-3.908c0-0.611,0.018-1.227,0.054-1.846l-0.054,0.01
				c-0.354,0.746-0.638,1.301-0.957,1.897l-2.818,4.477v0.036L458.654,331.836z"/>
		</g>
		<g>
			<path fill="#009245" stroke="#009245" stroke-miterlimit="10" d="M391.5,271.5v28h0.105c0.469,8,20.408,17.043,44.955,17.043
				c24.546,0,44.484-9.043,44.954-17.043H481.5v-28H391.5z"/>
			<ellipse fill="#00FF00" stroke="#FFFFFF" stroke-miterlimit="10" cx="436.561" cy="271.107" rx="44.977" ry="17.382"/>
			<g>
				<path fill="none" d="M481.538,292.567c0,9.6-20.138,17.382-44.978,17.382s-44.977-7.782-44.977-17.382"/>
				<path fill="#FFFFFF" d="M392.345,289.698c0-1.431-0.036-2.612-0.072-3.702l1.433,1.126l0.073,1.972l0.036,0.029
					c0.653-0.849,1.688-0.844,3.121,0.281c2.122,1.668,3.719,5.207,3.719,8.598c0,4.015-1.924,4.488-3.991,2.863
					c-1.161-0.912-2.177-2.355-2.704-3.877l-0.035-0.028v6.067l-1.579-1.24V289.698z M393.924,293.914
					c0,0.301,0.035,0.605,0.072,0.888c0.29,1.636,1.252,3.36,2.395,4.258c1.688,1.325,2.667,0.342,2.667-2.22
					c0-2.237-0.925-4.879-2.612-6.205c-1.089-0.854-2.104-0.66-2.413,0.619c-0.055,0.211-0.108,0.469-0.108,0.746V293.914z"/>
				<path fill="#FFFFFF" d="M409.162,306.397l-0.153-1.459l-0.065-0.022c-0.59,0.678-1.728,1.078-3.236,0.568
					c-2.143-0.725-3.236-2.686-3.236-4.301c0-2.699,2.274-3.407,6.363-2.003v-0.231c0-0.922-0.24-2.664-2.405-3.396
					c-0.983-0.333-2.012-0.356-2.755-0.101l-0.438-1.485c0.875-0.305,2.143-0.269,3.477,0.183c3.236,1.092,4.023,3.688,4.023,5.926
					v4.177c0,0.969,0.043,1.93,0.175,2.735L409.162,306.397z M408.877,300.603c-2.099-0.755-4.482-1.168-4.482,1.001
					c0,1.314,0.832,2.219,1.815,2.551c1.378,0.465,2.252-0.162,2.558-1.004c0.066-0.186,0.109-0.402,0.109-0.609V300.603z"/>
				<path fill="#FFFFFF" d="M413.945,299.938c0-1.314-0.021-2.449-0.09-3.502l1.742,0.348l0.068,2.205l0.09,0.018
					c0.498-1.4,1.697-2.107,3.033-1.842c0.226,0.045,0.385,0.1,0.564,0.182v1.914c-0.203-0.086-0.406-0.15-0.678-0.203
					c-1.403-0.279-2.398,0.606-2.671,2.075c-0.045,0.269-0.091,0.582-0.091,0.928v5.952l-1.969-0.391V299.938z"/>
				<path fill="#FFFFFF" d="M423.698,294.931c0.022,0.694-0.481,1.185-1.282,1.083c-0.709-0.091-1.213-0.709-1.213-1.4
					c0-0.716,0.526-1.202,1.259-1.109C423.217,293.601,423.698,294.215,423.698,294.931z M421.455,308.949v-11.166l2.014,0.256
					v11.166L421.455,308.949z"/>
				<path fill="#FFFFFF" d="M429.256,295.346v3.207l2.902,0.191v1.545l-2.902-0.189v6.021c0,1.384,0.393,2.193,1.52,2.268
					c0.53,0.035,0.922-0.009,1.175-0.061l0.093,1.528c-0.393,0.136-1.014,0.21-1.797,0.159c-0.943-0.063-1.703-0.412-2.188-0.998
					c-0.575-0.637-0.782-1.643-0.782-2.958v-6.091l-1.728-0.113v-1.545l1.728,0.113v-2.677L429.256,295.346z"/>
				<path fill="#FFFFFF" d="M435.396,298.813l2.445,6.56c0.254,0.734,0.531,1.606,0.715,2.273l0.047-0.002
					c0.207-0.672,0.438-1.529,0.715-2.341l2.215-6.587l2.146-0.035l-3.046,8.008c-1.454,3.854-2.446,5.83-3.829,7.052
					c-0.992,0.893-1.984,1.255-2.492,1.354l-0.508-1.699c0.508-0.169,1.177-0.503,1.776-1.02c0.554-0.447,1.246-1.243,1.708-2.289
					c0.092-0.209,0.16-0.371,0.16-0.486s-0.045-0.276-0.138-0.528l-4.13-10.225L435.396,298.813z"/>
				<path fill="#FFFFFF" d="M450.051,309.303c0.046-0.77,0.092-2.023,0.092-3.178v-13.219l2.794-0.496v6.691l0.046-0.009
					c0.682-1.205,1.886-2.134,3.544-2.428c2.704-0.479,4.636,1.462,4.612,4.881c0,4.037-2.521,6.491-5.021,6.935
					c-1.432,0.254-2.703-0.074-3.498-1.317l-0.046,0.008l-0.136,1.708L450.051,309.303z M452.937,304.153
					c0,0.231,0.022,0.458,0.068,0.657c0.296,1.078,1.272,1.759,2.477,1.545c1.749-0.311,2.817-1.93,2.817-4.191
					c0-1.983-0.932-3.434-2.795-3.104c-1.136,0.202-2.158,1.214-2.477,2.516c-0.045,0.216-0.091,0.479-0.091,0.755V304.153z"/>
				<path fill="#FFFFFF" d="M468.705,304.73v-3.576l-6.219,2.347v-2.284l5.312-11.141l4.017-1.516v8.791l1.684-0.637v2.631
					l-1.684,0.635v3.576L468.705,304.73z M468.705,298.524v-3.322c0-0.899,0.043-1.839,0.107-2.833l-0.086,0.033
					c-0.453,1.141-0.82,2.155-1.296,3.28l-1.878,3.985v0.046L468.705,298.524z"/>
				<path fill="#FFFFFF" d="M480.494,282.398l-1.836,4.614l0.018,0.054l2.703-3.219v2.331l-2.721,1.849l-0.017,0.085l1.853,1.138
					l-1.513,2.588l-0.969-2.688l-0.034,0.055l-0.986,4.457l-1.461,0.142l1.818-4.552v-0.047l-2.669,3.117v-2.33l2.635-1.701
					l0.017-0.063l-1.801-1.254l1.512-2.564l0.953,2.656l0.033-0.031l0.969-4.418L480.494,282.398z"/>
			</g>
		</g>
		<g>
		</g>
		<g>
			<path fill="#327DD8" stroke="#327DD8" stroke-miterlimit="10" d="M391.5,232.5v28h0.105c0.469,8,20.408,17.043,44.955,17.043
				c24.546,0,44.484-9.043,44.954-17.043H481.5v-28H391.5z"/>
			<ellipse fill="#4DC3F8" stroke="#FFFFFF" stroke-miterlimit="10" cx="436.561" cy="231.773" rx="44.977" ry="17.383"/>
			<g>
				<path fill="none" d="M481.538,253.234c0,9.6-20.138,17.381-44.978,17.381s-44.977-7.781-44.977-17.381"/>
				<path fill="#FFFFFF" d="M397.576,262.32c0.041-0.742,0.083-1.853,0.083-2.845v-13.497l1.824,0.84v7.014l0.042,0.02
					c0.65-0.945,1.824-1.213,3.459-0.459c2.516,1.158,4.299,4.287,4.277,7.669c0,3.991-2.285,4.923-4.55,3.88
					c-1.468-0.677-2.642-1.84-3.396-3.664l-0.063-0.029l-0.084,1.807L397.576,262.32z M399.483,258.725
					c0,0.253,0.042,0.526,0.084,0.776c0.356,1.571,1.425,3.032,2.767,3.651c1.93,0.889,3.082-0.311,3.082-2.871
					c0-2.238-1.048-4.637-3.019-5.545c-1.258-0.579-2.432-0.174-2.81,1.198c-0.041,0.212-0.104,0.459-0.104,0.782V258.725z"/>
				<path fill="#FFFFFF" d="M409.826,250.84l1.961,0.529v16.381l-1.961-0.529V250.84z"/>
				<path fill="#FFFFFF" d="M425.078,264.52c0,4.131-2.826,5.487-5.494,5.069c-2.986-0.468-5.289-3.043-5.289-6.573
					c0-3.737,2.417-5.551,5.472-5.072C422.936,258.439,425.078,261.105,425.078,264.52z M416.324,263.264
					c0,2.446,1.391,4.51,3.352,4.816c1.914,0.301,3.351-1.297,3.351-3.813c0-1.892-0.935-4.438-3.306-4.809
					S416.324,261.142,416.324,263.264z"/>
				<path fill="#FFFFFF" d="M435.623,270.283c-0.529,0.252-1.705,0.566-3.204,0.497c-3.366-0.156-5.557-2.542-5.557-5.956
					c0-3.438,2.353-5.82,5.995-5.652c1.199,0.057,2.26,0.405,2.813,0.707l-0.461,1.549c-0.484-0.3-1.245-0.589-2.352-0.641
					c-2.56-0.118-3.943,1.709-3.943,4.04c0,2.584,1.66,4.253,3.874,4.354c1.152,0.055,1.913-0.211,2.489-0.438L435.623,270.283z"/>
				<path fill="#FFFFFF" d="M440.008,264.533l0.047-0.003c0.276-0.404,0.668-0.906,0.991-1.313l3.274-3.999l2.443-0.107
					l-4.312,4.782l4.911,6.357l-2.467,0.109l-3.851-5.182l-1.038,1.2v4.198l-2.006,0.089v-16.381l2.006-0.088V264.533z"/>
				<path fill="#FFFFFF" d="M453.473,266.041c0.609,0.193,2.008,0.496,3.407,0.199c1.782-0.379,2.686-1.447,2.686-2.578
					c0-1.477-1.444-1.839-2.956-1.518l-1.399,0.297v-2.515l1.331-0.282c1.151-0.268,2.618-1.018,2.618-2.287
					c0-0.899-0.722-1.415-2.167-1.108c-1.195,0.254-2.459,1.053-3.068,1.552l-0.699-2.39c0.879-0.764,2.64-1.69,4.535-2.094
					c3.137-0.666,4.875,0.649,4.875,2.702c0,1.593-0.881,3.025-2.686,4.055v0.046c1.76-0.051,3.182,1.009,3.182,2.97
					c0,2.653-2.279,5.075-6.002,5.865c-1.896,0.402-3.498,0.236-4.356-0.137L453.473,266.041z"/>
				<path fill="#FFFFFF" d="M465.75,266.8c0.043-0.757,0.084-2.138,0.084-3.407v-13.012l3.194-1.449v6.437l0.042-0.019
					c0.609-1.246,1.681-2.355,3.109-3.004c2.459-1.115,4.266,0.303,4.244,3.772c0,4.061-2.354,7.159-4.706,8.228
					c-1.198,0.543-2.354,0.583-3.089-0.422l-0.042,0.02l-0.126,1.626L465.75,266.8z M469.028,260.514
					c0,0.23,0.021,0.428,0.063,0.594c0.209,0.851,0.945,1.232,1.869,0.813c1.366-0.62,2.207-2.155,2.207-4.186
					c0-1.754-0.715-2.813-2.207-2.137c-0.861,0.392-1.66,1.469-1.869,2.58c-0.043,0.227-0.063,0.443-0.063,0.674V260.514z"/>
			</g>
		</g>
		<g>
			<path fill="#327DD8" stroke="#327DD8" stroke-miterlimit="10" d="M391.5,192.5v28h0.105c0.469,8,20.408,17.043,44.955,17.043
				c24.546,0,44.484-9.043,44.954-17.043H481.5v-28H391.5z"/>
			<ellipse fill="#4DC3F8" stroke="#FFFFFF" stroke-miterlimit="10" cx="436.561" cy="192.441" rx="44.977" ry="17.381"/>
			<g>
				<path fill="none" d="M481.538,213.9c0,9.6-20.138,17.383-44.978,17.383s-44.977-7.783-44.977-17.383"/>
				<path fill="#FFFFFF" d="M397.576,222.988c0.041-0.742,0.083-1.854,0.083-2.846v-13.496l1.824,0.84v7.014l0.042,0.02
					c0.65-0.947,1.824-1.213,3.459-0.46c2.516,1.159,4.299,4.287,4.277,7.669c0,3.991-2.285,4.922-4.55,3.879
					c-1.468-0.676-2.642-1.84-3.396-3.664l-0.063-0.029l-0.084,1.808L397.576,222.988z M399.483,219.391
					c0,0.254,0.042,0.527,0.084,0.777c0.356,1.571,1.425,3.033,2.767,3.65c1.93,0.889,3.082-0.31,3.082-2.871
					c0-2.237-1.048-4.635-3.019-5.543c-1.258-0.58-2.432-0.175-2.81,1.197c-0.041,0.211-0.104,0.459-0.104,0.782V219.391z"/>
				<path fill="#FFFFFF" d="M409.826,211.507l1.961,0.529v16.38l-1.961-0.528V211.507z"/>
				<path fill="#FFFFFF" d="M425.078,225.188c0,4.129-2.826,5.486-5.494,5.068c-2.986-0.468-5.289-3.043-5.289-6.573
					c0-3.737,2.417-5.551,5.472-5.072C422.936,219.107,425.078,221.772,425.078,225.188z M416.324,223.932
					c0,2.445,1.391,4.509,3.352,4.816c1.914,0.299,3.351-1.299,3.351-3.813c0-1.893-0.935-4.438-3.306-4.81
					S416.324,221.809,416.324,223.932z"/>
				<path fill="#FFFFFF" d="M435.623,230.949c-0.529,0.253-1.705,0.567-3.204,0.498c-3.366-0.156-5.557-2.541-5.557-5.956
					c0-3.438,2.353-5.82,5.995-5.651c1.199,0.055,2.26,0.404,2.813,0.707l-0.461,1.547c-0.484-0.299-1.245-0.588-2.352-0.639
					c-2.56-0.119-3.943,1.709-3.943,4.039c0,2.584,1.66,4.252,3.874,4.355c1.152,0.053,1.913-0.211,2.489-0.438L435.623,230.949z"/>
				<path fill="#FFFFFF" d="M440.008,225.199l0.047-0.002c0.276-0.404,0.668-0.906,0.991-1.313l3.274-3.998l2.443-0.108
					l-4.312,4.782l4.911,6.357l-2.467,0.109l-3.851-5.182l-1.038,1.199v4.199l-2.006,0.089v-16.38l2.006-0.09V225.199z"/>
				<path fill="#FFFFFF" d="M452.863,230.274v-2.122l1.896-2.156c3.204-3.611,4.762-5.625,4.807-7.389
					c0-1.223-0.722-2.038-2.415-1.679c-1.264,0.269-2.369,1.149-3.137,1.911l-0.971-2.309c1.106-1.088,2.821-2.145,4.808-2.566
					c3.317-0.703,5.146,0.893,5.146,3.615c0,2.514-1.783,4.9-3.904,7.288l-1.354,1.441v0.046l5.529-1.174v2.884L452.863,230.274z"/>
				<path fill="#FFFFFF" d="M465.75,227.467c0.043-0.758,0.084-2.138,0.084-3.406v-13.013l3.194-1.45v6.438l0.042-0.02
					c0.609-1.245,1.681-2.354,3.109-3.003c2.459-1.116,4.266,0.302,4.244,3.772c0,4.061-2.354,7.158-4.706,8.227
					c-1.198,0.544-2.354,0.584-3.089-0.42l-0.042,0.019l-0.126,1.626L465.75,227.467z M469.028,221.18
					c0,0.23,0.021,0.43,0.063,0.595c0.209,0.851,0.945,1.231,1.869,0.813c1.366-0.62,2.207-2.155,2.207-4.186
					c0-1.753-0.715-2.813-2.207-2.136c-0.861,0.391-1.66,1.469-1.869,2.578c-0.043,0.228-0.063,0.444-0.063,0.676V221.18z"/>
			</g>
		</g>
		<g>
			<path fill="#009245" stroke="#009245" stroke-miterlimit="10" d="M391.5,153.5v28h0.105c0.469,8,20.408,17.043,44.955,17.043
				c24.546,0,44.484-9.043,44.954-17.043H481.5v-28H391.5z"/>
			<ellipse fill="#00FF00" stroke="#FFFFFF" stroke-miterlimit="10" cx="436.561" cy="153.107" rx="44.977" ry="17.382"/>
			<g>
				<path fill="none" d="M481.538,174.567c0,9.6-20.138,17.382-44.978,17.382s-44.977-7.782-44.977-17.382"/>
				<path fill="#FFFFFF" d="M392.247,171.575c0-1.431-0.036-2.613-0.071-3.703l1.424,1.137l0.072,1.973l0.036,0.029
					c0.649-0.843,1.678-0.831,3.103,0.306c2.109,1.684,3.697,5.234,3.697,8.625c0,4.014-1.912,4.473-3.968,2.833
					c-1.154-0.921-2.165-2.373-2.688-3.897l-0.036-0.029v6.067l-1.569-1.251V171.575z M393.816,175.803
					c0,0.3,0.036,0.605,0.072,0.888c0.289,1.637,1.244,3.369,2.381,4.275c1.678,1.338,2.65,0.362,2.65-2.199
					c0-2.238-0.92-4.887-2.597-6.225c-1.082-0.863-2.092-0.677-2.398,0.601c-0.054,0.21-0.108,0.467-0.108,0.744V175.803z"/>
				<path fill="#FFFFFF" d="M409.004,188.352l-0.152-1.459l-0.066-0.022c-0.59,0.676-1.725,1.073-3.23,0.56
					c-2.141-0.73-3.232-2.694-3.232-4.309c0-2.7,2.271-3.402,6.354-1.986v-0.231c0-0.923-0.24-2.666-2.401-3.403
					c-0.982-0.335-2.009-0.362-2.751-0.108l-0.438-1.487c0.874-0.302,2.141-0.263,3.473,0.191c3.231,1.103,4.018,3.701,4.018,5.938
					v4.176c0,0.969,0.043,1.93,0.175,2.736L409.004,188.352z M408.721,182.557c-2.097-0.761-4.477-1.18-4.477,0.988
					c0,1.315,0.83,2.221,1.813,2.556c1.375,0.469,2.248-0.156,2.555-0.998c0.064-0.186,0.109-0.401,0.109-0.609V182.557z"/>
				<path fill="#FFFFFF" d="M413.797,181.905c0-1.315-0.023-2.45-0.091-3.502l1.742,0.35l0.067,2.205l0.092,0.019
					c0.497-1.4,1.696-2.105,3.031-1.836c0.227,0.045,0.385,0.101,0.566,0.183v1.915c-0.204-0.087-0.408-0.151-0.68-0.206
					c-1.402-0.282-2.398,0.603-2.67,2.071c-0.045,0.268-0.09,0.582-0.09,0.928v5.952l-1.969-0.396V181.905z"/>
				<path fill="#FFFFFF" d="M423.552,176.913c0.022,0.695-0.481,1.184-1.282,1.081c-0.709-0.091-1.213-0.71-1.213-1.402
					c0-0.715,0.526-1.201,1.259-1.107C423.07,175.582,423.552,176.198,423.552,176.913z M421.309,190.928v-11.167l2.014,0.259
					v11.167L421.309,190.928z"/>
				<path fill="#FFFFFF" d="M429.118,177.338v3.207l2.901,0.194v1.545l-2.901-0.194v6.021c0,1.384,0.392,2.195,1.52,2.271
					c0.53,0.035,0.921-0.008,1.175-0.06l0.092,1.529c-0.392,0.135-1.014,0.209-1.796,0.156c-0.944-0.063-1.704-0.414-2.188-1
					c-0.575-0.638-0.782-1.644-0.782-2.959v-6.091l-1.728-0.115v-1.546l1.728,0.116v-2.676L429.118,177.338z"/>
				<path fill="#FFFFFF" d="M435.252,180.813l2.445,6.563c0.254,0.735,0.531,1.607,0.715,2.274l0.047-0.001
					c0.207-0.672,0.438-1.529,0.715-2.34l2.215-6.584l2.146-0.031l-3.046,8.004c-1.453,3.851-2.445,5.827-3.83,7.046
					c-0.991,0.892-1.983,1.252-2.49,1.352l-0.508-1.699c0.508-0.17,1.176-0.502,1.775-1.019c0.555-0.446,1.246-1.241,1.708-2.286
					c0.093-0.209,0.161-0.371,0.161-0.486s-0.046-0.276-0.139-0.529l-4.129-10.229L435.252,180.813z"/>
				<path fill="#FFFFFF" d="M449.789,191.35c0.046-0.747,0.092-2.116,0.092-3.385v-13.012l3.453-0.612v6.437l0.045-0.008
					c0.66-1.085,1.818-1.914,3.363-2.188c2.658-0.471,4.612,1.42,4.59,4.885c0,4.061-2.545,6.542-5.09,6.993
					c-1.295,0.229-2.545-0.034-3.34-1.23l-0.045,0.008l-0.137,1.593L449.789,191.35z M453.334,185.922
					c0,0.23,0.023,0.434,0.068,0.611c0.227,0.906,1.022,1.48,2.021,1.302c1.478-0.262,2.387-1.576,2.387-3.606
					c0-1.753-0.773-3.001-2.387-2.715c-0.932,0.165-1.795,1.033-2.021,2.089c-0.045,0.216-0.068,0.427-0.068,0.658V185.922z"/>
				<path fill="#FFFFFF" d="M467.207,175.419l-0.043,0.016l-2.675,2.377l-0.54-2.425l3.711-3.255l2.719-1.033v14.997l-3.172,1.205
					V175.419z"/>
				<path fill="#FFFFFF" d="M480.591,164.263l-1.819,4.632l0.018,0.053l2.678-3.245v2.331l-2.695,1.876l-0.018,0.085l1.837,1.12
					l-1.499,2.603l-0.961-2.678l-0.033,0.055l-0.977,4.467l-1.449,0.156l1.803-4.57v-0.046l-2.645,3.144v-2.331l2.611-1.728
					l0.016-0.062l-1.785-1.236l1.5-2.58l0.943,2.647l0.033-0.032l0.96-4.428L480.591,164.263z"/>
			</g>
		</g>
	</g>
	<g>
		<path fill="#FFFFFF" d="M419.431,371.752c0-0.64-0.021-1.189-0.04-1.64h1.319l0.069,0.68h0.021c0.36-0.52,0.919-0.789,1.629-0.789
			c1.069,0,2.028,0.93,2.028,2.488c0,1.779-1.129,2.619-2.219,2.619c-0.589,0-1.049-0.24-1.269-0.561h-0.021v2.429h-1.519V371.752z
			 M420.949,372.901c0,0.12,0.01,0.229,0.03,0.319c0.101,0.41,0.45,0.72,0.89,0.72c0.66,0,1.049-0.55,1.049-1.379
			c0-0.779-0.35-1.369-1.029-1.369c-0.43,0-0.809,0.319-0.909,0.77c-0.021,0.08-0.03,0.18-0.03,0.27V372.901z"/>
		<path fill="#FFFFFF" d="M425.41,371.722c0-0.72-0.02-1.189-0.039-1.609h1.309l0.05,0.899h0.04c0.25-0.709,0.85-1.009,1.319-1.009
			c0.14,0,0.21,0,0.319,0.02v1.43c-0.109-0.021-0.239-0.04-0.409-0.04c-0.56,0-0.939,0.3-1.04,0.77c-0.02,0.1-0.029,0.22-0.029,0.34
			V375h-1.52V371.722z"/>
		<path fill="#FFFFFF" d="M430.299,373.041c0.051,0.63,0.67,0.93,1.38,0.93c0.52,0,0.939-0.07,1.349-0.2l0.201,1.029
			c-0.5,0.2-1.109,0.3-1.77,0.3c-1.659,0-2.609-0.959-2.609-2.488c0-1.239,0.771-2.608,2.469-2.608c1.58,0,2.18,1.229,2.18,2.438
			c0,0.26-0.03,0.489-0.051,0.6H430.299z M432.088,372.002c0-0.37-0.159-0.99-0.859-0.99c-0.639,0-0.898,0.58-0.939,0.99H432.088z"
			/>
		<path fill="#FFFFFF" d="M434.41,371.752c0-0.64-0.02-1.189-0.039-1.64h1.318l0.07,0.68h0.02c0.36-0.52,0.92-0.789,1.629-0.789
			c1.07,0,2.029,0.93,2.029,2.488c0,1.779-1.129,2.619-2.219,2.619c-0.59,0-1.049-0.24-1.27-0.561h-0.02v2.429h-1.52V371.752z
			 M435.93,372.901c0,0.12,0.01,0.229,0.029,0.319c0.101,0.41,0.45,0.72,0.891,0.72c0.659,0,1.049-0.55,1.049-1.379
			c0-0.779-0.35-1.369-1.029-1.369c-0.43,0-0.81,0.319-0.91,0.77c-0.02,0.08-0.029,0.18-0.029,0.27V372.901z"/>
		<path fill="#FFFFFF" d="M440.391,371.722c0-0.72-0.02-1.189-0.04-1.609h1.31l0.049,0.899h0.041c0.25-0.709,0.85-1.009,1.318-1.009
			c0.141,0,0.211,0,0.32,0.02v1.43c-0.109-0.021-0.24-0.04-0.41-0.04c-0.559,0-0.939,0.3-1.039,0.77
			c-0.02,0.1-0.029,0.22-0.029,0.34V375h-1.52V371.722z"/>
		<path fill="#FFFFFF" d="M445.279,373.041c0.051,0.63,0.67,0.93,1.379,0.93c0.521,0,0.939-0.07,1.35-0.2l0.2,1.029
			c-0.5,0.2-1.109,0.3-1.769,0.3c-1.66,0-2.609-0.959-2.609-2.488c0-1.239,0.77-2.608,2.469-2.608c1.579,0,2.179,1.229,2.179,2.438
			c0,0.26-0.03,0.489-0.05,0.6H445.279z M447.068,372.002c0-0.37-0.16-0.99-0.859-0.99c-0.64,0-0.899,0.58-0.939,0.99H447.068z"/>
		<path fill="#FFFFFF" d="M449.38,373.671c0.28,0.17,0.859,0.37,1.31,0.37c0.459,0,0.649-0.16,0.649-0.41s-0.149-0.37-0.72-0.56
			c-1.01-0.34-1.398-0.89-1.389-1.47c0-0.909,0.779-1.599,1.988-1.599c0.57,0,1.08,0.13,1.379,0.279l-0.27,1.05
			c-0.22-0.12-0.64-0.28-1.059-0.28c-0.371,0-0.58,0.15-0.58,0.4c0,0.229,0.189,0.35,0.789,0.56c0.93,0.319,1.319,0.789,1.33,1.509
			c0,0.91-0.721,1.579-2.119,1.579c-0.64,0-1.209-0.14-1.58-0.34L449.38,373.671z"/>
		<path fill="#FFFFFF" d="M453.721,373.671c0.279,0.17,0.859,0.37,1.309,0.37c0.46,0,0.65-0.16,0.65-0.41s-0.15-0.37-0.721-0.56
			c-1.009-0.34-1.398-0.89-1.389-1.47c0-0.909,0.779-1.599,1.988-1.599c0.57,0,1.08,0.13,1.38,0.279l-0.271,1.05
			c-0.219-0.12-0.639-0.28-1.059-0.28c-0.37,0-0.58,0.15-0.58,0.4c0,0.229,0.189,0.35,0.79,0.56
			c0.929,0.319,1.319,0.789,1.329,1.509c0,0.91-0.72,1.579-2.119,1.579c-0.639,0-1.209-0.14-1.579-0.34L453.721,373.671z"/>
		<path fill="#FFFFFF" d="M462.678,373.431c0,0.64,0.02,1.159,0.04,1.569h-1.319l-0.07-0.689h-0.029c-0.19,0.3-0.65,0.8-1.529,0.8
			c-0.99,0-1.719-0.62-1.719-2.129v-2.869h1.528v2.629c0,0.71,0.229,1.14,0.76,1.14c0.42,0,0.659-0.29,0.76-0.53
			c0.04-0.09,0.05-0.21,0.05-0.329v-2.909h1.529V373.431z"/>
		<path fill="#FFFFFF" d="M463.9,371.722c0-0.72-0.021-1.189-0.041-1.609h1.31l0.05,0.899h0.04c0.25-0.709,0.85-1.009,1.319-1.009
			c0.141,0,0.21,0,0.32,0.02v1.43c-0.11-0.021-0.24-0.04-0.41-0.04c-0.56,0-0.939,0.3-1.039,0.77c-0.021,0.1-0.03,0.22-0.03,0.34
			V375H463.9V371.722z"/>
		<path fill="#FFFFFF" d="M468.789,373.041c0.051,0.63,0.67,0.93,1.379,0.93c0.521,0,0.939-0.07,1.35-0.2l0.2,1.029
			c-0.5,0.2-1.109,0.3-1.769,0.3c-1.66,0-2.609-0.959-2.609-2.488c0-1.239,0.77-2.608,2.469-2.608c1.579,0,2.179,1.229,2.179,2.438
			c0,0.26-0.03,0.489-0.05,0.6H468.789z M470.578,372.002c0-0.37-0.16-0.99-0.859-0.99c-0.64,0-0.899,0.58-0.939,0.99H470.578z"/>
		<path fill="#FFFFFF" d="M472.63,374.19c0-0.54,0.37-0.93,0.899-0.93s0.89,0.38,0.89,0.93c0,0.529-0.36,0.92-0.899,0.92
			C473,375.11,472.63,374.72,472.63,374.19z"/>
		<path fill="#FFFFFF" d="M479.008,374.88c-0.27,0.12-0.779,0.22-1.359,0.22c-1.578,0-2.588-0.959-2.588-2.498
			c0-1.43,0.979-2.599,2.799-2.599c0.398,0,0.839,0.069,1.158,0.189l-0.239,1.13c-0.181-0.08-0.45-0.15-0.85-0.15
			c-0.8,0-1.319,0.57-1.31,1.369c0,0.899,0.6,1.369,1.34,1.369c0.359,0,0.639-0.06,0.869-0.149L479.008,374.88z"/>
		<path fill="#FFFFFF" d="M484.567,372.501c0,1.789-1.27,2.609-2.579,2.609c-1.429,0-2.528-0.939-2.528-2.519
			c0-1.58,1.04-2.589,2.608-2.589C483.568,370.003,484.567,371.032,484.567,372.501z M481.029,372.552c0,0.839,0.35,1.469,1,1.469
			c0.59,0,0.969-0.59,0.969-1.469c0-0.73-0.279-1.47-0.969-1.47C481.299,371.082,481.029,371.832,481.029,372.552z"/>
		<path fill="#FFFFFF" d="M485.51,371.672c0-0.609-0.02-1.13-0.039-1.56h1.279l0.069,0.66h0.03c0.209-0.31,0.639-0.77,1.479-0.77
			c0.63,0,1.13,0.319,1.34,0.829h0.02c0.18-0.25,0.4-0.449,0.63-0.59c0.271-0.159,0.569-0.239,0.93-0.239
			c0.939,0,1.649,0.659,1.649,2.118V375h-1.479v-2.658c0-0.71-0.229-1.12-0.72-1.12c-0.35,0-0.6,0.24-0.699,0.53
			c-0.041,0.109-0.061,0.27-0.061,0.39V375h-1.479v-2.738c0-0.62-0.221-1.04-0.7-1.04c-0.39,0-0.62,0.3-0.71,0.55
			c-0.05,0.12-0.06,0.26-0.06,0.38V375h-1.479V371.672z"/>
	</g>
	
		<polyline fill="none" stroke="#4D4D4D" stroke-width="5" stroke-linecap="round" stroke-linejoin="round" stroke-miterlimit="10" points="
		61.5,154 61.5,115.5 436.5,115.5 436.5,153 	"/>
	
		<line fill="none" stroke="#4D4D4D" stroke-width="5" stroke-linecap="round" stroke-linejoin="round" stroke-miterlimit="10" x1="187.5" y1="154" x2="187.5" y2="116"/>
	
		<line fill="none" stroke="#4D4D4D" stroke-width="5" stroke-linecap="round" stroke-linejoin="round" stroke-miterlimit="10" x1="310.5" y1="154" x2="310.5" y2="116"/>
</g>
<g>
</g>
<g>
</g>
<g>
</g>
<g>
</g>
<g>
</g>
<g>
</g>
<g>
</g>
<g>
</g>
<g>
</g>
<g>
</g>
<g>
</g>
<g>
</g>
<g>
</g>
<g>
</g>
<g>
</g>
</svg>
