<svg xmlns="http://www.w3.org/2000/svg" viewBox="0 0 512 206.29"><defs><style>.a,.d,.g{fill:#fff;}.a{stroke:#326ce5;stroke-miterlimit:10;stroke-width:0.67px;}.b{fill:#161a1d;}.c{fill:#326ce5;}.e{fill:#2f383f;}.f{fill:ivory;fill-opacity:0;stroke:#fff;stroke-linejoin:round;stroke-dashoffset:5.62px;stroke-width:0.89px;stroke-dasharray:2.67 2.67;}.g{fill-rule:evenodd;}</style></defs><rect class="a" x="18.94" y="61.59" width="443.54" height="144.37"/><path class="b" d="M59.74,229.7H58.29l-2.41-3.48-.75.61v2.87H53.88V222h1.25v3.67c.35-.43.69-.83,1-1.22L58.24,222h1.43l-2.89,3.37Z" transform="translate(-8.97 -153.07)"/><path class="b" d="M64.73,229.7l-.18-.76h-.06a1.76,1.76,0,0,1-.73.64,2.53,2.53,0,0,1-1.09.23,2.11,2.11,0,0,1-1.57-.53,2.16,2.16,0,0,1-.52-1.59v-3.8h1.24v3.58a1.55,1.55,0,0,0,.27,1,1,1,0,0,0,.86.34,1.35,1.35,0,0,0,1.14-.47,2.52,2.52,0,0,0,.37-1.56v-2.89H65.7v5.81Z" transform="translate(-8.97 -153.07)"/><path class="b" d="M70.43,223.78a2,2,0,0,1,1.7.79,4.38,4.38,0,0,1,0,4.44,2,2,0,0,1-1.71.8,2,2,0,0,1-1.71-.8h-.09l-.22.69h-.93v-8.18H68.7v1.95c0,.14,0,.35,0,.64s0,.46,0,.54h.06A2,2,0,0,1,70.43,223.78Zm-.32,1a1.25,1.25,0,0,0-1.07.44,2.48,2.48,0,0,0-.34,1.47v.08a2.77,2.77,0,0,0,.33,1.54,1.25,1.25,0,0,0,1.1.48,1.14,1.14,0,0,0,1-.52,2.84,2.84,0,0,0,.34-1.51C71.47,225.45,71,224.79,70.11,224.79Z" transform="translate(-8.97 -153.07)"/><path class="b" d="M76.71,229.81a2.83,2.83,0,0,1-2.12-.79,3,3,0,0,1-.77-2.18,3.31,3.31,0,0,1,.71-2.24,2.45,2.45,0,0,1,2-.82,2.41,2.41,0,0,1,1.82.7,2.67,2.67,0,0,1,.67,1.93v.66H75.1a1.89,1.89,0,0,0,.45,1.3,1.58,1.58,0,0,0,1.22.46,4.22,4.22,0,0,0,1-.1,4.83,4.83,0,0,0,1-.32v1a3.63,3.63,0,0,1-.91.31A5.67,5.67,0,0,1,76.71,229.81Zm-.23-5.09a1.24,1.24,0,0,0-.94.37,1.73,1.73,0,0,0-.42,1.09h2.63a1.6,1.6,0,0,0-.34-1.09A1.18,1.18,0,0,0,76.48,224.72Z" transform="translate(-8.97 -153.07)"/><path class="b" d="M83.32,223.78a3.44,3.44,0,0,1,.62.05L83.82,225a2,2,0,0,0-.55-.07,1.57,1.57,0,0,0-1.2.49,1.72,1.72,0,0,0-.46,1.25v3H80.37v-5.81h1l.16,1h.07a2.2,2.2,0,0,1,.75-.82A1.74,1.74,0,0,1,83.32,223.78Z" transform="translate(-8.97 -153.07)"/><path class="b" d="M90.13,229.7H88.89v-3.57a1.58,1.58,0,0,0-.27-1,1.05,1.05,0,0,0-.86-.33,1.4,1.4,0,0,0-1.15.46,2.58,2.58,0,0,0-.36,1.55v2.9H85v-5.81h1l.18.76h.06A1.63,1.63,0,0,1,87,224a2.5,2.5,0,0,1,1.07-.23,1.87,1.87,0,0,1,2.09,2.13Z" transform="translate(-8.97 -153.07)"/><path class="b" d="M94.39,229.81a2.83,2.83,0,0,1-2.12-.79,3,3,0,0,1-.77-2.18,3.31,3.31,0,0,1,.71-2.24,2.44,2.44,0,0,1,2-.82,2.41,2.41,0,0,1,1.82.7,2.67,2.67,0,0,1,.67,1.93v.66H92.77a1.89,1.89,0,0,0,.46,1.3,1.58,1.58,0,0,0,1.22.46,4.22,4.22,0,0,0,1-.1,4.83,4.83,0,0,0,1-.32v1a3.57,3.57,0,0,1-.92.31A5.48,5.48,0,0,1,94.39,229.81Zm-.23-5.09a1.24,1.24,0,0,0-.94.37,1.73,1.73,0,0,0-.42,1.09h2.63a1.6,1.6,0,0,0-.34-1.09A1.2,1.2,0,0,0,94.16,224.72Z" transform="translate(-8.97 -153.07)"/><path class="b" d="M100.22,228.81a3.13,3.13,0,0,0,.9-.14v.93a2.29,2.29,0,0,1-.53.15,3.63,3.63,0,0,1-.67.06c-1.17,0-1.75-.62-1.75-1.85v-3.14h-.8v-.54l.86-.46.42-1.23h.76v1.3h1.65v.93H99.41v3.12a.85.85,0,0,0,.22.65A.8.8,0,0,0,100.22,228.81Z" transform="translate(-8.97 -153.07)"/><path class="b" d="M104.82,229.81a2.84,2.84,0,0,1-2.12-.79,3,3,0,0,1-.76-2.18,3.26,3.26,0,0,1,.71-2.24,2.72,2.72,0,0,1,3.77-.12,2.71,2.71,0,0,1,.66,1.93v.66h-3.87a1.89,1.89,0,0,0,.46,1.3,1.55,1.55,0,0,0,1.21.46,4.22,4.22,0,0,0,1-.1,4.62,4.62,0,0,0,1-.32v1a3.5,3.5,0,0,1-.91.31A5.59,5.59,0,0,1,104.82,229.81Zm-.22-5.09a1.24,1.24,0,0,0-.95.37,1.85,1.85,0,0,0-.42,1.09h2.64a1.6,1.6,0,0,0-.35-1.09A1.16,1.16,0,0,0,104.6,224.72Z" transform="translate(-8.97 -153.07)"/><path class="b" d="M112.39,228.05a1.5,1.5,0,0,1-.62,1.3,3,3,0,0,1-1.77.46,4.12,4.12,0,0,1-1.87-.36v-1.06a4.65,4.65,0,0,0,1.91.47q1.14,0,1.14-.69a.52.52,0,0,0-.13-.37,1.49,1.49,0,0,0-.41-.3,6.06,6.06,0,0,0-.81-.36,3.75,3.75,0,0,1-1.36-.78,1.46,1.46,0,0,1-.35-1,1.34,1.34,0,0,1,.6-1.16,2.9,2.9,0,0,1,1.64-.41,4.61,4.61,0,0,1,1.94.42l-.4.93a4.34,4.34,0,0,0-1.58-.39c-.65,0-1,.18-1,.56a.56.56,0,0,0,.25.46,5.83,5.83,0,0,0,1.12.52,4.33,4.33,0,0,1,1,.51,1.53,1.53,0,0,1,.49.53A1.61,1.61,0,0,1,112.39,228.05Z" transform="translate(-8.97 -153.07)"/><path class="b" d="M121.42,229.7l-.76-2.13h-2.94L117,229.7h-1.33l2.88-7.72h1.36l2.88,7.72Zm-1.09-3.22-.72-2.09c-.06-.14-.13-.36-.22-.66a6.6,6.6,0,0,1-.19-.66,13.38,13.38,0,0,1-.42,1.41l-.69,2Z" transform="translate(-8.97 -153.07)"/><path class="b" d="M128.86,224.34a2.23,2.23,0,0,1-.78,1.84,3.49,3.49,0,0,1-2.25.65H125v2.87h-1.26V222H126a3.37,3.37,0,0,1,2.16.58A2.16,2.16,0,0,1,128.86,224.34ZM125,225.77h.67a2.36,2.36,0,0,0,1.42-.34,1.21,1.21,0,0,0,.45-1.05,1.2,1.2,0,0,0-.4-1,2.06,2.06,0,0,0-1.27-.32H125Z" transform="translate(-8.97 -153.07)"/><path class="b" d="M130.4,229.7V222h1.25v7.68Z" transform="translate(-8.97 -153.07)"/><path class="b" d="M140.91,227.61a1.91,1.91,0,0,1-.74,1.61,3.2,3.2,0,0,1-2,.59,4.92,4.92,0,0,1-2.14-.41v-1.19a5.11,5.11,0,0,0,1.12.39,4.42,4.42,0,0,0,1.1.14,1.73,1.73,0,0,0,1.1-.28.92.92,0,0,0,.36-.76,1,1,0,0,0-.33-.73,5,5,0,0,0-1.34-.71,3.65,3.65,0,0,1-1.49-1,2.13,2.13,0,0,1-.43-1.32,1.85,1.85,0,0,1,.68-1.51,2.84,2.84,0,0,1,1.84-.55,5.43,5.43,0,0,1,2.2.48l-.4,1a5,5,0,0,0-1.83-.43,1.39,1.39,0,0,0-.93.27.87.87,0,0,0-.31.7,1,1,0,0,0,.12.51,1.35,1.35,0,0,0,.42.4,6,6,0,0,0,1,.5,6.1,6.1,0,0,1,1.24.66,1.88,1.88,0,0,1,.58.69A2.13,2.13,0,0,1,140.91,227.61Z" transform="translate(-8.97 -153.07)"/><path class="b" d="M144.81,229.81a2.83,2.83,0,0,1-2.12-.79,3,3,0,0,1-.77-2.18,3.31,3.31,0,0,1,.71-2.24,2.72,2.72,0,0,1,3.77-.12,2.67,2.67,0,0,1,.67,1.93v.66h-3.88a1.89,1.89,0,0,0,.46,1.3,1.58,1.58,0,0,0,1.22.46,4.22,4.22,0,0,0,1-.1,4.83,4.83,0,0,0,.95-.32v1a3.57,3.57,0,0,1-.92.31A5.48,5.48,0,0,1,144.81,229.81Zm-.23-5.09a1.24,1.24,0,0,0-.94.37,1.73,1.73,0,0,0-.42,1.09h2.63a1.6,1.6,0,0,0-.34-1.09A1.2,1.2,0,0,0,144.58,224.72Z" transform="translate(-8.97 -153.07)"/><path class="b" d="M151.42,223.78a3.44,3.44,0,0,1,.62.05l-.12,1.16a2,2,0,0,0-.55-.07,1.54,1.54,0,0,0-1.2.49,1.72,1.72,0,0,0-.46,1.25v3h-1.24v-5.81h1l.16,1h.07a2.2,2.2,0,0,1,.75-.82A1.74,1.74,0,0,1,151.42,223.78Z" transform="translate(-8.97 -153.07)"/><path class="b" d="M154.44,229.7l-2.21-5.81h1.3l1.19,3.38a7.35,7.35,0,0,1,.37,1.37h0a8.3,8.3,0,0,1,.37-1.37l1.18-3.38H158l-2.22,5.81Z" transform="translate(-8.97 -153.07)"/><path class="b" d="M161.42,229.81a2.85,2.85,0,0,1-2.13-.79,3,3,0,0,1-.76-2.18,3.31,3.31,0,0,1,.71-2.24,2.72,2.72,0,0,1,3.77-.12,2.71,2.71,0,0,1,.67,1.93v.66H159.8a1.89,1.89,0,0,0,.46,1.3,1.57,1.57,0,0,0,1.21.46,4.1,4.1,0,0,0,1-.1,4.7,4.7,0,0,0,1-.32v1a3.7,3.7,0,0,1-.92.31A5.55,5.55,0,0,1,161.42,229.81Zm-.23-5.09a1.22,1.22,0,0,0-.94.37,1.79,1.79,0,0,0-.43,1.09h2.64a1.6,1.6,0,0,0-.35-1.09A1.16,1.16,0,0,0,161.19,224.72Z" transform="translate(-8.97 -153.07)"/><path class="b" d="M168,223.78a3.32,3.32,0,0,1,.61.05l-.12,1.16a1.9,1.9,0,0,0-.54-.07,1.58,1.58,0,0,0-1.21.49,1.77,1.77,0,0,0-.46,1.25v3h-1.23v-5.81h1l.16,1h.06a2.23,2.23,0,0,1,.76-.82A1.74,1.74,0,0,1,168,223.78Z" transform="translate(-8.97 -153.07)"/><rect class="c" x="18.94" y="61.59" width="21.53" height="21.53"/><path class="d" d="M44.9,224.49H43.84v-2.82a1.41,1.41,0,0,0-1.41-1.41H39.61V219.2a1.76,1.76,0,0,0-3.52,0v1.06H33.27a1.4,1.4,0,0,0-1.4,1.41v2.68h1.05a1.9,1.9,0,0,1,0,3.8H31.86v2.68a1.41,1.41,0,0,0,1.41,1.41H36v-1.06a1.9,1.9,0,0,1,3.8,0v1.06h2.68a1.41,1.41,0,0,0,1.41-1.41V228H44.9a1.76,1.76,0,1,0,0-3.52Z" transform="translate(-8.97 -153.07)"/><rect class="a" x="178.45" y="83.12" width="262.5" height="101.31"/><path class="b" d="M218.16,251.23l-.77-2.13h-2.94l-.75,2.13h-1.33l2.88-7.71h1.36l2.88,7.71Zm-1.1-3.21-.72-2.1c-.06-.14-.13-.36-.22-.66s-.16-.52-.19-.66a13.38,13.38,0,0,1-.42,1.41l-.69,2Z" transform="translate(-8.97 -153.07)"/><path class="b" d="M222.33,251.34a2,2,0,0,1-1.69-.79,3.52,3.52,0,0,1-.61-2.21,3.56,3.56,0,0,1,.61-2.23,2.08,2.08,0,0,1,1.72-.8,2,2,0,0,1,1.74.85h.06a7.44,7.44,0,0,1-.09-1v-2.12h1.25v8.18h-1l-.22-.76h-.06A2,2,0,0,1,222.33,251.34Zm.34-1a1.36,1.36,0,0,0,1.11-.43,2.21,2.21,0,0,0,.35-1.39v-.17a2.64,2.64,0,0,0-.35-1.56,1.34,1.34,0,0,0-1.12-.47,1.15,1.15,0,0,0-1,.53,2.76,2.76,0,0,0-.35,1.51,2.62,2.62,0,0,0,.34,1.47A1.16,1.16,0,0,0,222.67,250.34Z" transform="translate(-8.97 -153.07)"/><path class="b" d="M232,251.23h-1.24v-3.58a1.62,1.62,0,0,0-.25-1,.93.93,0,0,0-.79-.33,1.2,1.2,0,0,0-1,.47,2.74,2.74,0,0,0-.33,1.55v2.89h-1.24v-5.81h1l.17.76h.07a1.56,1.56,0,0,1,.7-.64,2.24,2.24,0,0,1,1-.23,1.79,1.79,0,0,1,1.78.92h.08a1.7,1.7,0,0,1,.73-.67,2.17,2.17,0,0,1,1.07-.25,1.94,1.94,0,0,1,1.51.53,2.3,2.3,0,0,1,.48,1.6v3.79h-1.23v-3.58a1.62,1.62,0,0,0-.26-1,.93.93,0,0,0-.79-.33,1.25,1.25,0,0,0-1.06.45,2.34,2.34,0,0,0-.33,1.38Z" transform="translate(-8.97 -153.07)"/><path class="b" d="M237.3,243.88a.69.69,0,0,1,.18-.51.71.71,0,0,1,.52-.18.63.63,0,0,1,.69.69.7.7,0,0,1-.18.5.69.69,0,0,1-.51.18.71.71,0,0,1-.52-.18A.7.7,0,0,1,237.3,243.88Zm1.31,7.35h-1.23v-5.81h1.23Z" transform="translate(-8.97 -153.07)"/><path class="b" d="M244.28,249.58a1.49,1.49,0,0,1-.62,1.3,2.89,2.89,0,0,1-1.77.46A4.27,4.27,0,0,1,240,251v-1.07a4.65,4.65,0,0,0,1.91.47q1.14,0,1.14-.69a.5.5,0,0,0-.13-.36,1.49,1.49,0,0,0-.41-.31c-.2-.1-.46-.22-.81-.36a3.92,3.92,0,0,1-1.36-.77,1.48,1.48,0,0,1-.35-1,1.32,1.32,0,0,1,.6-1.16,2.82,2.82,0,0,1,1.64-.42,4.61,4.61,0,0,1,1.94.42l-.4.93a4.34,4.34,0,0,0-1.58-.39c-.66,0-1,.19-1,.56a.56.56,0,0,0,.25.46,5.36,5.36,0,0,0,1.11.52,5.71,5.71,0,0,1,1,.51,1.49,1.49,0,0,1,.48.53A1.54,1.54,0,0,1,244.28,249.58Z" transform="translate(-8.97 -153.07)"/><path class="b" d="M249.52,249.58a1.49,1.49,0,0,1-.62,1.3,2.89,2.89,0,0,1-1.77.46,4.27,4.27,0,0,1-1.87-.35v-1.07a4.65,4.65,0,0,0,1.91.47q1.14,0,1.14-.69a.5.5,0,0,0-.13-.36,1.49,1.49,0,0,0-.41-.31c-.2-.1-.46-.22-.81-.36a3.92,3.92,0,0,1-1.36-.77,1.48,1.48,0,0,1-.35-1,1.32,1.32,0,0,1,.6-1.16,2.82,2.82,0,0,1,1.64-.42,4.61,4.61,0,0,1,1.94.42l-.4.93a4.34,4.34,0,0,0-1.58-.39c-.66,0-1,.19-1,.56a.56.56,0,0,0,.25.46,5.26,5.26,0,0,0,1.12.52,5.25,5.25,0,0,1,1,.51,1.63,1.63,0,0,1,.49.53A1.67,1.67,0,0,1,249.52,249.58Z" transform="translate(-8.97 -153.07)"/><path class="b" d="M250.79,243.88a.69.69,0,1,1,1.38,0,.7.7,0,0,1-.18.5.81.81,0,0,1-1,0A.7.7,0,0,1,250.79,243.88Zm1.3,7.35h-1.23v-5.81h1.23Z" transform="translate(-8.97 -153.07)"/><path class="b" d="M259,248.32a3.19,3.19,0,0,1-.73,2.22,2.64,2.64,0,0,1-2,.8,2.76,2.76,0,0,1-1.44-.37,2.42,2.42,0,0,1-1-1.06,3.65,3.65,0,0,1-.34-1.59,3.17,3.17,0,0,1,.73-2.21,2.61,2.61,0,0,1,2-.8,2.54,2.54,0,0,1,2,.82A3.14,3.14,0,0,1,259,248.32Zm-4.23,0c0,1.34.49,2,1.48,2s1.48-.67,1.48-2-.5-2-1.49-2a1.26,1.26,0,0,0-1.12.52A2.55,2.55,0,0,0,254.79,248.32Z" transform="translate(-8.97 -153.07)"/><path class="b" d="M265.55,251.23h-1.24v-3.57a1.6,1.6,0,0,0-.27-1,1.05,1.05,0,0,0-.86-.33,1.35,1.35,0,0,0-1.14.47,2.46,2.46,0,0,0-.37,1.55v2.89h-1.23v-5.81h1l.18.76h.06a1.69,1.69,0,0,1,.75-.64,2.5,2.5,0,0,1,1.07-.23,1.87,1.87,0,0,1,2.09,2.13Z" transform="translate(-8.97 -153.07)"/><path class="b" d="M273.47,244.52a2.06,2.06,0,0,0-1.7.76,3.25,3.25,0,0,0-.62,2.12,3.29,3.29,0,0,0,.59,2.14,2.14,2.14,0,0,0,1.73.73,5,5,0,0,0,.95-.1c.3-.07.62-.15.95-.25V251a6,6,0,0,1-2.05.34,3.3,3.3,0,0,1-2.6-1,4.32,4.32,0,0,1-.9-2.93,4.77,4.77,0,0,1,.44-2.1,3.07,3.07,0,0,1,1.27-1.37,3.81,3.81,0,0,1,2-.48,4.87,4.87,0,0,1,2.18.49l-.46,1a6.68,6.68,0,0,0-.82-.33A3,3,0,0,0,273.47,244.52Z" transform="translate(-8.97 -153.07)"/><path class="b" d="M282.05,248.32a3.15,3.15,0,0,1-.73,2.22,2.64,2.64,0,0,1-2,.8,2.76,2.76,0,0,1-1.44-.37,2.48,2.48,0,0,1-1-1.06,3.65,3.65,0,0,1-.34-1.59,3.17,3.17,0,0,1,.73-2.21,2.64,2.64,0,0,1,2.05-.8,2.52,2.52,0,0,1,2,.82A3.14,3.14,0,0,1,282.05,248.32Zm-4.23,0c0,1.34.49,2,1.48,2s1.48-.67,1.48-2-.5-2-1.49-2a1.27,1.27,0,0,0-1.12.52A2.55,2.55,0,0,0,277.82,248.32Z" transform="translate(-8.97 -153.07)"/><path class="b" d="M288.58,251.23h-1.24v-3.57a1.6,1.6,0,0,0-.27-1,1.05,1.05,0,0,0-.86-.33,1.35,1.35,0,0,0-1.14.47,2.46,2.46,0,0,0-.37,1.55v2.89h-1.23v-5.81h1l.17.76h.06a1.74,1.74,0,0,1,.75-.64,2.5,2.5,0,0,1,1.07-.23,1.86,1.86,0,0,1,2.09,2.13Z" transform="translate(-8.97 -153.07)"/><path class="b" d="M292.47,250.34a3.13,3.13,0,0,0,.9-.14v.93a2.29,2.29,0,0,1-.53.15,3.55,3.55,0,0,1-.67.06c-1.17,0-1.75-.62-1.75-1.85v-3.14h-.8v-.54l.86-.45.42-1.23h.76v1.29h1.65v.93h-1.65v3.12a.88.88,0,0,0,.22.66A.84.84,0,0,0,292.47,250.34Z" transform="translate(-8.97 -153.07)"/><path class="b" d="M297.48,245.31a2.65,2.65,0,0,1,.62.06l-.12,1.15a2.51,2.51,0,0,0-.55-.07,1.6,1.6,0,0,0-1.2.49,1.72,1.72,0,0,0-.46,1.25v3h-1.24v-5.81h1l.16,1h.07a2.28,2.28,0,0,1,.75-.82A1.81,1.81,0,0,1,297.48,245.31Z" transform="translate(-8.97 -153.07)"/><path class="b" d="M304.33,248.32a3.15,3.15,0,0,1-.73,2.22,2.61,2.61,0,0,1-2,.8,2.71,2.71,0,0,1-1.44-.37,2.36,2.36,0,0,1-1-1.06,3.51,3.51,0,0,1-.34-1.59,3.16,3.16,0,0,1,.72-2.21,2.65,2.65,0,0,1,2.05-.8,2.54,2.54,0,0,1,2,.82A3.13,3.13,0,0,1,304.33,248.32Zm-4.23,0c0,1.34.5,2,1.49,2s1.47-.67,1.47-2-.49-2-1.48-2a1.27,1.27,0,0,0-1.13.52A2.63,2.63,0,0,0,300.1,248.32Z" transform="translate(-8.97 -153.07)"/><path class="b" d="M307,251.23h-1.24v-8.18H307Z" transform="translate(-8.97 -153.07)"/><rect class="c" x="178.45" y="83.12" width="21.53" height="21.53"/><path class="d" d="M198.16,239.46c-.2,0-5.89,2.8-6,2.94-.18.34-1.47,6.32-1.4,6.45s1,1.26,2.08,2.63l2,2.49h6.56l2.09-2.6,2.08-2.61-.73-3.2c-.4-1.76-.76-3.23-.8-3.27s-5.78-2.82-5.9-2.83Zm.35,2.93c.28,0,.31.43.9.48.77,0,.68-.66,1.27-.16s-.13.53.06,1.28.83.45.54,1.17-.55,0-1.2.44-.17.94-.94.88-.21-.51-.8-1-1,.13-1.13-.62.42-.35.72-1.07-.42-.86.24-1.26a1.08,1.08,0,0,1,.21-.11l.13,0Zm.77.85a.93.93,0,0,0-.33,0,1.16,1.16,0,1,0,.33,0Zm-4.42,1.92a.64.64,0,0,1,.22,0c.71.22,0,.59.5,1.13s.93-.15,1.09.57-.52.29-.73,1,.59.73.05,1.23-.51-.3-1.23-.14-.33.88-1,.66,0-.59-.5-1.13-.92.15-1.09-.57.52-.29.73-1-.59-.72-.05-1.23.51.3,1.23.14.41-.71.82-.7Zm5.27.77a.69.69,0,0,1,.25.06c.82.32-.26.81.38,1.41s1.07-.49,1.42.31-.75.39-.73,1.27,1.11.41.79,1.22-.81-.25-1.41.38.49,1.07-.31,1.43-.39-.76-1.26-.74-.42,1.11-1.23.79.26-.81-.38-1.41-1.07.49-1.42-.31.75-.39.73-1.26-1.11-.42-.79-1.23.81.26,1.41-.38-.49-1.07.31-1.42.39.75,1.26.73.51-.85,1-.85Zm-5.73.38a1.12,1.12,0,1,0,1.12,1.12A1.12,1.12,0,0,0,194.4,246.31Zm4.8,1.07a1.65,1.65,0,1,0,1.65,1.64A1.65,1.65,0,0,0,199.2,247.38Z" transform="translate(-8.97 -153.07)"/><path class="c" d="M506.07,269.84a2.18,2.18,0,0,0-.71.18l-9.75,4.66a1.89,1.89,0,0,0-1,1.26l-2.41,10.46a1.83,1.83,0,0,0,.26,1.42l.1.15,6.75,8.39a1.87,1.87,0,0,0,1.46.69h10.82a1.86,1.86,0,0,0,1.46-.69l6.75-8.4a1.86,1.86,0,0,0,.36-1.56l-2.41-10.47a1.87,1.87,0,0,0-1-1.25L507,270A2,2,0,0,0,506.07,269.84Z" transform="translate(-8.97 -153.07)"/><path class="d" d="M506.07,269.08a2,2,0,0,0-.76.2L495,274.19a2,2,0,0,0-1.06,1.33l-2.54,11.05a1.91,1.91,0,0,0,.26,1.49l.12.16,7.12,8.86a2,2,0,0,0,1.54.73h11.42a2,2,0,0,0,1.54-.73l7.12-8.86a1.92,1.92,0,0,0,.38-1.66l-2.54-11a2,2,0,0,0-1.06-1.33L507,269.28A1.94,1.94,0,0,0,506.07,269.08Zm0,.76a2,2,0,0,1,.91.18l9.75,4.66a1.87,1.87,0,0,1,1,1.25l2.41,10.47a1.86,1.86,0,0,1-.36,1.56l-6.75,8.4a1.86,1.86,0,0,1-1.46.69H500.76a1.87,1.87,0,0,1-1.46-.69L492.55,288a1.3,1.3,0,0,1-.1-.15,1.83,1.83,0,0,1-.26-1.42l2.41-10.46a1.89,1.89,0,0,1,1-1.26l9.75-4.66a2.12,2.12,0,0,1,.71-.18Z" transform="translate(-8.97 -153.07)"/><path class="d" d="M506.14,274.46c-.23,0-6.56,3.1-6.64,3.26-.2.38-1.64,7-1.56,7.17s1.09,1.4,2.31,2.93l2.22,2.77h7.29l2.32-2.9,2.32-2.9-.81-3.56c-.45-2-.85-3.59-.89-3.63s-6.44-3.14-6.56-3.14Z" transform="translate(-8.97 -153.07)"/><path class="c" d="M513,283.42h-.21a2.71,2.71,0,0,1-1.16-.27,10.31,10.31,0,0,0,.15-2.07,11,11,0,0,0-1.33-1.58,2.6,2.6,0,0,1,.94-1l.17-.11-.13-.15a7.21,7.21,0,0,0-2.46-1.8l-.19-.08-.05.2a2.54,2.54,0,0,1-.67,1.21,11.12,11.12,0,0,0-1.92-.8,11.22,11.22,0,0,0-1.93.8,2.66,2.66,0,0,1-.66-1.21l0-.2-.19.08a7.15,7.15,0,0,0-2.46,1.8l-.13.15.17.11a2.58,2.58,0,0,1,.94,1,11.1,11.1,0,0,0-1.34,1.58,11.28,11.28,0,0,0,.16,2.08,2.6,2.6,0,0,1-1.16.27h-.41l0,.2a7.18,7.18,0,0,0,.94,2.9l.11.17.15-.13a2.67,2.67,0,0,1,1.26-.59,10.78,10.78,0,0,0,1.07,1.75,10.57,10.57,0,0,0,2,.5,2.57,2.57,0,0,1-.17,1.39l-.07.19.2,0a7.15,7.15,0,0,0,1.52.17l1.52-.17.2,0-.08-.19a2.77,2.77,0,0,1-.17-1.39,10.57,10.57,0,0,0,2-.5,11.59,11.59,0,0,0,1.08-1.75,2.66,2.66,0,0,1,1.26.59l.15.13.1-.17a7,7,0,0,0,.95-2.9l0-.2Zm-4.68,2.48a8.38,8.38,0,0,1-4.37,0,8.88,8.88,0,0,1-.93-2,8.59,8.59,0,0,1-.39-2.16,8,8,0,0,1,1.58-1.5,8.2,8.2,0,0,1,1.93-1,8.34,8.34,0,0,1,1.92,1,8.1,8.1,0,0,1,1.59,1.51,8.17,8.17,0,0,1-.4,2.15A8.46,8.46,0,0,1,508.29,285.9Zm-1.59-3.48a.92.92,0,1,0,.92-.92.93.93,0,0,0-.92.92Zm-1.19,0a.92.92,0,1,1-.92-.92.93.93,0,0,1,.92.92Z" transform="translate(-8.97 -153.07)"/><path class="e" d="M500.31,309a2.12,2.12,0,0,1-1.59-.59,2.29,2.29,0,0,1-.57-1.64,2.45,2.45,0,0,1,.53-1.68,2,2,0,0,1,2.82-.09,2,2,0,0,1,.5,1.45v.5h-2.9a1.42,1.42,0,0,0,.34,1,1.2,1.2,0,0,0,.91.35,3.24,3.24,0,0,0,.72-.08,4.33,4.33,0,0,0,.72-.24v.75a2.67,2.67,0,0,1-.69.23A3.74,3.74,0,0,1,500.31,309Zm-.17-3.82a1,1,0,0,0-.71.28,1.31,1.31,0,0,0-.31.82h2a1.19,1.19,0,0,0-.26-.82A.86.86,0,0,0,500.14,305.22Z" transform="translate(-8.97 -153.07)"/><path class="e" d="M504.68,308.29a2.3,2.3,0,0,0,.68-.11v.7a1.5,1.5,0,0,1-.4.11,2.73,2.73,0,0,1-.5.05c-.88,0-1.32-.46-1.32-1.39V305.3h-.59v-.41l.64-.34.31-.92h.58v1h1.24v.7h-1.24v2.33a.67.67,0,0,0,.16.5A.6.6,0,0,0,504.68,308.29Z" transform="translate(-8.97 -153.07)"/><path class="e" d="M508,309a1.88,1.88,0,0,1-1.5-.58,2.38,2.38,0,0,1-.52-1.66,2.43,2.43,0,0,1,.54-1.69,2,2,0,0,1,1.56-.59,2.93,2.93,0,0,1,1.24.26l-.28.74a2.89,2.89,0,0,0-1-.23c-.76,0-1.13.5-1.13,1.5a1.82,1.82,0,0,0,.28,1.11,1,1,0,0,0,.82.37,2.38,2.38,0,0,0,1.17-.31v.81a2.25,2.25,0,0,1-.53.21A3.23,3.23,0,0,1,508,309Z" transform="translate(-8.97 -153.07)"/><path class="e" d="M511.7,309a1.52,1.52,0,0,1-1.27-.59,3.24,3.24,0,0,1,0-3.33,1.54,1.54,0,0,1,1.29-.6,1.5,1.5,0,0,1,1.31.64h0a6.29,6.29,0,0,1-.06-.75v-1.58h.93V309h-.73l-.16-.57h0A1.5,1.5,0,0,1,511.7,309Zm.25-.75a1,1,0,0,0,.83-.32,1.75,1.75,0,0,0,.27-1v-.14a2,2,0,0,0-.27-1.17,1,1,0,0,0-.84-.34.85.85,0,0,0-.75.39,2,2,0,0,0-.27,1.13,2,2,0,0,0,.26,1.11A.88.88,0,0,0,512,308.29Z" transform="translate(-8.97 -153.07)"/><path class="e" d="M301.11,190.64v2.3h-.94v-5.76h1.63a2.67,2.67,0,0,1,1.65.42,1.5,1.5,0,0,1,.54,1.26,1.57,1.57,0,0,1-1.12,1.53l1.63,2.55h-1.08l-1.38-2.3Zm0-.78h.66a1.49,1.49,0,0,0,1-.24.9.9,0,0,0,.3-.73.78.78,0,0,0-.32-.7,1.75,1.75,0,0,0-1-.21h-.63Z" transform="translate(-8.97 -153.07)"/><path class="e" d="M307.14,193a2.12,2.12,0,0,1-1.59-.59,2.28,2.28,0,0,1-.58-1.64,2.46,2.46,0,0,1,.54-1.68,1.85,1.85,0,0,1,1.46-.61,1.79,1.79,0,0,1,1.36.53,2,2,0,0,1,.5,1.44v.5h-2.9a1.4,1.4,0,0,0,.34,1,1.19,1.19,0,0,0,.91.34,4,4,0,0,0,.72-.07,3.65,3.65,0,0,0,.72-.25v.76a3.73,3.73,0,0,1-.69.23A4.7,4.7,0,0,1,307.14,193Zm-.17-3.81a.92.92,0,0,0-.71.28,1.31,1.31,0,0,0-.32.81h2a1.19,1.19,0,0,0-.26-.82A.9.9,0,0,0,307,189.21Z" transform="translate(-8.97 -153.07)"/><path class="e" d="M312.82,191.7a1.14,1.14,0,0,1-.47,1A2.2,2.2,0,0,1,311,193a3.24,3.24,0,0,1-1.4-.26V192a3.52,3.52,0,0,0,1.43.35c.57,0,.85-.17.85-.51a.43.43,0,0,0-.09-.28,1.24,1.24,0,0,0-.31-.23,6.25,6.25,0,0,0-.6-.27,2.67,2.67,0,0,1-1-.58,1.07,1.07,0,0,1-.27-.76,1,1,0,0,1,.45-.87,2.19,2.19,0,0,1,1.23-.31,3.41,3.41,0,0,1,1.45.32l-.29.69a3.39,3.39,0,0,0-1.19-.29c-.49,0-.74.14-.74.42a.43.43,0,0,0,.2.35,4.42,4.42,0,0,0,.83.39,3.52,3.52,0,0,1,.78.38,1.16,1.16,0,0,1,.37.4A1.13,1.13,0,0,1,312.82,191.7Z" transform="translate(-8.97 -153.07)"/><path class="e" d="M317.68,190.76a2.39,2.39,0,0,1-.54,1.66,2,2,0,0,1-1.53.6,2.11,2.11,0,0,1-1.08-.27,1.87,1.87,0,0,1-.72-.8,2.64,2.64,0,0,1-.25-1.19,2.39,2.39,0,0,1,.54-1.66,2.2,2.2,0,0,1,3,0A2.37,2.37,0,0,1,317.68,190.76Zm-3.17,0c0,1,.37,1.51,1.12,1.51s1.1-.51,1.1-1.51-.37-1.5-1.11-1.5a1,1,0,0,0-.85.39A2,2,0,0,0,314.51,190.76Z" transform="translate(-8.97 -153.07)"/><path class="e" d="M321.82,192.94l-.13-.57h0a1.43,1.43,0,0,1-.55.48,1.94,1.94,0,0,1-.82.17,1.6,1.6,0,0,1-1.18-.39,1.63,1.63,0,0,1-.39-1.2v-2.85h.93v2.69a1.12,1.12,0,0,0,.21.75.77.77,0,0,0,.64.25,1,1,0,0,0,.86-.35,1.92,1.92,0,0,0,.27-1.16v-2.18h.93v4.36Z" transform="translate(-8.97 -153.07)"/><path class="e" d="M326.09,188.5a2.81,2.81,0,0,1,.46,0l-.09.87a1.84,1.84,0,0,0-.41,0,1.19,1.19,0,0,0-.9.36,1.32,1.32,0,0,0-.35.94v2.28h-.92v-4.36h.72l.12.77h0a1.71,1.71,0,0,1,.57-.62A1.35,1.35,0,0,1,326.09,188.5Z" transform="translate(-8.97 -153.07)"/><path class="e" d="M329.12,193a1.9,1.9,0,0,1-1.51-.58,2.4,2.4,0,0,1-.51-1.65,2.44,2.44,0,0,1,.53-1.69,2,2,0,0,1,1.56-.6,2.93,2.93,0,0,1,1.24.26l-.28.75a2.62,2.62,0,0,0-1-.23c-.75,0-1.13.5-1.13,1.5a1.77,1.77,0,0,0,.28,1.1,1,1,0,0,0,.83.37,2.33,2.33,0,0,0,1.17-.31v.81a1.73,1.73,0,0,1-.53.21A3.37,3.37,0,0,1,329.12,193Z" transform="translate(-8.97 -153.07)"/><path class="e" d="M333.26,193a2.12,2.12,0,0,1-1.59-.59,2.28,2.28,0,0,1-.58-1.64,2.46,2.46,0,0,1,.54-1.68,1.85,1.85,0,0,1,1.46-.61,1.79,1.79,0,0,1,1.36.53,2,2,0,0,1,.5,1.44v.5h-2.9a1.4,1.4,0,0,0,.34,1,1.19,1.19,0,0,0,.91.34,4,4,0,0,0,.72-.07,3.65,3.65,0,0,0,.72-.25v.76a3.73,3.73,0,0,1-.69.23A4.7,4.7,0,0,1,333.26,193Zm-.17-3.81a.92.92,0,0,0-.71.28,1.31,1.31,0,0,0-.32.81h2a1.19,1.19,0,0,0-.26-.82A.9.9,0,0,0,333.09,189.21Z" transform="translate(-8.97 -153.07)"/><path class="e" d="M294.75,202.7l-1.67-4.81h0q.06,1.06.06,2v2.8h-.85v-5.76h1.33l1.6,4.58h0l1.65-4.58h1.33v5.76h-.9v-2.85c0-.29,0-.66,0-1.12s0-.74,0-.84h0l-1.73,4.81Z" transform="translate(-8.97 -153.07)"/><path class="e" d="M302.34,202.7l-.19-.61h0a1.83,1.83,0,0,1-.63.55,2.12,2.12,0,0,1-.82.14,1.38,1.38,0,0,1-1-.35,1.27,1.27,0,0,1-.37-1,1.17,1.17,0,0,1,.5-1,2.91,2.91,0,0,1,1.53-.37l.75,0v-.23a.87.87,0,0,0-.19-.62.79.79,0,0,0-.61-.21,2,2,0,0,0-.64.1,4.24,4.24,0,0,0-.59.23l-.3-.66a3.28,3.28,0,0,1,.78-.28,3.23,3.23,0,0,1,.79-.1,1.89,1.89,0,0,1,1.26.36,1.45,1.45,0,0,1,.42,1.14v2.94Zm-1.38-.63a1.13,1.13,0,0,0,.81-.28,1,1,0,0,0,.31-.79v-.38l-.56,0a2,2,0,0,0-1,.22.68.68,0,0,0-.29.6.57.57,0,0,0,.17.45A.74.74,0,0,0,301,202.07Z" transform="translate(-8.97 -153.07)"/><path class="e" d="M308.13,202.7h-.93V200a1.18,1.18,0,0,0-.2-.75.78.78,0,0,0-.65-.25,1,1,0,0,0-.86.34,2,2,0,0,0-.27,1.17v2.17h-.93v-4.36H305l.13.57h.05a1.26,1.26,0,0,1,.56-.48,1.91,1.91,0,0,1,.8-.17,1.4,1.4,0,0,1,1.57,1.6Z" transform="translate(-8.97 -153.07)"/><path class="e" d="M312.15,202.7l-.19-.61h0a1.83,1.83,0,0,1-.63.55,2.16,2.16,0,0,1-.82.14,1.41,1.41,0,0,1-1-.35,1.3,1.3,0,0,1-.36-1,1.17,1.17,0,0,1,.5-1,2.91,2.91,0,0,1,1.53-.37l.75,0v-.23a.87.87,0,0,0-.19-.62.79.79,0,0,0-.61-.21,2,2,0,0,0-.64.1,4.24,4.24,0,0,0-.59.23l-.3-.66a3.13,3.13,0,0,1,.78-.28,3.23,3.23,0,0,1,.79-.1,1.89,1.89,0,0,1,1.26.36,1.45,1.45,0,0,1,.42,1.14v2.94Zm-1.38-.63a1.13,1.13,0,0,0,.81-.28,1,1,0,0,0,.31-.79v-.38l-.56,0a2,2,0,0,0-1,.22.66.66,0,0,0-.29.6.57.57,0,0,0,.17.45A.74.74,0,0,0,310.77,202.07Z" transform="translate(-8.97 -153.07)"/><path class="e" d="M317.79,198.34v.51L317,199a1,1,0,0,1,.17.34,1.16,1.16,0,0,1,.07.42,1.31,1.31,0,0,1-.47,1.06,1.92,1.92,0,0,1-1.28.39,2.25,2.25,0,0,1-.38,0,.51.51,0,0,0-.3.43.24.24,0,0,0,.14.22,1.1,1.1,0,0,0,.52.08h.76a1.68,1.68,0,0,1,1.1.31,1.07,1.07,0,0,1,.37.88,1.29,1.29,0,0,1-.61,1.15,3.22,3.22,0,0,1-1.77.4,2.46,2.46,0,0,1-1.36-.32,1,1,0,0,1-.47-.89,1,1,0,0,1,.26-.68,1.35,1.35,0,0,1,.71-.38.7.7,0,0,1-.31-.26.6.6,0,0,1-.12-.36.66.66,0,0,1,.14-.42,1.63,1.63,0,0,1,.41-.33,1.27,1.27,0,0,1-.55-.48,1.55,1.55,0,0,1,.24-1.87,1.87,1.87,0,0,1,1.27-.39l.39,0a1.53,1.53,0,0,1,.31.05Zm-3.43,5a.51.51,0,0,0,.27.46,1.46,1.46,0,0,0,.76.16,2.26,2.26,0,0,0,1.13-.22.65.65,0,0,0,.37-.57.45.45,0,0,0-.2-.41,1.67,1.67,0,0,0-.76-.12h-.7a1,1,0,0,0-.63.19A.63.63,0,0,0,314.36,203.38Zm.4-3.63a.89.89,0,0,0,.21.63.79.79,0,0,0,.61.22c.53,0,.8-.28.8-.86a1,1,0,0,0-.2-.65.72.72,0,0,0-.6-.23.77.77,0,0,0-.61.22A1,1,0,0,0,314.76,199.75Z" transform="translate(-8.97 -153.07)"/><path class="e" d="M320.5,202.78a2.12,2.12,0,0,1-1.59-.59,2.27,2.27,0,0,1-.57-1.64,2.45,2.45,0,0,1,.53-1.68,2,2,0,0,1,2.83-.08,2,2,0,0,1,.5,1.44v.5h-2.91a1.42,1.42,0,0,0,.34,1,1.2,1.2,0,0,0,.91.35,3.24,3.24,0,0,0,.72-.08,4,4,0,0,0,.72-.24v.75a2.67,2.67,0,0,1-.69.23A3.74,3.74,0,0,1,320.5,202.78Zm-.17-3.82a1,1,0,0,0-.71.28,1.37,1.37,0,0,0-.31.82h2a1.24,1.24,0,0,0-.27-.82A.9.9,0,0,0,320.33,199Z" transform="translate(-8.97 -153.07)"/><path class="e" d="M326.92,202.7H326V200a1.22,1.22,0,0,0-.19-.75.69.69,0,0,0-.59-.24.89.89,0,0,0-.79.35,2.1,2.1,0,0,0-.25,1.16v2.17h-.92v-4.36H324l.13.57h0a1.18,1.18,0,0,1,.53-.48,1.73,1.73,0,0,1,.76-.17,1.32,1.32,0,0,1,1.33.69h.06a1.29,1.29,0,0,1,.55-.51,1.71,1.71,0,0,1,.8-.18,1.48,1.48,0,0,1,1.14.39,1.77,1.77,0,0,1,.35,1.21v2.84h-.92V200a1.29,1.29,0,0,0-.19-.75.73.73,0,0,0-.6-.24.93.93,0,0,0-.79.33,1.81,1.81,0,0,0-.25,1Z" transform="translate(-8.97 -153.07)"/><path class="e" d="M332.87,202.78a2.12,2.12,0,0,1-1.59-.59,2.27,2.27,0,0,1-.57-1.64,2.45,2.45,0,0,1,.53-1.68,2,2,0,0,1,2.83-.08,2,2,0,0,1,.5,1.44v.5h-2.91a1.42,1.42,0,0,0,.34,1,1.21,1.21,0,0,0,.92.35,3.38,3.38,0,0,0,.72-.08,4,4,0,0,0,.71-.24v.75a2.6,2.6,0,0,1-.68.23A3.91,3.91,0,0,1,332.87,202.78ZM332.7,199a.93.93,0,0,0-.7.28,1.31,1.31,0,0,0-.32.82h2a1.24,1.24,0,0,0-.26-.82A.92.92,0,0,0,332.7,199Z" transform="translate(-8.97 -153.07)"/><path class="e" d="M339.46,202.7h-.93V200a1.12,1.12,0,0,0-.21-.75.76.76,0,0,0-.64-.25,1,1,0,0,0-.86.34,2,2,0,0,0-.27,1.17v2.17h-.93v-4.36h.73l.13.57h0a1.26,1.26,0,0,1,.56-.48,2,2,0,0,1,.81-.17,1.4,1.4,0,0,1,1.57,1.6Z" transform="translate(-8.97 -153.07)"/><path class="e" d="M342.37,202a2.3,2.3,0,0,0,.68-.11v.7a1.62,1.62,0,0,1-.4.11,2.73,2.73,0,0,1-.5.05c-.88,0-1.32-.46-1.32-1.39V199h-.59v-.41l.64-.34.31-.92h.57v1H343v.7h-1.25v2.34a.66.66,0,0,0,.17.49A.6.6,0,0,0,342.37,202Z" transform="translate(-8.97 -153.07)"/><path class="c" d="M317.28,153.83a1.82,1.82,0,0,0-.72.18l-9.75,4.66a1.81,1.81,0,0,0-1,1.25l-2.41,10.46a1.87,1.87,0,0,0,.25,1.42l.11.15,6.75,8.39a1.87,1.87,0,0,0,1.46.7h10.82a1.87,1.87,0,0,0,1.46-.69L331,172a1.82,1.82,0,0,0,.36-1.57l-2.41-10.46a1.85,1.85,0,0,0-1-1.26L318.18,154A1.76,1.76,0,0,0,317.28,153.83Z" transform="translate(-8.97 -153.07)"/><path class="d" d="M317.27,153.07a2,2,0,0,0-.75.19l-10.29,4.92a2,2,0,0,0-1.07,1.32l-2.54,11.05a2,2,0,0,0,.27,1.5l.11.15,7.13,8.86a2,2,0,0,0,1.54.73h11.42a2,2,0,0,0,1.54-.73l7.12-8.86a2,2,0,0,0,.38-1.65l-2.54-11.05a1.93,1.93,0,0,0-1.07-1.32l-10.29-4.92A2,2,0,0,0,317.27,153.07Zm0,.76a1.76,1.76,0,0,1,.9.18l9.76,4.65a1.85,1.85,0,0,1,1,1.26l2.41,10.46A1.82,1.82,0,0,1,331,172l-6.74,8.39a1.84,1.84,0,0,1-1.46.69H312a1.87,1.87,0,0,1-1.46-.7L303.76,172l-.11-.15a1.85,1.85,0,0,1-.25-1.41l2.41-10.47a1.81,1.81,0,0,1,1-1.25l9.75-4.66a1.82,1.82,0,0,1,.72-.18Z" transform="translate(-8.97 -153.07)"/><rect class="f" x="300.65" y="8.39" width="15.52" height="11.95"/><rect class="d" x="300.19" y="11.76" width="9.3" height="9.02"/><path class="e" d="M403.77,196.26a1.44,1.44,0,0,1-.56,1.2,2.42,2.42,0,0,1-1.53.44,3.65,3.65,0,0,1-1.6-.3v-.89a4.52,4.52,0,0,0,.83.29,3.61,3.61,0,0,0,.83.1,1.3,1.3,0,0,0,.82-.21.68.68,0,0,0,.27-.57.72.72,0,0,0-.24-.55,3.66,3.66,0,0,0-1-.53,2.71,2.71,0,0,1-1.12-.73,1.57,1.57,0,0,1-.32-1,1.37,1.37,0,0,1,.51-1.13A2.14,2.14,0,0,1,402,192a4.11,4.11,0,0,1,1.65.37l-.3.77a3.53,3.53,0,0,0-1.37-.33,1.08,1.08,0,0,0-.7.2.67.67,0,0,0-.23.53.74.74,0,0,0,.09.38.89.89,0,0,0,.31.3,5.7,5.7,0,0,0,.78.38,3.83,3.83,0,0,1,.93.49,1.43,1.43,0,0,1,.44.52A1.59,1.59,0,0,1,403.77,196.26Z" transform="translate(-8.97 -153.07)"/><path class="e" d="M406.69,197.9a2.12,2.12,0,0,1-1.59-.59,2.24,2.24,0,0,1-.58-1.64,2.51,2.51,0,0,1,.53-1.68,1.89,1.89,0,0,1,1.47-.61,1.79,1.79,0,0,1,1.36.53,2,2,0,0,1,.5,1.44v.5h-2.9a1.42,1.42,0,0,0,.34,1,1.23,1.23,0,0,0,.91.34,3.24,3.24,0,0,0,.72-.08,3.57,3.57,0,0,0,.72-.24v.75a2.67,2.67,0,0,1-.69.23A3.81,3.81,0,0,1,406.69,197.9Zm-.17-3.82a1,1,0,0,0-.71.28,1.37,1.37,0,0,0-.32.82h2a1.19,1.19,0,0,0-.26-.82A.91.91,0,0,0,406.52,194.08Z" transform="translate(-8.97 -153.07)"/><path class="e" d="M411.19,197.9a1.88,1.88,0,0,1-1.5-.58,2.91,2.91,0,0,1,0-3.35,2,2,0,0,1,1.56-.59,2.93,2.93,0,0,1,1.24.26l-.28.74a2.84,2.84,0,0,0-1-.23c-.75,0-1.13.51-1.13,1.51a1.79,1.79,0,0,0,.28,1.1,1,1,0,0,0,.83.37,2.44,2.44,0,0,0,1.17-.31v.81a2,2,0,0,1-.53.21A3.4,3.4,0,0,1,411.19,197.9Z" transform="translate(-8.97 -153.07)"/><path class="e" d="M416.51,197.82l-.13-.57h-.05a1.36,1.36,0,0,1-.55.48,1.92,1.92,0,0,1-.81.17,1.62,1.62,0,0,1-1.19-.39,1.67,1.67,0,0,1-.39-1.2v-2.85h.94v2.69a1.22,1.22,0,0,0,.2.75.78.78,0,0,0,.65.25,1,1,0,0,0,.85-.35,1.86,1.86,0,0,0,.28-1.17v-2.17h.93v4.36Z" transform="translate(-8.97 -153.07)"/><path class="e" d="M420.77,193.38a2.71,2.71,0,0,1,.46,0l-.09.86a1.84,1.84,0,0,0-.41,0,1.19,1.19,0,0,0-.9.36,1.31,1.31,0,0,0-.34.94v2.28h-.93v-4.36h.72l.13.77h0a1.8,1.8,0,0,1,.57-.62A1.35,1.35,0,0,1,420.77,193.38Z" transform="translate(-8.97 -153.07)"/><path class="e" d="M422,192.31a.46.46,0,0,1,.52-.52.52.52,0,0,1,.38.13.53.53,0,0,1,.14.39.47.47,0,0,1-.52.5.53.53,0,0,1-.39-.13A.51.51,0,0,1,422,192.31Zm1,5.51H422v-4.36H423Z" transform="translate(-8.97 -153.07)"/><path class="e" d="M425.92,197.15a2,2,0,0,0,.67-.11v.7a1.53,1.53,0,0,1-.39.11,2.73,2.73,0,0,1-.5.05c-.88,0-1.32-.46-1.32-1.39v-2.35h-.6v-.41l.64-.34.32-.92h.57v1h1.24v.7h-1.24v2.34a.62.62,0,0,0,.17.49A.58.58,0,0,0,425.92,197.15Z" transform="translate(-8.97 -153.07)"/><path class="e" d="M426.8,193.46h1l.89,2.47a5.57,5.57,0,0,1,.27,1h0a4,4,0,0,1,.13-.53c.06-.21.4-1.19,1-2.94h1l-1.86,4.94a1.77,1.77,0,0,1-1.7,1.36,2.46,2.46,0,0,1-.6-.07V199a2.28,2.28,0,0,0,.48,0,1,1,0,0,0,.94-.78l.16-.41Z" transform="translate(-8.97 -153.07)"/><path class="c" d="M415.31,158.7a2.24,2.24,0,0,0-.72.18l-9.75,4.66a1.89,1.89,0,0,0-1,1.26l-2.4,10.46a1.87,1.87,0,0,0,.25,1.42l.11.15,6.75,8.39a1.86,1.86,0,0,0,1.45.7h10.83a1.89,1.89,0,0,0,1.46-.69l6.74-8.39a1.82,1.82,0,0,0,.36-1.57L427,164.8a1.83,1.83,0,0,0-1-1.26l-9.75-4.66A2,2,0,0,0,415.31,158.7Z" transform="translate(-8.97 -153.07)"/><path class="d" d="M415.3,158a2,2,0,0,0-.75.19l-10.29,4.92a1.93,1.93,0,0,0-1.07,1.32l-2.54,11.05a1.92,1.92,0,0,0,.27,1.49.91.91,0,0,0,.11.16l7.13,8.86a2,2,0,0,0,1.53.73h11.43a2,2,0,0,0,1.54-.73l7.12-8.86a2,2,0,0,0,.38-1.65l-2.54-11.05a2,2,0,0,0-1.07-1.33l-10.29-4.91A2,2,0,0,0,415.3,158Zm0,.75a1.87,1.87,0,0,1,.9.19l9.75,4.65a1.83,1.83,0,0,1,1,1.26l2.41,10.46a1.82,1.82,0,0,1-.36,1.57l-6.74,8.39a1.89,1.89,0,0,1-1.46.69H410a1.86,1.86,0,0,1-1.45-.7l-6.75-8.39-.11-.15a1.87,1.87,0,0,1-.25-1.42l2.4-10.46a1.89,1.89,0,0,1,1-1.26l9.75-4.65a2,2,0,0,1,.72-.19Z" transform="translate(-8.97 -153.07)"/><path class="g" d="M413.6,164.08l-6.22,1.8,6.22,1.8,1.84-.53a4.69,4.69,0,0,1,3.21-1.27,4.21,4.21,0,0,1,.87.09l.3-.09Z" transform="translate(-8.97 -153.07)"/><path class="g" d="M407.38,166.57v6.62l5.17,2.87v-2a2.18,2.18,0,0,1,.64-1.53V168.3Z" transform="translate(-8.97 -153.07)"/><path class="g" d="M414.65,168.11l-.66.19v1.49a4.64,4.64,0,0,1,.65-1.68Zm4,1.75a.72.72,0,0,0-.75.75v.74h1.49v-.74A.72.72,0,0,0,418.65,169.86Z" transform="translate(-8.97 -153.07)"/><path class="d" d="M418.65,166.87a3.42,3.42,0,0,0-3.42,3.42v2.05a1.38,1.38,0,0,0-1.37,1.37v5.47a1.37,1.37,0,0,0,1.37,1.36h6.84a1.37,1.37,0,0,0,1.37-1.36v-5.47a1.38,1.38,0,0,0-1.37-1.37v-2.05A3.42,3.42,0,0,0,418.65,166.87Zm0,1.37a2.05,2.05,0,0,1,2.05,2v2.05h-4.1v-2.05A2,2,0,0,1,418.65,168.24Z" transform="translate(-8.97 -153.07)"/><polygon class="b" points="114.21 133.77 108.82 129.74 108.82 133.44 79.74 133.44 79.74 134.11 108.82 134.11 108.82 137.81 114.21 133.77"/><path class="e" d="M45.13,309l-.58-1.6h-2.2l-.57,1.6h-1L43,303.17h1L46.13,309Zm-.83-2.41L43.76,305c0-.11-.09-.27-.16-.5s-.12-.39-.14-.5a9.5,9.5,0,0,1-.32,1.06l-.52,1.51Z" transform="translate(-8.97 -153.07)"/><path class="e" d="M49.87,309l-.13-.57h-.05a1.27,1.27,0,0,1-.55.47,1.8,1.8,0,0,1-.82.18,1.58,1.58,0,0,1-1.18-.4,1.62,1.62,0,0,1-.39-1.19V304.6h.94v2.69a1.16,1.16,0,0,0,.2.75.77.77,0,0,0,.64.25,1,1,0,0,0,.86-.35,1.94,1.94,0,0,0,.27-1.17V304.6h.94V309Z" transform="translate(-8.97 -153.07)"/><path class="e" d="M53.54,308.29a2.3,2.3,0,0,0,.68-.11v.7a2.23,2.23,0,0,1-.4.11,2.73,2.73,0,0,1-.5.05c-.88,0-1.32-.46-1.32-1.39V305.3h-.59v-.41l.64-.34.31-.92h.57v1h1.24v.7H52.93v2.33a.67.67,0,0,0,.17.5A.6.6,0,0,0,53.54,308.29Z" transform="translate(-8.97 -153.07)"/><path class="e" d="M58.93,309H58v-2.68a1.17,1.17,0,0,0-.21-.76.79.79,0,0,0-.64-.24,1,1,0,0,0-.86.34,2,2,0,0,0-.27,1.17V309h-.93v-6.14H56v1.56a7.63,7.63,0,0,1-.05.8H56a1.29,1.29,0,0,1,.52-.49,1.8,1.8,0,0,1,.79-.17,1.41,1.41,0,0,1,1.59,1.6Z" transform="translate(-8.97 -153.07)"/><path class="e" d="M62.12,309a2.09,2.09,0,0,1-1.59-.6,2.25,2.25,0,0,1-.57-1.63,2.45,2.45,0,0,1,.53-1.68,1.82,1.82,0,0,1,1.46-.61,1.77,1.77,0,0,1,1.36.52,2,2,0,0,1,.51,1.45v.5H60.91a1.42,1.42,0,0,0,.34,1,1.19,1.19,0,0,0,.91.34,3.26,3.26,0,0,0,.72-.07,4.33,4.33,0,0,0,.72-.24v.75a2.67,2.67,0,0,1-.69.23A3.74,3.74,0,0,1,62.12,309ZM62,305.22a.93.93,0,0,0-.71.28,1.37,1.37,0,0,0-.31.82h2a1.17,1.17,0,0,0-.26-.82A.86.86,0,0,0,62,305.22Z" transform="translate(-8.97 -153.07)"/><path class="e" d="M68.7,309h-.93v-2.68a1.17,1.17,0,0,0-.2-.76.79.79,0,0,0-.64-.24,1,1,0,0,0-.86.34,1.93,1.93,0,0,0-.28,1.17V309h-.92V304.6h.72l.13.57h0a1.26,1.26,0,0,1,.56-.48,1.92,1.92,0,0,1,.81-.17,1.4,1.4,0,0,1,1.56,1.6Z" transform="translate(-8.97 -153.07)"/><path class="e" d="M71.62,308.29a2.35,2.35,0,0,0,.68-.11v.7a2.49,2.49,0,0,1-.4.11,2.73,2.73,0,0,1-.5.05c-.88,0-1.32-.46-1.32-1.39V305.3h-.6v-.41l.64-.34.32-.92H71v1h1.24v.7H71v2.33a.67.67,0,0,0,.17.5A.6.6,0,0,0,71.62,308.29Z" transform="translate(-8.97 -153.07)"/><path class="e" d="M73.11,303.44a.52.52,0,1,1,1,0,.53.53,0,0,1-.13.38.52.52,0,0,1-.38.13.53.53,0,0,1-.39-.13A.54.54,0,0,1,73.11,303.44Zm1,5.52h-.92V304.6h.92Z" transform="translate(-8.97 -153.07)"/><path class="e" d="M77.18,309a1.92,1.92,0,0,1-1.51-.58,2.94,2.94,0,0,1,0-3.35,2,2,0,0,1,1.55-.59,2.75,2.75,0,0,1,1.24.26l-.28.74a2.84,2.84,0,0,0-1-.23c-.75,0-1.13.5-1.13,1.5a1.89,1.89,0,0,0,.28,1.11,1,1,0,0,0,.83.36,2.43,2.43,0,0,0,1.17-.3v.81a1.87,1.87,0,0,1-.53.2A2.68,2.68,0,0,1,77.18,309Z" transform="translate(-8.97 -153.07)"/><path class="e" d="M82.15,309l-.19-.61h0a1.64,1.64,0,0,1-.64.54,1.91,1.91,0,0,1-.82.15,1.38,1.38,0,0,1-1-.35,1.3,1.3,0,0,1-.36-1,1.17,1.17,0,0,1,.5-1,2.86,2.86,0,0,1,1.53-.37l.75,0v-.23a.85.85,0,0,0-.2-.62.78.78,0,0,0-.6-.21,2,2,0,0,0-.64.1,3.92,3.92,0,0,0-.6.23l-.3-.66a2.9,2.9,0,0,1,.78-.28,3.3,3.3,0,0,1,.8-.1,1.88,1.88,0,0,1,1.25.36,1.39,1.39,0,0,1,.43,1.14V309Zm-1.38-.63a1.21,1.21,0,0,0,.81-.28,1,1,0,0,0,.3-.79v-.38l-.56,0a2,2,0,0,0-.95.22.67.67,0,0,0-.3.6.61.61,0,0,0,.17.45A.75.75,0,0,0,80.77,308.33Z" transform="translate(-8.97 -153.07)"/><path class="e" d="M85.72,308.29a2.25,2.25,0,0,0,.68-.11v.7A2.1,2.1,0,0,1,86,309a2.76,2.76,0,0,1-.51.05c-.87,0-1.31-.46-1.31-1.39V305.3h-.6v-.41l.64-.34.32-.92h.57v1h1.24v.7H85.12v2.33a.63.63,0,0,0,.17.5A.57.57,0,0,0,85.72,308.29Z" transform="translate(-8.97 -153.07)"/><path class="e" d="M87.22,303.44a.48.48,0,0,1,.14-.38.52.52,0,0,1,.38-.13.5.5,0,0,1,.38.13.52.52,0,0,1,.14.38.54.54,0,0,1-.14.38.5.5,0,0,1-.38.13.52.52,0,0,1-.38-.13A.5.5,0,0,1,87.22,303.44Zm1,5.52h-.93V304.6h.93Z" transform="translate(-8.97 -153.07)"/><path class="e" d="M93.39,306.77a2.41,2.41,0,0,1-.54,1.67,2,2,0,0,1-1.53.6,2,2,0,0,1-1.08-.28,1.84,1.84,0,0,1-.72-.79,2.68,2.68,0,0,1-.25-1.2,2.34,2.34,0,0,1,.54-1.65,2,2,0,0,1,1.53-.6,1.92,1.92,0,0,1,1.5.61A2.34,2.34,0,0,1,93.39,306.77Zm-3.17,0c0,1,.37,1.51,1.12,1.51s1.1-.5,1.1-1.51-.37-1.49-1.11-1.49a1,1,0,0,0-.85.38A2,2,0,0,0,90.22,306.77Z" transform="translate(-8.97 -153.07)"/><path class="e" d="M98.29,309h-.93v-2.68a1.17,1.17,0,0,0-.2-.76.79.79,0,0,0-.64-.24,1,1,0,0,0-.86.34,1.93,1.93,0,0,0-.28,1.17V309h-.92V304.6h.72l.13.57h0a1.26,1.26,0,0,1,.56-.48,1.92,1.92,0,0,1,.81-.17,1.4,1.4,0,0,1,1.56,1.6Z" transform="translate(-8.97 -153.07)"/><path class="c" d="M69.76,269.84A2.24,2.24,0,0,0,69,270l-9.75,4.66a1.89,1.89,0,0,0-1,1.26l-2.4,10.46a1.87,1.87,0,0,0,.25,1.42l.11.15L63,296.36a1.85,1.85,0,0,0,1.45.69H75.27a1.89,1.89,0,0,0,1.46-.69l6.74-8.4a1.8,1.8,0,0,0,.36-1.56l-2.41-10.47a1.82,1.82,0,0,0-1-1.25L70.66,270A2,2,0,0,0,69.76,269.84Z" transform="translate(-8.97 -153.07)"/><path class="d" d="M69.75,269.08a2,2,0,0,0-.75.2l-10.29,4.91a2,2,0,0,0-1.07,1.33L55.1,286.57a1.92,1.92,0,0,0,.27,1.49.91.91,0,0,0,.11.16l7.13,8.86a2,2,0,0,0,1.53.73H75.57a2,2,0,0,0,1.54-.73l7.12-8.86a2,2,0,0,0,.38-1.66l-2.54-11A2,2,0,0,0,81,274.19l-10.29-4.91A2,2,0,0,0,69.75,269.08Zm0,.76a2,2,0,0,1,.9.18l9.75,4.66a1.82,1.82,0,0,1,1,1.25l2.41,10.47a1.8,1.8,0,0,1-.36,1.56l-6.74,8.4a1.89,1.89,0,0,1-1.46.69H64.44a1.85,1.85,0,0,1-1.45-.69L56.24,288l-.11-.15a1.87,1.87,0,0,1-.25-1.42l2.4-10.46a1.89,1.89,0,0,1,1-1.26L69,270a2.24,2.24,0,0,1,.72-.18Z" transform="translate(-8.97 -153.07)"/><path class="d" d="M69.86,275.34l-6.64,3v4.42a9.18,9.18,0,0,0,6.64,8.85,9.18,9.18,0,0,0,6.63-8.85v-4.42Zm0,3.12a2.14,2.14,0,0,1,2,1.31A2.13,2.13,0,0,1,69,282.55a2.13,2.13,0,0,1,.82-4.09Zm4,8.78a.3.3,0,0,1,0,.15l-.15.21a7.39,7.39,0,0,1-3.78,2.72,7.37,7.37,0,0,1-3.79-2.72l-.15-.21a.28.28,0,0,1,0-.15v-1.18c0-1.62,2.65-2.44,4-2.44s4,.82,4,2.44Z" transform="translate(-8.97 -153.07)"/><path class="e" d="M119.2,309l-.58-1.6h-2.2l-.56,1.6h-1l2.16-5.79h1L120.2,309Zm-.82-2.41-.55-1.57c0-.11-.09-.27-.16-.5s-.12-.39-.14-.5a9.33,9.33,0,0,1-.31,1.06l-.52,1.51Z" transform="translate(-8.97 -153.07)"/><path class="e" d="M123.94,309l-.13-.57h0a1.27,1.27,0,0,1-.55.47,1.79,1.79,0,0,1-.81.18,1.59,1.59,0,0,1-1.19-.4,1.62,1.62,0,0,1-.39-1.19V304.6h.94v2.69a1.22,1.22,0,0,0,.2.75.78.78,0,0,0,.65.25,1,1,0,0,0,.85-.35,1.86,1.86,0,0,0,.28-1.17V304.6h.93V309Z" transform="translate(-8.97 -153.07)"/><path class="e" d="M127.61,308.29a2.3,2.3,0,0,0,.68-.11v.7a2,2,0,0,1-.4.11,2.73,2.73,0,0,1-.5.05c-.88,0-1.32-.46-1.32-1.39V305.3h-.59v-.41l.64-.34.31-.92H127v1h1.24v.7H127v2.33a.67.67,0,0,0,.16.5A.6.6,0,0,0,127.61,308.29Z" transform="translate(-8.97 -153.07)"/><path class="e" d="M133,309h-.93v-2.68a1.23,1.23,0,0,0-.2-.76.82.82,0,0,0-.65-.24,1,1,0,0,0-.86.34,2,2,0,0,0-.27,1.17V309h-.93v-6.14h.93v1.56a7.63,7.63,0,0,1-.05.8h.06a1.32,1.32,0,0,1,.53-.49,1.73,1.73,0,0,1,.78-.17,1.41,1.41,0,0,1,1.59,1.6Z" transform="translate(-8.97 -153.07)"/><path class="e" d="M136.19,309a2.09,2.09,0,0,1-1.59-.6,2.25,2.25,0,0,1-.57-1.63,2.51,2.51,0,0,1,.53-1.68,2.06,2.06,0,0,1,2.83-.09,2,2,0,0,1,.5,1.45v.5H135a1.47,1.47,0,0,0,.34,1,1.2,1.2,0,0,0,.92.34,3.38,3.38,0,0,0,.72-.07,4,4,0,0,0,.71-.24v.75a2.55,2.55,0,0,1-.69.23A3.74,3.74,0,0,1,136.19,309Zm-.17-3.82a.93.93,0,0,0-.71.28,1.37,1.37,0,0,0-.31.82h2a1.27,1.27,0,0,0-.26-.82A.88.88,0,0,0,136,305.22Z" transform="translate(-8.97 -153.07)"/><path class="e" d="M142.78,309h-.93v-2.68a1.17,1.17,0,0,0-.21-.76.79.79,0,0,0-.64-.24,1,1,0,0,0-.86.34,1.94,1.94,0,0,0-.27,1.17V309h-.93V304.6h.73l.13.57h0a1.26,1.26,0,0,1,.56-.48,1.92,1.92,0,0,1,.81-.17,1.4,1.4,0,0,1,1.57,1.6Z" transform="translate(-8.97 -153.07)"/><path class="e" d="M145.69,308.29a2.3,2.3,0,0,0,.68-.11v.7a2.23,2.23,0,0,1-.4.11,2.73,2.73,0,0,1-.5.05c-.88,0-1.32-.46-1.32-1.39V305.3h-.59v-.41l.64-.34.31-.92h.57v1h1.24v.7h-1.24v2.33a.67.67,0,0,0,.17.5A.6.6,0,0,0,145.69,308.29Z" transform="translate(-8.97 -153.07)"/><path class="e" d="M147.18,303.44a.53.53,0,1,1,1,0,.54.54,0,0,1-.14.38.52.52,0,0,1-.38.13.53.53,0,0,1-.39-.13A.54.54,0,0,1,147.18,303.44Zm1,5.52h-.93V304.6h.93Z" transform="translate(-8.97 -153.07)"/><path class="e" d="M151.25,309a1.88,1.88,0,0,1-1.5-.58,2.38,2.38,0,0,1-.52-1.66,2.42,2.42,0,0,1,.54-1.69,2,2,0,0,1,1.55-.59,2.83,2.83,0,0,1,1.25.26l-.28.74a2.94,2.94,0,0,0-1-.23c-.76,0-1.13.5-1.13,1.5a1.82,1.82,0,0,0,.28,1.11,1,1,0,0,0,.82.36,2.37,2.37,0,0,0,1.17-.3v.81a1.87,1.87,0,0,1-.53.2A2.63,2.63,0,0,1,151.25,309Z" transform="translate(-8.97 -153.07)"/><path class="e" d="M156.22,309l-.19-.61h0a1.69,1.69,0,0,1-.63.54,2,2,0,0,1-.82.15,1.41,1.41,0,0,1-1-.35,1.3,1.3,0,0,1-.36-1,1.17,1.17,0,0,1,.5-1,2.88,2.88,0,0,1,1.53-.37l.75,0v-.23a.85.85,0,0,0-.19-.62.81.81,0,0,0-.61-.21,2,2,0,0,0-.64.1,3.8,3.8,0,0,0-.59.23l-.3-.66a2.71,2.71,0,0,1,.77-.28,3.36,3.36,0,0,1,.8-.1,1.93,1.93,0,0,1,1.26.36,1.42,1.42,0,0,1,.42,1.14V309Zm-1.38-.63a1.21,1.21,0,0,0,.81-.28,1,1,0,0,0,.3-.79v-.38l-.56,0a2,2,0,0,0-.95.22.67.67,0,0,0-.3.6.58.58,0,0,0,.18.45A.72.72,0,0,0,154.84,308.33Z" transform="translate(-8.97 -153.07)"/><path class="e" d="M159.8,308.29a2.35,2.35,0,0,0,.68-.11v.7a2.49,2.49,0,0,1-.4.11,2.73,2.73,0,0,1-.5.05c-.88,0-1.32-.46-1.32-1.39V305.3h-.6v-.41l.64-.34.32-.92h.57v1h1.24v.7h-1.24v2.33a.67.67,0,0,0,.17.5A.6.6,0,0,0,159.8,308.29Z" transform="translate(-8.97 -153.07)"/><path class="e" d="M161.29,303.44a.52.52,0,1,1,1,0,.53.53,0,0,1-.13.38.52.52,0,0,1-.38.13.53.53,0,0,1-.39-.13A.54.54,0,0,1,161.29,303.44Zm1,5.52h-.92V304.6h.92Z" transform="translate(-8.97 -153.07)"/><path class="e" d="M167.47,306.77a2.42,2.42,0,0,1-.55,1.67,2,2,0,0,1-1.53.6,2,2,0,0,1-1.08-.28,1.84,1.84,0,0,1-.72-.79,2.68,2.68,0,0,1-.25-1.2,2.34,2.34,0,0,1,.54-1.65,2,2,0,0,1,1.54-.6,1.88,1.88,0,0,1,1.49.61A2.35,2.35,0,0,1,167.47,306.77Zm-3.18,0c0,1,.37,1.51,1.12,1.51s1.1-.5,1.1-1.51-.37-1.49-1.11-1.49a1,1,0,0,0-.85.38A2,2,0,0,0,164.29,306.77Z" transform="translate(-8.97 -153.07)"/><path class="e" d="M172.37,309h-.93v-2.68a1.17,1.17,0,0,0-.21-.76.79.79,0,0,0-.64-.24,1,1,0,0,0-.86.34,1.94,1.94,0,0,0-.27,1.17V309h-.93V304.6h.73l.13.57h0a1.26,1.26,0,0,1,.56-.48,1.92,1.92,0,0,1,.81-.17,1.4,1.4,0,0,1,1.57,1.6Z" transform="translate(-8.97 -153.07)"/><path class="c" d="M143.83,269.84a2.12,2.12,0,0,0-.71.18l-9.75,4.66a1.83,1.83,0,0,0-1,1.26L130,286.4a1.87,1.87,0,0,0,.25,1.42l.11.15,6.75,8.39a1.86,1.86,0,0,0,1.46.69h10.82a1.87,1.87,0,0,0,1.46-.69l6.74-8.4a1.8,1.8,0,0,0,.36-1.56l-2.4-10.47a1.87,1.87,0,0,0-1-1.25L144.73,270A2,2,0,0,0,143.83,269.84Z" transform="translate(-8.97 -153.07)"/><path class="d" d="M143.83,269.08a2,2,0,0,0-.76.2l-10.29,4.91a2,2,0,0,0-1.07,1.33l-2.54,11.05a1.92,1.92,0,0,0,.27,1.49l.11.16,7.13,8.86a2,2,0,0,0,1.54.73h11.42a2,2,0,0,0,1.54-.73l7.12-8.86a1.92,1.92,0,0,0,.38-1.66l-2.54-11a2,2,0,0,0-1.07-1.33l-10.29-4.91A2,2,0,0,0,143.83,269.08Zm0,.76a2,2,0,0,1,.9.18l9.76,4.66a1.83,1.83,0,0,1,1,1.25l2.41,10.47a1.8,1.8,0,0,1-.36,1.56l-6.74,8.4a1.87,1.87,0,0,1-1.46.69H138.52a1.86,1.86,0,0,1-1.46-.69L130.31,288l-.11-.15a1.87,1.87,0,0,1-.25-1.42l2.41-10.46a1.85,1.85,0,0,1,1-1.26l9.76-4.66a2.12,2.12,0,0,1,.71-.18Z" transform="translate(-8.97 -153.07)"/><path class="d" d="M143.93,275.34l-6.64,3v4.42a9.19,9.19,0,0,0,6.64,8.85,9.18,9.18,0,0,0,6.63-8.85v-4.42Zm0,3.12a2.13,2.13,0,0,1,1.5,3.63,2.16,2.16,0,0,1-2.32.46,2.13,2.13,0,0,1,.82-4.09Zm4,8.78a.3.3,0,0,1,0,.15,1.59,1.59,0,0,1-.15.21,7.35,7.35,0,0,1-3.78,2.72,7.41,7.41,0,0,1-3.79-2.72l-.15-.21a.28.28,0,0,1,0-.15v-1.18c0-1.62,2.65-2.44,4-2.44s4,.82,4,2.44Z" transform="translate(-8.97 -153.07)"/><path class="e" d="M298.42,306.66V309h-.94V303.2h1.63a2.68,2.68,0,0,1,1.65.41,1.5,1.5,0,0,1,.54,1.27,1.59,1.59,0,0,1-1.12,1.53L301.8,309h-1.07l-1.38-2.3Zm0-.78h.66a1.5,1.5,0,0,0,.95-.25.87.87,0,0,0,.3-.72.78.78,0,0,0-.32-.7,1.72,1.72,0,0,0-1-.22h-.62Z" transform="translate(-8.97 -153.07)"/><path class="e" d="M304.45,309a2.12,2.12,0,0,1-1.59-.59,2.25,2.25,0,0,1-.58-1.64,2.51,2.51,0,0,1,.53-1.68,1.85,1.85,0,0,1,1.47-.61,1.82,1.82,0,0,1,1.36.52,2,2,0,0,1,.5,1.45v.5h-2.9a1.37,1.37,0,0,0,.34,1,1.18,1.18,0,0,0,.91.35,3.24,3.24,0,0,0,.72-.08,4,4,0,0,0,.71-.24v.75a2.48,2.48,0,0,1-.68.23A3.81,3.81,0,0,1,304.45,309Zm-.17-3.82a1,1,0,0,0-.71.28,1.37,1.37,0,0,0-.32.82h2a1.19,1.19,0,0,0-.26-.82A.88.88,0,0,0,304.28,305.22Z" transform="translate(-8.97 -153.07)"/><path class="e" d="M310.12,307.72a1.15,1.15,0,0,1-.46,1,2.29,2.29,0,0,1-1.33.34,3.09,3.09,0,0,1-1.4-.27V308a3.39,3.39,0,0,0,1.43.36c.57,0,.85-.17.85-.52a.4.4,0,0,0-.09-.27,1,1,0,0,0-.31-.23,5.57,5.57,0,0,0-.61-.27,2.84,2.84,0,0,1-1-.58,1.13,1.13,0,0,1-.26-.76,1,1,0,0,1,.45-.87,2.11,2.11,0,0,1,1.23-.31,3.4,3.4,0,0,1,1.45.31l-.3.7a3.09,3.09,0,0,0-1.18-.29c-.49,0-.74.14-.74.42a.43.43,0,0,0,.19.34,3.76,3.76,0,0,0,.84.39,3.46,3.46,0,0,1,.78.39,1,1,0,0,1,.37.4A1.27,1.27,0,0,1,310.12,307.72Z" transform="translate(-8.97 -153.07)"/><path class="e" d="M315,306.77a2.41,2.41,0,0,1-.54,1.67,2,2,0,0,1-1.53.6,2,2,0,0,1-1.08-.28,1.84,1.84,0,0,1-.72-.79,2.65,2.65,0,0,1-.25-1.2,2.34,2.34,0,0,1,.54-1.65,2,2,0,0,1,1.53-.6,1.92,1.92,0,0,1,1.5.61A2.34,2.34,0,0,1,315,306.77Zm-3.17,0c0,1,.37,1.51,1.11,1.51s1.11-.5,1.11-1.51-.37-1.49-1.11-1.49a1,1,0,0,0-.85.38A2,2,0,0,0,311.82,306.77Z" transform="translate(-8.97 -153.07)"/><path class="e" d="M319.13,309l-.13-.57h0a1.43,1.43,0,0,1-.55.48,1.94,1.94,0,0,1-.82.17,1.56,1.56,0,0,1-1.18-.4,1.62,1.62,0,0,1-.39-1.19V304.6H317v2.69a1.16,1.16,0,0,0,.21.75.76.76,0,0,0,.64.25,1,1,0,0,0,.86-.35,1.94,1.94,0,0,0,.27-1.17V304.6h.93V309Z" transform="translate(-8.97 -153.07)"/><path class="e" d="M323.4,304.52a2,2,0,0,1,.46,0l-.09.86a1.9,1.9,0,0,0-.41,0,1.19,1.19,0,0,0-.9.36,1.3,1.3,0,0,0-.35.94V309h-.93V304.6h.73l.12.77h.05a1.68,1.68,0,0,1,.56-.62A1.41,1.41,0,0,1,323.4,304.52Z" transform="translate(-8.97 -153.07)"/><path class="e" d="M326.42,309a1.88,1.88,0,0,1-1.5-.58,3,3,0,0,1,0-3.35,2,2,0,0,1,1.56-.59,2.93,2.93,0,0,1,1.24.26l-.28.74a2.84,2.84,0,0,0-1-.23c-.75,0-1.13.5-1.13,1.5a1.82,1.82,0,0,0,.28,1.11,1,1,0,0,0,.83.37,2.44,2.44,0,0,0,1.17-.31v.81a2.44,2.44,0,0,1-.53.21A3.4,3.4,0,0,1,326.42,309Z" transform="translate(-8.97 -153.07)"/><path class="e" d="M330.57,309a2.12,2.12,0,0,1-1.59-.59,2.25,2.25,0,0,1-.58-1.64,2.51,2.51,0,0,1,.53-1.68,1.85,1.85,0,0,1,1.47-.61,1.82,1.82,0,0,1,1.36.52,2,2,0,0,1,.5,1.45v.5h-2.9a1.37,1.37,0,0,0,.34,1,1.2,1.2,0,0,0,.91.35,3.24,3.24,0,0,0,.72-.08A4,4,0,0,0,332,308v.75a2.48,2.48,0,0,1-.68.23A3.81,3.81,0,0,1,330.57,309Zm-.17-3.82a1,1,0,0,0-.71.28,1.37,1.37,0,0,0-.32.82h2a1.19,1.19,0,0,0-.26-.82A.88.88,0,0,0,330.4,305.22Z" transform="translate(-8.97 -153.07)"/><path class="e" d="M308.43,315.83a3.61,3.61,0,0,1-.4,1.76,2.19,2.19,0,0,1-1.17,1l1.38,1.49H307l-1.08-1.29h-.16a2.53,2.53,0,0,1-2-.78,3.16,3.16,0,0,1-.7-2.2,3.12,3.12,0,0,1,.7-2.19,2.6,2.6,0,0,1,2-.77,2.54,2.54,0,0,1,2,.78A3.2,3.2,0,0,1,308.43,315.83Zm-4.4,0a2.55,2.55,0,0,0,.43,1.61,1.5,1.5,0,0,0,1.27.55,1.53,1.53,0,0,0,1.27-.54,2.65,2.65,0,0,0,.43-1.62,2.53,2.53,0,0,0-.43-1.61,1.48,1.48,0,0,0-1.26-.55,1.52,1.52,0,0,0-1.28.55A2.53,2.53,0,0,0,304,315.83Z" transform="translate(-8.97 -153.07)"/><path class="e" d="M312.64,318.72l-.13-.57h0a1.33,1.33,0,0,1-.55.47,1.8,1.8,0,0,1-.82.18,1.6,1.6,0,0,1-1.18-.4,1.62,1.62,0,0,1-.39-1.19v-2.85h.93V317a1.17,1.17,0,0,0,.21.76.79.79,0,0,0,.64.25,1,1,0,0,0,.86-.35,2,2,0,0,0,.27-1.17v-2.17h.93v4.36Z" transform="translate(-8.97 -153.07)"/><path class="e" d="M318.56,316.53a2.37,2.37,0,0,1-.55,1.67,1.94,1.94,0,0,1-1.52.6,2.12,2.12,0,0,1-1.08-.28,1.73,1.73,0,0,1-.72-.79,2.71,2.71,0,0,1-.26-1.2,2.39,2.39,0,0,1,.55-1.66,2,2,0,0,1,1.53-.59,1.92,1.92,0,0,1,1.5.61A2.32,2.32,0,0,1,318.56,316.53Zm-3.17,0c0,1,.37,1.51,1.11,1.51s1.11-.5,1.11-1.51-.37-1.5-1.11-1.5a1,1,0,0,0-.85.39A1.94,1.94,0,0,0,315.39,316.53Z" transform="translate(-8.97 -153.07)"/><path class="e" d="M321.25,318.05a2.3,2.3,0,0,0,.68-.11v.7a2.23,2.23,0,0,1-.4.11,2.73,2.73,0,0,1-.5.05c-.88,0-1.32-.47-1.32-1.39v-2.35h-.59v-.41l.64-.34.31-.92h.57v1h1.25v.7h-1.25v2.33a.67.67,0,0,0,.17.5A.64.64,0,0,0,321.25,318.05Z" transform="translate(-8.97 -153.07)"/><path class="e" d="M325.53,318.72l-.19-.61h0a1.69,1.69,0,0,1-.63.54,2,2,0,0,1-.82.15,1.41,1.41,0,0,1-1-.35,1.3,1.3,0,0,1-.36-1,1.17,1.17,0,0,1,.5-1,2.91,2.91,0,0,1,1.53-.37l.75,0v-.23a.9.9,0,0,0-.19-.63.83.83,0,0,0-.61-.2,2,2,0,0,0-.64.1,3.8,3.8,0,0,0-.59.23l-.3-.66a3.07,3.07,0,0,1,.77-.29,3.92,3.92,0,0,1,.8-.09,1.91,1.91,0,0,1,1.26.36,1.42,1.42,0,0,1,.42,1.14v2.94Zm-1.38-.63a1.15,1.15,0,0,0,.81-.29,1,1,0,0,0,.3-.79v-.38l-.56,0a1.87,1.87,0,0,0-.95.22.66.66,0,0,0-.3.59.59.59,0,0,0,.18.46A.77.77,0,0,0,324.15,318.09Z" transform="translate(-8.97 -153.07)"/><path class="c" d="M314.59,269.84a2.24,2.24,0,0,0-.72.18l-9.75,4.66a1.89,1.89,0,0,0-1,1.26l-2.4,10.46a1.87,1.87,0,0,0,.25,1.42l.11.15,6.75,8.39a1.85,1.85,0,0,0,1.45.69H320.1a1.89,1.89,0,0,0,1.46-.69l6.74-8.4a1.8,1.8,0,0,0,.36-1.56l-2.41-10.47a1.82,1.82,0,0,0-1-1.25L315.49,270A2,2,0,0,0,314.59,269.84Z" transform="translate(-8.97 -153.07)"/><path class="d" d="M314.58,269.08a2,2,0,0,0-.75.2l-10.29,4.91a2,2,0,0,0-1.07,1.33l-2.54,11.05a1.92,1.92,0,0,0,.27,1.49.91.91,0,0,0,.11.16l7.13,8.86a2,2,0,0,0,1.53.73H320.4a2,2,0,0,0,1.54-.73l7.12-8.86a2,2,0,0,0,.38-1.66l-2.54-11a2,2,0,0,0-1.07-1.33l-10.29-4.91A2,2,0,0,0,314.58,269.08Zm0,.76a2,2,0,0,1,.9.18l9.75,4.66a1.82,1.82,0,0,1,1,1.25l2.41,10.47a1.8,1.8,0,0,1-.36,1.56l-6.74,8.4a1.89,1.89,0,0,1-1.46.69H309.27a1.85,1.85,0,0,1-1.45-.69L301.07,288l-.11-.15a1.87,1.87,0,0,1-.25-1.42l2.4-10.46a1.89,1.89,0,0,1,1-1.26l9.75-4.66a2.24,2.24,0,0,1,.72-.18Z" transform="translate(-8.97 -153.07)"/><path class="d" d="M311.16,274.23l-1.12.42-1.14.44-.06,0s.12.34.27.72.26.71.26.72a1.67,1.67,0,0,1-.41.19,1.8,1.8,0,0,0-.39.17s2.72,1.24,2.76,1.24a9.8,9.8,0,0,0,.65-1.38c.34-.76.61-1.39.61-1.4s0,0,0,0l-.82.3a6.3,6.3,0,0,1-.3-.73,4.87,4.87,0,0,0-.3-.71Zm3.53,3.64a8.38,8.38,0,0,0-8,5.76,8.63,8.63,0,0,0-.3,4,8.37,8.37,0,0,0,2.72,4.89l.16.13.86-.85c.47-.47.85-.87.86-.9s-.06-.37-.26-.58-.44-.31-.58-.26a2.92,2.92,0,0,0-.45.41,5.42,5.42,0,0,1-.43.4,2.45,2.45,0,0,1-.47-.57,7.2,7.2,0,0,1-1.08-2.39,6,6,0,0,1-.14-.86,2.5,2.5,0,0,1,.61,0c.66,0,.69,0,.77-.11a.8.8,0,0,0,.13-.47,1,1,0,0,0-.1-.54c-.08-.13-.08-.13-.78-.13a5.73,5.73,0,0,1-.64,0s0-.06,0-.32a7.18,7.18,0,0,1,1.14-3.14,4.54,4.54,0,0,1,.41-.54,6.77,6.77,0,0,1,.52.5l.5.49h.1a1,1,0,0,0,.75-.68.47.47,0,0,0,0-.16,3.13,3.13,0,0,0-.51-.55c-.44-.45-.49-.5-.46-.53a7,7,0,0,1,.95-.69,7.16,7.16,0,0,1,2.88-1h.16v1.47l.08.07a1,1,0,0,0,1.08,0l.07-.06v-1.47h.15a5.16,5.16,0,0,1,1,.17,7.06,7.06,0,0,1,2.7,1.34.69.69,0,0,1,.18.18,5.79,5.79,0,0,1-.49.52l-.49.49v.1a1,1,0,0,0,.77.78h.11l.49-.49c.27-.27.5-.49.51-.49a1.25,1.25,0,0,1,.18.21,7.17,7.17,0,0,1,1.3,3,2.77,2.77,0,0,1,.08.77,2.33,2.33,0,0,1-.66,0h-.64l-.06,0a.92.92,0,0,0-.18.67.82.82,0,0,0,.16.45l.07.08h.65c.64,0,.64,0,.64.05a5.87,5.87,0,0,1-.12.73,7,7,0,0,1-1.13,2.54,2.75,2.75,0,0,1-.43.53,4,4,0,0,1-.43-.4c-.45-.45-.46-.46-.64-.41a1.09,1.09,0,0,0-.67.75v.1l.75.76c.95,1,1,1,1,1a10,10,0,0,0,.75-.71,8.62,8.62,0,0,0,1.35-2,8.38,8.38,0,0,0-7.5-12.1Zm-1.58,3.46a1,1,0,0,0-.82.41c0,.08,0,.1,0,.16s.35.93.76,2l.74,1.9-.07.14a1.11,1.11,0,0,0,1.34,1.54,1.38,1.38,0,0,0,.27-.14,1.1,1.1,0,0,0,.23-1.6,1.27,1.27,0,0,0-.56-.37,13.58,13.58,0,0,1-.79-1.94c-.41-1.06-.76-1.94-.77-2S313.28,281.33,313.11,281.33Z" transform="translate(-8.97 -153.07)"/><path class="d" d="M309,292.4a9.44,9.44,0,0,1-1.31-1.53,9.2,9.2,0,0,1-1.27-3.12,10.33,10.33,0,0,1,0-3.14,8.37,8.37,0,0,1,12.88-5.28,10.77,10.77,0,0,1,2.08,2,8.37,8.37,0,0,1,1.15,7.55,8.22,8.22,0,0,1-1.93,3.15l-.58.6-.86-.86a6,6,0,0,1-.86-1,1,1,0,0,1,.73-.74,1.87,1.87,0,0,1,.53.42c.5.48.46.49.93-.21a7.16,7.16,0,0,0,1.2-3l0-.25h-1.34l-.09-.18a1.26,1.26,0,0,1,0-.94c.06-.07.2-.09.73-.09h.66v-.23a7.17,7.17,0,0,0-.71-2.52,7.31,7.31,0,0,0-.84-1.31,5.5,5.5,0,0,0-.54.5c-.44.44-.52.5-.66.47a1.18,1.18,0,0,1-.64-.64c0-.16,0-.22.46-.7s.58-.54-.12-1a7.37,7.37,0,0,0-3.06-1.19l-.36,0,0,.74c0,.54-.06.77-.12.83a1.06,1.06,0,0,1-.87.05l-.21-.09v-1.51h-.22a7.7,7.7,0,0,0-2.62.82,7,7,0,0,0-1.22.87,3.76,3.76,0,0,0,.5.57c.45.45.49.52.45.66a1.27,1.27,0,0,1-.63.64c-.15,0-.21,0-.67-.47-.29-.29-.53-.48-.57-.46a7.15,7.15,0,0,0-.81,1.24,7.8,7.8,0,0,0-.73,2.71c0,.06.17.08.66.08.7,0,.78,0,.85.35a1.54,1.54,0,0,1,0,.43c-.06.38-.17.43-.88.43s-.67,0-.51.7a7.52,7.52,0,0,0,1.47,3.07l.11.14.46-.42a2,2,0,0,1,.59-.42c.15,0,.55.36.64.58s.06.19-.22.51-.55.59-.86.89l-.57.57-.27-.24Z" transform="translate(-8.97 -153.07)"/><path class="c" d="M412.62,269.84a2.24,2.24,0,0,0-.72.18l-9.75,4.66a1.89,1.89,0,0,0-1,1.26l-2.4,10.46a1.87,1.87,0,0,0,.25,1.42l.11.15,6.75,8.39a1.85,1.85,0,0,0,1.45.69h10.83a1.85,1.85,0,0,0,1.45-.69l6.75-8.4a1.83,1.83,0,0,0,.36-1.56l-2.41-10.47a1.84,1.84,0,0,0-1-1.25L413.52,270A2,2,0,0,0,412.62,269.84Z" transform="translate(-8.97 -153.07)"/><path class="d" d="M412.61,269.08a1.94,1.94,0,0,0-.75.2l-10.3,4.91a2,2,0,0,0-1.06,1.33L398,286.57a1.92,1.92,0,0,0,.27,1.49.91.91,0,0,0,.11.16l7.12,8.86a2,2,0,0,0,1.54.73h11.43a2,2,0,0,0,1.54-.73l7.12-8.86a2,2,0,0,0,.38-1.66l-2.54-11a2,2,0,0,0-1.07-1.33l-10.29-4.91A2,2,0,0,0,412.61,269.08Zm0,.76a2,2,0,0,1,.9.18l9.75,4.66a1.84,1.84,0,0,1,1,1.25l2.41,10.47a1.83,1.83,0,0,1-.36,1.56l-6.75,8.4a1.85,1.85,0,0,1-1.45.69H407.3a1.85,1.85,0,0,1-1.45-.69L399.1,288l-.11-.15a1.87,1.87,0,0,1-.25-1.42l2.4-10.46a1.89,1.89,0,0,1,1-1.26L411.9,270a2.24,2.24,0,0,1,.72-.18Z" transform="translate(-8.97 -153.07)"/><path class="d" d="M412.72,275.34l-6.64,3v4.42a9.18,9.18,0,0,0,6.64,8.85,9.18,9.18,0,0,0,6.63-8.85v-4.42Zm0,3.12a2.11,2.11,0,0,1,1.95,1.31,2.14,2.14,0,0,1-.45,2.32,2.16,2.16,0,0,1-2.32.46,2.13,2.13,0,0,1,.82-4.09Zm4,8.78a.28.28,0,0,1,0,.15c0,.07-.1.15-.15.21a7.39,7.39,0,0,1-3.78,2.72,7.37,7.37,0,0,1-3.79-2.72l-.15-.21a.28.28,0,0,1,0-.15v-1.18c0-1.62,2.65-2.44,4-2.44s4,.82,4,2.44Z" transform="translate(-8.97 -153.07)"/><path class="e" d="M402.9,307.39a1.42,1.42,0,0,1-.56,1.21,2.42,2.42,0,0,1-1.53.44,3.71,3.71,0,0,1-1.6-.3v-.9a3.8,3.8,0,0,0,.84.3,3.54,3.54,0,0,0,.83.1,1.32,1.32,0,0,0,.82-.21.68.68,0,0,0,.27-.57.73.73,0,0,0-.25-.55,3.51,3.51,0,0,0-1-.53,2.74,2.74,0,0,1-1.11-.73,1.57,1.57,0,0,1-.32-1,1.37,1.37,0,0,1,.51-1.13,2.11,2.11,0,0,1,1.38-.42,3.87,3.87,0,0,1,1.64.37l-.3.76a3.69,3.69,0,0,0-1.37-.32,1.07,1.07,0,0,0-.69.2.65.65,0,0,0-.24.53.67.67,0,0,0,.1.38.81.81,0,0,0,.31.3,4.7,4.7,0,0,0,.78.38,4.27,4.27,0,0,1,.93.49,1.32,1.32,0,0,1,.43.52A1.41,1.41,0,0,1,402.9,307.39Z" transform="translate(-8.97 -153.07)"/><path class="e" d="M405.82,309a2.12,2.12,0,0,1-1.59-.59,2.29,2.29,0,0,1-.57-1.64,2.45,2.45,0,0,1,.53-1.68,1.82,1.82,0,0,1,1.46-.61A1.85,1.85,0,0,1,407,305a2,2,0,0,1,.5,1.45v.5h-2.91a1.38,1.38,0,0,0,.35,1,1.17,1.17,0,0,0,.91.35,3.38,3.38,0,0,0,.72-.08,4,4,0,0,0,.71-.24v.75a2.48,2.48,0,0,1-.68.23A3.91,3.91,0,0,1,405.82,309Zm-.17-3.82a.93.93,0,0,0-.7.28,1.31,1.31,0,0,0-.32.82h2a1.24,1.24,0,0,0-.26-.82A.88.88,0,0,0,405.65,305.22Z" transform="translate(-8.97 -153.07)"/><path class="e" d="M410.78,304.52a2,2,0,0,1,.46,0l-.09.86a1.84,1.84,0,0,0-.41,0,1.19,1.19,0,0,0-.9.36,1.29,1.29,0,0,0-.34.94V309h-.93V304.6h.73l.12.77h.05a1.68,1.68,0,0,1,.56-.62A1.35,1.35,0,0,1,410.78,304.52Z" transform="translate(-8.97 -153.07)"/><path class="e" d="M413.05,309l-1.66-4.36h1l.88,2.53a4.54,4.54,0,0,1,.28,1h0a8.15,8.15,0,0,1,.28-1l.89-2.53h1L414.05,309Z" transform="translate(-8.97 -153.07)"/><path class="e" d="M416.32,303.44a.52.52,0,0,1,.13-.38.53.53,0,0,1,.39-.13.5.5,0,0,1,.38.13.59.59,0,0,1,0,.76.5.5,0,0,1-.38.13.53.53,0,0,1-.39-.13A.52.52,0,0,1,416.32,303.44Zm1,5.52h-.93V304.6h.93Z" transform="translate(-8.97 -153.07)"/><path class="e" d="M420.38,309a1.88,1.88,0,0,1-1.5-.58,2.91,2.91,0,0,1,0-3.35,2,2,0,0,1,1.56-.59,2.93,2.93,0,0,1,1.24.26l-.28.74a2.84,2.84,0,0,0-1-.23c-.75,0-1.13.5-1.13,1.5a1.82,1.82,0,0,0,.28,1.11,1,1,0,0,0,.83.37,2.44,2.44,0,0,0,1.17-.31v.81a2.66,2.66,0,0,1-.53.21A3.4,3.4,0,0,1,420.38,309Z" transform="translate(-8.97 -153.07)"/><path class="e" d="M424.53,309a2.12,2.12,0,0,1-1.59-.59,2.25,2.25,0,0,1-.58-1.64,2.51,2.51,0,0,1,.53-1.68,1.85,1.85,0,0,1,1.47-.61,1.82,1.82,0,0,1,1.36.52,2,2,0,0,1,.5,1.45v.5h-2.9a1.37,1.37,0,0,0,.34,1,1.2,1.2,0,0,0,.91.35,3.24,3.24,0,0,0,.72-.08A4,4,0,0,0,426,308v.75a2.48,2.48,0,0,1-.68.23A3.81,3.81,0,0,1,424.53,309Zm-.17-3.82a1,1,0,0,0-.71.28,1.37,1.37,0,0,0-.32.82h2a1.19,1.19,0,0,0-.26-.82A.88.88,0,0,0,424.36,305.22Z" transform="translate(-8.97 -153.07)"/><path class="e" d="M399.24,318.72l-.57-1.6h-2.21l-.56,1.6h-1l2.16-5.79h1l2.16,5.79Zm-.82-2.42-.54-1.57c0-.1-.1-.27-.17-.49s-.12-.39-.14-.5a10,10,0,0,1-.31,1.06l-.52,1.5Z" transform="translate(-8.97 -153.07)"/><path class="e" d="M402.66,318.8a1.91,1.91,0,0,1-1.5-.58,2.44,2.44,0,0,1-.52-1.66,2.42,2.42,0,0,1,.54-1.69,2,2,0,0,1,1.56-.59,2.92,2.92,0,0,1,1.24.25l-.28.75a2.84,2.84,0,0,0-1-.23c-.75,0-1.13.5-1.13,1.5a1.77,1.77,0,0,0,.28,1.1,1,1,0,0,0,.83.37,2.43,2.43,0,0,0,1.17-.3v.8a1.73,1.73,0,0,1-.53.21A3.34,3.34,0,0,1,402.66,318.8Z" transform="translate(-8.97 -153.07)"/><path class="e" d="M406.66,318.8a1.91,1.91,0,0,1-1.5-.58,2.91,2.91,0,0,1,0-3.35,2,2,0,0,1,1.56-.59,2.92,2.92,0,0,1,1.24.25l-.28.75a2.89,2.89,0,0,0-1-.23c-.76,0-1.13.5-1.13,1.5a1.77,1.77,0,0,0,.28,1.1,1,1,0,0,0,.82.37,2.37,2.37,0,0,0,1.17-.3v.8a1.63,1.63,0,0,1-.53.21A3.16,3.16,0,0,1,406.66,318.8Z" transform="translate(-8.97 -153.07)"/><path class="e" d="M412.77,316.53a2.42,2.42,0,0,1-.55,1.67,2,2,0,0,1-1.53.6,2.17,2.17,0,0,1-1.08-.28,1.84,1.84,0,0,1-.72-.79,2.71,2.71,0,0,1-.25-1.2,2.39,2.39,0,0,1,.54-1.66,2,2,0,0,1,1.54-.59,1.92,1.92,0,0,1,1.5.61A2.37,2.37,0,0,1,412.77,316.53Zm-3.18,0c0,1,.38,1.51,1.12,1.51s1.1-.5,1.1-1.51-.37-1.5-1.11-1.5a.93.93,0,0,0-.84.39A1.94,1.94,0,0,0,409.59,316.53Z" transform="translate(-8.97 -153.07)"/><path class="e" d="M416.91,318.72l-.13-.57h0a1.27,1.27,0,0,1-.55.47,1.79,1.79,0,0,1-.81.18,1.4,1.4,0,0,1-1.58-1.59v-2.85h.94V317a1.23,1.23,0,0,0,.2.76.81.81,0,0,0,.65.25,1,1,0,0,0,.85-.35,1.88,1.88,0,0,0,.28-1.17v-2.17h.93v4.36Z" transform="translate(-8.97 -153.07)"/><path class="e" d="M422.79,318.72h-.93V316a1.17,1.17,0,0,0-.2-.76A.79.79,0,0,0,421,315a1,1,0,0,0-.86.35,1.91,1.91,0,0,0-.28,1.16v2.18H419v-4.36h.72l.13.57h.05a1.26,1.26,0,0,1,.56-.48,1.78,1.78,0,0,1,.81-.17,1.39,1.39,0,0,1,1.56,1.59Z" transform="translate(-8.97 -153.07)"/><path class="e" d="M425.71,318.05a2.35,2.35,0,0,0,.68-.11v.7a2.49,2.49,0,0,1-.4.11,2.73,2.73,0,0,1-.5.05c-.88,0-1.32-.47-1.32-1.39v-2.35h-.6v-.41l.64-.34.32-.92h.57v1h1.24v.7H425.1v2.33a.67.67,0,0,0,.17.5A.64.64,0,0,0,425.71,318.05Z" transform="translate(-8.97 -153.07)"/><path class="e" d="M430.19,317.47a1.16,1.16,0,0,1-.47,1,2.27,2.27,0,0,1-1.33.34,3.09,3.09,0,0,1-1.4-.27v-.8a3.39,3.39,0,0,0,1.43.36c.57,0,.86-.18.86-.52a.45.45,0,0,0-.1-.28,1.24,1.24,0,0,0-.31-.23l-.6-.26a2.66,2.66,0,0,1-1-.59,1,1,0,0,1-.27-.75,1,1,0,0,1,.45-.87,2.11,2.11,0,0,1,1.23-.31,3.48,3.48,0,0,1,1.46.31l-.3.7a3.14,3.14,0,0,0-1.19-.29c-.49,0-.73.13-.73.41a.41.41,0,0,0,.19.35,4.42,4.42,0,0,0,.83.39,4.53,4.53,0,0,1,.79.38,1.23,1.23,0,0,1,.36.4A1.13,1.13,0,0,1,430.19,317.47Z" transform="translate(-8.97 -153.07)"/><polygon class="b" points="475.89 133.77 470.51 129.74 470.51 133.44 425.27 133.44 425.27 134.11 470.51 134.11 470.51 137.81 475.89 133.77"/><polygon class="b" points="382.81 133.77 377.42 129.74 377.42 133.44 328.15 133.44 328.15 134.11 377.42 134.11 377.42 137.81 382.81 133.77"/><polygon class="b" points="283.54 133.77 278.16 129.74 278.16 133.44 153.52 133.44 153.52 134.11 278.16 134.11 278.16 137.81 283.54 133.77"/><polygon class="b" points="41.2 133.77 35.81 129.74 35.81 133.44 0 133.44 0 134.11 35.81 134.11 35.81 137.81 41.2 133.77"/><polygon class="b" points="305.72 111.94 309.76 106.56 306.06 106.56 306.06 55.94 305.38 55.94 305.38 106.56 301.68 106.56 305.72 111.94"/><polygon class="b" points="403.74 111.94 407.78 106.56 404.08 106.56 404.08 50.56 403.4 50.56 403.4 106.56 399.7 106.56 403.74 111.94"/><style xmlns="" type="text/css" id="custom-css-injector">.vimvixen-console-frame {
  color-scheme: light !important;
}</style></svg>