<svg xmlns="http://www.w3.org/2000/svg" viewBox="0 0 512 188.52"><defs><style>.a{fill:#232f3e;}.b{fill:#4e5c68;}.c{fill:#fff;}.d{fill:#2f383f;}.e{fill:#161a1d;}</style></defs><rect class="a" y="75.83" width="512" height="64"/><rect class="b" y="83.83" width="256" height="48"/><path class="c" d="M65.52,264.56A3.09,3.09,0,0,0,63,265.7,6,6,0,0,0,63,272a3.11,3.11,0,0,0,2.56,1.07,6.49,6.49,0,0,0,1.41-.14c.45-.1.92-.22,1.41-.37v1.6a8.5,8.5,0,0,1-3,.51,4.87,4.87,0,0,1-3.85-1.52,6.33,6.33,0,0,1-1.35-4.35,7.1,7.1,0,0,1,.65-3.12,4.67,4.67,0,0,1,1.89-2,5.64,5.64,0,0,1,2.9-.71,7.16,7.16,0,0,1,3.23.73l-.67,1.56a8.87,8.87,0,0,0-1.22-.49A4.66,4.66,0,0,0,65.52,264.56Z" transform="translate(-9.01 -161.15)"/><path class="c" d="M78.37,266.57a3.35,3.35,0,0,1-1.17,2.75,5.21,5.21,0,0,1-3.34.95H72.67v4.27H70.81V263.12h3.28a4.94,4.94,0,0,1,3.21.88A3.13,3.13,0,0,1,78.37,266.57Zm-5.7,2.13h1a3.55,3.55,0,0,0,2.1-.5,1.82,1.82,0,0,0,.68-1.56,1.75,1.75,0,0,0-.61-1.47,2.91,2.91,0,0,0-1.87-.49h-1.3Z" transform="translate(-9.01 -161.15)"/><path class="c" d="M89.6,263.12v7.39a4.45,4.45,0,0,1-.54,2.22,3.64,3.64,0,0,1-1.57,1.46,5.48,5.48,0,0,1-2.46.51,4.59,4.59,0,0,1-3.3-1.13,4.05,4.05,0,0,1-1.18-3.09v-7.36h1.87v7.23a2.87,2.87,0,0,0,.66,2.08,2.7,2.7,0,0,0,2,.67c1.76,0,2.65-.92,2.65-2.77v-7.21Z" transform="translate(-9.01 -161.15)"/><path class="c" d="M100.87,265.75a4.6,4.6,0,0,1,.91.07l-.18,1.71a3.59,3.59,0,0,0-.81-.09,2.37,2.37,0,0,0-1.79.72,2.62,2.62,0,0,0-.68,1.87v4.51H96.49V265.9h1.43l.25,1.52h.09a3.38,3.38,0,0,1,1.12-1.22A2.68,2.68,0,0,1,100.87,265.75Z" transform="translate(-9.01 -161.15)"/><path class="c" d="M107.16,274.7a4.17,4.17,0,0,1-3.16-1.18,4.48,4.48,0,0,1-1.13-3.24,4.88,4.88,0,0,1,1-3.32,3.65,3.65,0,0,1,2.9-1.21,3.56,3.56,0,0,1,2.7,1,4,4,0,0,1,1,2.86v1h-5.76a2.8,2.8,0,0,0,.68,1.93,2.37,2.37,0,0,0,1.8.68,6.47,6.47,0,0,0,1.43-.15,8.2,8.2,0,0,0,1.42-.48v1.49a5.46,5.46,0,0,1-1.36.46A9.13,9.13,0,0,1,107.16,274.7Zm-.34-7.56a1.84,1.84,0,0,0-1.4.55,2.67,2.67,0,0,0-.63,1.62h3.92a2.38,2.38,0,0,0-.51-1.62A1.78,1.78,0,0,0,106.82,267.14Z" transform="translate(-9.01 -161.15)"/><path class="c" d="M115.5,274.7a3,3,0,0,1-2.51-1.18,5.29,5.29,0,0,1-.9-3.28,5.22,5.22,0,0,1,.92-3.3,3,3,0,0,1,2.54-1.19,3.36,3.36,0,0,1,1.45.3,3.13,3.13,0,0,1,1.16,1h.06l.2-1.13H120v12.49H118.1v-3.67q0-.35,0-.72c0-.26,0-.46.06-.59h-.1A2.85,2.85,0,0,1,115.5,274.7Zm.52-1.47a1.93,1.93,0,0,0,1.66-.67,3.3,3.3,0,0,0,.51-2v-.29a3.93,3.93,0,0,0-.52-2.3,2,2,0,0,0-1.68-.7,1.7,1.7,0,0,0-1.5.78,4.08,4.08,0,0,0-.51,2.24C114,272.24,114.66,273.23,116,273.23Z" transform="translate(-9.01 -161.15)"/><path class="c" d="M128.67,274.54l-.26-1.13h-.1a2.58,2.58,0,0,1-1.09.94,3.63,3.63,0,0,1-1.61.35,3.15,3.15,0,0,1-2.34-.78,3.22,3.22,0,0,1-.78-2.37V265.9h1.85v5.33a2.32,2.32,0,0,0,.41,1.49,1.55,1.55,0,0,0,1.27.49,2,2,0,0,0,1.7-.69,3.73,3.73,0,0,0,.55-2.31V265.9h1.84v8.64Z" transform="translate(-9.01 -161.15)"/><path class="c" d="M136.5,274.7a4.16,4.16,0,0,1-3.15-1.18,4.45,4.45,0,0,1-1.14-3.24,4.83,4.83,0,0,1,1.06-3.32,3.63,3.63,0,0,1,2.9-1.21,3.56,3.56,0,0,1,2.7,1,4,4,0,0,1,1,2.86v1H134.1a2.85,2.85,0,0,0,.68,1.93,2.38,2.38,0,0,0,1.81.68,6.38,6.38,0,0,0,1.42-.15,7.93,7.93,0,0,0,1.42-.48v1.49a5.46,5.46,0,0,1-1.36.46A9.13,9.13,0,0,1,136.5,274.7Zm-.33-7.56a1.85,1.85,0,0,0-1.41.55,2.67,2.67,0,0,0-.63,1.62h3.93a2.43,2.43,0,0,0-.52-1.62A1.74,1.74,0,0,0,136.17,267.14Z" transform="translate(-9.01 -161.15)"/><path class="c" d="M147.75,272.08a2.27,2.27,0,0,1-.92,1.94,4.44,4.44,0,0,1-2.64.68,6.18,6.18,0,0,1-2.77-.53v-1.58a6.76,6.76,0,0,0,2.83.7c1.13,0,1.7-.34,1.7-1a.85.85,0,0,0-.19-.55,2.25,2.25,0,0,0-.62-.45,10.52,10.52,0,0,0-1.19-.53,5.47,5.47,0,0,1-2-1.16,2.13,2.13,0,0,1-.53-1.5,2,2,0,0,1,.89-1.72,4.26,4.26,0,0,1,2.44-.61,6.93,6.93,0,0,1,2.88.61l-.59,1.39a6.38,6.38,0,0,0-2.35-.58c-1,0-1.46.27-1.46.83a.82.82,0,0,0,.38.68,8.05,8.05,0,0,0,1.65.78,7.35,7.35,0,0,1,1.56.75,2.11,2.11,0,0,1,.95,1.87Z" transform="translate(-9.01 -161.15)"/><path class="c" d="M153,273.21a4.52,4.52,0,0,0,1.35-.21v1.39a4.57,4.57,0,0,1-.79.22,5.36,5.36,0,0,1-1,.09c-1.74,0-2.61-.92-2.61-2.75v-4.66h-1.18v-.81l1.26-.67.63-1.83h1.13v1.92h2.46v1.39h-2.46v4.63a1.3,1.3,0,0,0,.33,1A1.2,1.2,0,0,0,153,273.21Z" transform="translate(-9.01 -161.15)"/><path class="c" d="M159.67,268.05v-1.4h7.52v1.4Zm0,3.12v-1.39h7.52v1.39Z" transform="translate(-9.01 -161.15)"/><path class="c" d="M178.25,274.54h-1.83v-7.37q0-1.32.06-2.1c-.12.13-.27.27-.44.42s-.76.63-1.76,1.43l-.92-1.16,3.36-2.64h1.53Z" transform="translate(-9.01 -161.15)"/><path class="c" d="M189.74,268.83a8.08,8.08,0,0,1-1,4.42,3.62,3.62,0,0,1-5.82,0,8.07,8.07,0,0,1-1-4.38,8.28,8.28,0,0,1,1-4.46,3.62,3.62,0,0,1,5.82.07A8,8,0,0,1,189.74,268.83Zm-5.9,0a8.35,8.35,0,0,0,.48,3.34,1.68,1.68,0,0,0,3.08,0,11.72,11.72,0,0,0,0-6.64,1.67,1.67,0,0,0-3.08,0A8.35,8.35,0,0,0,183.84,268.83Z" transform="translate(-9.01 -161.15)"/><path class="c" d="M198.87,268.83a8.08,8.08,0,0,1-1,4.42,3.62,3.62,0,0,1-5.82,0,8.07,8.07,0,0,1-1-4.38,8.18,8.18,0,0,1,1-4.46,3.28,3.28,0,0,1,2.92-1.43,3.23,3.23,0,0,1,2.89,1.5A8,8,0,0,1,198.87,268.83Zm-5.9,0a8.35,8.35,0,0,0,.48,3.34,1.68,1.68,0,0,0,3.08,0,11.49,11.49,0,0,0,0-6.64,1.67,1.67,0,0,0-3.08,0A8.35,8.35,0,0,0,193,268.83Z" transform="translate(-9.01 -161.15)"/><path class="c" d="M208.15,274.54h-1.84v-5.33a2.42,2.42,0,0,0-.38-1.48,1.39,1.39,0,0,0-1.17-.48,1.79,1.79,0,0,0-1.56.69,4,4,0,0,0-.5,2.3v4.3h-1.83V265.9h1.44l.25,1.13h.1a2.34,2.34,0,0,1,1-.95,3.43,3.43,0,0,1,1.5-.33,2.63,2.63,0,0,1,2.64,1.35H208a2.62,2.62,0,0,1,1.08-1,3.51,3.51,0,0,1,1.59-.35,2.93,2.93,0,0,1,2.26.78,3.45,3.45,0,0,1,.7,2.38v5.63h-1.83v-5.33a2.42,2.42,0,0,0-.38-1.48,1.43,1.43,0,0,0-1.18-.48,1.82,1.82,0,0,0-1.56.66,3.39,3.39,0,0,0-.5,2Z" transform="translate(-9.01 -161.15)"/><path class="d" d="M63.67,179.81h3.15v4.3a8.82,8.82,0,0,1-1.48.36,10.68,10.68,0,0,1-1.54.1,3.85,3.85,0,0,1-3-1.15,4.66,4.66,0,0,1-1.06-3.25,4.31,4.31,0,0,1,1.19-3.23,4.49,4.49,0,0,1,3.28-1.17,6.44,6.44,0,0,1,2.54.51l-.49,1.17a5,5,0,0,0-2.09-.48,2.77,2.77,0,0,0-2.16.86,3.28,3.28,0,0,0-.8,2.35,3.5,3.5,0,0,0,.72,2.39,2.56,2.56,0,0,0,2.06.82,7,7,0,0,0,1.45-.17V181H63.67Z" transform="translate(-9.01 -161.15)"/><path class="d" d="M73.3,184.46l-.19-.85H73a2,2,0,0,1-.82.7,2.63,2.63,0,0,1-1.21.26,2.4,2.4,0,0,1-1.76-.58,2.47,2.47,0,0,1-.58-1.78V178h1.39v4a1.7,1.7,0,0,0,.31,1.12,1.15,1.15,0,0,0,.95.37,1.53,1.53,0,0,0,1.28-.52,2.86,2.86,0,0,0,.4-1.74V178h1.39v6.48Z" transform="translate(-9.01 -161.15)"/><path class="d" d="M80.4,184.46l-.27-.91h0a2.62,2.62,0,0,1-.94.81,3,3,0,0,1-1.22.21,2.07,2.07,0,0,1-1.49-.51,1.93,1.93,0,0,1-.54-1.46,1.7,1.7,0,0,1,.75-1.51,4.24,4.24,0,0,1,2.26-.56l1.12,0v-.34a1.28,1.28,0,0,0-.29-.93,1.19,1.19,0,0,0-.9-.31,3,3,0,0,0-1,.15,7.65,7.65,0,0,0-.88.34l-.45-1a5.32,5.32,0,0,1,1.16-.42,5.65,5.65,0,0,1,1.18-.14,2.8,2.8,0,0,1,1.87.54,2.1,2.1,0,0,1,.63,1.69v4.37Zm-2.05-.94a1.73,1.73,0,0,0,1.21-.42,1.53,1.53,0,0,0,.45-1.18v-.56l-.83,0a2.89,2.89,0,0,0-1.42.32,1,1,0,0,0-.44.89.87.87,0,0,0,.26.67A1.09,1.09,0,0,0,78.35,183.52Z" transform="translate(-9.01 -161.15)"/><path class="d" d="M86.6,177.86a3.23,3.23,0,0,1,.68.06l-.13,1.28a2.48,2.48,0,0,0-.61-.07,1.76,1.76,0,0,0-1.34.54,2,2,0,0,0-.51,1.4v3.39H83.31V178h1.08l.18,1.14h.07a2.49,2.49,0,0,1,.84-.92A2,2,0,0,1,86.6,177.86Z" transform="translate(-9.01 -161.15)"/><path class="d" d="M92.54,184.46l-.28-.91h0a2.64,2.64,0,0,1-1,.81,3,3,0,0,1-1.22.21,2.09,2.09,0,0,1-1.49-.51A2,2,0,0,1,88,182.6a1.7,1.7,0,0,1,.74-1.51,4.28,4.28,0,0,1,2.27-.56l1.12,0v-.34a1.33,1.33,0,0,0-.29-.93,1.23,1.23,0,0,0-.9-.31,3.11,3.11,0,0,0-1,.15,9.4,9.4,0,0,0-.88.34l-.44-1a5.24,5.24,0,0,1,1.15-.42,5.74,5.74,0,0,1,1.19-.14,2.79,2.79,0,0,1,1.86.54,2.1,2.1,0,0,1,.63,1.69v4.37Zm-2.05-.94a1.69,1.69,0,0,0,1.2-.42,1.54,1.54,0,0,0,.46-1.18v-.56l-.84,0a2.84,2.84,0,0,0-1.41.32,1,1,0,0,0-.44.89.87.87,0,0,0,.25.67A1.12,1.12,0,0,0,90.49,183.52Z" transform="translate(-9.01 -161.15)"/><path class="d" d="M101.15,184.46H99.76v-4a1.76,1.76,0,0,0-.3-1.12,1.19,1.19,0,0,0-1-.37,1.5,1.5,0,0,0-1.27.52,2.83,2.83,0,0,0-.41,1.73v3.23H95.44V178h1.08l.2.84h.07a1.94,1.94,0,0,1,.83-.71,2.76,2.76,0,0,1,1.19-.25,2.08,2.08,0,0,1,2.34,2.37Z" transform="translate(-9.01 -161.15)"/><path class="d" d="M105.48,183.46a3.17,3.17,0,0,0,1-.16v1a3.46,3.46,0,0,1-.58.17,4.65,4.65,0,0,1-.75.06c-1.31,0-2-.68-2-2.06V179h-.88v-.61l1-.51.46-1.37h.85V178h1.85v1h-1.85v3.47a1,1,0,0,0,.25.73A.92.92,0,0,0,105.48,183.46Z" transform="translate(-9.01 -161.15)"/><path class="d" d="M110.61,184.57a3.14,3.14,0,0,1-2.37-.88,3.39,3.39,0,0,1-.85-2.43,3.68,3.68,0,0,1,.79-2.49,2.74,2.74,0,0,1,2.18-.91,2.65,2.65,0,0,1,2,.78,3,3,0,0,1,.75,2.14v.75h-4.32a2.15,2.15,0,0,0,.51,1.45,1.8,1.8,0,0,0,1.35.5,4.51,4.51,0,0,0,1.07-.11,5.39,5.39,0,0,0,1.07-.36v1.12a4.08,4.08,0,0,1-1,.34A6,6,0,0,1,110.61,184.57Zm-.25-5.67a1.36,1.36,0,0,0-1,.42,1.92,1.92,0,0,0-.48,1.21h2.94a1.76,1.76,0,0,0-.38-1.22A1.35,1.35,0,0,0,110.36,178.9Z" transform="translate(-9.01 -161.15)"/><path class="d" d="M117.52,184.57a3.13,3.13,0,0,1-2.36-.88,3.35,3.35,0,0,1-.85-2.43,3.63,3.63,0,0,1,.79-2.49,2.7,2.7,0,0,1,2.17-.91,2.67,2.67,0,0,1,2,.78,3,3,0,0,1,.74,2.14v.75h-4.32a2.15,2.15,0,0,0,.51,1.45,1.82,1.82,0,0,0,1.36.5,4.57,4.57,0,0,0,1.07-.11,5.31,5.31,0,0,0,1.06-.36v1.12a4.08,4.08,0,0,1-1,.34A6,6,0,0,1,117.52,184.57Zm-.25-5.67a1.36,1.36,0,0,0-1,.42,2,2,0,0,0-.47,1.21h2.94a1.82,1.82,0,0,0-.39-1.22A1.33,1.33,0,0,0,117.27,178.9Z" transform="translate(-9.01 -161.15)"/><path class="d" d="M123.79,184.57a2.24,2.24,0,0,1-1.89-.88,4.8,4.8,0,0,1,0-4.94,2.26,2.26,0,0,1,1.91-.89,2.22,2.22,0,0,1,1.94.94h.07a9.4,9.4,0,0,1-.1-1.1v-2.36h1.38v9.12H126l-.24-.85h-.07A2.21,2.21,0,0,1,123.79,184.57Zm.37-1.11a1.5,1.5,0,0,0,1.24-.48,2.51,2.51,0,0,0,.4-1.55v-.19a2.93,2.93,0,0,0-.4-1.74,1.47,1.47,0,0,0-1.25-.52,1.28,1.28,0,0,0-1.12.59,3,3,0,0,0-.39,1.68,2.94,2.94,0,0,0,.38,1.64A1.27,1.27,0,0,0,124.16,183.46Z" transform="translate(-9.01 -161.15)"/><path class="d" d="M136,177a2.31,2.31,0,0,0-1.9.85,4.49,4.49,0,0,0,0,4.75,2.33,2.33,0,0,0,1.92.81,5.29,5.29,0,0,0,1.06-.11c.34-.07.69-.17,1.06-.28v1.2a6.32,6.32,0,0,1-2.29.38,3.66,3.66,0,0,1-2.89-1.14,4.76,4.76,0,0,1-1-3.26,5.37,5.37,0,0,1,.48-2.34,3.51,3.51,0,0,1,1.42-1.53,4.23,4.23,0,0,1,2.17-.53,5.35,5.35,0,0,1,2.43.55l-.5,1.16c-.29-.13-.6-.25-.92-.36A3.4,3.4,0,0,0,136,177Z" transform="translate(-9.01 -161.15)"/><path class="d" d="M145.62,178.48a2.53,2.53,0,0,1-.87,2.06,3.93,3.93,0,0,1-2.51.71h-.89v3.21H140v-8.57h2.47a3.7,3.7,0,0,1,2.4.66A2.32,2.32,0,0,1,145.62,178.48Zm-4.27,1.59h.75a2.67,2.67,0,0,0,1.58-.37,1.61,1.61,0,0,0,0-2.28,2.23,2.23,0,0,0-1.4-.36h-1Z" transform="translate(-9.01 -161.15)"/><path class="d" d="M154.05,175.89v5.54a3.29,3.29,0,0,1-.41,1.66,2.71,2.71,0,0,1-1.17,1.1,4.21,4.21,0,0,1-1.85.38,3.46,3.46,0,0,1-2.48-.84,3.05,3.05,0,0,1-.88-2.32v-5.52h1.41v5.42a2.13,2.13,0,0,0,.49,1.56,2,2,0,0,0,1.51.51c1.32,0,2-.7,2-2.08v-5.41Z" transform="translate(-9.01 -161.15)"/><path class="d" d="M162.5,177.86a3.27,3.27,0,0,1,.69.06l-.14,1.28a2.48,2.48,0,0,0-.61-.07,1.76,1.76,0,0,0-1.34.54,2,2,0,0,0-.51,1.4v3.39h-1.38V178h1.08l.18,1.14h.07a2.58,2.58,0,0,1,.84-.92A2,2,0,0,1,162.5,177.86Z" transform="translate(-9.01 -161.15)"/><path class="d" d="M167.22,184.57a3.14,3.14,0,0,1-2.37-.88,3.35,3.35,0,0,1-.85-2.43,3.63,3.63,0,0,1,.79-2.49,2.72,2.72,0,0,1,2.17-.91,2.66,2.66,0,0,1,2,.78,3,3,0,0,1,.75,2.14v.75h-4.32a2.15,2.15,0,0,0,.51,1.45,1.8,1.8,0,0,0,1.35.5,4.57,4.57,0,0,0,1.07-.11,5.31,5.31,0,0,0,1.06-.36v1.12a3.83,3.83,0,0,1-1,.34A5.87,5.87,0,0,1,167.22,184.57ZM167,178.9a1.39,1.39,0,0,0-1.05.42,2,2,0,0,0-.47,1.21h2.94a1.82,1.82,0,0,0-.38-1.22A1.36,1.36,0,0,0,167,178.9Z" transform="translate(-9.01 -161.15)"/><path class="d" d="M175.65,182.61a1.71,1.71,0,0,1-.69,1.46,3.36,3.36,0,0,1-2,.5,4.73,4.73,0,0,1-2.08-.39V183a5.13,5.13,0,0,0,2.13.53c.85,0,1.27-.26,1.27-.77a.64.64,0,0,0-.14-.41,1.7,1.7,0,0,0-.46-.34,8.49,8.49,0,0,0-.9-.4,4,4,0,0,1-1.51-.87,1.55,1.55,0,0,1-.4-1.12,1.47,1.47,0,0,1,.67-1.29,3.18,3.18,0,0,1,1.83-.46,5.14,5.14,0,0,1,2.16.46l-.45,1a4.79,4.79,0,0,0-1.76-.44c-.73,0-1.09.21-1.09.63a.61.61,0,0,0,.28.51,6.16,6.16,0,0,0,1.24.58,5.77,5.77,0,0,1,1.17.57,1.76,1.76,0,0,1,.54.59A1.73,1.73,0,0,1,175.65,182.61Z" transform="translate(-9.01 -161.15)"/><path class="d" d="M182.89,181.2a3.54,3.54,0,0,1-.81,2.48,2.91,2.91,0,0,1-2.27.89,3.06,3.06,0,0,1-1.61-.41,2.67,2.67,0,0,1-1.07-1.18,4,4,0,0,1-.37-1.78,3.5,3.5,0,0,1,.8-2.46,2.93,2.93,0,0,1,2.28-.88,2.87,2.87,0,0,1,2.23.9A3.5,3.5,0,0,1,182.89,181.2Zm-4.72,0c0,1.5.56,2.25,1.66,2.25s1.64-.75,1.64-2.25-.55-2.22-1.65-2.22a1.4,1.4,0,0,0-1.26.58A2.9,2.9,0,0,0,178.17,181.2Z" transform="translate(-9.01 -161.15)"/><path class="d" d="M189,184.46l-.19-.85h-.07a2,2,0,0,1-.82.7,2.63,2.63,0,0,1-1.21.26A2.4,2.4,0,0,1,185,184a2.47,2.47,0,0,1-.58-1.78V178h1.39v4a1.7,1.7,0,0,0,.31,1.12,1.15,1.15,0,0,0,.95.37,1.53,1.53,0,0,0,1.28-.52,2.86,2.86,0,0,0,.4-1.74V178h1.39v6.48Z" transform="translate(-9.01 -161.15)"/><path class="d" d="M195.38,177.86a3.23,3.23,0,0,1,.68.06l-.13,1.28a2.48,2.48,0,0,0-.61-.07,1.76,1.76,0,0,0-1.34.54,2,2,0,0,0-.51,1.4v3.39h-1.38V178h1.08l.18,1.14h.07a2.41,2.41,0,0,1,.84-.92A2,2,0,0,1,195.38,177.86Z" transform="translate(-9.01 -161.15)"/><path class="d" d="M199.88,184.57a2.82,2.82,0,0,1-2.24-.86,4.35,4.35,0,0,1,0-5,2.94,2.94,0,0,1,2.31-.88,4.21,4.21,0,0,1,1.84.38l-.41,1.11A4.12,4.12,0,0,0,200,179c-1.13,0-1.69.74-1.69,2.23a2.68,2.68,0,0,0,.42,1.64,1.46,1.46,0,0,0,1.23.54,3.58,3.58,0,0,0,1.74-.45v1.2a2.71,2.71,0,0,1-.79.31A4.91,4.91,0,0,1,199.88,184.57Z" transform="translate(-9.01 -161.15)"/><path class="d" d="M206,184.57a3.13,3.13,0,0,1-2.36-.88,3.35,3.35,0,0,1-.85-2.43,3.63,3.63,0,0,1,.79-2.49,2.72,2.72,0,0,1,2.17-.91,2.67,2.67,0,0,1,2,.78,3,3,0,0,1,.74,2.14v.75h-4.31a2.15,2.15,0,0,0,.51,1.45,1.8,1.8,0,0,0,1.35.5,4.57,4.57,0,0,0,1.07-.11,5.31,5.31,0,0,0,1.06-.36v1.12a3.83,3.83,0,0,1-1,.34A5.9,5.9,0,0,1,206,184.57Zm-.25-5.67a1.38,1.38,0,0,0-1.05.42,2,2,0,0,0-.47,1.21h2.94a1.82,1.82,0,0,0-.39-1.22A1.33,1.33,0,0,0,205.78,178.9Z" transform="translate(-9.01 -161.15)"/><path class="d" d="M214.47,182.61a1.71,1.71,0,0,1-.69,1.46,3.36,3.36,0,0,1-2,.5,4.7,4.7,0,0,1-2.08-.39V183a5.13,5.13,0,0,0,2.13.53c.84,0,1.27-.26,1.27-.77a.64.64,0,0,0-.14-.41,1.88,1.88,0,0,0-.46-.34,8.49,8.49,0,0,0-.9-.4,4.2,4.2,0,0,1-1.52-.87,1.59,1.59,0,0,1-.39-1.12,1.47,1.47,0,0,1,.67-1.29,3.17,3.17,0,0,1,1.82-.46,5.15,5.15,0,0,1,2.17.46l-.45,1a4.84,4.84,0,0,0-1.76-.44c-.73,0-1.09.21-1.09.63a.61.61,0,0,0,.28.51,5.88,5.88,0,0,0,1.24.58,5.77,5.77,0,0,1,1.17.57,1.76,1.76,0,0,1,.54.59A1.86,1.86,0,0,1,214.47,182.61Z" transform="translate(-9.01 -161.15)"/><path class="d" d="M103.45,193.52h-1.59V199h-1.38v-5.44H99.41v-.65l1.07-.42V192a2.34,2.34,0,0,1,.54-1.7,2.21,2.21,0,0,1,1.65-.56,4.42,4.42,0,0,1,1.43.24l-.37,1.05a3.15,3.15,0,0,0-1-.17.8.8,0,0,0-.68.29,1.51,1.51,0,0,0-.22.87v.43h1.59Z" transform="translate(-9.01 -161.15)"/><path class="d" d="M110.3,195.7a3.55,3.55,0,0,1-.82,2.48,2.9,2.9,0,0,1-2.27.89,3,3,0,0,1-1.6-.41,2.62,2.62,0,0,1-1.07-1.18,4,4,0,0,1-.38-1.78,3.51,3.51,0,0,1,.81-2.46,2.93,2.93,0,0,1,2.28-.88,2.87,2.87,0,0,1,2.23.9A3.55,3.55,0,0,1,110.3,195.7Zm-4.72,0c0,1.5.55,2.25,1.66,2.25s1.64-.75,1.64-2.25-.55-2.22-1.65-2.22a1.4,1.4,0,0,0-1.26.58A2.9,2.9,0,0,0,105.58,195.7Z" transform="translate(-9.01 -161.15)"/><path class="d" d="M115.16,192.36a3.27,3.27,0,0,1,.69.06l-.13,1.28a2.48,2.48,0,0,0-.61-.07,1.76,1.76,0,0,0-1.34.54,2,2,0,0,0-.52,1.4V199h-1.37v-6.48H113l.18,1.14h.07a2.41,2.41,0,0,1,.84-.92A2,2,0,0,1,115.16,192.36Z" transform="translate(-9.01 -161.15)"/><path class="d" d="M122.78,199.07a2.8,2.8,0,0,1-2.23-.86,4.33,4.33,0,0,1,0-5,3,3,0,0,1,2.31-.88,4.25,4.25,0,0,1,1.85.38l-.42,1.11a4.07,4.07,0,0,0-1.44-.34c-1.12,0-1.68.74-1.68,2.23a2.68,2.68,0,0,0,.42,1.64,1.46,1.46,0,0,0,1.23.54,3.58,3.58,0,0,0,1.74-.45v1.2a2.83,2.83,0,0,1-.79.31A5,5,0,0,1,122.78,199.07Z" transform="translate(-9.01 -161.15)"/><path class="d" d="M131.86,195.7a3.5,3.5,0,0,1-.82,2.48,2.89,2.89,0,0,1-2.26.89,3.06,3.06,0,0,1-1.61-.41,2.67,2.67,0,0,1-1.07-1.18,4,4,0,0,1-.38-1.78,3.51,3.51,0,0,1,.81-2.46,2.93,2.93,0,0,1,2.28-.88,2.87,2.87,0,0,1,2.23.9A3.55,3.55,0,0,1,131.86,195.7Zm-4.72,0c0,1.5.55,2.25,1.66,2.25s1.64-.75,1.64-2.25-.55-2.22-1.65-2.22a1.4,1.4,0,0,0-1.26.58A2.9,2.9,0,0,0,127.14,195.7Z" transform="translate(-9.01 -161.15)"/><path class="d" d="M139.14,199h-1.38v-4a1.76,1.76,0,0,0-.3-1.12,1.19,1.19,0,0,0-1-.37,1.52,1.52,0,0,0-1.28.52,2.84,2.84,0,0,0-.4,1.73V199h-1.38v-6.48h1.08l.19.84h.07a2,2,0,0,1,.83-.71,2.77,2.77,0,0,1,1.2-.25,2.08,2.08,0,0,1,2.33,2.37Z" transform="translate(-9.01 -161.15)"/><path class="d" d="M143.47,198a3.23,3.23,0,0,0,1-.16v1a3.61,3.61,0,0,1-.59.17,4.56,4.56,0,0,1-.75.06c-1.3,0-1.95-.68-1.95-2.06v-3.49h-.89v-.61l.95-.51.47-1.37h.85v1.45h1.84v1h-1.84V197a1,1,0,0,0,.25.73A.88.88,0,0,0,143.47,198Z" transform="translate(-9.01 -161.15)"/><path class="d" d="M149.83,199l-.28-.91h0a2.64,2.64,0,0,1-.95.81,3,3,0,0,1-1.22.21,2.09,2.09,0,0,1-1.49-.51,2,2,0,0,1-.53-1.46,1.7,1.7,0,0,1,.74-1.51,4.28,4.28,0,0,1,2.27-.56l1.12,0v-.34a1.33,1.33,0,0,0-.29-.93,1.23,1.23,0,0,0-.9-.31,3.11,3.11,0,0,0-1,.15,9.4,9.4,0,0,0-.88.34l-.44-1a5.24,5.24,0,0,1,1.15-.42,5.74,5.74,0,0,1,1.19-.14,2.79,2.79,0,0,1,1.86.54,2.1,2.1,0,0,1,.63,1.69V199Zm-2.05-.94a1.69,1.69,0,0,0,1.2-.42,1.54,1.54,0,0,0,.46-1.18v-.56l-.84,0a2.84,2.84,0,0,0-1.41.32,1,1,0,0,0-.44.89.87.87,0,0,0,.25.67A1.12,1.12,0,0,0,147.78,198Z" transform="translate(-9.01 -161.15)"/><path class="d" d="M152.65,190.76a.77.77,0,0,1,.2-.57.82.82,0,0,1,.58-.2.81.81,0,0,1,.57.2.77.77,0,0,1,.2.57.76.76,0,0,1-.2.55.76.76,0,0,1-.57.2.77.77,0,0,1-.58-.2A.76.76,0,0,1,152.65,190.76Zm1.46,8.2h-1.38v-6.48h1.38Z" transform="translate(-9.01 -161.15)"/><path class="d" d="M161.78,199H160.4v-4a1.76,1.76,0,0,0-.3-1.12,1.19,1.19,0,0,0-1-.37,1.52,1.52,0,0,0-1.28.52,2.84,2.84,0,0,0-.4,1.73V199h-1.38v-6.48h1.08l.19.84h.07a2.06,2.06,0,0,1,.83-.71,2.77,2.77,0,0,1,1.2-.25,2.08,2.08,0,0,1,2.33,2.37Z" transform="translate(-9.01 -161.15)"/><path class="d" d="M166.53,199.07a3.14,3.14,0,0,1-2.37-.88,3.39,3.39,0,0,1-.85-2.43,3.63,3.63,0,0,1,.79-2.49,2.72,2.72,0,0,1,2.18-.91,2.65,2.65,0,0,1,2,.78,3,3,0,0,1,.75,2.14V196h-4.32a2.15,2.15,0,0,0,.51,1.45,1.8,1.8,0,0,0,1.35.5,4.51,4.51,0,0,0,1.07-.11,5.39,5.39,0,0,0,1.07-.36v1.12a4.08,4.08,0,0,1-1,.34A6,6,0,0,1,166.53,199.07Zm-.25-5.67a1.4,1.4,0,0,0-1.06.42,2,2,0,0,0-.47,1.21h2.94a1.76,1.76,0,0,0-.38-1.22A1.35,1.35,0,0,0,166.28,193.4Z" transform="translate(-9.01 -161.15)"/><path class="d" d="M173.9,192.36a3.17,3.17,0,0,1,.68.06l-.13,1.28a2.48,2.48,0,0,0-.61-.07,1.76,1.76,0,0,0-1.34.54,2,2,0,0,0-.51,1.4V199h-1.38v-6.48h1.08l.18,1.14h.07a2.58,2.58,0,0,1,.84-.92A2,2,0,0,1,173.9,192.36Z" transform="translate(-9.01 -161.15)"/><polygon class="e" points="8 6.5 8 12 0 6 8 0 8 5.5 248 5.5 248 0 256 6 248 12 248 6.5 8 6.5"/><path class="d" d="M289.57,332.29l-.86-2.38h-3.27l-.84,2.38h-1.48l3.21-8.6h1.52l3.21,8.6Zm-1.22-3.59-.81-2.33c-.06-.16-.14-.4-.24-.74s-.18-.58-.21-.74a12.88,12.88,0,0,1-.47,1.58l-.77,2.23Z" transform="translate(-9.01 -161.15)"/><path class="d" d="M295.33,325.69a3.27,3.27,0,0,1,.69.06l-.14,1.28a2.43,2.43,0,0,0-.61-.07,1.76,1.76,0,0,0-1.34.54,2,2,0,0,0-.51,1.4v3.39H292v-6.48h1.08l.18,1.14h.07a2.67,2.67,0,0,1,.84-.92A2,2,0,0,1,295.33,325.69Z" transform="translate(-9.01 -161.15)"/><path class="d" d="M300.05,332.4a3.14,3.14,0,0,1-2.37-.88,3.35,3.35,0,0,1-.85-2.43,3.65,3.65,0,0,1,.79-2.49,2.72,2.72,0,0,1,2.17-.91,2.66,2.66,0,0,1,2,.78,3,3,0,0,1,.75,2.14v.75h-4.32a2.13,2.13,0,0,0,.51,1.45,1.76,1.76,0,0,0,1.35.5,5.19,5.19,0,0,0,1.07-.1,6.64,6.64,0,0,0,1.06-.36V332a3.83,3.83,0,0,1-1,.34A5.87,5.87,0,0,1,300.05,332.4Zm-.26-5.67a1.39,1.39,0,0,0-1.05.42,2,2,0,0,0-.47,1.21h2.94a1.74,1.74,0,0,0-.38-1.21A1.33,1.33,0,0,0,299.79,326.73Z" transform="translate(-9.01 -161.15)"/><path class="d" d="M308.19,332.29l-.28-.91h-.05a2.54,2.54,0,0,1-.94.81,3,3,0,0,1-1.22.21,2.07,2.07,0,0,1-1.49-.51,1.93,1.93,0,0,1-.54-1.46,1.7,1.7,0,0,1,.75-1.51,4.26,4.26,0,0,1,2.27-.56l1.11,0V328a1.3,1.3,0,0,0-.29-.93,1.18,1.18,0,0,0-.89-.31,3,3,0,0,0-1,.15,6.72,6.72,0,0,0-.88.35l-.44-1a5.05,5.05,0,0,1,1.15-.42,5.65,5.65,0,0,1,1.18-.14,2.8,2.8,0,0,1,1.87.54,2.1,2.1,0,0,1,.63,1.69v4.37Zm-2.06-.94a1.71,1.71,0,0,0,1.21-.42,1.52,1.52,0,0,0,.45-1.17v-.57l-.83,0a2.81,2.81,0,0,0-1.41.32,1,1,0,0,0-.45.89.87.87,0,0,0,.26.67A1.09,1.09,0,0,0,306.13,331.35Z" transform="translate(-9.01 -161.15)"/><path class="d" d="M314.13,324.09a.74.74,0,0,1,.2-.57.8.8,0,0,1,.58-.2.77.77,0,0,1,.56.2.74.74,0,0,1,.2.57.72.72,0,0,1-.2.55.73.73,0,0,1-.56.21.76.76,0,0,1-.58-.21A.72.72,0,0,1,314.13,324.09Zm1.46,8.2h-1.38v-6.48h1.38Z" transform="translate(-9.01 -161.15)"/><path class="d" d="M323.26,332.29h-1.39v-4a1.76,1.76,0,0,0-.3-1.12,1.19,1.19,0,0,0-1-.37,1.52,1.52,0,0,0-1.27.52,2.83,2.83,0,0,0-.41,1.73v3.23h-1.38v-6.48h1.08l.2.85h.07a1.89,1.89,0,0,1,.83-.72,2.76,2.76,0,0,1,1.19-.25,2.08,2.08,0,0,1,2.34,2.37Z" transform="translate(-9.01 -161.15)"/><path class="d" d="M333.6,332.29l-.83-3c-.11-.32-.29-1.06-.56-2.23h0c-.22,1.06-.4,1.8-.54,2.25l-.86,3h-1.52l-1.82-6.48h1.41l.82,3.19c.19.79.32,1.46.4,2h0c0-.29.1-.61.18-1s.15-.65.2-.83l1-3.41H333l1,3.41c.05.19.13.48.22.88a6.8,6.8,0,0,1,.15.92h.05a17.08,17.08,0,0,1,.41-2l.84-3.19H337l-1.83,6.48Z" transform="translate(-9.01 -161.15)"/><path class="d" d="M343.79,332.29h-1.38v-4a1.76,1.76,0,0,0-.3-1.12,1.19,1.19,0,0,0-1-.37,1.52,1.52,0,0,0-1.27.52,2.82,2.82,0,0,0-.41,1.74v3.22h-1.38v-9.12h1.38v2.31a10,10,0,0,1-.07,1.19h.09a1.82,1.82,0,0,1,.78-.72,2.52,2.52,0,0,1,1.17-.26,2.08,2.08,0,0,1,2.35,2.37Z" transform="translate(-9.01 -161.15)"/><path class="d" d="M345.63,324.09a.74.74,0,0,1,.2-.57.8.8,0,0,1,.58-.2.77.77,0,0,1,.56.2.74.74,0,0,1,.2.57.72.72,0,0,1-.2.55.73.73,0,0,1-.56.21.76.76,0,0,1-.58-.21A.72.72,0,0,1,345.63,324.09Zm1.46,8.2h-1.38v-6.48h1.38Z" transform="translate(-9.01 -161.15)"/><path class="d" d="M351.67,332.4a2.85,2.85,0,0,1-2.24-.85,3.62,3.62,0,0,1-.76-2.47,3.55,3.55,0,0,1,.8-2.51,2.94,2.94,0,0,1,2.31-.88,4.35,4.35,0,0,1,1.84.38l-.41,1.11a4.07,4.07,0,0,0-1.44-.34c-1.12,0-1.68.74-1.68,2.23a2.75,2.75,0,0,0,.41,1.64,1.47,1.47,0,0,0,1.23.55,3.54,3.54,0,0,0,1.74-.46V332a2.71,2.71,0,0,1-.79.31A4.78,4.78,0,0,1,351.67,332.4Z" transform="translate(-9.01 -161.15)"/><path class="d" d="M360.7,332.29h-1.39v-4a1.76,1.76,0,0,0-.3-1.12,1.19,1.19,0,0,0-1-.37,1.54,1.54,0,0,0-1.27.52,2.89,2.89,0,0,0-.41,1.74v3.22H355v-9.12h1.37v2.31a10,10,0,0,1-.07,1.19h.09a1.94,1.94,0,0,1,.78-.72,2.58,2.58,0,0,1,1.17-.26,2.09,2.09,0,0,1,2.36,2.37Z" transform="translate(-9.01 -161.15)"/><path class="d" d="M372.42,332.29h-1.63l-2.69-3.88-.82.67v3.21h-1.4v-8.57h1.4v4.09q.57-.71,1.14-1.35l2.31-2.74h1.6l-3.22,3.76Z" transform="translate(-9.01 -161.15)"/><path class="d" d="M378,332.29l-.19-.85h-.07a2,2,0,0,1-.82.71,2.76,2.76,0,0,1-1.21.25,2.38,2.38,0,0,1-1.76-.58,2.46,2.46,0,0,1-.58-1.78v-4.23h1.39v4a1.7,1.7,0,0,0,.31,1.12,1.15,1.15,0,0,0,.95.37,1.5,1.5,0,0,0,1.27-.52,2.77,2.77,0,0,0,.41-1.73v-3.23h1.38v6.48Z" transform="translate(-9.01 -161.15)"/><path class="d" d="M384.33,325.69a2.24,2.24,0,0,1,1.89.88,4.88,4.88,0,0,1,0,4.95,2.51,2.51,0,0,1-3.82,0h-.09l-.25.77h-1v-9.12h1.37v2.17c0,.16,0,.4,0,.71s0,.52,0,.61h.05A2.19,2.19,0,0,1,384.33,325.69Zm-.36,1.12a1.43,1.43,0,0,0-1.2.49,2.93,2.93,0,0,0-.38,1.64v.1a3,3,0,0,0,.38,1.71,1.4,1.4,0,0,0,1.22.53,1.23,1.23,0,0,0,1.11-.58,3,3,0,0,0,.38-1.68C385.48,327.55,385,326.81,384,326.81Z" transform="translate(-9.01 -161.15)"/><path class="d" d="M391.32,332.4a3.13,3.13,0,0,1-2.36-.88,3.35,3.35,0,0,1-.85-2.43,3.65,3.65,0,0,1,.79-2.49,2.72,2.72,0,0,1,2.17-.91,2.67,2.67,0,0,1,2,.78,3,3,0,0,1,.74,2.14v.75h-4.31a2,2,0,0,0,.51,1.45,1.76,1.76,0,0,0,1.35.5,5.19,5.19,0,0,0,1.07-.1,7,7,0,0,0,1.06-.36V332a3.83,3.83,0,0,1-1,.34A5.9,5.9,0,0,1,391.32,332.4Zm-.25-5.67a1.36,1.36,0,0,0-1.05.42,2,2,0,0,0-.47,1.21h2.94a1.79,1.79,0,0,0-.39-1.21A1.31,1.31,0,0,0,391.07,326.73Z" transform="translate(-9.01 -161.15)"/><path class="d" d="M398.7,325.69a3.23,3.23,0,0,1,.68.06l-.13,1.28a2.48,2.48,0,0,0-.61-.07,1.76,1.76,0,0,0-1.34.54,2,2,0,0,0-.51,1.4v3.39h-1.38v-6.48h1.08l.18,1.14h.07a2.49,2.49,0,0,1,.84-.92A2,2,0,0,1,398.7,325.69Z" transform="translate(-9.01 -161.15)"/><path class="d" d="M406.28,332.29H404.9v-4a1.76,1.76,0,0,0-.3-1.12,1.19,1.19,0,0,0-1-.37,1.55,1.55,0,0,0-1.28.52,2.84,2.84,0,0,0-.4,1.73v3.23h-1.38v-6.48h1.08l.19.85h.07a2,2,0,0,1,.84-.72,2.73,2.73,0,0,1,1.19-.25,2.07,2.07,0,0,1,2.33,2.37Z" transform="translate(-9.01 -161.15)"/><path class="d" d="M411,332.4a3.1,3.1,0,0,1-2.36-.88,3.35,3.35,0,0,1-.86-2.43,3.7,3.7,0,0,1,.79-2.49,2.74,2.74,0,0,1,2.18-.91,2.65,2.65,0,0,1,2,.78,3,3,0,0,1,.75,2.14v.75h-4.32a2.13,2.13,0,0,0,.51,1.45,1.76,1.76,0,0,0,1.35.5,5.12,5.12,0,0,0,1.07-.1,7.09,7.09,0,0,0,1.07-.36V332a4.08,4.08,0,0,1-1,.34A6,6,0,0,1,411,332.4Zm-.25-5.67a1.36,1.36,0,0,0-1,.42,2,2,0,0,0-.48,1.21h2.95a1.79,1.79,0,0,0-.39-1.21A1.32,1.32,0,0,0,410.78,326.73Z" transform="translate(-9.01 -161.15)"/><path class="d" d="M417.53,331.29a3.27,3.27,0,0,0,1-.16v1a3,3,0,0,1-.59.17,4.56,4.56,0,0,1-.75.06c-1.31,0-2-.68-2-2.06v-3.49h-.88v-.61l.95-.5.47-1.37h.84v1.44h1.85v1h-1.85v3.47a1,1,0,0,0,.25.73A.92.92,0,0,0,417.53,331.29Z" transform="translate(-9.01 -161.15)"/><path class="d" d="M422.66,332.4a3.1,3.1,0,0,1-2.36-.88,3.35,3.35,0,0,1-.86-2.43,3.7,3.7,0,0,1,.79-2.49,2.74,2.74,0,0,1,2.18-.91,2.69,2.69,0,0,1,2,.78,3,3,0,0,1,.74,2.14v.75h-4.32a2.13,2.13,0,0,0,.51,1.45,1.76,1.76,0,0,0,1.35.5,5.12,5.12,0,0,0,1.07-.1,7.09,7.09,0,0,0,1.07-.36V332a4.08,4.08,0,0,1-1,.34A6,6,0,0,1,422.66,332.4Zm-.25-5.67a1.36,1.36,0,0,0-1.05.42,2,2,0,0,0-.48,1.21h2.95a1.79,1.79,0,0,0-.39-1.21A1.31,1.31,0,0,0,422.41,326.73Z" transform="translate(-9.01 -161.15)"/><path class="d" d="M431.1,330.44a1.71,1.71,0,0,1-.69,1.46,3.29,3.29,0,0,1-2,.5,4.67,4.67,0,0,1-2.08-.39v-1.19a5.12,5.12,0,0,0,2.12.53c.85,0,1.27-.26,1.27-.77a.59.59,0,0,0-.14-.41,1.56,1.56,0,0,0-.46-.34,7,7,0,0,0-.9-.4,4.15,4.15,0,0,1-1.51-.86,1.64,1.64,0,0,1-.4-1.13,1.5,1.5,0,0,1,.67-1.29,3.18,3.18,0,0,1,1.83-.46,5.14,5.14,0,0,1,2.16.46l-.44,1a4.79,4.79,0,0,0-1.77-.43c-.72,0-1.09.2-1.09.62a.62.62,0,0,0,.29.51,5.88,5.88,0,0,0,1.24.58,5.91,5.91,0,0,1,1.16.57,1.7,1.7,0,0,1,.54.6A1.66,1.66,0,0,1,431.1,330.44Z" transform="translate(-9.01 -161.15)"/><path class="d" d="M438.32,332.4a2.85,2.85,0,0,1-2.24-.85,3.62,3.62,0,0,1-.76-2.47,3.55,3.55,0,0,1,.8-2.51,2.94,2.94,0,0,1,2.31-.88,4.35,4.35,0,0,1,1.84.38l-.41,1.11a4.12,4.12,0,0,0-1.44-.34c-1.13,0-1.69.74-1.69,2.23a2.68,2.68,0,0,0,.42,1.64,1.47,1.47,0,0,0,1.23.55,3.59,3.59,0,0,0,1.74-.46V332a2.71,2.71,0,0,1-.79.31A4.91,4.91,0,0,1,438.32,332.4Z" transform="translate(-9.01 -161.15)"/><path class="d" d="M445.7,332.29l-.28-.91h0a2.64,2.64,0,0,1-.95.81,3,3,0,0,1-1.22.21,2.09,2.09,0,0,1-1.49-.51,2,2,0,0,1-.53-1.46,1.72,1.72,0,0,1,.74-1.51,4.28,4.28,0,0,1,2.27-.56l1.12,0V328a1.35,1.35,0,0,0-.29-.93,1.21,1.21,0,0,0-.9-.31,3.11,3.11,0,0,0-1,.15,7.32,7.32,0,0,0-.88.35l-.44-1a5.24,5.24,0,0,1,1.15-.42,5.74,5.74,0,0,1,1.19-.14,2.79,2.79,0,0,1,1.86.54,2.1,2.1,0,0,1,.63,1.69v4.37Zm-2.05-.94a1.69,1.69,0,0,0,1.2-.42,1.49,1.49,0,0,0,.46-1.17v-.57l-.84,0a2.84,2.84,0,0,0-1.41.32,1,1,0,0,0-.44.89.84.84,0,0,0,.26.67A1.08,1.08,0,0,0,443.65,331.35Z" transform="translate(-9.01 -161.15)"/><path class="d" d="M454.31,332.29h-1.39v-4a1.76,1.76,0,0,0-.3-1.12,1.19,1.19,0,0,0-1-.37,1.52,1.52,0,0,0-1.27.52,2.83,2.83,0,0,0-.41,1.73v3.23h-1.37v-6.48h1.07l.2.85H450a1.89,1.89,0,0,1,.83-.72,2.76,2.76,0,0,1,1.19-.25,2.08,2.08,0,0,1,2.34,2.37Z" transform="translate(-9.01 -161.15)"/><path class="d" d="M461.75,331.29a3.18,3.18,0,0,0,1-.16v1a2.83,2.83,0,0,1-.59.17,4.52,4.52,0,0,1-.74.06c-1.31,0-2-.68-2-2.06v-3.49h-.89v-.61l.95-.5.47-1.37h.85v1.44h1.85v1h-1.85v3.47a.94.94,0,0,0,.25.73A.9.9,0,0,0,461.75,331.29Z" transform="translate(-9.01 -161.15)"/><path class="d" d="M469.76,332.29h-1.38v-4a1.76,1.76,0,0,0-.31-1.12,1.18,1.18,0,0,0-.95-.37,1.55,1.55,0,0,0-1.28.52,2.89,2.89,0,0,0-.41,1.74v3.22h-1.37v-9.12h1.37v2.31a10,10,0,0,1-.07,1.19h.09a1.94,1.94,0,0,1,.78-.72,2.58,2.58,0,0,1,1.17-.26,2.09,2.09,0,0,1,2.36,2.37Z" transform="translate(-9.01 -161.15)"/><path class="d" d="M475,325.69a3.27,3.27,0,0,1,.69.06l-.14,1.28a2.43,2.43,0,0,0-.61-.07,1.78,1.78,0,0,0-1.34.54,2,2,0,0,0-.51,1.4v3.39h-1.38v-6.48h1.08l.18,1.14H473a2.67,2.67,0,0,1,.84-.92A2,2,0,0,1,475,325.69Z" transform="translate(-9.01 -161.15)"/><path class="d" d="M482.6,329a3.54,3.54,0,0,1-.82,2.47,2.9,2.9,0,0,1-2.27.89,3,3,0,0,1-1.6-.41,2.64,2.64,0,0,1-1.07-1.17,4,4,0,0,1-.38-1.78,3.52,3.52,0,0,1,.81-2.47,2.93,2.93,0,0,1,2.28-.88,2.87,2.87,0,0,1,2.23.9A3.55,3.55,0,0,1,482.6,329Zm-4.72,0c0,1.49.55,2.24,1.66,2.24s1.64-.75,1.64-2.24-.55-2.23-1.65-2.23a1.42,1.42,0,0,0-1.26.58A2.92,2.92,0,0,0,477.88,329Z" transform="translate(-9.01 -161.15)"/><path class="d" d="M486.59,331.29a3.23,3.23,0,0,0,1-.16v1a2.83,2.83,0,0,1-.59.17,4.56,4.56,0,0,1-.75.06c-1.3,0-1.95-.68-1.95-2.06v-3.49h-.89v-.61l.95-.5.47-1.37h.85v1.44h1.85v1h-1.85v3.47a.94.94,0,0,0,.25.73A.88.88,0,0,0,486.59,331.29Z" transform="translate(-9.01 -161.15)"/><path class="d" d="M491.31,331.29a3.27,3.27,0,0,0,1-.16v1a3,3,0,0,1-.59.17,4.56,4.56,0,0,1-.75.06c-1.3,0-2-.68-2-2.06v-3.49h-.88v-.61l.95-.5.47-1.37h.85v1.44h1.84v1h-1.84v3.47a.94.94,0,0,0,.25.73A.88.88,0,0,0,491.31,331.29Z" transform="translate(-9.01 -161.15)"/><path class="d" d="M495,332.29h-1.38v-9.12H495Z" transform="translate(-9.01 -161.15)"/><path class="d" d="M499.79,332.4a3.14,3.14,0,0,1-2.37-.88,3.35,3.35,0,0,1-.85-2.43,3.65,3.65,0,0,1,.79-2.49,2.72,2.72,0,0,1,2.18-.91,2.65,2.65,0,0,1,2,.78,3,3,0,0,1,.75,2.14v.75H498a2.13,2.13,0,0,0,.51,1.45,1.76,1.76,0,0,0,1.35.5,5.19,5.19,0,0,0,1.07-.1,6.64,6.64,0,0,0,1.06-.36V332a3.83,3.83,0,0,1-1,.34A5.87,5.87,0,0,1,499.79,332.4Zm-.25-5.67a1.4,1.4,0,0,0-1.06.42,2,2,0,0,0-.47,1.21H501a1.74,1.74,0,0,0-.38-1.21A1.32,1.32,0,0,0,499.54,326.73Z" transform="translate(-9.01 -161.15)"/><path class="d" d="M306.67,346.9a2.29,2.29,0,0,1-1.9-.87,4.81,4.81,0,0,1,0-4.95,2.3,2.3,0,0,1,1.91-.89,2.22,2.22,0,0,1,1.94.94h.07a9.4,9.4,0,0,1-.1-1.1v-2.36H310v9.12h-1.08l-.24-.85h-.07A2.19,2.19,0,0,1,306.67,346.9Zm.36-1.11a1.5,1.5,0,0,0,1.24-.48,2.49,2.49,0,0,0,.4-1.55v-.19a2.86,2.86,0,0,0-.4-1.74,1.5,1.5,0,0,0-1.25-.52,1.29,1.29,0,0,0-1.12.59,3.07,3.07,0,0,0-.39,1.68,3,3,0,0,0,.38,1.65A1.31,1.31,0,0,0,307,345.79Z" transform="translate(-9.01 -161.15)"/><path class="d" d="M314.79,346.9a3.14,3.14,0,0,1-2.37-.88,3.35,3.35,0,0,1-.85-2.43,3.65,3.65,0,0,1,.79-2.49,2.72,2.72,0,0,1,2.17-.91,2.66,2.66,0,0,1,2,.78,3,3,0,0,1,.75,2.14v.75H313a2.13,2.13,0,0,0,.51,1.45,1.76,1.76,0,0,0,1.35.5,5.19,5.19,0,0,0,1.07-.1,7,7,0,0,0,1.06-.36v1.11a3.83,3.83,0,0,1-1,.34A5.87,5.87,0,0,1,314.79,346.9Zm-.26-5.67a1.39,1.39,0,0,0-1,.42,2,2,0,0,0-.47,1.21H316a1.79,1.79,0,0,0-.38-1.21A1.33,1.33,0,0,0,314.53,341.23Z" transform="translate(-9.01 -161.15)"/><path class="d" d="M322.16,346.9a2.26,2.26,0,0,1-1.91-.88h-.08c.05.55.08.88.08,1v2.65h-1.38v-9.36H320c0,.12.1.41.2.86h.07a2.16,2.16,0,0,1,1.93-1,2.24,2.24,0,0,1,1.89.88,4.8,4.8,0,0,1,0,4.94A2.25,2.25,0,0,1,322.16,346.9Zm-.34-5.59a1.46,1.46,0,0,0-1.2.48,2.55,2.55,0,0,0-.37,1.54v.21a3,3,0,0,0,.37,1.71,1.41,1.41,0,0,0,1.23.53,1.26,1.26,0,0,0,1.1-.59,3,3,0,0,0,.38-1.67,2.92,2.92,0,0,0-.38-1.65A1.28,1.28,0,0,0,321.82,341.31Z" transform="translate(-9.01 -161.15)"/><path class="d" d="M329.18,346.9a3.14,3.14,0,0,1-2.37-.88,3.35,3.35,0,0,1-.85-2.43,3.65,3.65,0,0,1,.79-2.49,2.72,2.72,0,0,1,2.17-.91,2.66,2.66,0,0,1,2,.78,3,3,0,0,1,.75,2.14v.75h-4.32a2.13,2.13,0,0,0,.51,1.45,1.76,1.76,0,0,0,1.35.5,5.19,5.19,0,0,0,1.07-.1,6.64,6.64,0,0,0,1.06-.36v1.11a3.83,3.83,0,0,1-1,.34A5.87,5.87,0,0,1,329.18,346.9Zm-.26-5.67a1.39,1.39,0,0,0-1.05.42,2,2,0,0,0-.47,1.21h2.94a1.79,1.79,0,0,0-.38-1.21A1.33,1.33,0,0,0,328.92,341.23Z" transform="translate(-9.01 -161.15)"/><path class="d" d="M339,346.79h-1.38v-4a1.76,1.76,0,0,0-.3-1.12,1.19,1.19,0,0,0-1-.37,1.55,1.55,0,0,0-1.28.52,2.84,2.84,0,0,0-.4,1.73v3.23h-1.38v-6.48h1.08l.19.85h.07a2,2,0,0,1,.83-.72,2.77,2.77,0,0,1,1.2-.25,2.08,2.08,0,0,1,2.33,2.37Z" transform="translate(-9.01 -161.15)"/><path class="d" d="M343.06,346.9a2.26,2.26,0,0,1-1.89-.87,4.81,4.81,0,0,1,0-4.95,2.28,2.28,0,0,1,1.91-.89,2.22,2.22,0,0,1,1.94.94h.07a9.4,9.4,0,0,1-.1-1.1v-2.36h1.39v9.12h-1.08l-.24-.85H345A2.2,2.2,0,0,1,343.06,346.9Zm.37-1.11a1.5,1.5,0,0,0,1.24-.48,2.49,2.49,0,0,0,.4-1.55v-.19a2.93,2.93,0,0,0-.4-1.74,1.5,1.5,0,0,0-1.25-.52,1.28,1.28,0,0,0-1.12.59,3.07,3.07,0,0,0-.39,1.68,3,3,0,0,0,.38,1.65A1.29,1.29,0,0,0,343.43,345.79Z" transform="translate(-9.01 -161.15)"/><path class="d" d="M348.27,338.59a.77.77,0,0,1,.2-.57.82.82,0,0,1,.58-.2.81.81,0,0,1,.57.2.77.77,0,0,1,.2.57.76.76,0,0,1-.2.55.77.77,0,0,1-.57.21.78.78,0,0,1-.58-.21A.76.76,0,0,1,348.27,338.59Zm1.46,8.2h-1.38v-6.48h1.38Z" transform="translate(-9.01 -161.15)"/><path class="d" d="M357.4,346.79H356v-4a1.76,1.76,0,0,0-.3-1.12,1.19,1.19,0,0,0-1-.37,1.55,1.55,0,0,0-1.28.52,2.84,2.84,0,0,0-.4,1.73v3.23H351.7v-6.48h1.08l.19.85H353a2,2,0,0,1,.83-.72,2.77,2.77,0,0,1,1.2-.25,2.08,2.08,0,0,1,2.33,2.37Z" transform="translate(-9.01 -161.15)"/><path class="d" d="M364.79,340.31v.75l-1.11.21a1.56,1.56,0,0,1,.25.5,1.89,1.89,0,0,1,.1.63,1.94,1.94,0,0,1-.69,1.58,2.89,2.89,0,0,1-1.9.57,3.13,3.13,0,0,1-.56,0,.77.77,0,0,0-.45.64.37.37,0,0,0,.21.34,1.86,1.86,0,0,0,.76.11h1.13a2.53,2.53,0,0,1,1.63.45,1.63,1.63,0,0,1,.56,1.32,1.91,1.91,0,0,1-.91,1.7,4.75,4.75,0,0,1-2.62.6,3.61,3.61,0,0,1-2-.47,1.5,1.5,0,0,1-.7-1.33,1.4,1.4,0,0,1,.38-1,2.05,2.05,0,0,1,1-.57,1,1,0,0,1-.45-.37,1,1,0,0,1-.18-.55,1,1,0,0,1,.21-.62,2.43,2.43,0,0,1,.6-.49,1.84,1.84,0,0,1-.81-.71,2.09,2.09,0,0,1-.32-1.15,2.07,2.07,0,0,1,.67-1.63,2.76,2.76,0,0,1,1.89-.58,3.86,3.86,0,0,1,.58,0,2.82,2.82,0,0,1,.46.08Zm-5.09,7.48a.75.75,0,0,0,.4.69,2.21,2.21,0,0,0,1.13.24,3.42,3.42,0,0,0,1.67-.32,1,1,0,0,0,.55-.86.64.64,0,0,0-.3-.6,2.39,2.39,0,0,0-1.12-.18h-1a1.48,1.48,0,0,0-.94.28A.9.9,0,0,0,359.7,347.79Zm.59-5.39a1.3,1.3,0,0,0,.31.94,1.19,1.19,0,0,0,.9.33c.8,0,1.2-.43,1.2-1.28a1.43,1.43,0,0,0-.3-1,1.1,1.1,0,0,0-.9-.35,1.16,1.16,0,0,0-.9.34A1.42,1.42,0,0,0,360.29,342.4Z" transform="translate(-9.01 -161.15)"/><path class="d" d="M374.86,343.54A3.54,3.54,0,0,1,374,346a2.9,2.9,0,0,1-2.27.89,3,3,0,0,1-1.6-.41,2.64,2.64,0,0,1-1.07-1.17,4,4,0,0,1-.38-1.78,3.52,3.52,0,0,1,.81-2.47,2.93,2.93,0,0,1,2.28-.88,2.87,2.87,0,0,1,2.23.9A3.55,3.55,0,0,1,374.86,343.54Zm-4.72,0c0,1.49.55,2.24,1.66,2.24s1.64-.75,1.64-2.24-.55-2.23-1.65-2.23a1.42,1.42,0,0,0-1.26.58A2.92,2.92,0,0,0,370.14,343.54Z" transform="translate(-9.01 -161.15)"/><path class="d" d="M382.14,346.79h-1.38v-4a1.76,1.76,0,0,0-.3-1.12,1.21,1.21,0,0,0-1-.37,1.55,1.55,0,0,0-1.28.52,2.84,2.84,0,0,0-.4,1.73v3.23h-1.38v-6.48h1.08l.19.85h.07a2,2,0,0,1,.83-.72,2.77,2.77,0,0,1,1.2-.25,2.08,2.08,0,0,1,2.33,2.37Z" transform="translate(-9.01 -161.15)"/><path class="d" d="M392.92,343.54a3.53,3.53,0,0,1-.81,2.47,2.91,2.91,0,0,1-2.27.89,3.06,3.06,0,0,1-1.61-.41,2.7,2.7,0,0,1-1.07-1.17,4,4,0,0,1-.37-1.78,3.56,3.56,0,0,1,.8-2.47,2.93,2.93,0,0,1,2.28-.88,2.87,2.87,0,0,1,2.23.9A3.51,3.51,0,0,1,392.92,343.54Zm-4.72,0c0,1.49.56,2.24,1.66,2.24s1.64-.75,1.64-2.24-.55-2.23-1.65-2.23a1.42,1.42,0,0,0-1.26.58A2.92,2.92,0,0,0,388.2,343.54Z" transform="translate(-9.01 -161.15)"/><path class="d" d="M396.92,345.79a3.17,3.17,0,0,0,1-.16v1a2.72,2.72,0,0,1-.58.17,4.56,4.56,0,0,1-.75.06c-1.31,0-2-.68-2-2.06v-3.49h-.88v-.61l.95-.5.47-1.37H396v1.44h1.85v1H396v3.47a1,1,0,0,0,.25.73A.92.92,0,0,0,396.92,345.79Z" transform="translate(-9.01 -161.15)"/><path class="d" d="M404.92,346.79h-1.38v-4a1.76,1.76,0,0,0-.3-1.12,1.19,1.19,0,0,0-1-.37,1.56,1.56,0,0,0-1.28.52,2.9,2.9,0,0,0-.4,1.74v3.22h-1.38v-9.12h1.38V340c0,.38,0,.77-.07,1.19h.08a1.9,1.9,0,0,1,.79-.72,2.52,2.52,0,0,1,1.17-.26,2.08,2.08,0,0,1,2.35,2.37Z" transform="translate(-9.01 -161.15)"/><path class="d" d="M409.67,346.9a3.14,3.14,0,0,1-2.37-.88,3.35,3.35,0,0,1-.85-2.43,3.65,3.65,0,0,1,.79-2.49,2.72,2.72,0,0,1,2.18-.91,2.65,2.65,0,0,1,2,.78,3,3,0,0,1,.75,2.14v.75h-4.32a2.13,2.13,0,0,0,.51,1.45,1.76,1.76,0,0,0,1.35.5,5.19,5.19,0,0,0,1.07-.1,6.64,6.64,0,0,0,1.06-.36v1.11a3.83,3.83,0,0,1-1,.34A5.87,5.87,0,0,1,409.67,346.9Zm-.25-5.67a1.4,1.4,0,0,0-1.06.42,2,2,0,0,0-.47,1.21h2.94a1.74,1.74,0,0,0-.38-1.21A1.32,1.32,0,0,0,409.42,341.23Z" transform="translate(-9.01 -161.15)"/><path class="d" d="M417,340.19a3.17,3.17,0,0,1,.68.06l-.13,1.28a2.48,2.48,0,0,0-.61-.07,1.76,1.76,0,0,0-1.34.54,2,2,0,0,0-.51,1.4v3.39h-1.38v-6.48h1.08l.18,1.14h.07a2.67,2.67,0,0,1,.84-.92A2,2,0,0,1,417,340.19Z" transform="translate(-9.01 -161.15)"/><path class="d" d="M424.66,346.9a2.84,2.84,0,0,1-2.24-.85,3.62,3.62,0,0,1-.76-2.47,3.55,3.55,0,0,1,.8-2.51,2.94,2.94,0,0,1,2.31-.88,4.35,4.35,0,0,1,1.84.38l-.41,1.11a4.17,4.17,0,0,0-1.45-.34c-1.12,0-1.68.74-1.68,2.23a2.68,2.68,0,0,0,.42,1.64,1.47,1.47,0,0,0,1.23.55,3.59,3.59,0,0,0,1.74-.46v1.2a2.83,2.83,0,0,1-.79.31A4.91,4.91,0,0,1,424.66,346.9Z" transform="translate(-9.01 -161.15)"/><path class="d" d="M433.73,343.54a3.53,3.53,0,0,1-.81,2.47,2.91,2.91,0,0,1-2.27.89,3.06,3.06,0,0,1-1.61-.41,2.7,2.7,0,0,1-1.07-1.17,4,4,0,0,1-.37-1.78,3.52,3.52,0,0,1,.81-2.47,3.29,3.29,0,0,1,4.5,0A3.51,3.51,0,0,1,433.73,343.54Zm-4.72,0c0,1.49.56,2.24,1.66,2.24s1.64-.75,1.64-2.24-.55-2.23-1.65-2.23a1.42,1.42,0,0,0-1.26.58A2.92,2.92,0,0,0,429,343.54Z" transform="translate(-9.01 -161.15)"/><path class="d" d="M441,346.79h-1.38v-4a1.76,1.76,0,0,0-.3-1.12,1.19,1.19,0,0,0-1-.37,1.55,1.55,0,0,0-1.28.52,2.91,2.91,0,0,0-.4,1.73v3.23h-1.38v-6.48h1.08l.19.85h.08a1.89,1.89,0,0,1,.83-.72,2.76,2.76,0,0,1,1.19-.25,2.07,2.07,0,0,1,2.33,2.37Z" transform="translate(-9.01 -161.15)"/><path class="d" d="M445.34,345.79a3.18,3.18,0,0,0,1-.16v1a2.83,2.83,0,0,1-.59.17,4.52,4.52,0,0,1-.74.06c-1.31,0-2-.68-2-2.06v-3.49h-.89v-.61l.95-.5.47-1.37h.85v1.44h1.85v1h-1.85v3.47a1,1,0,0,0,.25.73A.92.92,0,0,0,445.34,345.79Z" transform="translate(-9.01 -161.15)"/><path class="d" d="M451.7,346.79l-.27-.91h-.05a2.62,2.62,0,0,1-.94.81,3.07,3.07,0,0,1-1.22.21,2.06,2.06,0,0,1-1.49-.51,1.93,1.93,0,0,1-.54-1.46,1.72,1.72,0,0,1,.74-1.51,4.31,4.31,0,0,1,2.27-.56l1.12,0v-.35a1.35,1.35,0,0,0-.29-.93,1.19,1.19,0,0,0-.9-.31,3,3,0,0,0-.95.15,6.2,6.2,0,0,0-.88.35l-.45-1a5.14,5.14,0,0,1,1.16-.42,5.57,5.57,0,0,1,1.18-.14,2.82,2.82,0,0,1,1.87.54,2.1,2.1,0,0,1,.63,1.69v4.37Zm-2.05-.94a1.73,1.73,0,0,0,1.21-.42,1.52,1.52,0,0,0,.45-1.17v-.57l-.83,0a2.89,2.89,0,0,0-1.42.32,1,1,0,0,0-.44.89.87.87,0,0,0,.26.67A1.09,1.09,0,0,0,449.65,345.85Z" transform="translate(-9.01 -161.15)"/><path class="d" d="M454.53,338.59a.74.74,0,0,1,.2-.57.8.8,0,0,1,.58-.2.77.77,0,0,1,.56.2.74.74,0,0,1,.2.57.72.72,0,0,1-.2.55.73.73,0,0,1-.56.21.76.76,0,0,1-.58-.21A.72.72,0,0,1,454.53,338.59Zm1.46,8.2h-1.38v-6.48H456Z" transform="translate(-9.01 -161.15)"/><path class="d" d="M463.66,346.79h-1.39v-4a1.76,1.76,0,0,0-.3-1.12,1.19,1.19,0,0,0-1-.37,1.51,1.51,0,0,0-1.27.52,2.83,2.83,0,0,0-.41,1.73v3.23H458v-6.48H459l.2.85h.07a1.89,1.89,0,0,1,.83-.72,2.76,2.76,0,0,1,1.19-.25,2.08,2.08,0,0,1,2.34,2.37Z" transform="translate(-9.01 -161.15)"/><path class="d" d="M468.4,346.9A3.12,3.12,0,0,1,466,346a3.35,3.35,0,0,1-.86-2.43,3.65,3.65,0,0,1,.8-2.49,3,3,0,0,1,4.2-.13,3,3,0,0,1,.74,2.14v.75H466.6a2.13,2.13,0,0,0,.51,1.45,1.77,1.77,0,0,0,1.36.5,5.19,5.19,0,0,0,1.07-.1,7,7,0,0,0,1.06-.36v1.11a4.08,4.08,0,0,1-1,.34A6,6,0,0,1,468.4,346.9Zm-.25-5.67a1.36,1.36,0,0,0-1,.42,1.94,1.94,0,0,0-.47,1.21h2.94a1.79,1.79,0,0,0-.39-1.21A1.31,1.31,0,0,0,468.15,341.23Z" transform="translate(-9.01 -161.15)"/><path class="d" d="M475.77,340.19a3.27,3.27,0,0,1,.69.06l-.14,1.28a2.43,2.43,0,0,0-.61-.07,1.74,1.74,0,0,0-1.33.54,1.93,1.93,0,0,0-.52,1.4v3.39h-1.37v-6.48h1.07l.19,1.14h.07a2.49,2.49,0,0,1,.84-.92A1.94,1.94,0,0,1,475.77,340.19Z" transform="translate(-9.01 -161.15)"/><path class="d" d="M482,344.94a1.71,1.71,0,0,1-.69,1.46,3.29,3.29,0,0,1-2,.5,4.7,4.7,0,0,1-2.08-.39v-1.19a5.13,5.13,0,0,0,2.13.53c.85,0,1.27-.26,1.27-.77a.64.64,0,0,0-.14-.41,1.88,1.88,0,0,0-.46-.34,8.49,8.49,0,0,0-.9-.4,4.21,4.21,0,0,1-1.52-.86,1.63,1.63,0,0,1-.39-1.13,1.48,1.48,0,0,1,.67-1.29,3.18,3.18,0,0,1,1.83-.46,5.14,5.14,0,0,1,2.16.46l-.45,1a4.79,4.79,0,0,0-1.76-.43c-.73,0-1.09.2-1.09.62a.61.61,0,0,0,.28.51,6.16,6.16,0,0,0,1.24.58,5.77,5.77,0,0,1,1.17.57,1.7,1.7,0,0,1,.54.6A1.78,1.78,0,0,1,482,344.94Z" transform="translate(-9.01 -161.15)"/><polygon class="e" points="264 154.33 264 159.83 256 153.83 264 147.83 264 153.33 504 153.33 504 147.83 512 153.83 504 159.83 504 154.33 264 154.33"/><path class="d" d="M158.84,229l-2.49-7.16h0c.06,1.06.1,2.06.1,3V229h-1.27v-8.57h2l2.38,6.81h0l2.45-6.81h2V229h-1.34v-4.24c0-.43,0-1,0-1.67s0-1.09.05-1.24h0L160.08,229Z" transform="translate(-9.01 -161.15)"/><path class="d" d="M170.12,229l-.28-.91h0a2.64,2.64,0,0,1-1,.81,3,3,0,0,1-1.22.21,2.09,2.09,0,0,1-1.49-.51,2,2,0,0,1-.53-1.46,1.7,1.7,0,0,1,.74-1.51,4.28,4.28,0,0,1,2.27-.56l1.12,0v-.34a1.33,1.33,0,0,0-.29-.93,1.19,1.19,0,0,0-.9-.31,3.11,3.11,0,0,0-1,.15,9.4,9.4,0,0,0-.88.34l-.44-1a5.05,5.05,0,0,1,1.15-.42,5.74,5.74,0,0,1,1.19-.14,2.79,2.79,0,0,1,1.86.54,2.1,2.1,0,0,1,.63,1.69V229Zm-2.05-.94a1.69,1.69,0,0,0,1.2-.42,1.54,1.54,0,0,0,.46-1.18v-.56l-.84,0a2.84,2.84,0,0,0-1.41.32,1,1,0,0,0-.44.89.87.87,0,0,0,.25.67A1.12,1.12,0,0,0,168.07,228.05Z" transform="translate(-9.01 -161.15)"/><path class="d" d="M174.47,225.67l-2.18-3.17h1.57l1.48,2.27,1.49-2.27h1.56l-2.18,3.17L178.5,229h-1.56l-1.6-2.43L173.75,229h-1.56Z" transform="translate(-9.01 -161.15)"/><path class="d" d="M179.55,220.79a.77.77,0,0,1,.2-.57.82.82,0,0,1,.58-.2.81.81,0,0,1,.57.2.77.77,0,0,1,.2.57.76.76,0,0,1-.2.55.76.76,0,0,1-.57.2.77.77,0,0,1-.58-.2A.76.76,0,0,1,179.55,220.79ZM181,229h-1.38V222.5H181Z" transform="translate(-9.01 -161.15)"/><path class="d" d="M188.44,229h-1.38v-4a1.85,1.85,0,0,0-.28-1.11,1,1,0,0,0-.88-.37,1.36,1.36,0,0,0-1.17.52,3,3,0,0,0-.37,1.73V229H183V222.5h1.08l.19.85h.07a1.86,1.86,0,0,1,.78-.71,2.53,2.53,0,0,1,1.13-.25,2,2,0,0,1,2,1h.1a2,2,0,0,1,.8-.75,2.59,2.59,0,0,1,1.2-.27A2.18,2.18,0,0,1,192,223a2.62,2.62,0,0,1,.53,1.79V229h-1.38v-4a1.78,1.78,0,0,0-.28-1.11,1,1,0,0,0-.88-.37,1.38,1.38,0,0,0-1.18.5,2.59,2.59,0,0,0-.37,1.54Z" transform="translate(-9.01 -161.15)"/><path class="d" d="M199,229l-.19-.85h-.07a2,2,0,0,1-.82.7,2.63,2.63,0,0,1-1.21.26,2.4,2.4,0,0,1-1.76-.58,2.47,2.47,0,0,1-.58-1.78V222.5h1.39v4a1.7,1.7,0,0,0,.31,1.12,1.15,1.15,0,0,0,.95.37,1.53,1.53,0,0,0,1.28-.52,2.88,2.88,0,0,0,.4-1.74V222.5h1.39V229Z" transform="translate(-9.01 -161.15)"/><path class="d" d="M207.53,229h-1.38v-4a1.85,1.85,0,0,0-.28-1.11,1,1,0,0,0-.88-.37,1.36,1.36,0,0,0-1.17.52,3,3,0,0,0-.37,1.73V229h-1.38V222.5h1.08l.19.85h.07a1.86,1.86,0,0,1,.78-.71,2.53,2.53,0,0,1,1.13-.25,2,2,0,0,1,2,1h.1a2,2,0,0,1,.8-.75,2.59,2.59,0,0,1,1.2-.27,2.18,2.18,0,0,1,1.69.58,2.62,2.62,0,0,1,.53,1.79V229h-1.38v-4a1.78,1.78,0,0,0-.28-1.11,1,1,0,0,0-.88-.37,1.38,1.38,0,0,0-1.18.5,2.59,2.59,0,0,0-.37,1.54Z" transform="translate(-9.01 -161.15)"/><path class="d" d="M220.45,221.5a2.31,2.31,0,0,0-1.9.85,4.49,4.49,0,0,0,0,4.75,2.33,2.33,0,0,0,1.92.81,5.12,5.12,0,0,0,1.05-.11c.34-.07.7-.17,1.07-.28v1.2a6.36,6.36,0,0,1-2.29.38,3.66,3.66,0,0,1-2.89-1.14,4.77,4.77,0,0,1-1-3.26,5.37,5.37,0,0,1,.49-2.34,3.51,3.51,0,0,1,1.42-1.53,4.23,4.23,0,0,1,2.17-.53,5.35,5.35,0,0,1,2.43.55l-.51,1.16c-.29-.13-.59-.25-.91-.36A3.45,3.45,0,0,0,220.45,221.5Z" transform="translate(-9.01 -161.15)"/><path class="d" d="M230.08,223a2.5,2.5,0,0,1-.88,2.06,3.9,3.9,0,0,1-2.5.71h-.89V229h-1.4v-8.57h2.47a3.7,3.7,0,0,1,2.4.66A2.32,2.32,0,0,1,230.08,223Zm-4.27,1.59h.75a2.69,2.69,0,0,0,1.58-.37,1.38,1.38,0,0,0,.5-1.17,1.35,1.35,0,0,0-.45-1.11,2.25,2.25,0,0,0-1.41-.36h-1Z" transform="translate(-9.01 -161.15)"/><path class="d" d="M238.51,220.42V226a3.29,3.29,0,0,1-.41,1.66,2.68,2.68,0,0,1-1.18,1.1,4.13,4.13,0,0,1-1.84.38,3.46,3.46,0,0,1-2.48-.84,3.05,3.05,0,0,1-.88-2.32v-5.52h1.4v5.42a2.13,2.13,0,0,0,.5,1.56,2,2,0,0,0,1.51.51c1.32,0,2-.7,2-2.08v-5.41Z" transform="translate(-9.01 -161.15)"/><path class="d" d="M247,222.39a3.17,3.17,0,0,1,.68.06l-.13,1.28a2.48,2.48,0,0,0-.61-.07,1.76,1.76,0,0,0-1.34.54,2,2,0,0,0-.51,1.4V229h-1.38V222.5h1.08l.18,1.15H245a2.58,2.58,0,0,1,.84-.92A2,2,0,0,1,247,222.39Z" transform="translate(-9.01 -161.15)"/><path class="d" d="M251.67,229.1a3.13,3.13,0,0,1-2.36-.88,3.35,3.35,0,0,1-.85-2.43,3.63,3.63,0,0,1,.79-2.49,2.72,2.72,0,0,1,2.17-.91,2.67,2.67,0,0,1,2,.78,3,3,0,0,1,.74,2.14v.75h-4.31a2.15,2.15,0,0,0,.51,1.45,1.8,1.8,0,0,0,1.35.5,4.57,4.57,0,0,0,1.07-.11,5.31,5.31,0,0,0,1.06-.36v1.12a3.83,3.83,0,0,1-1,.34A5.9,5.9,0,0,1,251.67,229.1Zm-.25-5.67a1.38,1.38,0,0,0-1,.42,2,2,0,0,0-.47,1.21h2.94a1.82,1.82,0,0,0-.39-1.22A1.33,1.33,0,0,0,251.42,223.43Z" transform="translate(-9.01 -161.15)"/><path class="d" d="M260.11,227.14a1.71,1.71,0,0,1-.69,1.46,3.36,3.36,0,0,1-2,.5,4.7,4.7,0,0,1-2.08-.39v-1.19a5.13,5.13,0,0,0,2.13.53c.84,0,1.27-.26,1.27-.77a.64.64,0,0,0-.14-.41,1.88,1.88,0,0,0-.46-.34,8.49,8.49,0,0,0-.9-.4,4.2,4.2,0,0,1-1.52-.87,1.59,1.59,0,0,1-.39-1.12,1.45,1.45,0,0,1,.67-1.29,3.17,3.17,0,0,1,1.82-.46,5.15,5.15,0,0,1,2.17.46l-.45,1a4.84,4.84,0,0,0-1.76-.44c-.73,0-1.09.21-1.09.63a.61.61,0,0,0,.28.51,6.46,6.46,0,0,0,1.24.58,5.77,5.77,0,0,1,1.17.57,1.76,1.76,0,0,1,.54.59A1.86,1.86,0,0,1,260.11,227.14Z" transform="translate(-9.01 -161.15)"/><path class="d" d="M267.35,225.73a3.5,3.5,0,0,1-.82,2.48,2.87,2.87,0,0,1-2.26.89,3.06,3.06,0,0,1-1.61-.41,2.67,2.67,0,0,1-1.07-1.18,4,4,0,0,1-.38-1.78,3.51,3.51,0,0,1,.81-2.46,2.93,2.93,0,0,1,2.28-.88,2.87,2.87,0,0,1,2.23.9A3.5,3.5,0,0,1,267.35,225.73Zm-4.72,0c0,1.5.55,2.25,1.66,2.25s1.64-.75,1.64-2.25-.55-2.22-1.65-2.22a1.4,1.4,0,0,0-1.26.58A2.9,2.9,0,0,0,262.63,225.73Z" transform="translate(-9.01 -161.15)"/><path class="d" d="M273.5,229l-.19-.85h-.07a2,2,0,0,1-.82.7,2.63,2.63,0,0,1-1.21.26,2.38,2.38,0,0,1-1.76-.58,2.47,2.47,0,0,1-.58-1.78V222.5h1.39v4a1.7,1.7,0,0,0,.31,1.12,1.15,1.15,0,0,0,.95.37,1.5,1.5,0,0,0,1.27-.52,2.8,2.8,0,0,0,.41-1.74V222.5h1.38V229Z" transform="translate(-9.01 -161.15)"/><path class="d" d="M279.83,222.39a3.27,3.27,0,0,1,.69.06l-.13,1.28a2.48,2.48,0,0,0-.61-.07,1.76,1.76,0,0,0-1.34.54,2,2,0,0,0-.52,1.4V229h-1.37V222.5h1.08l.18,1.15h.07a2.41,2.41,0,0,1,.84-.92A2,2,0,0,1,279.83,222.39Z" transform="translate(-9.01 -161.15)"/><path class="d" d="M284.33,229.1a2.8,2.8,0,0,1-2.23-.86,4.33,4.33,0,0,1,0-5,3,3,0,0,1,2.32-.88,4.21,4.21,0,0,1,1.84.38l-.41,1.11a4.17,4.17,0,0,0-1.45-.34c-1.12,0-1.68.74-1.68,2.23a2.68,2.68,0,0,0,.42,1.64,1.46,1.46,0,0,0,1.23.54,3.58,3.58,0,0,0,1.74-.45v1.2a2.83,2.83,0,0,1-.79.31A5,5,0,0,1,284.33,229.1Z" transform="translate(-9.01 -161.15)"/><path class="d" d="M290.49,229.1a3.13,3.13,0,0,1-2.36-.88,3.35,3.35,0,0,1-.85-2.43,3.63,3.63,0,0,1,.79-2.49,2.7,2.7,0,0,1,2.17-.91,2.67,2.67,0,0,1,2,.78,3,3,0,0,1,.74,2.14v.75h-4.32a2.15,2.15,0,0,0,.51,1.45,1.82,1.82,0,0,0,1.36.5,4.57,4.57,0,0,0,1.07-.11,5.31,5.31,0,0,0,1.06-.36v1.12a4.08,4.08,0,0,1-1,.34A6,6,0,0,1,290.49,229.1Zm-.25-5.67a1.36,1.36,0,0,0-1.05.42,2,2,0,0,0-.47,1.21h2.94a1.82,1.82,0,0,0-.39-1.22A1.33,1.33,0,0,0,290.24,223.43Z" transform="translate(-9.01 -161.15)"/><path class="d" d="M298.93,227.14a1.71,1.71,0,0,1-.69,1.46,3.36,3.36,0,0,1-2,.5,4.7,4.7,0,0,1-2.08-.39v-1.19a5.13,5.13,0,0,0,2.13.53c.84,0,1.27-.26,1.27-.77a.64.64,0,0,0-.14-.41,1.78,1.78,0,0,0-.47-.34,7.38,7.38,0,0,0-.89-.4,4.2,4.2,0,0,1-1.52-.87,1.59,1.59,0,0,1-.39-1.12,1.45,1.45,0,0,1,.67-1.29,3.14,3.14,0,0,1,1.82-.46,5.19,5.19,0,0,1,2.17.46l-.45,1a4.84,4.84,0,0,0-1.76-.44c-.73,0-1.09.21-1.09.63a.61.61,0,0,0,.28.51,6.46,6.46,0,0,0,1.24.58,6.37,6.37,0,0,1,1.17.57,1.63,1.63,0,0,1,.53.59A1.73,1.73,0,0,1,298.93,227.14Z" transform="translate(-9.01 -161.15)"/><path class="d" d="M306.79,223.55h-1.58V229h-1.39v-5.44h-1.06v-.65l1.06-.42v-.42a2.34,2.34,0,0,1,.54-1.7,2.21,2.21,0,0,1,1.65-.56,4.42,4.42,0,0,1,1.43.24l-.36,1.05a3.21,3.21,0,0,0-1-.17.8.8,0,0,0-.68.29,1.51,1.51,0,0,0-.21.87v.42h1.58Z" transform="translate(-9.01 -161.15)"/><path class="d" d="M313.64,225.73a3.5,3.5,0,0,1-.82,2.48,2.89,2.89,0,0,1-2.26.89,3.06,3.06,0,0,1-1.61-.41,2.67,2.67,0,0,1-1.07-1.18,4,4,0,0,1-.38-1.78,3.51,3.51,0,0,1,.81-2.46,2.93,2.93,0,0,1,2.28-.88,2.87,2.87,0,0,1,2.23.9A3.55,3.55,0,0,1,313.64,225.73Zm-4.72,0c0,1.5.55,2.25,1.66,2.25s1.64-.75,1.64-2.25-.55-2.22-1.65-2.22a1.4,1.4,0,0,0-1.26.58A2.9,2.9,0,0,0,308.92,225.73Z" transform="translate(-9.01 -161.15)"/><path class="d" d="M318.51,222.39a3.23,3.23,0,0,1,.68.06l-.13,1.28a2.48,2.48,0,0,0-.61-.07,1.76,1.76,0,0,0-1.34.54,2,2,0,0,0-.51,1.4V229h-1.38V222.5h1.08l.18,1.15h.07a2.41,2.41,0,0,1,.84-.92A2,2,0,0,1,318.51,222.39Z" transform="translate(-9.01 -161.15)"/><path class="d" d="M326.12,229.1a2.8,2.8,0,0,1-2.23-.86,4.33,4.33,0,0,1,0-5,3,3,0,0,1,2.32-.88,4.24,4.24,0,0,1,1.84.38l-.41,1.11a4.17,4.17,0,0,0-1.45-.34c-1.12,0-1.68.74-1.68,2.23a2.68,2.68,0,0,0,.42,1.64,1.46,1.46,0,0,0,1.23.54,3.58,3.58,0,0,0,1.74-.45v1.2a2.83,2.83,0,0,1-.79.31A5,5,0,0,1,326.12,229.1Z" transform="translate(-9.01 -161.15)"/><path class="d" d="M335.2,225.73a3.54,3.54,0,0,1-.81,2.48,2.91,2.91,0,0,1-2.27.89,3.06,3.06,0,0,1-1.61-.41,2.67,2.67,0,0,1-1.07-1.18,4,4,0,0,1-.37-1.78,3.5,3.5,0,0,1,.8-2.46,2.93,2.93,0,0,1,2.28-.88,2.87,2.87,0,0,1,2.23.9A3.5,3.5,0,0,1,335.2,225.73Zm-4.72,0c0,1.5.56,2.25,1.66,2.25s1.64-.75,1.64-2.25-.55-2.22-1.65-2.22a1.4,1.4,0,0,0-1.26.58A2.9,2.9,0,0,0,330.48,225.73Z" transform="translate(-9.01 -161.15)"/><path class="d" d="M342.48,229H341.1v-4a1.76,1.76,0,0,0-.3-1.12,1.19,1.19,0,0,0-1-.37,1.52,1.52,0,0,0-1.28.52,2.84,2.84,0,0,0-.4,1.73V229h-1.38V222.5h1.08l.19.85h.07a2,2,0,0,1,.84-.71,2.73,2.73,0,0,1,1.19-.25,2.07,2.07,0,0,1,2.33,2.37Z" transform="translate(-9.01 -161.15)"/><path class="d" d="M346.81,228a3.18,3.18,0,0,0,1-.16v1a3.61,3.61,0,0,1-.59.17,4.52,4.52,0,0,1-.74.06c-1.31,0-2-.68-2-2.06v-3.49h-.89v-.61l.95-.51.47-1.37h.85v1.44h1.85v1.05h-1.85V227a1,1,0,0,0,.25.73A.9.9,0,0,0,346.81,228Z" transform="translate(-9.01 -161.15)"/><path class="d" d="M353.17,229l-.27-.91h0a2.62,2.62,0,0,1-.94.81,3.07,3.07,0,0,1-1.22.21,2.06,2.06,0,0,1-1.49-.51,1.93,1.93,0,0,1-.54-1.46,1.72,1.72,0,0,1,.74-1.51,4.31,4.31,0,0,1,2.27-.56l1.12,0v-.34a1.33,1.33,0,0,0-.29-.93,1.16,1.16,0,0,0-.9-.31,3,3,0,0,0-1,.15,7.65,7.65,0,0,0-.88.34l-.45-1a5.14,5.14,0,0,1,1.16-.42,5.57,5.57,0,0,1,1.18-.14,2.82,2.82,0,0,1,1.87.54,2.1,2.1,0,0,1,.63,1.69V229Zm-2.05-.94a1.69,1.69,0,0,0,1.2-.42,1.5,1.5,0,0,0,.46-1.18v-.56l-.83,0a2.89,2.89,0,0,0-1.42.32,1,1,0,0,0-.44.89.84.84,0,0,0,.26.67A1.09,1.09,0,0,0,351.12,228.05Z" transform="translate(-9.01 -161.15)"/><path class="d" d="M356,220.79a.74.74,0,0,1,.2-.57.77.77,0,0,1,1.34.57.76.76,0,0,1-.2.55.91.91,0,0,1-1.14,0A.72.72,0,0,1,356,220.79Zm1.45,8.2h-1.37V222.5h1.37Z" transform="translate(-9.01 -161.15)"/><path class="d" d="M365.12,229h-1.38v-4a1.76,1.76,0,0,0-.3-1.12,1.19,1.19,0,0,0-1-.37,1.52,1.52,0,0,0-1.28.52,2.84,2.84,0,0,0-.4,1.73V229h-1.38V222.5h1.08l.19.85h.07a2,2,0,0,1,.84-.71,2.73,2.73,0,0,1,1.19-.25,2.07,2.07,0,0,1,2.33,2.37Z" transform="translate(-9.01 -161.15)"/><path class="d" d="M369.87,229.1a3.1,3.1,0,0,1-2.36-.88,3.35,3.35,0,0,1-.86-2.43,3.68,3.68,0,0,1,.79-2.49,2.74,2.74,0,0,1,2.18-.91,2.69,2.69,0,0,1,2,.78,3,3,0,0,1,.74,2.14v.75h-4.32a2.15,2.15,0,0,0,.51,1.45,1.8,1.8,0,0,0,1.35.5,4.51,4.51,0,0,0,1.07-.11,5.39,5.39,0,0,0,1.07-.36v1.12a4.08,4.08,0,0,1-1,.34A6,6,0,0,1,369.87,229.1Zm-.25-5.67a1.36,1.36,0,0,0-1.05.42,2,2,0,0,0-.48,1.21h3a1.82,1.82,0,0,0-.39-1.22A1.33,1.33,0,0,0,369.62,223.43Z" transform="translate(-9.01 -161.15)"/><path class="d" d="M377.24,222.39a3.27,3.27,0,0,1,.69.06l-.14,1.28a2.43,2.43,0,0,0-.61-.07,1.78,1.78,0,0,0-1.34.54,2,2,0,0,0-.51,1.4V229H374V222.5H375l.18,1.15h.07a2.58,2.58,0,0,1,.84-.92A2,2,0,0,1,377.24,222.39Z" transform="translate(-9.01 -161.15)"/><polygon class="e" points="8 51.03 8 56.53 0 50.53 8 44.53 8 50.03 504 50.03 504 44.53 512 50.53 504 56.53 504 51.03 8 51.03"/><path class="c" d="M333.81,264.56a3.07,3.07,0,0,0-2.53,1.14,4.85,4.85,0,0,0-.92,3.15,4.92,4.92,0,0,0,.88,3.18,3.14,3.14,0,0,0,2.57,1.08,6.62,6.62,0,0,0,1.41-.15c.45-.1.92-.22,1.41-.37v1.6a8.56,8.56,0,0,1-3.05.51,4.89,4.89,0,0,1-3.85-1.52,6.38,6.38,0,0,1-1.34-4.35,7.13,7.13,0,0,1,.65-3.12,4.56,4.56,0,0,1,1.89-2,5.64,5.64,0,0,1,2.9-.71,7.19,7.19,0,0,1,3.23.73l-.67,1.56a8.59,8.59,0,0,0-1.22-.48A4.4,4.4,0,0,0,333.81,264.56Z" transform="translate(-9.01 -161.15)"/><path class="c" d="M346.65,266.57a3.35,3.35,0,0,1-1.17,2.75,5.18,5.18,0,0,1-3.33.95H341v4.27h-1.87V263.12h3.29a4.94,4.94,0,0,1,3.21.88A3.13,3.13,0,0,1,346.65,266.57ZM341,268.7h1a3.58,3.58,0,0,0,2.11-.5,1.81,1.81,0,0,0,.67-1.56,1.77,1.77,0,0,0-.6-1.47,2.94,2.94,0,0,0-1.88-.49H341Z" transform="translate(-9.01 -161.15)"/><path class="c" d="M357.89,263.12v7.39a4.33,4.33,0,0,1-.55,2.22,3.59,3.59,0,0,1-1.57,1.46,5.44,5.44,0,0,1-2.45.51,4.61,4.61,0,0,1-3.31-1.13,4.09,4.09,0,0,1-1.18-3.09v-7.36h1.88v7.23a2.9,2.9,0,0,0,.65,2.08,2.71,2.71,0,0,0,2,.68c1.76,0,2.64-.93,2.64-2.78v-7.21Z" transform="translate(-9.01 -161.15)"/><path class="c" d="M366.61,274.54h-1.84V262.39h1.84Z" transform="translate(-9.01 -161.15)"/><path class="c" d="M369.12,263.61a1,1,0,0,1,.27-.75,1.22,1.22,0,0,1,1.53,0,1,1,0,0,1-.76,1.76,1,1,0,0,1-.77-.27A1,1,0,0,1,369.12,263.61Zm1.95,10.93h-1.84V265.9h1.84Z" transform="translate(-9.01 -161.15)"/><path class="c" d="M381,274.54h-1.84v-5.33a2.42,2.42,0,0,0-.38-1.48,1.39,1.39,0,0,0-1.17-.48,1.81,1.81,0,0,0-1.56.69,4.07,4.07,0,0,0-.49,2.3v4.3h-1.84V265.9h1.44l.26,1.14h.09a2.42,2.42,0,0,1,1-1,3.44,3.44,0,0,1,1.51-.33,2.62,2.62,0,0,1,2.64,1.36h.12a2.61,2.61,0,0,1,1.08-1,3.46,3.46,0,0,1,1.6-.36,2.9,2.9,0,0,1,2.25.78,3.45,3.45,0,0,1,.71,2.38v5.63h-1.84v-5.33a2.42,2.42,0,0,0-.38-1.48,1.39,1.39,0,0,0-1.17-.48,1.83,1.83,0,0,0-1.57.66,3.46,3.46,0,0,0-.5,2Z" transform="translate(-9.01 -161.15)"/><path class="c" d="M388.88,263.61a1,1,0,0,1,.27-.75,1,1,0,0,1,.77-.27,1,1,0,0,1,.75.27,1.16,1.16,0,0,1,0,1.49,1,1,0,0,1-.75.27,1,1,0,0,1-.77-.27A1,1,0,0,1,388.88,263.61Zm1.95,10.93H389V265.9h1.84Z" transform="translate(-9.01 -161.15)"/><path class="c" d="M396.67,273.21A4.46,4.46,0,0,0,398,273v1.39a3.54,3.54,0,0,1-.78.22,5.39,5.39,0,0,1-1,.09c-1.74,0-2.61-.92-2.61-2.75v-4.66h-1.18v-.81l1.27-.67.62-1.83h1.14v1.92h2.46v1.39h-2.46v4.63a1.3,1.3,0,0,0,.33,1A1.2,1.2,0,0,0,396.67,273.21Z" transform="translate(-9.01 -161.15)"/><path class="c" d="M403.38,268.05v-1.4h7.52v1.4Zm0,3.12v-1.39h7.52v1.39Z" transform="translate(-9.01 -161.15)"/><path class="c" d="M424.32,274.54h-7.74v-1.39l2.94-3a24.67,24.67,0,0,0,1.73-1.89,4.61,4.61,0,0,0,.62-1.05,2.86,2.86,0,0,0,.2-1.06,1.63,1.63,0,0,0-.47-1.22,1.81,1.81,0,0,0-1.28-.44,3.45,3.45,0,0,0-1.27.24,6,6,0,0,0-1.42.87l-1-1.21a6.59,6.59,0,0,1,1.85-1.14,5.52,5.52,0,0,1,1.91-.33,3.74,3.74,0,0,1,2.56.83,2.81,2.81,0,0,1,1,2.24,3.88,3.88,0,0,1-.28,1.47,5.9,5.9,0,0,1-.85,1.43,19.54,19.54,0,0,1-1.91,2l-2,1.92v.08h5.42Z" transform="translate(-9.01 -161.15)"/><path class="c" d="M433.45,268.83a8.08,8.08,0,0,1-1,4.42,3.61,3.61,0,0,1-5.81,0,8,8,0,0,1-1-4.38,8.12,8.12,0,0,1,1-4.45,3.62,3.62,0,0,1,5.82.06A8.11,8.11,0,0,1,433.45,268.83Zm-5.9,0a8.35,8.35,0,0,0,.48,3.34,1.68,1.68,0,0,0,3.08,0,11.49,11.49,0,0,0,0-6.64,1.67,1.67,0,0,0-3.08,0A8.35,8.35,0,0,0,427.55,268.83Z" transform="translate(-9.01 -161.15)"/><path class="c" d="M442.58,268.83a8.18,8.18,0,0,1-.95,4.42,3.62,3.62,0,0,1-5.82,0,8,8,0,0,1-1-4.38,8.13,8.13,0,0,1,.95-4.45,3.62,3.62,0,0,1,5.82.06A8.11,8.11,0,0,1,442.58,268.83Zm-5.9,0a8.14,8.14,0,0,0,.49,3.34,1.67,1.67,0,0,0,3.07,0,11.49,11.49,0,0,0,0-6.64,1.67,1.67,0,0,0-3.07,0A8.14,8.14,0,0,0,436.68,268.83Z" transform="translate(-9.01 -161.15)"/><path class="c" d="M451.86,274.54H450v-5.33a2.43,2.43,0,0,0-.37-1.48,1.41,1.41,0,0,0-1.18-.48,1.78,1.78,0,0,0-1.55.69,4,4,0,0,0-.5,2.3v4.3h-1.84V265.9H446l.26,1.14h.09a2.39,2.39,0,0,1,1.05-1,3.37,3.37,0,0,1,1.5-.33,2.62,2.62,0,0,1,2.64,1.36h.12a2.61,2.61,0,0,1,1.08-1,3.46,3.46,0,0,1,1.6-.36,2.9,2.9,0,0,1,2.25.78,3.45,3.45,0,0,1,.71,2.38v5.63h-1.84v-5.33a2.36,2.36,0,0,0-.38-1.48,1.39,1.39,0,0,0-1.17-.48,1.83,1.83,0,0,0-1.57.66,3.46,3.46,0,0,0-.5,2Z" transform="translate(-9.01 -161.15)"/><style xmlns="" type="text/css" id="custom-css-injector">.vimvixen-console-frame {
  color-scheme: light !important;
}</style></svg>