<svg xmlns="http://www.w3.org/2000/svg" width="528" height="475" xmlns:v="https://vecta.io/nano"><style><![CDATA[.B{fill-rule:nonzero}.C{fill:#7c7c7c}.D{stroke:#7c7c7c}.E{stroke-width:1.46}]]></style><defs><linearGradient x1="0%" y1="49.999%" x2="100.02%" y2="49.999%" id="A"><stop stop-color="#7e7c7c" offset="2%"/><stop stop-color="#999" offset="34%"/><stop stop-color="#514f4f" offset="100%"/></linearGradient><linearGradient x1="54993%" y1="28624%" x2="59932%" y2="28624%" id="B"><stop stop-color="#7e7c7c" offset="2%"/><stop stop-color="#999" offset="34%"/><stop stop-color="#514f4f" offset="100%"/></linearGradient><linearGradient x1="54993%" y1="48473%" x2="59932%" y2="48473%" id="C"><stop stop-color="#7e7c7c" offset="2%"/><stop stop-color="#999" offset="34%"/><stop stop-color="#514f4f" offset="100%"/></linearGradient></defs><g fill="none" fill-rule="evenodd"><g class="B"><path fill="#fff" d="M.9.22h526.458v474.096H.9z"/><g fill="#757575"><path d="M363.19 173.467l-16.215-6.954v-19.38l16.216-6.177 17.016 6.178v19.387l-17.016 6.946zm-15.446-7.464l15.455 6.624 16.24-6.624v-18.328l-16.24-5.894-15.455 5.886v18.336z"/><path d="M363.599 173.043h-.8V153.35l16.576-6.318.283.745-16.06 6.115z"/><path d="M347.18 148.128l.357-.934 15.836 6.03-.356.936-15.836-6.032zm16.01 103.97l-16.215-6.954v-19.371l16.216-6.177 17.016 6.177v19.387l-17.016 6.939v-.001zm-15.446-7.464l15.455 6.625 16.24-6.625v-18.32l-16.24-5.894-15.455 5.887v18.327z"/><path d="M363.599 251.683h-.8V231.98l16.576-6.31.283.746-16.06 6.114z"/><path d="M347.188 226.76l.356-.935 15.836 6.032-.356.934-15.836-6.031zm16.003 102.424l-16.216-6.954v-19.372l16.216-6.177 17.016 6.177v19.387l-17.016 6.939zm-15.447-7.465l15.455 6.625 16.24-6.625v-18.32l-16.24-5.894-15.455 5.887v18.327z"/><path d="M363.599 328.768h-.8v-19.701l16.576-6.31.283.745-16.06 6.114z"/><path d="M347.187 303.84l.356-.933 15.837 6.03-.356.936-15.837-6.032zm15.753 104.948l-16.217-6.954v-19.386l16.217-6.177 17.016 6.177v19.387l-17.016 6.955v-.002zm-15.447-7.464l15.454 6.625 16.24-6.664v-18.288l-16.24-5.895-15.454 5.887v18.335z"/><path d="M363.34 408.373h-.793v-19.701l16.57-6.311.282.738-16.06 6.122z"/><path d="M346.939 383.436l.356-.934 15.837 6.03-.356.935z"/></g></g><path d="M58.24 52.93v273.656" stroke="#bfbfbf" stroke-width="1.26"/><g class="B"><path d="M58.24 92.59h86.788v1H58.24v-1zm0 77.675h86.788v1H58.24v-1zm0 77.673h86.788v1H58.24v-1zm0 77.675h86.788v1H58.24v-1z" fill="#bfbfbf"/><path d="M163.386 88.108c-7.802 0-19.41-1.231-19.41-4.63s11.608-4.63 19.41-4.63 19.41 1.23 19.41 4.63-11.608 4.63-19.41 4.63zm0-8.107c-11.153 0-18.265 2.064-18.265 3.485s7.112 3.485 18.265 3.485 18.265-2.064 18.265-3.485-7.12-3.517-18.265-3.517V80zm0 26.326c-7.802 0-19.41-1.233-19.41-4.631h1.145c0 1.42 7.112 3.485 18.265 3.485s18.265-2.065 18.265-3.485h1.146c0 3.398-11.61 4.63-19.411 4.63z" class="C"/><path d="M162.593 97.873c-6.305.009-12.572-.976-18.57-2.92l1.043-3.218c5.906 1.908 12.083 2.839 18.289 2.755 6.235-.072 12.415-1.178 18.288-3.273l1.138 3.187a59.76 59.76 0 0 1-19.387 3.47h-.8l-.001-.001z" fill="url(#A)"/></g><path d="M144.548 83.454v18.242" class="D E"/><g class="B"><path d="M181.65 83.455h1.147v18.24h-1.146v-18.24zm-18.264 82.359c-7.802 0-19.41-1.232-19.41-4.63s11.608-4.632 19.41-4.632 19.41 1.233 19.41 4.63-11.608 4.632-19.41 4.632zm0-8.108c-11.153 0-18.265 2.064-18.265 3.485s7.112 3.485 18.265 3.485 18.265-2.064 18.265-3.485-7.12-3.485-18.265-3.485zm0 26.349c-7.802 0-19.41-1.232-19.41-4.63h1.145c0 1.42 7.112 3.484 18.265 3.484s18.265-2.064 18.265-3.485h1.146c0 3.4-11.61 4.63-19.411 4.63z" class="C"/><path d="M162.593 175.61c-6.305.009-12.572-.976-18.57-2.92l1.043-3.218c5.906 1.908 12.083 2.839 18.289 2.755 6.235-.072 12.415-1.178 18.288-3.273l1.138 3.187a59.76 59.76 0 0 1-19.387 3.469h-.801z" fill="url(#B)"/></g><path d="M144.548 161.19v18.242m37.676-18.241v18.24" class="D E"/><g class="B"><path d="M163.386 243.52c-7.802 0-19.41-1.233-19.41-4.631s11.608-4.631 19.41-4.631 19.41 1.232 19.41 4.63-11.608 4.632-19.41 4.632zm0-8.108c-11.153 0-18.265 2.064-18.265 3.484s7.112 3.485 18.265 3.485 18.265-2.064 18.265-3.485-7.12-3.484-18.265-3.484zm0 26.349c-7.802 0-19.41-1.233-19.41-4.631h1.145c0 1.42 7.112 3.485 18.265 3.485s18.265-2.065 18.265-3.485h1.146c0 3.398-11.61 4.63-19.411 4.63z" class="C"/><path d="M162.593 253.315c-6.305.009-12.572-.976-18.57-2.92l1.043-3.218c5.906 1.908 12.083 2.839 18.289 2.755 6.235-.072 12.415-1.178 18.288-3.273l1.138 3.187a59.76 59.76 0 0 1-19.387 3.47h-.8l-.001-.001z" fill="url(#B)"/></g><path d="M144.548 238.896v18.242m37.676-18.242v18.242" class="D E"/><g class="B"><path d="M163.386 321.618c-7.802 0-19.41-1.233-19.41-4.632s11.608-4.63 19.41-4.63 19.41 1.232 19.41 4.63-11.608 4.63-19.41 4.63v.002zm0-8.11c-11.153 0-18.265 2.066-18.265 3.486s7.112 3.446 18.265 3.446 18.265-2.064 18.265-3.485-7.12-3.454-18.265-3.454v.008zm0 26.35c-7.802 0-19.41-1.232-19.41-4.63h1.145c0 1.42 7.112 3.485 18.265 3.485s18.265-2.065 18.265-3.485h1.146c0 3.398-11.61 4.63-19.411 4.63z" class="C"/><path d="M162.593 331.428c-6.305.009-12.572-.976-18.57-2.92l1.043-3.217c5.906 1.908 12.083 2.839 18.289 2.755 6.235-.072 12.415-1.178 18.288-3.273l1.138 3.186a59.76 59.76 0 0 1-19.387 3.47h-.8l-.001-.001z" fill="url(#C)"/></g><path d="M144.548 316.986v18.25m37.676-18.25v18.25" class="D E"/><g class="B"><path d="M251.994 124.45H162.89v-18.696h.99v17.707h88.113v.989zm0 78.553H162.89v-18.696h.99v17.707h88.113v.989zm-.573 77.305h-89.102v-18.696h.988v17.707h88.114v.989zm0 77.776h-89.102V339.38h.988v17.707h88.114v.997zm95.483-200.291H265.65v-18.705h.989v17.716h80.264v.989zm0 78.553H265.65V217.64h.989v17.717h80.264v.988zm-.573 77.305h-81.253v-18.705h.989v17.716h80.264v.989zm0 77.767h-81.253v-18.696h.989v17.708h80.264v.988zm97.799-199.6h-81.253v-18.696h.989v17.707h80.264v.989zm0 78.553h-81.253v-18.696h.989v17.707h80.264v.989zm-.573 77.305h-81.253V328.98h.989v17.707h80.264v.989zm0 79.338h-81.253v-18.696h.989v17.707h80.264v.989z" fill="#bfbfbf"/><path d="M265.643 105.754h14.419c1.79 0 2.857.43 3.045 1.428.322 1.664.369 3.187-1.303 3.83a1.24 1.24 0 0 0-.667.88l-2.41 20.925a17.268 17.268 0 0 1-.722 3.799c-.636 1.782-1.93 2.457-4.2 2.464h-15.697c-3.414 0-5.055-1.177-5.37-3.924a3503.98 3503.98 0 0 1-2.353-20.926l-.205-1.57c-.047-.784-.054-1.506-1.208-1.97-1.036-.408-1.374-2.315-.84-3.58.463-1.097 1.57-1.38 2.857-1.38l14.654.024zm14.59 5.494h-29.26l1.27 11.216 1.57 12.896c.268 2.11 1.477 2.95 4.036 2.95h15.313c2.952 0 4.05-.784 4.349-3.25l1.993-16.85.738-6.962h-.008zm-14.574-.824h14.544c1.68 0 2.11-.432 2.11-2.002s-.44-1.884-2.094-1.884h-29.081c-.651 0-1.758.244-1.868.558a3.995 3.995 0 0 0-.055 2.598c.133.369 1.327.667 2.04.675l14.412.055h-.008zm-.016 73.262h14.419c1.79 0 2.857.432 3.045 1.429.322 1.664.369 3.187-1.303 3.83a1.24 1.24 0 0 0-.667.88l-2.41 20.925a17.268 17.268 0 0 1-.722 3.799c-.636 1.782-1.93 2.457-4.2 2.464h-15.697c-3.414 0-5.055-1.177-5.37-3.924a3503.98 3503.98 0 0 1-2.353-20.926l-.205-1.57c-.047-.784-.054-1.506-1.208-1.97-1.036-.408-1.374-2.315-.84-3.58.463-1.098 1.57-1.38 2.857-1.38l14.654.023zm14.59 5.495h-29.26l1.27 11.216 1.57 12.896c.268 2.11 1.477 2.95 4.036 2.95h15.313c2.952 0 4.05-.784 4.349-3.25l1.993-16.85.738-6.962h-.008zm-14.574-.824h14.544c1.68 0 2.11-.432 2.11-2.002s-.44-1.884-2.094-1.884h-29.081c-.651 0-1.758.244-1.868.558a3.995 3.995 0 0 0-.055 2.598c.133.369 1.327.667 2.04.675l14.412.047-.008.008zm-.016 73.215h14.419c1.79 0 2.857.432 3.045 1.429.322 1.664.369 3.187-1.303 3.83a1.24 1.24 0 0 0-.667.88l-2.41 20.925a17.268 17.268 0 0 1-.722 3.799c-.636 1.78-1.93 2.456-4.2 2.464h-15.697c-3.414 0-5.055-1.177-5.37-3.924a3503.98 3503.98 0 0 1-2.353-20.926l-.205-1.57c-.047-.784-.054-1.507-1.208-1.97-1.036-.408-1.374-2.315-.84-3.58.463-1.098 1.57-1.38 2.857-1.38l14.654.023zm14.59 5.495h-29.26l1.27 11.216 1.57 12.896c.268 2.11 1.477 2.95 4.036 2.95h15.313c2.952 0 4.05-.784 4.349-3.25l1.993-16.85.738-6.962h-.008zm-14.574-.825h14.544c1.68 0 2.11-.431 2.11-2.001s-.44-1.884-2.094-1.884h-29.081c-.651 0-1.758.244-1.868.557a3.995 3.995 0 0 0-.016 2.583c.134.369 1.327.667 2.04.675l14.373.03-.008.04zm-.016 73.146h14.419c1.79 0 2.857.43 3.045 1.428.322 1.664.369 3.187-1.303 3.83a1.24 1.24 0 0 0-.667.88l-2.41 20.925a17.268 17.268 0 0 1-.722 3.799c-.636 1.782-1.93 2.457-4.2 2.464h-15.697c-3.414 0-5.055-1.177-5.37-3.924a3503.98 3503.98 0 0 1-2.353-20.926l-.205-1.57c-.047-.784-.054-1.506-1.208-1.97-1.036-.408-1.374-2.315-.84-3.58.463-1.097 1.57-1.38 2.857-1.38l14.654.024zm14.59 5.494h-29.26l1.27 11.216 1.57 12.896c.268 2.11 1.477 2.95 4.036 2.95h15.313c2.952 0 4.05-.784 4.349-3.25l1.993-16.85.738-6.962h-.008zm-14.574-.824h14.544c1.68 0 2.11-.432 2.11-2.002s-.44-1.884-2.094-1.884h-29.081c-.651 0-1.758.244-1.868.558a3.995 3.995 0 0 0-.055 2.598c.133.369 1.327.667 2.04.675l14.412.047-.008.008z" fill="#4f4f4f"/></g><path d="M152.522 66.465c2.742 0 4.482 1.638 4.482 4.2s-1.74 4.2-4.482 4.2h-3.162v-8.4h3.162zm-2.196.912v6.576h2.196c2.274 0 3.468-1.32 3.468-3.288 0-1.986-1.194-3.288-3.468-3.288h-2.196zm9.36 7.488h-.9v-5.682h.9v5.682zm-.45-8.334a.63.63 0 0 1 .636.636c0 .36-.282.63-.636.63-.36 0-.63-.27-.63-.63a.62.62 0 0 1 .63-.636zm6.366 3.858c-.36-.252-1.092-.534-1.86-.534-.81 0-1.344.342-1.344.894 0 .48.408.708 1.158.798l.672.084c1.206.162 1.908.654 1.908 1.584 0 1.08-.972 1.758-2.502 1.758-.732 0-1.65-.186-2.37-.726l.414-.672c.432.336 1.008.618 1.968.618s1.566-.318 1.566-.918c0-.456-.378-.732-1.188-.828l-.678-.078c-1.29-.162-1.878-.726-1.878-1.572 0-1.08.9-1.722 2.268-1.722.894 0 1.704.252 2.256.618l-.39.696zm3.006 1.098h.822l2.19-2.304h1.122l-2.58 2.676 2.622 3.006h-1.134l-2.226-2.562h-.816v2.562h-.9v-8.64h.9v5.262zm7.92 2.496v-6.354l-2.442.876v-.942l3.366-1.2v7.62h2.202v.882h-5.478v-.882h2.352zm70.322 26.784h-.966v-7.32l-2.928 6.39h-1.014l-2.922-6.342v7.272h-.966v-8.4h1.464l2.934 6.348 2.928-6.348h1.47v8.4zm2.82 2.424h-.99l2.118-3.654-2.61-4.452h1.002l2.118 3.564 2.004-3.564h.984l-4.626 8.106zm9.18-10.824c1.764 0 3.036.618 3.036 2.214 0 .948-.51 1.602-1.266 1.86.84.276 1.446.954 1.446 1.992 0 1.632-1.2 2.334-3.06 2.334h-3.408v-8.4h3.252zm-2.286 4.59v2.904h2.4c1.26 0 2.088-.33 2.088-1.458 0-1.116-.828-1.446-2.088-1.446h-2.4zm0-3.684v2.784h2.256c1.152 0 2.052-.276 2.052-1.404 0-1.104-.9-1.38-2.058-1.38h-2.25zm12.378 5.124c0 1.686-1.212 2.484-2.58 2.484-1.374 0-2.58-.798-2.58-2.484v-3.312h.894v3.228c0 1.176.708 1.728 1.686 1.728.972 0 1.68-.552 1.68-1.728v-3.228h.9v3.312zm4.542-3.426c.846 0 1.596.312 2.106.894l-.576.606c-.432-.414-.93-.66-1.554-.66-1.134 0-2.004.888-2.004 2.112s.87 2.118 2.004 2.118c.624 0 1.164-.276 1.572-.666l.558.612c-.522.582-1.26.894-2.106.894-1.752 0-2.94-1.272-2.94-2.958 0-1.68 1.188-2.952 2.94-2.952zm4.536 2.418h.822l2.19-2.304h1.122l-2.58 2.676 2.622 3.006h-1.134l-2.226-2.562h-.816v2.562h-.9v-8.64h.9v5.262zm7.596-2.418c1.542 0 2.652 1.206 2.67 2.934a2.84 2.84 0 0 1-.018.336h-4.554c.126 1.224.984 1.854 2.01 1.854.702 0 1.314-.264 1.8-.714l.48.612c-.708.678-1.494.888-2.334.888-1.68 0-2.874-1.194-2.874-2.952 0-1.74 1.206-2.958 2.82-2.958zm-.018.798c-1.05 0-1.728.72-1.872 1.746h3.648c-.114-1.062-.81-1.746-1.776-1.746zm8.154.126h-2.454v2.868c0 .888.474 1.278 1.128 1.278.438 0 .858-.162 1.194-.402l.42.678c-.432.33-.984.564-1.686.564-1.224 0-1.95-.672-1.95-2.1v-2.886h-1.242v-.81h1.242v-1.806h.894v1.806h2.454v.81zm50.996 40.977h-.966v-7.32l-2.928 6.39h-1.014l-2.922-6.342v7.272h-.966v-8.4h1.464l2.934 6.348 2.928-6.348h1.47v8.4zm2.82 2.424h-.99l2.118-3.654-2.61-4.452h1.002l2.118 3.564 2.004-3.564h.984l-4.626 8.106zm9.78-10.944c2.496 0 4.338 1.8 4.338 4.32s-1.842 4.32-4.338 4.32-4.338-1.8-4.338-4.32 1.842-4.32 4.338-4.32zm0 .93c-1.884 0-3.324 1.368-3.324 3.39s1.44 3.39 3.324 3.39c1.89 0 3.33-1.368 3.33-3.39s-1.44-3.39-3.33-3.39zm9.09 1.794c1.596 0 2.838 1.248 2.838 2.952 0 1.71-1.242 2.958-2.838 2.958-.942 0-1.614-.378-2.07-.954v.84h-.9v-8.64h.9v3.798c.456-.576 1.128-.954 2.07-.954zm-.108.84c-1.182 0-2.022.912-2.022 2.112 0 1.206.84 2.118 2.022 2.118 1.218 0 2.028-.942 2.028-2.118 0-1.17-.822-2.112-2.028-2.112zm5.538 5.892c0 1.008-.558 1.554-1.416 1.554a1.82 1.82 0 0 1-.816-.192l.216-.774c.144.072.33.12.522.12.366 0 .594-.222.594-.75v-6.576h.9v6.618zm-.456-9.27a.63.63 0 0 1 .636.636c0 .36-.282.63-.636.63-.36 0-.63-.27-.63-.63a.62.62 0 0 1 .63-.636zm4.944 2.538c1.542 0 2.652 1.206 2.67 2.934a2.84 2.84 0 0 1-.018.336h-4.554c.126 1.224.984 1.854 2.01 1.854.702 0 1.314-.264 1.8-.714l.48.612c-.708.678-1.494.888-2.334.888-1.68 0-2.874-1.194-2.874-2.952 0-1.74 1.206-2.958 2.82-2.958zm-.018.798c-1.05 0-1.728.72-1.872 1.746h3.648c-.114-1.062-.81-1.746-1.776-1.746zm6.864-.798c.846 0 1.596.312 2.106.894l-.576.606c-.432-.414-.93-.66-1.554-.66-1.134 0-2.004.888-2.004 2.112s.87 2.118 2.004 2.118c.624 0 1.164-.276 1.572-.666l.558.612c-.522.582-1.26.894-2.106.894-1.752 0-2.94-1.272-2.94-2.958 0-1.68 1.188-2.952 2.94-2.952zm7.572.924h-2.454v2.868c0 .888.474 1.278 1.128 1.278.438 0 .858-.162 1.194-.402l.42.678c-.432.33-.984.564-1.686.564-1.224 0-1.95-.672-1.95-2.1V132h-1.242v-.81h1.242v-1.806h.894v1.806h2.454v.81zm65.773 52.766l2.286 2.91h-1.098l-1.794-2.244-1.776 2.244h-1.05l2.28-2.904-2.22-2.778h1.098l1.716 2.154 1.722-2.154h1.056l-2.22 2.772zm4.446 2.91h-.9v-8.64h.9v8.64zm2.622-1.392a.77.77 0 0 1 .75.75.772.772 0 0 1-.75.756.772.772 0 0 1-.75-.756.77.77 0 0 1 .75-.75zm3.54 2.328c0 1.008-.558 1.554-1.416 1.554a1.82 1.82 0 0 1-.816-.192l.216-.774c.144.072.33.12.522.12.366 0 .594-.222.594-.75v-6.576h.9v6.618zm-.456-9.27a.63.63 0 0 1 .636.636c0 .36-.282.63-.636.63-.36 0-.63-.27-.63-.63a.62.62 0 0 1 .63-.636zm6.372 3.858c-.36-.252-1.092-.534-1.86-.534-.81 0-1.344.342-1.344.894 0 .48.408.708 1.158.798l.672.084c1.206.162 1.908.654 1.908 1.584 0 1.08-.972 1.758-2.502 1.758-.732 0-1.65-.186-2.37-.726l.414-.672c.432.336 1.008.618 1.968.618s1.566-.318 1.566-.918c0-.456-.378-.732-1.188-.828l-.678-.078c-1.29-.162-1.878-.726-1.878-1.572 0-1.08.9-1.722 2.268-1.722.894 0 1.704.252 2.256.618l-.39.696zm4.662-1.32c1.71 0 2.994 1.272 2.994 2.952 0 1.686-1.284 2.958-2.994 2.958s-2.988-1.272-2.988-2.958c0-1.68 1.278-2.952 2.988-2.952zm0 .84c-1.176 0-2.076.888-2.076 2.112s.9 2.118 2.076 2.118 2.076-.894 2.076-2.118-.9-2.112-2.076-2.112zm7.464-.84c1.404 0 2.37.9 2.37 2.274v3.522h-.894v-3.228c0-1.086-.588-1.716-1.638-1.716-.954 0-1.74.66-1.74 1.74v3.204h-.9v-5.682h.888v.81c.468-.678 1.212-.924 1.914-.924zm-28.272 13.343c1.596 0 2.838 1.248 2.838 2.952 0 1.71-1.242 2.958-2.838 2.958-.942 0-1.614-.378-2.07-.954v3.24h-.9v-8.082h.9v.84c.456-.576 1.128-.954 2.07-.954zm-.108.84c-1.182 0-2.022.912-2.022 2.112 0 1.206.84 2.118 2.022 2.118 1.218 0 2.028-.942 2.028-2.118 0-1.17-.822-2.112-2.028-2.112zm9.99 4.956h-.894v-.846c-.456.582-1.134.96-2.076.96-1.602 0-2.838-1.248-2.838-2.958 0-1.704 1.236-2.952 2.838-2.952.942 0 1.62.384 2.076.96v-.846h.894v5.682zm-2.862-4.956c-1.218 0-2.034.942-2.034 2.112 0 1.176.828 2.118 2.034 2.118 1.182 0 2.022-.912 2.022-2.118 0-1.2-.84-2.112-2.022-2.112zm7.536-.84c.408 0 .738.054 1.044.192l-.216.882a2.177 2.177 0 0 0-.984-.228c-.888 0-1.524.696-1.524 1.77v3.18h-.894v-5.682h.888v.798c.39-.582.984-.912 1.686-.912zm6.384.924h-2.454v2.868c0 .888.474 1.278 1.128 1.278.438 0 .858-.162 1.194-.402l.42.678c-.432.33-.984.564-1.686.564-1.224 0-1.95-.672-1.95-2.1v-2.886h-1.242v-.81h1.242v-1.806h.894v1.806h2.454v.81zm2.364 3.48a.77.77 0 0 1 .75.75.772.772 0 0 1-.75.756.772.772 0 0 1-.75-.756.77.77 0 0 1 .75-.75zm5.088.51v-6.354l-2.442.876v-.942l3.366-1.2v7.62h2.202v.882h-5.478v-.882h2.352zm-28.77 62.629l2.286 2.91h-1.098l-1.794-2.244-1.776 2.244h-1.05l2.28-2.904-2.22-2.778h1.098l1.716 2.154 1.722-2.154h1.056l-2.22 2.772zm4.446 2.91h-.9v-8.64h.9v8.64zm2.622-1.392a.77.77 0 0 1 .75.75.772.772 0 0 1-.75.756.772.772 0 0 1-.75-.756.77.77 0 0 1 .75-.75zm3.54 2.328c0 1.008-.558 1.554-1.416 1.554a1.82 1.82 0 0 1-.816-.192l.216-.774c.144.072.33.12.522.12.366 0 .594-.222.594-.75v-6.576h.9v6.618zm-.456-9.27a.63.63 0 0 1 .636.636c0 .36-.282.63-.636.63-.36 0-.63-.27-.63-.63a.62.62 0 0 1 .63-.636zm6.372 3.858c-.36-.252-1.092-.534-1.86-.534-.81 0-1.344.342-1.344.894 0 .48.408.708 1.158.798l.672.084c1.206.162 1.908.654 1.908 1.584 0 1.08-.972 1.758-2.502 1.758-.732 0-1.65-.186-2.37-.726l.414-.672c.432.336 1.008.618 1.968.618s1.566-.318 1.566-.918c0-.456-.378-.732-1.188-.828l-.678-.078c-1.29-.162-1.878-.726-1.878-1.572 0-1.08.9-1.722 2.268-1.722.894 0 1.704.252 2.256.618l-.39.696zm4.662-1.32c1.71 0 2.994 1.272 2.994 2.952 0 1.686-1.284 2.958-2.994 2.958s-2.988-1.272-2.988-2.958c0-1.68 1.278-2.952 2.988-2.952zm0 .84c-1.176 0-2.076.888-2.076 2.112s.9 2.118 2.076 2.118 2.076-.894 2.076-2.118-.9-2.112-2.076-2.112zm7.464-.84c1.404 0 2.37.9 2.37 2.274v3.522h-.894v-3.228c0-1.086-.588-1.716-1.638-1.716-.954 0-1.74.66-1.74 1.74v3.204h-.9v-5.682h.888v.81c.468-.678 1.212-.924 1.914-.924zm-28.272 13.343c1.596 0 2.838 1.248 2.838 2.952 0 1.71-1.242 2.958-2.838 2.958-.942 0-1.614-.378-2.07-.954v3.24h-.9v-8.082h.9v.84c.456-.576 1.128-.954 2.07-.954zm-.108.84c-1.182 0-2.022.912-2.022 2.112 0 1.206.84 2.118 2.022 2.118 1.218 0 2.028-.942 2.028-2.118 0-1.17-.822-2.112-2.028-2.112zm9.99 4.956h-.894v-.846c-.456.582-1.134.96-2.076.96-1.602 0-2.838-1.248-2.838-2.958 0-1.704 1.236-2.952 2.838-2.952.942 0 1.62.384 2.076.96v-.846h.894v5.682zm-2.862-4.956c-1.218 0-2.034.942-2.034 2.112 0 1.176.828 2.118 2.034 2.118 1.182 0 2.022-.912 2.022-2.118 0-1.2-.84-2.112-2.022-2.112zm7.536-.84c.408 0 .738.054 1.044.192l-.216.882a2.177 2.177 0 0 0-.984-.228c-.888 0-1.524.696-1.524 1.77v3.18h-.894v-5.682h.888v.798c.39-.582.984-.912 1.686-.912zm6.384.924h-2.454v2.868c0 .888.474 1.278 1.128 1.278.438 0 .858-.162 1.194-.402l.42.678c-.432.33-.984.564-1.686.564-1.224 0-1.95-.672-1.95-2.1v-2.886h-1.242v-.81h1.242v-1.806h.894v1.806h2.454v.81zm2.364 3.48a.77.77 0 0 1 .75.75.772.772 0 0 1-.75.756.772.772 0 0 1-.75-.756.77.77 0 0 1 .75-.75zm5.088.51v-6.354l-2.442.876v-.942l3.366-1.2v7.62h2.202v.882h-5.478v-.882h2.352zm-28.77 60.629l2.286 2.91h-1.098l-1.794-2.244-1.776 2.244h-1.05l2.28-2.904-2.22-2.778h1.098l1.716 2.154 1.722-2.154h1.056l-2.22 2.772zm4.446 2.91h-.9v-8.64h.9v8.64zm2.622-1.392a.77.77 0 0 1 .75.75.772.772 0 0 1-.75.756.772.772 0 0 1-.75-.756.77.77 0 0 1 .75-.75zm3.54 2.328c0 1.008-.558 1.554-1.416 1.554a1.82 1.82 0 0 1-.816-.192l.216-.774c.144.072.33.12.522.12.366 0 .594-.222.594-.75v-6.576h.9v6.618zm-.456-9.27a.63.63 0 0 1 .636.636c0 .36-.282.63-.636.63-.36 0-.63-.27-.63-.63a.62.62 0 0 1 .63-.636zm6.372 3.858c-.36-.252-1.092-.534-1.86-.534-.81 0-1.344.342-1.344.894 0 .48.408.708 1.158.798l.672.084c1.206.162 1.908.654 1.908 1.584 0 1.08-.972 1.758-2.502 1.758-.732 0-1.65-.186-2.37-.726l.414-.672c.432.336 1.008.618 1.968.618s1.566-.318 1.566-.918c0-.456-.378-.732-1.188-.828l-.678-.078c-1.29-.162-1.878-.726-1.878-1.572 0-1.08.9-1.722 2.268-1.722.894 0 1.704.252 2.256.618l-.39.696zm4.662-1.32c1.71 0 2.994 1.272 2.994 2.952 0 1.686-1.284 2.958-2.994 2.958s-2.988-1.272-2.988-2.958c0-1.68 1.278-2.952 2.988-2.952zm0 .84c-1.176 0-2.076.888-2.076 2.112s.9 2.118 2.076 2.118 2.076-.894 2.076-2.118-.9-2.112-2.076-2.112zm7.464-.84c1.404 0 2.37.9 2.37 2.274v3.522h-.894v-3.228c0-1.086-.588-1.716-1.638-1.716-.954 0-1.74.66-1.74 1.74v3.204h-.9v-5.682h.888v.81c.468-.678 1.212-.924 1.914-.924zm-28.272 13.343c1.596 0 2.838 1.248 2.838 2.952 0 1.71-1.242 2.958-2.838 2.958-.942 0-1.614-.378-2.07-.954v3.24h-.9v-8.082h.9v.84c.456-.576 1.128-.954 2.07-.954zm-.108.84c-1.182 0-2.022.912-2.022 2.112 0 1.206.84 2.118 2.022 2.118 1.218 0 2.028-.942 2.028-2.118 0-1.17-.822-2.112-2.028-2.112zm9.99 4.956h-.894v-.846c-.456.582-1.134.96-2.076.96-1.602 0-2.838-1.248-2.838-2.958 0-1.704 1.236-2.952 2.838-2.952.942 0 1.62.384 2.076.96v-.846h.894v5.682zm-2.862-4.956c-1.218 0-2.034.942-2.034 2.112 0 1.176.828 2.118 2.034 2.118 1.182 0 2.022-.912 2.022-2.118 0-1.2-.84-2.112-2.022-2.112zm7.536-.84c.408 0 .738.054 1.044.192l-.216.882a2.177 2.177 0 0 0-.984-.228c-.888 0-1.524.696-1.524 1.77v3.18h-.894v-5.682h.888v.798c.39-.582.984-.912 1.686-.912zm6.384.924h-2.454v2.868c0 .888.474 1.278 1.128 1.278.438 0 .858-.162 1.194-.402l.42.678c-.432.33-.984.564-1.686.564-1.224 0-1.95-.672-1.95-2.1v-2.886h-1.242v-.81h1.242v-1.806h.894v1.806h2.454v.81zm2.364 3.48a.77.77 0 0 1 .75.75.772.772 0 0 1-.75.756.772.772 0 0 1-.75-.756.77.77 0 0 1 .75-.75zm5.088.51v-6.354l-2.442.876v-.942l3.366-1.2v7.62h2.202v.882h-5.478v-.882h2.352zm-28.77 64.629l2.286 2.91h-1.098l-1.794-2.244-1.776 2.244h-1.05l2.28-2.904-2.22-2.778h1.098l1.716 2.154 1.722-2.154h1.056l-2.22 2.772zm4.446 2.91h-.9v-8.64h.9v8.64zm2.622-1.392a.77.77 0 0 1 .75.75.772.772 0 0 1-.75.756.772.772 0 0 1-.75-.756.77.77 0 0 1 .75-.75zm3.54 2.328c0 1.008-.558 1.554-1.416 1.554a1.82 1.82 0 0 1-.816-.192l.216-.774c.144.072.33.12.522.12.366 0 .594-.222.594-.75v-6.576h.9v6.618zm-.456-9.27a.63.63 0 0 1 .636.636c0 .36-.282.63-.636.63-.36 0-.63-.27-.63-.63a.62.62 0 0 1 .63-.636zm6.372 3.858c-.36-.252-1.092-.534-1.86-.534-.81 0-1.344.342-1.344.894 0 .48.408.708 1.158.798l.672.084c1.206.162 1.908.654 1.908 1.584 0 1.08-.972 1.758-2.502 1.758-.732 0-1.65-.186-2.37-.726l.414-.672c.432.336 1.008.618 1.968.618s1.566-.318 1.566-.918c0-.456-.378-.732-1.188-.828l-.678-.078c-1.29-.162-1.878-.726-1.878-1.572 0-1.08.9-1.722 2.268-1.722.894 0 1.704.252 2.256.618l-.39.696zm4.662-1.32c1.71 0 2.994 1.272 2.994 2.952 0 1.686-1.284 2.958-2.994 2.958s-2.988-1.272-2.988-2.958c0-1.68 1.278-2.952 2.988-2.952zm0 .84c-1.176 0-2.076.888-2.076 2.112s.9 2.118 2.076 2.118 2.076-.894 2.076-2.118-.9-2.112-2.076-2.112zm7.464-.84c1.404 0 2.37.9 2.37 2.274v3.522h-.894v-3.228c0-1.086-.588-1.716-1.638-1.716-.954 0-1.74.66-1.74 1.74v3.204h-.9v-5.682h.888v.81c.468-.678 1.212-.924 1.914-.924zm-28.272 13.343c1.596 0 2.838 1.248 2.838 2.952 0 1.71-1.242 2.958-2.838 2.958-.942 0-1.614-.378-2.07-.954v3.24h-.9v-8.082h.9v.84c.456-.576 1.128-.954 2.07-.954zm-.108.84c-1.182 0-2.022.912-2.022 2.112 0 1.206.84 2.118 2.022 2.118 1.218 0 2.028-.942 2.028-2.118 0-1.17-.822-2.112-2.028-2.112zm9.99 4.956h-.894v-.846c-.456.582-1.134.96-2.076.96-1.602 0-2.838-1.248-2.838-2.958 0-1.704 1.236-2.952 2.838-2.952.942 0 1.62.384 2.076.96v-.846h.894v5.682zm-2.862-4.956c-1.218 0-2.034.942-2.034 2.112 0 1.176.828 2.118 2.034 2.118 1.182 0 2.022-.912 2.022-2.118 0-1.2-.84-2.112-2.022-2.112zm7.536-.84c.408 0 .738.054 1.044.192l-.216.882a2.177 2.177 0 0 0-.984-.228c-.888 0-1.524.696-1.524 1.77v3.18h-.894v-5.682h.888v.798c.39-.582.984-.912 1.686-.912zm6.384.924h-2.454v2.868c0 .888.474 1.278 1.128 1.278.438 0 .858-.162 1.194-.402l.42.678c-.432.33-.984.564-1.686.564-1.224 0-1.95-.672-1.95-2.1v-2.886h-1.242v-.81h1.242v-1.806h.894v1.806h2.454v.81zm2.364 3.48a.77.77 0 0 1 .75.75.772.772 0 0 1-.75.756.772.772 0 0 1-.75-.756.77.77 0 0 1 .75-.75zm5.088.51v-6.354l-2.442.876v-.942l3.366-1.2v7.62h2.202v.882h-5.478v-.882h2.352zM344.748 215.363h-.966v-7.32l-2.928 6.39h-1.014l-2.922-6.342v7.272h-.966v-8.4h1.464l2.934 6.348 2.928-6.348h1.47v8.4zm2.82 2.424h-.99l2.118-3.654-2.61-4.452h1.002l2.118 3.564 2.004-3.564h.984l-4.626 8.106zm9.78-10.944c2.496 0 4.338 1.8 4.338 4.32s-1.842 4.32-4.338 4.32-4.338-1.8-4.338-4.32 1.842-4.32 4.338-4.32zm0 .93c-1.884 0-3.324 1.368-3.324 3.39s1.44 3.39 3.324 3.39c1.89 0 3.33-1.368 3.33-3.39s-1.44-3.39-3.33-3.39zm9.09 1.794c1.596 0 2.838 1.248 2.838 2.952 0 1.71-1.242 2.958-2.838 2.958-.942 0-1.614-.378-2.07-.954v.84h-.9v-8.64h.9v3.798c.456-.576 1.128-.954 2.07-.954zm-.108.84c-1.182 0-2.022.912-2.022 2.112 0 1.206.84 2.118 2.022 2.118 1.218 0 2.028-.942 2.028-2.118 0-1.17-.822-2.112-2.028-2.112zm5.538 5.892c0 1.008-.558 1.554-1.416 1.554a1.82 1.82 0 0 1-.816-.192l.216-.774c.144.072.33.12.522.12.366 0 .594-.222.594-.75v-6.576h.9v6.618zm-.456-9.27a.63.63 0 0 1 .636.636c0 .36-.282.63-.636.63-.36 0-.63-.27-.63-.63a.62.62 0 0 1 .63-.636zm4.944 2.538c1.542 0 2.652 1.206 2.67 2.934a2.84 2.84 0 0 1-.018.336h-4.554c.126 1.224.984 1.854 2.01 1.854.702 0 1.314-.264 1.8-.714l.48.612c-.708.678-1.494.888-2.334.888-1.68 0-2.874-1.194-2.874-2.952 0-1.74 1.206-2.958 2.82-2.958zm-.018.798c-1.05 0-1.728.72-1.872 1.746h3.648c-.114-1.062-.81-1.746-1.776-1.746zm6.864-.798c.846 0 1.596.312 2.106.894l-.576.606c-.432-.414-.93-.66-1.554-.66-1.134 0-2.004.888-2.004 2.112s.87 2.118 2.004 2.118c.624 0 1.164-.276 1.572-.666l.558.612c-.522.582-1.26.894-2.106.894-1.752 0-2.94-1.272-2.94-2.958 0-1.68 1.188-2.952 2.94-2.952zm7.572.924h-2.454v2.868c0 .888.474 1.278 1.128 1.278.438 0 .858-.162 1.194-.402l.42.678c-.432.33-.984.564-1.686.564-1.224 0-1.95-.672-1.95-2.1v-2.886h-1.242v-.81h1.242v-1.806h.894v1.806h2.454v.81zm-46.026 81.792h-.966v-7.32l-2.928 6.39h-1.014l-2.922-6.342v7.272h-.966v-8.4h1.464l2.934 6.348 2.928-6.348h1.47v8.4zm2.82 2.424h-.99l2.118-3.654-2.61-4.452h1.002l2.118 3.564 2.004-3.564h.984l-4.626 8.106zm9.78-10.944c2.496 0 4.338 1.8 4.338 4.32s-1.842 4.32-4.338 4.32-4.338-1.8-4.338-4.32 1.842-4.32 4.338-4.32zm0 .93c-1.884 0-3.324 1.368-3.324 3.39s1.44 3.39 3.324 3.39c1.89 0 3.33-1.368 3.33-3.39s-1.44-3.39-3.33-3.39zm9.09 1.794c1.596 0 2.838 1.248 2.838 2.952 0 1.71-1.242 2.958-2.838 2.958-.942 0-1.614-.378-2.07-.954v.84h-.9v-8.64h.9v3.798c.456-.576 1.128-.954 2.07-.954zm-.108.84c-1.182 0-2.022.912-2.022 2.112 0 1.206.84 2.118 2.022 2.118 1.218 0 2.028-.942 2.028-2.118 0-1.17-.822-2.112-2.028-2.112zm5.538 5.892c0 1.008-.558 1.554-1.416 1.554a1.82 1.82 0 0 1-.816-.192l.216-.774c.144.072.33.12.522.12.366 0 .594-.222.594-.75V286.6h.9v6.618zm-.456-9.27a.63.63 0 0 1 .636.636c0 .36-.282.63-.636.63-.36 0-.63-.27-.63-.63a.62.62 0 0 1 .63-.636zm4.944 2.538c1.542 0 2.652 1.206 2.67 2.934a2.84 2.84 0 0 1-.018.336h-4.554c.126 1.224.984 1.854 2.01 1.854.702 0 1.314-.264 1.8-.714l.48.612c-.708.678-1.494.888-2.334.888-1.68 0-2.874-1.194-2.874-2.952 0-1.74 1.206-2.958 2.82-2.958zm-.018.798c-1.05 0-1.728.72-1.872 1.746h3.648c-.114-1.062-.81-1.746-1.776-1.746zm6.864-.798c.846 0 1.596.312 2.106.894l-.576.606c-.432-.414-.93-.66-1.554-.66-1.134 0-2.004.888-2.004 2.112s.87 2.118 2.004 2.118c.624 0 1.164-.276 1.572-.666l.558.612c-.522.582-1.26.894-2.106.894-1.752 0-2.94-1.272-2.94-2.958 0-1.68 1.188-2.952 2.94-2.952zm7.572.924h-2.454v2.868c0 .888.474 1.278 1.128 1.278.438 0 .858-.162 1.194-.402l.42.678c-.432.33-.984.564-1.686.564-1.224 0-1.95-.672-1.95-2.1v-2.886h-1.242v-.81h1.242v-1.806h.894v1.806h2.454v.81zm-46.026 84.147h-.966v-7.32l-2.928 6.39h-1.014l-2.922-6.342v7.272h-.966v-8.4h1.464l2.934 6.348 2.928-6.348h1.47v8.4zm2.82 2.424h-.99l2.118-3.654-2.61-4.452h1.002l2.118 3.564 2.004-3.564h.984l-4.626 8.106zm9.78-10.944c2.496 0 4.338 1.8 4.338 4.32s-1.842 4.32-4.338 4.32-4.338-1.8-4.338-4.32 1.842-4.32 4.338-4.32zm0 .93c-1.884 0-3.324 1.368-3.324 3.39s1.44 3.39 3.324 3.39c1.89 0 3.33-1.368 3.33-3.39s-1.44-3.39-3.33-3.39zm9.09 1.794c1.596 0 2.838 1.248 2.838 2.952 0 1.71-1.242 2.958-2.838 2.958-.942 0-1.614-.378-2.07-.954v.84h-.9v-8.64h.9v3.798c.456-.576 1.128-.954 2.07-.954zm-.108.84c-1.182 0-2.022.912-2.022 2.112 0 1.206.84 2.118 2.022 2.118 1.218 0 2.028-.942 2.028-2.118 0-1.17-.822-2.112-2.028-2.112zm5.538 5.892c0 1.008-.558 1.554-1.416 1.554a1.82 1.82 0 0 1-.816-.192l.216-.774c.144.072.33.12.522.12.366 0 .594-.222.594-.75v-6.576h.9v6.618zm-.456-9.27a.63.63 0 0 1 .636.636c0 .36-.282.63-.636.63-.36 0-.63-.27-.63-.63a.62.62 0 0 1 .63-.636zm4.944 2.538c1.542 0 2.652 1.206 2.67 2.934a2.84 2.84 0 0 1-.018.336h-4.554c.126 1.224.984 1.854 2.01 1.854.702 0 1.314-.264 1.8-.714l.48.612c-.708.678-1.494.888-2.334.888-1.68 0-2.874-1.194-2.874-2.952 0-1.74 1.206-2.958 2.82-2.958zm-.018.798c-1.05 0-1.728.72-1.872 1.746h3.648c-.114-1.062-.81-1.746-1.776-1.746zm6.864-.798c.846 0 1.596.312 2.106.894l-.576.606c-.432-.414-.93-.66-1.554-.66-1.134 0-2.004.888-2.004 2.112s.87 2.118 2.004 2.118c.624 0 1.164-.276 1.572-.666l.558.612c-.522.582-1.26.894-2.106.894-1.752 0-2.94-1.272-2.94-2.958 0-1.68 1.188-2.952 2.94-2.952zm7.572.924h-2.454v2.868c0 .888.474 1.278 1.128 1.278.438 0 .858-.162 1.194-.402l.42.678c-.432.33-.984.564-1.686.564-1.224 0-1.95-.672-1.95-2.1v-2.886h-1.242v-.81h1.242v-1.806h.894v1.806h2.454v.81zM246.85 179.257h-.966v-7.32l-2.928 6.39h-1.014l-2.922-6.342v7.272h-.966v-8.4h1.464l2.934 6.348 2.928-6.348h1.47v8.4zm2.82 2.424h-.99l2.118-3.654-2.61-4.452h1.002l2.118 3.564 2.004-3.564h.984l-4.626 8.106zm9.18-10.824c1.764 0 3.036.618 3.036 2.214 0 .948-.51 1.602-1.266 1.86.84.276 1.446.954 1.446 1.992 0 1.632-1.2 2.334-3.06 2.334h-3.408v-8.4h3.252zm-2.286 4.59v2.904h2.4c1.26 0 2.088-.33 2.088-1.458 0-1.116-.828-1.446-2.088-1.446h-2.4zm0-3.684v2.784h2.256c1.152 0 2.052-.276 2.052-1.404 0-1.104-.9-1.38-2.058-1.38h-2.25zm12.378 5.124c0 1.686-1.212 2.484-2.58 2.484-1.374 0-2.58-.798-2.58-2.484v-3.312h.894v3.228c0 1.176.708 1.728 1.686 1.728.972 0 1.68-.552 1.68-1.728v-3.228h.9v3.312zm4.542-3.426c.846 0 1.596.312 2.106.894l-.576.606c-.432-.414-.93-.66-1.554-.66-1.134 0-2.004.888-2.004 2.112s.87 2.118 2.004 2.118c.624 0 1.164-.276 1.572-.666l.558.612c-.522.582-1.26.894-2.106.894-1.752 0-2.94-1.272-2.94-2.958 0-1.68 1.188-2.952 2.94-2.952zm4.536 2.418h.822l2.19-2.304h1.122l-2.58 2.676 2.622 3.006h-1.134l-2.226-2.562h-.816v2.562h-.9v-8.64h.9v5.262zm7.596-2.418c1.542 0 2.652 1.206 2.67 2.934a2.84 2.84 0 0 1-.018.336h-4.554c.126 1.224.984 1.854 2.01 1.854.702 0 1.314-.264 1.8-.714l.48.612c-.708.678-1.494.888-2.334.888-1.68 0-2.874-1.194-2.874-2.952 0-1.74 1.206-2.958 2.82-2.958zm-.018.798c-1.05 0-1.728.72-1.872 1.746h3.648c-.114-1.062-.81-1.746-1.776-1.746zm8.154.126h-2.454v2.868c0 .888.474 1.278 1.128 1.278.438 0 .858-.162 1.194-.402l.42.678c-.432.33-.984.564-1.686.564-1.224 0-1.95-.672-1.95-2.1v-2.886h-1.242v-.81h1.242v-1.806h.894v1.806h2.454v.81zm-46.902 82.577h-.966v-7.32l-2.928 6.39h-1.014l-2.922-6.342v7.272h-.966v-8.4h1.464l2.934 6.348 2.928-6.348h1.47v8.4zm2.82 2.424h-.99l2.118-3.654-2.61-4.452h1.002l2.118 3.564 2.004-3.564h.984l-4.626 8.106zm9.18-10.824c1.764 0 3.036.618 3.036 2.214 0 .948-.51 1.602-1.266 1.86.84.276 1.446.954 1.446 1.992 0 1.632-1.2 2.334-3.06 2.334h-3.408v-8.4h3.252zm-2.286 4.59v2.904h2.4c1.26 0 2.088-.33 2.088-1.458 0-1.116-.828-1.446-2.088-1.446h-2.4zm0-3.684v2.784h2.256c1.152 0 2.052-.276 2.052-1.404 0-1.104-.9-1.38-2.058-1.38h-2.25zm12.378 5.124c0 1.686-1.212 2.484-2.58 2.484-1.374 0-2.58-.798-2.58-2.484v-3.312h.894v3.228c0 1.176.708 1.728 1.686 1.728.972 0 1.68-.552 1.68-1.728v-3.228h.9v3.312zm4.542-3.426c.846 0 1.596.312 2.106.894l-.576.606c-.432-.414-.93-.66-1.554-.66-1.134 0-2.004.888-2.004 2.112s.87 2.118 2.004 2.118c.624 0 1.164-.276 1.572-.666l.558.612c-.522.582-1.26.894-2.106.894-1.752 0-2.94-1.272-2.94-2.958 0-1.68 1.188-2.952 2.94-2.952zm4.536 2.418h.822l2.19-2.304h1.122l-2.58 2.676 2.622 3.006h-1.134l-2.226-2.562h-.816v2.562h-.9v-8.64h.9v5.262zm7.596-2.418c1.542 0 2.652 1.206 2.67 2.934a2.84 2.84 0 0 1-.018.336h-4.554c.126 1.224.984 1.854 2.01 1.854.702 0 1.314-.264 1.8-.714l.48.612c-.708.678-1.494.888-2.334.888-1.68 0-2.874-1.194-2.874-2.952 0-1.74 1.206-2.958 2.82-2.958zm-.018.798c-1.05 0-1.728.72-1.872 1.746h3.648c-.114-1.062-.81-1.746-1.776-1.746zm8.154.126h-2.454v2.868c0 .888.474 1.278 1.128 1.278.438 0 .858-.162 1.194-.402l.42.678c-.432.33-.984.564-1.686.564-1.224 0-1.95-.672-1.95-2.1v-2.886h-1.242v-.81h1.242v-1.806h.894v1.806h2.454v.81zm-46.902 83.363h-.966v-7.32l-2.928 6.39h-1.014l-2.922-6.342v7.272h-.966v-8.4h1.464l2.934 6.348 2.928-6.348h1.47v8.4zm2.82 2.424h-.99l2.118-3.654-2.61-4.452h1.002l2.118 3.564 2.004-3.564h.984l-4.626 8.106zm9.18-10.824c1.764 0 3.036.618 3.036 2.214 0 .948-.51 1.602-1.266 1.86.84.276 1.446.954 1.446 1.992 0 1.632-1.2 2.334-3.06 2.334h-3.408v-8.4h3.252zm-2.286 4.59v2.904h2.4c1.26 0 2.088-.33 2.088-1.458 0-1.116-.828-1.446-2.088-1.446h-2.4zm0-3.684v2.784h2.256c1.152 0 2.052-.276 2.052-1.404 0-1.104-.9-1.38-2.058-1.38h-2.25zm12.378 5.124c0 1.686-1.212 2.484-2.58 2.484-1.374 0-2.58-.798-2.58-2.484v-3.312h.894v3.228c0 1.176.708 1.728 1.686 1.728.972 0 1.68-.552 1.68-1.728v-3.228h.9v3.312zm4.542-3.426c.846 0 1.596.312 2.106.894l-.576.606c-.432-.414-.93-.66-1.554-.66-1.134 0-2.004.888-2.004 2.112s.87 2.118 2.004 2.118c.624 0 1.164-.276 1.572-.666l.558.612c-.522.582-1.26.894-2.106.894-1.752 0-2.94-1.272-2.94-2.958 0-1.68 1.188-2.952 2.94-2.952zm4.536 2.418h.822l2.19-2.304h1.122l-2.58 2.676 2.622 3.006h-1.134l-2.226-2.562h-.816v2.562h-.9v-8.64h.9v5.262zm7.596-2.418c1.542 0 2.652 1.206 2.67 2.934a2.84 2.84 0 0 1-.018.336h-4.554c.126 1.224.984 1.854 2.01 1.854.702 0 1.314-.264 1.8-.714l.48.612c-.708.678-1.494.888-2.334.888-1.68 0-2.874-1.194-2.874-2.952 0-1.74 1.206-2.958 2.82-2.958zm-.018.798c-1.05 0-1.728.72-1.872 1.746h3.648c-.114-1.062-.81-1.746-1.776-1.746zm8.154.126h-2.454v2.868c0 .888.474 1.278 1.128 1.278.438 0 .858-.162 1.194-.402l.42.678c-.432.33-.984.564-1.686.564-1.224 0-1.95-.672-1.95-2.1v-2.886h-1.242v-.81h1.242v-1.806h.894v1.806h2.454v.81zM152.522 144.17c2.742 0 4.482 1.638 4.482 4.2s-1.74 4.2-4.482 4.2h-3.162v-8.4h3.162zm-2.196.912v6.576h2.196c2.274 0 3.468-1.32 3.468-3.288 0-1.986-1.194-3.288-3.468-3.288h-2.196zm9.36 7.488h-.9v-5.682h.9v5.682zm-.45-8.334a.63.63 0 0 1 .636.636c0 .36-.282.63-.636.63-.36 0-.63-.27-.63-.63a.62.62 0 0 1 .63-.636zm6.366 3.858c-.36-.252-1.092-.534-1.86-.534-.81 0-1.344.342-1.344.894 0 .48.408.708 1.158.798l.672.084c1.206.162 1.908.654 1.908 1.584 0 1.08-.972 1.758-2.502 1.758-.732 0-1.65-.186-2.37-.726l.414-.672c.432.336 1.008.618 1.968.618s1.566-.318 1.566-.918c0-.456-.378-.732-1.188-.828l-.678-.078c-1.29-.162-1.878-.726-1.878-1.572 0-1.08.9-1.722 2.268-1.722.894 0 1.704.252 2.256.618l-.39.696zm3.006 1.098h.822l2.19-2.304h1.122l-2.58 2.676 2.622 3.006h-1.134l-2.226-2.562h-.816v2.562h-.9v-8.64h.9v5.262zm5.214-3.738c.396-.588 1.134-1.392 2.574-1.392 1.704 0 2.682 1.116 2.682 2.598 0 1.038-.582 1.8-1.128 2.376l-2.508 2.652h3.912v.882h-5.286v-.726l3.174-3.348c.51-.534.864-1.116.864-1.836 0-.966-.618-1.716-1.74-1.716-.954 0-1.47.498-1.872 1.05l-.672-.54zm-21.3 76.422c2.742 0 4.482 1.638 4.482 4.2s-1.74 4.2-4.482 4.2h-3.162v-8.4h3.162zm-2.196.912v6.576h2.196c2.274 0 3.468-1.32 3.468-3.288 0-1.986-1.194-3.288-3.468-3.288h-2.196zm9.36 7.488h-.9v-5.682h.9v5.682zm-.45-8.334a.63.63 0 0 1 .636.636c0 .36-.282.63-.636.63-.36 0-.63-.27-.63-.63a.62.62 0 0 1 .63-.636zm6.366 3.858c-.36-.252-1.092-.534-1.86-.534-.81 0-1.344.342-1.344.894 0 .48.408.708 1.158.798l.672.084c1.206.162 1.908.654 1.908 1.584 0 1.08-.972 1.758-2.502 1.758-.732 0-1.65-.186-2.37-.726l.414-.672c.432.336 1.008.618 1.968.618s1.566-.318 1.566-.918c0-.456-.378-.732-1.188-.828l-.678-.078c-1.29-.162-1.878-.726-1.878-1.572 0-1.08.9-1.722 2.268-1.722.894 0 1.704.252 2.256.618l-.39.696zm3.006 1.098h.822l2.19-2.304h1.122l-2.58 2.676 2.622 3.006h-1.134l-2.226-2.562h-.816v2.562h-.9v-8.64h.9v5.262zm7.74-5.13c1.656 0 2.778.936 2.778 2.298 0 .99-.522 1.632-1.314 1.968.882.318 1.5 1.002 1.5 1.992 0 1.602-1.404 2.358-2.886 2.358-1.176 0-2.106-.408-2.724-1.104l.594-.618c.528.546 1.278.858 2.112.858 1.038 0 1.938-.492 1.938-1.536 0-.972-.906-1.524-2.028-1.524h-1.104v-.846h1.098c1.032 0 1.848-.504 1.848-1.5 0-.906-.81-1.482-1.866-1.482-.84 0-1.488.438-1.854.954l-.666-.57c.48-.714 1.368-1.248 2.574-1.248zm-23.826 78.598c2.742 0 4.482 1.638 4.482 4.2s-1.74 4.2-4.482 4.2h-3.162v-8.4h3.162zm-2.196.912v6.576h2.196c2.274 0 3.468-1.32 3.468-3.288 0-1.986-1.194-3.288-3.468-3.288h-2.196zm9.36 7.488h-.9v-5.682h.9v5.682zm-.45-8.334a.63.63 0 0 1 .636.636c0 .36-.282.63-.636.63-.36 0-.63-.27-.63-.63a.62.62 0 0 1 .63-.636zm6.366 3.858c-.36-.252-1.092-.534-1.86-.534-.81 0-1.344.342-1.344.894 0 .48.408.708 1.158.798l.672.084c1.206.162 1.908.654 1.908 1.584 0 1.08-.972 1.758-2.502 1.758-.732 0-1.65-.186-2.37-.726l.414-.672c.432.336 1.008.618 1.968.618s1.566-.318 1.566-.918c0-.456-.378-.732-1.188-.828l-.678-.078c-1.29-.162-1.878-.726-1.878-1.572 0-1.08.9-1.722 2.268-1.722.894 0 1.704.252 2.256.618l-.39.696zm3.006 1.098h.822l2.19-2.304h1.122l-2.58 2.676 2.622 3.006h-1.134l-2.226-2.562h-.816v2.562h-.9v-8.64h.9v5.262zm9.738.738h1.434v.876h-1.434v1.764h-.924v-1.764h-3.924v-.714l3.138-5.916h1.05l-3.078 5.754h2.814v-2.34h.924v2.34zM35.047 37.044c1.799 0 3.094 1.407 3.115 3.423 0 .147-.007.273-.021.392h-5.313c.147 1.428 1.148 2.163 2.345 2.163.819 0 1.533-.308 2.1-.833l.56.714c-.826.79-1.743 1.036-2.723 1.036-1.96 0-3.353-1.393-3.353-3.444 0-2.03 1.407-3.451 3.29-3.451zm-.021.93c-1.225 0-2.016.84-2.184 2.038h4.256c-.133-1.24-.945-2.037-2.072-2.037zm7.847 2.437l2.667 3.395h-1.281l-2.093-2.618-2.072 2.618h-1.225l2.66-3.388-2.59-3.241h1.28l2.003 2.513 2.009-2.513h1.232l-2.59 3.234zm7.602-3.367c1.862 0 3.31 1.456 3.31 3.444 0 1.995-1.448 3.45-3.31 3.45-1.1 0-1.883-.44-2.415-1.112v3.78h-1.05v-9.43h1.05v.98c.532-.671 1.316-1.112 2.415-1.112zm-.126.98c-1.38 0-2.36 1.064-2.36 2.464 0 1.407.98 2.47 2.36 2.47 1.42 0 2.366-1.098 2.366-2.47 0-1.365-.96-2.464-2.366-2.464zm8.365-.98c1.995 0 3.493 1.484 3.493 3.444 0 1.967-1.498 3.45-3.493 3.45s-3.486-1.483-3.486-3.45c0-1.96 1.49-3.444 3.486-3.444zm0 .98c-1.372 0-2.422 1.036-2.422 2.464s1.05 2.47 2.422 2.47 2.422-1.042 2.422-2.47-1.05-2.464-2.422-2.464zm8.442-.98c.476 0 .86.063 1.218.224l-.252 1.029a2.54 2.54 0 0 0-1.148-.266c-1.036 0-1.778.812-1.778 2.065v3.71h-1.043v-6.63h1.036v.932c.455-.68 1.148-1.064 1.967-1.064zm7.448 1.078H71.74v3.346c0 1.036.553 1.49 1.316 1.49a2.43 2.43 0 0 0 1.393-.468l.49.79a3.159 3.159 0 0 1-1.967.659c-1.428 0-2.275-.784-2.275-2.45v-3.367h-1.45v-.945h1.45V35.07h1.043v2.107h2.863v.945zm5.453 2.457h-3.892v-.952h3.892v.952zm4.865-.168l2.667 3.395h-1.281l-2.093-2.618-2.072 2.618h-1.225l2.66-3.388-2.59-3.241h1.28l2.003 2.513 2.009-2.513h1.232l-2.59 3.234zm5.187 3.395h-1.05v-10.08h1.05v10.08z" fill="#000"/></g></svg>