<svg xmlns="http://www.w3.org/2000/svg" width="902" height="240" xmlns:v="https://vecta.io/nano"><style><![CDATA[.B{fill-rule:nonzero}.C{fill:#000}.D{fill:#c72c48}.E{fill:#e8e8e8}.F{stroke-width:1.5}.G{stroke:#c72c48}]]></style><g fill="none" fill-rule="evenodd"><g class="B"><path d="M902.002 239.598H.688V.73h901.314v238.868zM.969 239.427h900.752V.9H.969v238.527z" fill="#fff"/><path fill="#e2e2e2" d="M702.928 156.04l-8-14.36v5.35h-173.2v18.67h173.2v4.71z"/><rect x="702.338" y="40.38" width="159" height="159" rx="5.74" class="D"/></g><rect stroke="#727272" x="41.338" y="40.38" width="159" height="159" rx="5.74" class="F"/><g class="B"><path d="M766.748 113.64h4.81v12.49h-4.81v-12.49zm-5.83.17l-9.77 5.24a.49.49 0 0 1-.45 0l-9.77-5.24a1.48 1.48 0 0 0-.7-.17 1.27 1.27 0 0 0-1.34 1.18v11.29h4.81v-5.38a.49.49 0 0 1 .73-.36l5.47 2.94a1.92 1.92 0 0 0 1.76 0l5.78-3a.48.48 0 0 1 .72.36v5.39h4.81v-11.25a1.27 1.27 0 0 0-1.34-1.18 1.48 1.48 0 0 0-.71.18zm34.64-.17h-4.88v5.68a.48.48 0 0 1-.71.37l-12.65-5.92a1.49 1.49 0 0 0-.63-.14 1.27 1.27 0 0 0-1.34 1.18v11.3h4.84v-5.68a.48.48 0 0 1 .71-.37l12.7 5.92a1.49 1.49 0 0 0 .63.14 1.27 1.27 0 0 0 1.34-1.18l-.01-11.3zm3.79 12.48v-12.48h2.21v12.49l-2.21-.01zm15.24.22c-6 0-10.18-2.48-10.18-6.46s4.25-6.46 10.18-6.46 10.25 2.46 10.25 6.46-4.21 6.46-10.25 6.46zm0-11.27c-4.43 0-7.84 1.7-7.84 4.81s3.41 4.81 7.84 4.81 7.87-1.68 7.87-4.81-3.44-4.81-7.87-4.81z" fill="#fff"/><path d="M201.128 109.58l7.82 3.91v-7.82z" class="D"/></g><path d="M208.948 109.58l153.39.05" stroke-width="2" class="G"/><path d="M361.938 148.61l-7.82-3.91v7.82z" class="B D"/><path d="M354.118 149.61l-153.39-.05" stroke-width="2" class="G"/><circle cx="236.348" cy="93.44" r="9.56" class="B E"/><path d="M235.866 98.41V89.8h-.03l-1.714.924-.257-1.016 2.152-1.152h1.137v9.854z" class="C"/><circle cx="564.188" cy="60.6" r="9.56" class="B E"/><path d="M560.765 65.07l.364-1.031c.379.242 1.258.621 2.183.621 1.713 0 2.243-1.091 2.228-1.91-.015-1.38-1.258-1.97-2.547-1.97h-.743v-1.001h.743c.97 0 2.198-.5 2.198-1.668 0-.788-.5-1.485-1.728-1.485-.788 0-1.546.348-1.97.651l-.35-.97c.516-.379 1.517-.758 2.578-.758 1.94 0 2.82 1.152 2.82 2.35 0 1.016-.607 1.88-1.82 2.32v.03c1.213.242 2.199 1.152 2.199 2.532 0 1.576-1.228 2.956-3.593 2.956-1.107 0-2.077-.349-2.562-.667z" class="C"/><circle cx="564.188" cy="125.61" r="9.56" class="B E"/><path d="M566.192 130.58h-1.258v-2.683h-4.579v-.88l4.397-6.291h1.44v6.125h1.38v1.046h-1.38v2.683zm-4.487-3.73h3.229v-3.29l.045-1.545h-.045l-.819 1.455-2.41 3.35v.03z" class="C"/><circle cx="564.188" cy="185.32" r="9.56" class="B E"/><path d="M566.692 180.426v1.122h-3.76l-.378 2.532c.227-.03.44-.061.803-.061.758 0 1.516.167 2.122.53.774.44 1.41 1.29 1.41 2.532 0 1.926-1.53 3.366-3.668 3.366-1.077 0-1.986-.303-2.456-.607l.333-1.015c.41.242 1.213.545 2.107.545 1.259 0 2.335-.818 2.335-2.137-.015-1.274-.864-2.183-2.835-2.183-.56 0-1 .06-1.364.106l.637-4.73h4.714z" class="C"/><circle cx="236.348" cy="164.72" r="9.56" class="B E"/><path d="M239.262 169.69h-6.292v-.819l1.046-1.015c2.517-2.396 3.654-3.67 3.669-5.155 0-1-.485-1.925-1.956-1.925-.894 0-1.637.455-2.092.834l-.424-.94c.682-.576 1.652-1 2.79-1 2.122 0 3.016 1.455 3.016 2.864 0 1.82-1.319 3.29-3.396 5.291l-.788.728v.03h4.427v1.107z" class="C"/><path d="M240.038 129.62a4.89 4.89 0 0 1-8.337 3.498 4.89 4.89 0 0 1 3.447-8.358 4.71 4.71 0 0 1 4.89 4.86zm-8.54 0a3.65 3.65 0 0 0 7.299-.093 3.65 3.65 0 0 0-3.649-3.627 3.55 3.55 0 0 0-3.64 3.72h-.01zm17.09 1.52a3.2 3.2 0 0 1-3.2 3.34 2.81 2.81 0 0 1-2.26-1v3.55h-1.1v-9.1h1.1v.86a2.81 2.81 0 0 1 2.26-1 3.2 3.2 0 0 1 3.2 3.35zm-5.53 0a2.2 2.2 0 0 0 4.397-.132 2.2 2.2 0 0 0-2.197-2.168 2.18 2.18 0 0 0-2.2 2.3zm13.1-.02v.41h-5a2.09 2.09 0 0 0 2.18 2 3 3 0 0 0 2-.76l.59.76a3.64 3.64 0 0 1-2.63 1 3.34 3.34 0 0 1-.07-6.68 3.06 3.06 0 0 1 2.93 3.27zm-5-.48h3.92a1.91 1.91 0 0 0-1.91-1.86 2 2 0 0 0-2.06 1.86h.05zm12.68-.28v4h-1.11v-3.62a1.66 1.66 0 0 0-1.76-1.87 1.82 1.82 0 0 0-1.9 1.9v3.59h-1.1v-6.41h1.09v.84a2.52 2.52 0 0 1 2.1-1 2.49 2.49 0 0 1 2.68 2.57zm3.67 3.98h-1.19v-9.46h1.19v9.46zm6.33-9.46c3 0 5 1.85 5 4.72s-2 4.72-5 4.72h-3.6v-9.44h3.6zm-2.41 1.13v7.19h2.41c2.48 0 3.76-1.46 3.76-3.59s-1.28-3.59-3.76-3.59l-2.41-.01zm21.41.71l-1 .67a3.41 3.41 0 0 0-2.9-1.51c-2.057 0-3.725 1.668-3.725 3.725s1.668 3.725 3.725 3.725a3.37 3.37 0 0 0 2.9-1.45l1 .71a4.55 4.55 0 0 1-3.84 1.91c-2.687 0-4.865-2.178-4.865-4.865s2.178-4.865 4.865-4.865a4.46 4.46 0 0 1 3.84 1.95zm8.07 4.42a3.39 3.39 0 0 1-5.769 2.465 3.39 3.39 0 0 1 2.379-5.805 3.29 3.29 0 0 1 3.39 3.34zm-5.65 0a2.26 2.26 0 0 0 4.52-.053 2.26 2.26 0 0 0-2.26-2.247 2.22 2.22 0 0 0-2.26 2.3zm13.37-.78v4h-1.11v-3.62a1.66 1.66 0 0 0-1.76-1.87 1.82 1.82 0 0 0-1.9 1.9v3.59h-1.1v-6.41h1.08v.84a2.52 2.52 0 0 1 2.1-1 2.49 2.49 0 0 1 2.69 2.57zm8.13 0v4h-1.11v-3.62a1.66 1.66 0 0 0-1.76-1.87 1.82 1.82 0 0 0-1.89 1.9v3.59h-1.1v-6.41h1.09v.84a2.52 2.52 0 0 1 2.1-1 2.49 2.49 0 0 1 2.67 2.57zm7.98.76v.41h-5a2.09 2.09 0 0 0 2.18 2 3 3 0 0 0 2-.76l.59.76a3.64 3.64 0 0 1-2.63 1 3.34 3.34 0 0 1-.07-6.68 3.06 3.06 0 0 1 2.93 3.27zm-5-.48h3.92a1.91 1.91 0 0 0-1.91-1.86 2 2 0 0 0-2.05 1.86h.04zm12.1-1.83l-.71.75a2.35 2.35 0 0 0-1.7-.72 2.31 2.31 0 0 0 0 4.61 2.49 2.49 0 0 0 1.73-.74l.68.76a3.12 3.12 0 0 1-2.38 1 3.34 3.34 0 1 1 0-6.68 3.09 3.09 0 0 1 2.38 1.02zm6.11.13h-2.69v3.12c0 1 .51 1.38 1.21 1.38a2.39 2.39 0 0 0 1.31-.43l.52.83a3.23 3.23 0 0 1-1.92.63c-1.39 0-2.22-.76-2.22-2.39v-3.14h-1.37v-1h1.37v-2h1.11v2h2.69l-.01 1zm183.77-48.87l7.83 3.91v-7.82l-7.83 3.91z" class="B D"/><path d="M529.548 80.07l173.39.05" class="F G"/><path d="M702.538 106.1l-7.82-3.91v7.82z" class="B D"/><path d="M694.718 106.1l-173.39-.05" class="F G"/><g class="B"><path d="M590.778 90.88a4.94 4.94 0 0 0-2.8-.87c-1.38 0-2.37.62-2.37 1.64 0 .86.72 1.29 2.14 1.47l.83.1c1.6.2 3 .84 3 2.51 0 1.88-1.71 2.87-3.75 2.87a6.12 6.12 0 0 1-3.72-1.23l.65-.94a5 5 0 0 0 3.08 1c1.41 0 2.52-.57 2.52-1.64 0-.88-.79-1.29-2.26-1.48l-.88-.11c-1.56-.19-2.8-.91-2.8-2.52 0-1.82 1.62-2.84 3.61-2.84a5.78 5.78 0 0 1 3.4 1l-.65 1.04zm9.48-.7h-3.22v8.32h-1.2v-8.32h-3.2v-1.13h7.63l-.01 1.13zm7.72.7a4.94 4.94 0 0 0-2.8-.87c-1.38 0-2.37.62-2.37 1.64 0 .86.72 1.29 2.14 1.47l.83.1c1.6.2 3 .84 3 2.51 0 1.88-1.71 2.87-3.75 2.87a6.12 6.12 0 0 1-3.72-1.23l.65-.94a5 5 0 0 0 3.08 1c1.41 0 2.52-.57 2.52-1.64 0-.88-.79-1.29-2.26-1.48l-.88-.11c-1.56-.19-2.8-.91-2.8-2.52 0-1.82 1.62-2.84 3.61-2.84a5.78 5.78 0 0 1 3.4 1l-.65 1.04z" class="D"/><path d="M602.188 159.09a5.82 5.82 0 0 0 2.53.63c1 0 1.61-.43 1.61-1.09s-.48-1-1.7-1.42c-1.68-.58-2.77-1.51-2.77-3 0-1.73 1.44-3 3.82-3a6.18 6.18 0 0 1 2.58.51l-.51 1.84a4.8 4.8 0 0 0-2.12-.48c-1 0-1.47.45-1.47 1s.57.93 1.88 1.42c1.79.66 2.63 1.59 2.63 3 0 1.7-1.3 3.13-4.08 3.13a6.63 6.63 0 0 1-2.87-.61l.47-1.93zm8.07.12a5.37 5.37 0 0 0 2.26.6c1.18 0 1.79-.57 1.79-1.31 0-1-1-1.39-2-1.39h-.93v-1.63h.89c.76 0 1.74-.3 1.74-1.12 0-.58-.48-1-1.44-1a4.46 4.46 0 0 0-2 .58l-.46-1.65a6.11 6.11 0 0 1 3-.74c2.08 0 3.24 1.09 3.24 2.43a2.34 2.34 0 0 1-1.79 2.27 2.42 2.42 0 0 1 2.12 2.37c0 1.73-1.52 3-4 3a5.75 5.75 0 0 1-2.84-.74l.42-1.67z" class="C"/></g><rect stroke="#727272" x="362.338" y="40.38" width="159" height="159" rx="5.74" class="F"/><path d="M585.223 181.949c1.456 0 2.691.565 3.53 1.527l-.774.741c-.65-.786-1.618-1.26-2.756-1.26-2.041 0-3.601 1.481-3.601 3.672s1.56 3.672 3.556 3.672c1.917 0 3.12-1.144 3.276-3.009h-2.834v-.975h3.965l.013.266c0 2.653-1.684 4.72-4.42 4.72-2.393 0-4.655-1.73-4.655-4.674 0-2.737 2.016-4.68 4.7-4.68zm8.912 2.951c1.67 0 2.873 1.306 2.892 3.178 0 .137-.006.254-.02.365h-4.933c.136 1.326 1.066 2.008 2.178 2.008a2.82 2.82 0 0 0 1.95-.774l.52.663c-.767.735-1.619.963-2.529.963-1.82 0-3.114-1.294-3.114-3.199 0-1.885 1.307-3.204 3.056-3.204zm-.02.864c-1.137 0-1.872.78-2.028 1.892h3.952c-.123-1.15-.877-1.892-1.924-1.892zm8.834.137h-2.659v3.107c0 .962.514 1.385 1.222 1.385.475 0 .93-.176 1.294-.436l.455.734c-.523.404-1.166.62-1.827.612-1.326 0-2.113-.728-2.113-2.275v-3.127h-1.345v-.878h1.345v-1.956h.969v1.956h2.659v.878zm9.529-3.952c2.704 0 4.699 1.95 4.699 4.68s-1.995 4.68-4.7 4.68-4.699-1.95-4.699-4.68 1.995-4.68 4.7-4.68zm0 1.007c-2.041 0-3.601 1.482-3.601 3.673s1.56 3.672 3.6 3.672c2.048 0 3.608-1.482 3.608-3.672s-1.56-3.673-3.607-3.673zm9.847 1.944c1.729 0 3.075 1.352 3.075 3.198 0 1.852-1.346 3.204-3.075 3.204-1.02 0-1.749-.409-2.242-1.033v.91h-.976v-9.36h.976v4.114c.493-.624 1.222-1.033 2.242-1.033zm-.117.91c-1.28 0-2.19.988-2.19 2.288 0 1.306.91 2.294 2.19 2.294 1.32 0 2.197-1.02 2.197-2.294 0-1.268-.89-2.288-2.197-2.288zm6 6.383c0 1.092-.605 1.684-1.534 1.684a1.97 1.97 0 0 1-.885-.208l.234-.839a1.3 1.3 0 0 0 .566.13c.396 0 .644-.24.644-.813v-7.124h.975v7.17zm-.495-10.043a.68.68 0 0 1 .69.69c0 .39-.306.682-.69.682-.182.004-.359-.066-.488-.195s-.199-.305-.194-.488a.67.67 0 0 1 .683-.689zm5.357 2.75c1.67 0 2.873 1.306 2.892 3.178 0 .137-.006.254-.02.365h-4.933c.137 1.326 1.066 2.008 2.178 2.008a2.82 2.82 0 0 0 1.95-.774l.52.663c-.767.735-1.619.963-2.529.963-1.82 0-3.113-1.294-3.113-3.199 0-1.885 1.306-3.204 3.055-3.204zm-.02.864c-1.138 0-1.872.78-2.028 1.892h3.952c-.123-1.15-.877-1.892-1.924-1.892zm7.436-.864c.917 0 1.729.338 2.282.968l-.624.657c-.468-.449-1.008-.715-1.684-.715-1.228 0-2.171.962-2.171 2.288s.942 2.294 2.171 2.294c.676 0 1.261-.298 1.703-.721l.605.663c-.566.63-1.365.969-2.282.969-1.898 0-3.185-1.378-3.185-3.205 0-1.82 1.287-3.198 3.185-3.198zm8.203 1.001h-2.659v3.107c0 .962.514 1.385 1.223 1.385.474 0 .929-.176 1.293-.436l.455.734c-.522.404-1.166.619-1.826.612-1.327 0-2.113-.728-2.113-2.275v-3.127h-1.345v-.878h1.345v-1.956h.969v1.956h2.658v.878zM89.71 107.133h-1.208v-10.5h1.208v10.5zm6.982-10.5c3.428 0 5.603 2.047 5.603 5.25s-2.175 5.25-5.603 5.25H92.74v-10.5h3.952zm-2.745 1.14v8.22h2.745c2.843 0 4.335-1.65 4.335-4.11 0-2.483-1.492-4.11-4.335-4.11h-2.745zm18.165 9.36h-7.387v-10.5h7.32v1.132h-6.113v3.518h5.925v1.125h-5.925v3.593h6.18v1.132zm11.52 0h-1.087l-6.503-8.43v8.43h-1.207v-10.5h1.087l6.503 8.43v-8.43h1.207v10.5zm10.305-9.36h-3.645v9.36h-1.2v-9.36h-3.645v-1.14h8.49v1.14zm3.022 9.36h-1.207v-10.5h1.207v10.5zm10.306-9.36h-3.645v9.36h-1.2v-9.36h-3.645v-1.14h8.49v1.14zm6.007 4.957v4.403h-1.2v-4.418l-4.155-6.082h1.44l3.323 4.98 3.322-4.98h1.403l-4.133 6.097zm-68.054 19.18v4.223H84.01v-10.5h3.968c2.362 0 3.712 1.177 3.712 3.142 0 1.958-1.35 3.135-3.712 3.135h-2.76zm0-5.137v4.005h2.722c1.628 0 2.498-.66 2.498-2.003s-.87-2.002-2.498-2.002h-2.722zm12.87-1.14c2.362 0 3.667 1.065 3.667 2.962 0 1.815-1.41 2.97-3.652 2.97h-.173l3.773 4.568h-1.5l-3.698-4.568h-1.327v4.568H93.97v-10.5h4.118zm-2.91 1.132v3.705h2.895c1.612 0 2.43-.645 2.43-1.875 0-1.222-.848-1.83-2.43-1.83h-2.895zm13.755-1.282c3.12 0 5.422 2.25 5.422 5.4s-2.302 5.4-5.422 5.4-5.423-2.25-5.423-5.4 2.303-5.4 5.423-5.4zm0 1.162c-2.355 0-4.155 1.71-4.155 4.238s1.8 4.237 4.155 4.237c2.362 0 4.162-1.71 4.162-4.237s-1.8-4.238-4.162-4.238zm12.09 9.488h-1.493l-4.215-10.5h1.282l3.69 9.3 3.698-9.3h1.245l-4.207 10.5zm7.2 0h-1.208v-10.5h1.207v10.5zm6.982-10.5c3.428 0 5.603 2.047 5.603 5.25s-2.175 5.25-5.603 5.25h-3.953v-10.5h3.953zm-2.745 1.14v8.22h2.745c2.843 0 4.335-1.65 4.335-4.11 0-2.483-1.492-4.11-4.335-4.11h-2.745zm18.165 9.36h-7.387v-10.5h7.32v1.132h-6.113v3.518h5.925v1.125h-5.925v3.593h6.18v1.132zm6.84-10.5c2.363 0 3.668 1.065 3.668 2.962 0 1.815-1.41 2.97-3.653 2.97h-.172l3.772 4.568h-1.5l-3.697-4.568h-1.328v4.568h-1.208v-10.5h4.118zm-2.91 1.132v3.705h2.895c1.613 0 2.43-.645 2.43-1.875 0-1.222-.847-1.83-2.43-1.83h-2.895zm-44.697 18.67c-1.98.818-3.233 2.993-3.233 5.438 0 2.438 1.253 4.627 3.233 5.43l-.39 1.035c-2.407-.923-4.043-3.458-4.043-6.465 0-3.015 1.636-5.543 4.043-6.465l.39 1.027zm3.33 9.698h-1.207v-10.5h1.207v10.5zm5.835-7.245c1.178 0 2.025.48 2.595 1.2v-4.755h1.118v10.8h-1.118v-1.058c-.57.728-1.417 1.2-2.595 1.2-2.002 0-3.547-1.56-3.547-3.697 0-2.13 1.544-3.69 3.547-3.69zm.135 1.05c-1.523 0-2.543 1.177-2.543 2.64 0 1.47 1.035 2.648 2.543 2.648 1.478 0 2.528-1.14 2.528-2.648 0-1.5-1.05-2.64-2.528-2.64zm7.612 1.972v4.223h-1.207v-10.5h3.968c2.362 0 3.712 1.177 3.712 3.142 0 1.958-1.35 3.135-3.712 3.135h-2.76zm0-5.137v4.005h2.723c1.628 0 2.498-.66 2.498-2.003s-.87-2.002-2.498-2.002h-2.722zm7.846 10.523c1.98-.803 3.232-3 3.232-5.438 0-2.453-1.253-4.613-3.233-5.43l.39-1.035c2.408.922 4.043 3.457 4.043 6.465 0 3.015-1.635 5.543-4.042 6.465l-.39-1.028zm264.599-22.515h-1.29l-1.193-2.925h-5.198l-1.185 2.925h-1.252l4.313-10.5h1.492l4.313 10.5zM392 119.716h4.275l-2.138-5.243-2.137 5.243zm10.207-.158v4.223H401v-10.5h3.967c2.363 0 3.713 1.177 3.713 3.142 0 1.958-1.35 3.135-3.713 3.135h-2.76zm0-5.137v4.005h2.723c1.627 0 2.497-.66 2.497-2.003s-.87-2.002-2.497-2.002h-2.723zm9.96 5.137v4.223h-1.207v-10.5h3.967c2.363 0 3.713 1.177 3.713 3.142 0 1.958-1.35 3.135-3.713 3.135h-2.76zm0-5.137v4.005h2.723c1.627 0 2.497-.66 2.497-2.003s-.87-2.002-2.497-2.002h-2.723zm16.035 9.36h-7.282v-10.5h1.207v9.36h6.075v1.14zm3.022 0h-1.207v-10.5h1.207v10.5zm7.846-10.65c1.83 0 3.457.832 4.282 2.175l-1.005.675c-.697-1.035-1.89-1.688-3.277-1.688-2.355 0-4.156 1.71-4.156 4.238s1.8 4.237 4.156 4.237c1.402 0 2.565-.622 3.277-1.68l.975.72c-.877 1.313-2.437 2.123-4.252 2.123-3.12 0-5.423-2.25-5.423-5.4s2.303-5.4 5.423-5.4zm15.532 10.65h-1.29l-1.192-2.925h-5.198l-1.185 2.925h-1.252l4.312-10.5h1.493l4.312 10.5zm-7.215-4.065h4.275l-2.137-5.243-2.138 5.243zm16.275-5.295h-3.645v9.36h-1.2v-9.36h-3.645v-1.14h8.49v1.14zm3.023 9.36h-1.208v-10.5h1.208v10.5zm7.845-10.65c3.12 0 5.422 2.25 5.422 5.4s-2.302 5.4-5.422 5.4-5.423-2.25-5.423-5.4 2.303-5.4 5.423-5.4zm0 1.162c-2.355 0-4.155 1.71-4.155 4.238s1.8 4.237 4.155 4.237c2.362 0 4.162-1.71 4.162-4.237s-1.8-4.238-4.162-4.238zm16.65 9.488h-1.088l-6.502-8.43v8.43h-1.208v-10.5h1.087l6.503 8.43v-8.43h1.208v10.5zm-233.175 39.162h-3.159v8.112h-1.04v-8.112h-3.159v-.988h7.358v.988zm3.088 1.833c1.852 0 3.243 1.378 3.243 3.198 0 1.826-1.391 3.204-3.243 3.204s-3.238-1.377-3.238-3.204c0-1.82 1.385-3.198 3.238-3.198zm0 .91c-1.275 0-2.25.962-2.25 2.288s.975 2.294 2.25 2.294 2.249-.968 2.249-2.294-.975-2.288-2.25-2.288zm6.025 1.71h.89l2.373-2.497h1.216l-2.795 2.9 2.84 3.256h-1.228l-2.412-2.775h-.884v2.775h-.975v-9.36h.975v5.7zm8.229-2.62c1.67 0 2.873 1.306 2.893 3.178 0 .137-.007.254-.02.364h-4.934c.137 1.327 1.067 2.009 2.178 2.009a2.82 2.82 0 0 0 1.95-.773l.52.662c-.767.735-1.618.963-2.528.963-1.82 0-3.114-1.294-3.114-3.199 0-1.885 1.307-3.204 3.055-3.204zm-.02.864c-1.137 0-1.872.78-2.027 1.892h3.952c-.124-1.15-.878-1.892-1.924-1.892zm7.755-.864c1.521 0 2.568.975 2.568 2.463v3.816h-.969v-3.497c0-1.177-.637-1.859-1.774-1.859-1.034 0-1.885.715-1.885 1.885v3.471h-.976v-6.156h.963v.878c.506-.735 1.313-1.001 2.073-1.001zM588.043 57.532h-3.159v8.112h-1.04v-8.112h-3.159v-.988h7.358v.988zm3.088 1.833c1.852 0 3.243 1.378 3.243 3.198 0 1.826-1.391 3.205-3.243 3.205s-3.238-1.379-3.238-3.205c0-1.82 1.385-3.198 3.238-3.198zm0 .91c-1.274 0-2.25.962-2.25 2.288s.976 2.294 2.25 2.294 2.249-.968 2.249-2.294-.975-2.288-2.25-2.288zm6.025 1.71h.89l2.373-2.497h1.216l-2.795 2.9 2.84 3.256h-1.228l-2.412-2.776h-.884v2.776h-.975v-9.36h.975v5.7zm8.229-2.62c1.67 0 2.873 1.306 2.893 3.178 0 .137-.007.254-.02.364h-4.933c.136 1.326 1.066 2.009 2.177 2.009a2.82 2.82 0 0 0 1.95-.774l.52.663c-.767.735-1.618.963-2.528.963-1.82 0-3.114-1.294-3.114-3.199 0-1.885 1.307-3.204 3.055-3.204zm-.02.864c-1.137 0-1.871.78-2.027 1.892h3.952c-.124-1.15-.878-1.892-1.924-1.892zm7.755-.864c1.521 0 2.568.975 2.568 2.463v3.816h-.969v-3.497c0-1.177-.637-1.859-1.774-1.859-1.034 0-1.885.715-1.885 1.885v3.471h-.976v-6.156h.962v.878c.508-.735 1.314-1.001 2.074-1.001zM255.695 89.871c1.586 0 2.997.721 3.712 1.885l-.871.585c-.605-.897-1.638-1.463-2.841-1.463-2.041 0-3.601 1.482-3.601 3.673s1.56 3.672 3.601 3.672c1.216 0 2.223-.539 2.84-1.456l.846.624c-.761 1.138-2.113 1.84-3.686 1.84-2.704 0-4.7-1.95-4.7-4.68s1.996-4.68 4.7-4.68zm6.572 9.23h-.976v-9.36h.976v9.36zm3.25 0h-.976v-6.156h.976v6.156zm-.488-9.029a.68.68 0 0 1 .689.69c0 .39-.305.682-.689.682-.183.005-.359-.066-.488-.195s-.2-.306-.195-.488a.67.67 0 0 1 .683-.689zm5.35 2.75c1.67 0 2.873 1.306 2.892 3.178a2.86 2.86 0 0 1-.02.364h-4.933c.137 1.326 1.066 2.009 2.178 2.009a2.82 2.82 0 0 0 1.95-.774l.52.663c-.767.735-1.619.962-2.529.962-1.82 0-3.113-1.293-3.113-3.198 0-1.885 1.306-3.204 3.055-3.204zm-.02.864c-1.137 0-1.872.78-2.028 1.892h3.952c-.123-1.15-.877-1.892-1.924-1.892zm7.755-.864c1.52 0 2.567.975 2.567 2.463v3.816h-.968v-3.497c0-1.177-.637-1.859-1.775-1.859-1.034 0-1.885.715-1.885 1.885v3.471h-.975v-6.156h.962v.878c.507-.735 1.313-1.001 2.074-1.001zm8.866 1.001h-2.659v3.107c0 .962.514 1.384 1.222 1.384.475 0 .93-.175 1.294-.435l.455.734c-.523.404-1.167.619-1.827.611-1.326 0-2.112-.728-2.112-2.275v-3.126h-1.346v-.878h1.346v-1.956h.968v1.956h2.659v.878zm7.76-1.001c.995 0 1.73.403 2.198 1.046v-.923h.975v5.733c0 2.009-1.352 3.12-3.257 3.12-.981 0-1.97-.305-2.594-.825l.43-.78a3.58 3.58 0 0 0 2.164.721c1.333 0 2.282-.76 2.282-2.197v-.63c-.468.65-1.203 1.047-2.197 1.047-1.73 0-3.049-1.294-3.049-3.16 0-1.859 1.32-3.152 3.049-3.152zm.111.91c-1.306 0-2.171 1.001-2.171 2.242 0 1.248.865 2.25 2.171 2.25 1.268 0 2.171-.976 2.171-2.25 0-1.267-.903-2.242-2.171-2.242zm8.125-.91c.442 0 .8.058 1.131.208l-.234.955a2.36 2.36 0 0 0-1.066-.247c-.962 0-1.651.754-1.651 1.918v3.445h-.969v-6.156h.962v.865c.423-.63 1.067-.988 1.827-.988zm8.17 6.279h-.968v-.917c-.494.631-1.228 1.04-2.249 1.04-1.736 0-3.075-1.352-3.075-3.204 0-1.846 1.34-3.198 3.075-3.198 1.02 0 1.755.416 2.249 1.04v-.917h.969v6.156zm-3.1-5.369c-1.32 0-2.204 1.02-2.204 2.288 0 1.274.898 2.294 2.204 2.294 1.28 0 2.19-.988 2.19-2.294 0-1.3-.91-2.288-2.19-2.288zm8.411-.91c1.521 0 2.568.975 2.568 2.463v3.816h-.969v-3.497c0-1.177-.637-1.859-1.774-1.859-1.034 0-1.885.715-1.885 1.885v3.471h-.976v-6.156h.963v.878c.506-.735 1.313-1.001 2.073-1.001zm8.866 1.001h-2.659v3.107c0 .962.514 1.384 1.223 1.384.474 0 .929-.175 1.293-.435l.455.734c-.523.403-1.166.619-1.826.611-1.327 0-2.113-.728-2.113-2.275v-3.126h-1.346v-.878h1.346v-1.956h.968v1.956h2.659v.878zm261.67 24.846h-3.159v8.112h-1.04v-8.112h-3.159v-.988h7.358v.988zm2.906 1.833c1.67 0 2.873 1.306 2.892 3.178 0 .137-.006.254-.02.365h-4.933c.136 1.325 1.066 2.008 2.178 2.008a2.82 2.82 0 0 0 1.95-.773l.52.662c-.767.735-1.619.963-2.529.963-1.82 0-3.114-1.294-3.114-3.199 0-1.885 1.307-3.204 3.056-3.204zm-.02.864c-1.137 0-1.872.78-2.028 1.892h3.952c-.123-1.15-.877-1.892-1.924-1.892zm12.383-.864c1.527 0 2.574.975 2.574 2.463v3.816h-.969v-3.497c0-1.177-.643-1.859-1.781-1.859-1.033 0-1.885.715-1.885 1.885v3.471h-.968v-3.497c0-1.177-.637-1.859-1.775-1.859-1.034 0-1.885.715-1.885 1.885v3.471h-.975v-6.156h.962v.878c.507-.735 1.313-1.001 2.074-1.001 1.085 0 1.91.481 2.307 1.293.488-.955 1.456-1.293 2.32-1.293zm7.995 0c1.729 0 3.074 1.352 3.074 3.198 0 1.853-1.345 3.205-3.074 3.205-1.021 0-1.749-.41-2.243-1.034v3.51h-.975v-8.756h.975v.91c.494-.624 1.222-1.033 2.243-1.033zm-.117.91c-1.281 0-2.191.988-2.191 2.288 0 1.307.91 2.295 2.19 2.295 1.32 0 2.198-1.021 2.198-2.295 0-1.268-.891-2.288-2.197-2.288zm7.767-.91c1.853 0 3.244 1.378 3.244 3.198 0 1.827-1.391 3.205-3.244 3.205s-3.237-1.379-3.237-3.205c0-1.82 1.385-3.198 3.237-3.198zm0 .91c-1.274 0-2.249.962-2.249 2.288s.975 2.295 2.249 2.295 2.249-.969 2.249-2.295-.975-2.288-2.249-2.288zm7.839-.91c.442 0 .8.058 1.131.208l-.234.955a2.36 2.36 0 0 0-1.066-.247c-.962 0-1.651.754-1.651 1.918v3.445h-.968v-6.156h.962v.865c.422-.63 1.066-.988 1.826-.988zm8.17 6.279h-.968v-.916c-.494.63-1.228 1.04-2.249 1.04-1.736 0-3.075-1.353-3.075-3.205 0-1.846 1.34-3.198 3.075-3.198 1.02 0 1.755.416 2.249 1.04v-.917h.969v6.156zm-3.1-5.369c-1.32 0-2.203 1.02-2.203 2.288 0 1.274.896 2.295 2.203 2.295 1.28 0 2.19-.988 2.19-2.295 0-1.3-.91-2.288-2.19-2.288zm8.164-.91c.442 0 .8.058 1.131.208l-.234.955a2.36 2.36 0 0 0-1.066-.247c-.962 0-1.651.754-1.651 1.918v3.445h-.969v-6.156h.962v.865c.423-.63 1.067-.988 1.827-.988zm3.536 8.905h-1.072l2.294-3.959-2.827-4.823h1.085l2.295 3.861 2.17-3.86h1.067l-5.012 8.781zm-59.286 4.095c.916 0 1.729.338 2.281.968l-.624.657c-.468-.449-1.007-.715-1.683-.715-1.229 0-2.172.962-2.172 2.288s.943 2.294 2.172 2.294c.676 0 1.26-.298 1.703-.721l.604.663c-.565.63-1.365.969-2.281.969-1.899 0-3.185-1.379-3.185-3.205 0-1.82 1.286-3.198 3.185-3.198zm6.727 0c.442 0 .8.058 1.131.208l-.234.955a2.36 2.36 0 0 0-1.066-.247c-.962 0-1.651.754-1.651 1.918v3.445h-.968v-6.156h.962v.865c.422-.63 1.066-.988 1.826-.988zm4.934 0c1.67 0 2.873 1.306 2.892 3.178a2.86 2.86 0 0 1-.02.364h-4.933c.137 1.327 1.066 2.009 2.178 2.009a2.82 2.82 0 0 0 1.95-.773l.52.663c-.767.734-1.619.962-2.529.962-1.82 0-3.114-1.294-3.114-3.199 0-1.885 1.307-3.204 3.056-3.204zm-.02.864c-1.138 0-1.872.78-2.028 1.892h3.952c-.123-1.15-.877-1.892-1.924-1.892zm7.326-.864c1.02 0 1.755.416 2.249 1.04v-4.121h.968v9.36h-.968v-.916c-.494.63-1.229 1.04-2.25 1.04-1.735 0-3.074-1.352-3.074-3.205 0-1.846 1.339-3.198 3.075-3.198zm.117.91c-1.32 0-2.204 1.02-2.204 2.288 0 1.274.897 2.294 2.204 2.294 1.28 0 2.19-.987 2.19-2.294 0-1.3-.91-2.288-2.19-2.288zm7.962-.91c1.67 0 2.873 1.306 2.893 3.178 0 .137-.007.254-.02.364h-4.933c.136 1.327 1.066 2.009 2.177 2.009a2.82 2.82 0 0 0 1.95-.773l.52.663c-.767.734-1.618.962-2.528.962-1.82 0-3.114-1.294-3.114-3.199 0-1.885 1.307-3.204 3.055-3.204zm-.02.864c-1.137 0-1.872.78-2.028 1.892h3.953c-.124-1.15-.878-1.892-1.924-1.892zm7.755-.864c1.521 0 2.568.975 2.568 2.463v3.816h-.969v-3.497c0-1.177-.637-1.859-1.774-1.859-1.034 0-1.885.715-1.885 1.885v3.471h-.976v-6.156h.962v.878c.508-.735 1.314-1.001 2.074-1.001zm8.866 1.001h-2.659v3.107c0 .962.514 1.385 1.223 1.385.474 0 .929-.176 1.293-.436l.455.735c-.523.403-1.166.618-1.826.61-1.327 0-2.113-.727-2.113-2.274v-3.127h-1.345v-.878h1.345v-1.956h.969v1.956h2.658v.878zm2.684 5.278h-.975v-6.156h.976v6.156zm-.487-9.029a.68.68 0 0 1 .689.69c0 .39-.305.682-.689.682-.183.005-.359-.066-.488-.195s-.2-.306-.195-.488a.67.67 0 0 1 .683-.689zm8.587 9.029h-.969v-.916c-.494.63-1.228 1.04-2.249 1.04-1.736 0-3.075-1.352-3.075-3.205 0-1.846 1.34-3.198 3.075-3.198 1.02 0 1.755.416 2.249 1.04v-.917h.969v6.156zm-3.101-5.369c-1.32 0-2.203 1.02-2.203 2.288 0 1.274.896 2.294 2.203 2.294 1.28 0 2.19-.987 2.19-2.294 0-1.3-.91-2.288-2.19-2.288zm6.35 5.369h-.975v-9.36h.976v9.36zm6.41-4.849c-.39-.273-1.183-.579-2.015-.579-.878 0-1.457.371-1.457.969 0 .52.442.767 1.255.864l.728.091c1.307.176 2.067.709 2.067 1.716 0 1.17-1.053 1.905-2.71 1.905-.793 0-1.788-.201-2.568-.786l.449-.729c.467.364 1.091.67 2.132.67s1.696-.344 1.696-.994c0-.494-.41-.793-1.287-.897l-.734-.085c-1.398-.175-2.035-.787-2.035-1.703 0-1.17.975-1.866 2.457-1.866.969 0 1.846.273 2.444.67l-.422.754z" class="C"/></g></svg>