<svg xmlns="http://www.w3.org/2000/svg" xmlns:xlink="http://www.w3.org/1999/xlink" width="964" height="405" xmlns:v="https://vecta.io/nano"><style><![CDATA[.B{fill:#fff}.C{stroke-width:3.39}.D{stroke:#fff}.E{stroke-width:2.26}.F{fill-rule:nonzero}.G{stroke:#c72c48}.H{fill:#c72c48}.I{stroke:#5e5e5e}.J{fill:#5e5e5e}.K{stroke-width:1.47}]]></style><g fill="none" fill-rule="evenodd"><g class="F"><path fill="#7f7f7f" d="M170.24 301.87h606.29v60.32H170.24z"/><path d="M43.48 43.42h93.76v178.67H43.48z" class="B C G"/><path d="M60.02 102h60.71v12.91H60.02V102zm0-19.63h60.71v12.91H60.02V82.37zm49.64-24.5h11.05v12.91h-11.05V57.87zm-49.64 63.76h60.71v12.91H60.02v-12.91zm0 19.62h60.71v12.91H60.02v-12.91zm0 19.62h60.71v12.91H60.02v-12.91zm0 19.63h60.71v12.91H60.02V180.5z" class="D E H"/><path d="M148.21 43.42h93.76v178.67h-93.76z" class="B C G"/><use xlink:href="#B" class="D E H"/><path d="M252.92 43.42h93.76v178.67h-93.76z" class="B C G"/><path d="M269.45 102h60.71v12.91h-60.71V102zm0-19.63h60.71v12.91h-60.71V82.37zm49.66-24.5h11.05v12.91h-11.05V57.87zm-49.66 63.76h60.71v12.91h-60.71v-12.91zm0 19.62h60.71v12.91h-60.71v-12.91zm0 19.62h60.71v12.91h-60.71v-12.91zm0 19.63h60.71v12.91h-60.71V180.5z" class="D E H"/><path d="M479.62 183.97c-12.34 0-24.7-.3-37.08.1-9.67.31-19.74-6.54-22.73-15.92a23.54 23.54 0 0 1 9-27.21c2.22-1.6 3.73-3.09 4.1-6.11 1.61-13.22 11.15-20.78 24.63-19.31 3.59.39 5.17-.49 6.85-3.59a31.16 31.16 0 0 1 58.18 11.62c.36 3.59 1.6 4.93 4.78 6.22a28.06 28.06 0 0 1 17.94 26.64 27.73 27.73 0 0 1-18.3 25.78 34.62 34.62 0 0 1-10.42 1.72c-6.16.26-12.34 0-18.52 0h-18.43v.06zm.17-4.68h36.47c13.16-.13 22.8-8.67 24.08-21.17 1.34-13.16-8.47-23.7-19.14-25-3-.36-3.59-1.59-3.36-4.39a24.35 24.35 0 0 0-8.91-21.39c-14.71-12.66-35.89-6.51-42.49 12.38-.94 2.69-1.29 3.59-4.56 2a16.75 16.75 0 0 0-24.25 15.55c.08 3.59-1 5.29-4.15 6.67a16.45 16.45 0 0 0-8.59 9.2 18.73 18.73 0 0 0 17.33 26.06c12.5.27 25.03.09 37.57.09z" fill="#333"/></g><g stroke="#333"><path d="M619.68 145.84h-80.63" stroke-width="1.7"/><g class="K"><path d="M617.36 135.85h-.85"/><path d="M615.41 135.85h-77.28" stroke-dasharray="1.67"/><path d="M537.56 135.85h-.83m80.63 20.56h-.85"/><path d="M615.41 156.41h-68.65" stroke-dasharray="1.66"/><path d="M546.2 156.41h-.84"/></g></g><g class="F"><path d="M619.25 43.42h93.76v178.67h-93.76z" class="B C I"/><use xlink:href="#C" class="D E J"/><path d="M723.97 43.42h93.76v178.67h-93.76z" class="B C I"/><use xlink:href="#C" x="104.73" class="D E J"/><path d="M828.7 43.42h93.76v178.67H828.7z" class="B C I"/><use xlink:href="#B" x="680.49" class="D E J"/><path d="M618.48 135.85l-5.02-3.38v6.77l5.02-3.39zm0 20.56l-5.02-3.38v6.77l5.02-3.39z" fill="#636363"/><path fill="#333" d="M618.48 145.84l-5.02-3.39v6.77z"/></g><g stroke="#333"><path d="M348.33 146.13h79.48" stroke-width="1.7"/><g class="K"><path d="M349.45 156.11h.85"/><path d="M351.41 156.11h69.47" stroke-dasharray="1.69"/><path d="M421.44 156.11h.84m-72.83-20.56h.85"/><path d="M351.43 135.55h84.76" stroke-dasharray="1.71"/><path d="M436.75 135.55h.85"/></g></g><g class="F"><path d="M348.33 156.11l5.02 3.39v-6.76l-5.02 3.37zm0-20.56l5.02 3.39v-6.77l-5.02 3.38z" fill="#636363"/><path fill="#333" d="M347.19 146.13l5.04 3.38v-6.76z"/><path d="M196.01 336.62h1v1.35h-3.9v-1.34h1.46v-7.18l-1.75.24-.22-1.2a3.34 3.34 0 0 0 2.13-.69c.19-.22.33-.41.65-.41.69 0 .69.67.69 1.2a4.1 4.1 0 0 1 2.2-.79 2 2 0 0 1 1.79 1 4.59 4.59 0 0 1 2.75-1 2 2 0 0 1 2 1.44 7 7 0 0 1 .17 1.87v5.55h1.44v1.31h-3.9v-1.34h1v-5.55c0-.72.14-2-.89-2a3.59 3.59 0 0 0-2.11 1v6.51h1v1.38h-3.44v-1.34h1v-5.55c0-.62.07-2-.84-2a3.91 3.91 0 0 0-2.15 1l-.08 6.54zm22.87.46a10.19 10.19 0 0 1-4.64 1.2 5.13 5.13 0 0 1-5.47-4.77v-.37a5.23 5.23 0 0 1 5.11-5.34h.37a4.07 4.07 0 0 1 3.66 1.67v1.2l.07 1.2h-1.53v-.67c0-1.56-.79-2.08-2.3-2.08a3.67 3.67 0 0 0-3.8 3.53v.29a3.77 3.77 0 0 0 3.55 4h.42a9.34 9.34 0 0 0 4.07-1.05l.49 1.19zm20.19-.46h1v1.35h-3.9v-1.34h1.4v-7.18l-1.75.24-.22-1.2a3.34 3.34 0 0 0 2.13-.69c.19-.22.33-.41.65-.41.69 0 .69.67.69 1.2a4.1 4.1 0 0 1 2.2-.79 2 2 0 0 1 1.79 1 4.59 4.59 0 0 1 2.75-1 2 2 0 0 1 2 1.44 7 7 0 0 1 .17 1.87v5.55h1.44v1.31h-3.85v-1.34h1v-5.55c0-.72.14-2-.89-2a3.59 3.59 0 0 0-2.11 1v6.51h1v1.38h-3.44v-1.34h1v-5.55c0-.62.07-2-.84-2a3.91 3.91 0 0 0-2.15 1l-.07 6.54zm13.13 0h4.78v-7.18a10.7 10.7 0 0 1-2.46.24l-2-.12-.24-1.32 2.18.14a3.76 3.76 0 0 0 2.68-.67.79.79 0 0 1 .65-.36c.74 0 .72.72.72 1.2v8h4.21v1.34h-10.49l-.03-1.27zm5.26-11a1.5 1.5 0 1 1 1.53-1.48 1.52 1.52 0 0 1-1.53 1.48zm12.66 11h4.33v1.35h-7.88v-1.34h2.08v-7.18l-1.75.24-.22-1.2c.755.03 1.5-.2 2.11-.65.19-.22.33-.41.65-.41.69 0 .69.67.69 1.2v1.27c1.32-1 2.58-2.08 4.31-2.08a2.55 2.55 0 0 1 2.39 1.94l-1.48.6c-.19-.5-.43-1.2-1.08-1.2-1.2 0-3.23 1.7-4.16 2.54l.01 4.92zm14.36 0h4.33v1.35h-7.89v-1.34H283v-7.18l-1.75.24-.22-1.2c.755.03 1.5-.2 2.11-.65.19-.22.33-.41.65-.41.69 0 .69.67.69 1.2v1.27c1.32-1 2.58-2.08 4.31-2.08a2.55 2.55 0 0 1 2.39 1.94l-1.48.6c-.19-.5-.43-1.2-1.08-1.2-1.2 0-3.23 1.7-4.16 2.54l.02 4.92zm10.31-3.65a5.22 5.22 0 1 1 5.22 5.24 5.13 5.13 0 0 1-5.22-5v-.24zm8.88 0a3.68 3.68 0 1 0 0 .2c0-.04-.005-.107-.01-.2h.01zm9.52 3.65h4.33v1.35h-7.89v-1.34h2.08v-7.18l-1.75.24-.22-1.2c.755.03 1.5-.2 2.11-.65.19-.22.33-.41.65-.41.69 0 .69.67.69 1.2v1.27c1.32-1 2.58-2.08 4.31-2.08a2.55 2.55 0 0 1 2.39 1.94l-1.48.6c-.19-.5-.43-1.2-1.08-1.2-1.2 0-3.23 1.7-4.16 2.54l.02 4.92zm26.77-5.16v-1.34h6.17v1.34h-6.17zm14.35 0v-1.34h6.17v1.34h-6.17zm15.1-3.4v1.34h-1.7l2 6.89 1.84-5.62h.91l1.91 5.62 1.91-6.89h-1.79v-1.34h4.38v1.34h-1.2l-2.39 8.85h-1.71l-1.6-4.67-1.51 4.67h-1.7l-2.39-8.85h-1.6v-1.34h4.64zm18.99 9.19a11.11 11.11 0 0 1-4.35 1c-1.75 0-3.35-.81-3.35-2.75s1.51-2.66 3.16-3a21.64 21.64 0 0 1 4.55-.48v-.6c0-1.36.22-2.25-1.6-2.25a6.06 6.06 0 0 0-3.4.93v1.41h-1.48v-2.3a9.45 9.45 0 0 1 4.67-1.39c2.39 0 3.3.65 3.3 3v5.86h2v1.29h-3.47l-.03-.72zm0-4a21.53 21.53 0 0 0-4.14.48c-1 .24-2 .57-2 1.77s.91 1.41 1.87 1.41a10.42 10.42 0 0 0 4.28-1.2l-.01-2.46zm11.17-5.19h5.62v1.34h-5.62v4.78c0 1.2-.14 2.73 1.53 2.73a16 16 0 0 0 4.19-.79l.48 1.27a19.7 19.7 0 0 1-4.78.86c-1.79 0-2.87-1.05-2.87-3.4v-5.45h-3.44v-1.34h3.44v-2.66h1.48l-.03 2.66zm20.27 9.02a10.19 10.19 0 0 1-4.64 1.2 5.13 5.13 0 0 1-5.47-4.77v-.37a5.23 5.23 0 0 1 5.11-5.34h.37a4.07 4.07 0 0 1 3.66 1.67v1.2l.07 1.2h-1.53v-.67c0-1.56-.79-2.08-2.3-2.08a3.67 3.67 0 0 0-3.8 3.53v.29a3.77 3.77 0 0 0 3.55 4h.42a9.34 9.34 0 0 0 4.07-1.05l.49 1.19zm6.53-8.11a8.91 8.91 0 0 1 3.8-1.2 3.19 3.19 0 0 1 2.94 1.51 6.45 6.45 0 0 1 .41 2.87v4.47h1.6v1.34h-4.78v-1.34h1.63v-4.43c0-1.46.1-3.09-1.87-3.09a7.52 7.52 0 0 0-3.8 1.34v6.17h1.65v1.34h-4.78v-1.34h1.63v-12.35l-2.15.29-.22-1.2c.77-.14 2 0 2.51-.69.19-.22.33-.41.65-.41.69 0 .69.67.69 1.2l.09 5.52zm28.42 2.49v-1.34h6.17v1.34h-6.17zm14.35 0v-1.34h6.17v1.34h-6.17zm16.29 5.16h4.33v1.35h-7.89v-1.34h2.08v-7.18l-1.75.24-.22-1.2c.755.03 1.5-.2 2.11-.65.19-.22.33-.41.65-.41.69 0 .69.67.69 1.2v1.27c1.32-1 2.58-2.08 4.31-2.08a2.55 2.55 0 0 1 2.39 1.94l-1.48.6c-.19-.5-.43-1.2-1.08-1.2-1.2 0-3.23 1.7-4.16 2.54l.02 4.92zm11.99-3.03c.14 2.08 1.77 3.33 4.33 3.33a11.11 11.11 0 0 0 4.43-1.12l.39 1.17a12 12 0 0 1-5 1.2c-4.33 0-5.69-2.87-5.69-5a5.28 5.28 0 0 1 5.09-5.45h.24a4.53 4.53 0 0 1 4.88 4.78 4.72 4.72 0 0 1-.1 1l-8.57.09zm7.18-1.34a3.19 3.19 0 0 0-3.25-3.14h-.1a3.94 3.94 0 0 0-3.8 3.13l7.15.01zm15.71 4.83a10.19 10.19 0 0 1-4.64 1.2 5.13 5.13 0 0 1-5.47-4.77v-.37a5.23 5.23 0 0 1 5.11-5.34h.37a4.07 4.07 0 0 1 3.66 1.67v1.2l.07 1.2h-1.54v-.67c0-1.56-.79-2.08-2.3-2.08a3.67 3.67 0 0 0-3.8 3.53v.29a3.77 3.77 0 0 0 3.55 4h.42a9.34 9.34 0 0 0 4.07-1.05l.5 1.19zm12.18.29a8.65 8.65 0 0 1-3.47.89c-2.3 0-3.59-1.2-3.59-4.09v-4.8l-1.75.24-.22-1.2c.755.03 1.5-.2 2.11-.65.19-.22.33-.41.65-.41.69 0 .69.67.69 1.2v5.12c0 2.46.55 3.23 2.13 3.23a8.18 8.18 0 0 0 3.49-1v-6.51l-1.75.24-.22-1.2c.755.03 1.5-.2 2.11-.65.19-.22.33-.41.65-.41.69 0 .69.67.69 1.2v8.06h1.91v1.34h-3.44l.01-.6zm10.36-.75h4.33v1.35h-7.89v-1.34h2.08v-7.18l-1.75.24-.22-1.2c.755.03 1.5-.2 2.11-.65.19-.22.33-.41.65-.41.69 0 .69.67.69 1.2v1.27c1.32-1 2.58-2.08 4.31-2.08a2.55 2.55 0 0 1 2.39 1.94l-1.48.6c-.19-.5-.43-1.2-1.08-1.2-1.2 0-3.23 1.7-4.16 2.54l.02 4.92zm18.88-9.35l1.32.26a9.57 9.57 0 0 0-.33 2.32 6.56 6.56 0 0 0 .17 1.53l-1.44.12-.07-.53c-.17-1.2-.53-1.87-2.89-1.87-1.12 0-2.78.33-2.78 1.77 0 2.54 7.46.36 7.46 4.47 0 2.3-2.75 2.89-4.62 2.89a7.69 7.69 0 0 1-3.42-.77l-.24.86-1.32-.35a6.51 6.51 0 0 0 .29-1.91 4.46 4.46 0 0 0-.31-1.77l1.48-.19c.29 2 .72 2.82 3.59 2.82.89 0 2.94-.26 2.94-1.58 0-2.66-7.46-.29-7.46-4.35 0-2.2 2.2-3.21 4.28-3.21a9.57 9.57 0 0 1 3.06.55l.29-1.06zm6.25 9.35h4.78v-7.18a10.7 10.7 0 0 1-2.46.24l-2-.12-.24-1.32 2.18.14a3.76 3.76 0 0 0 2.68-.67.79.79 0 0 1 .65-.36c.74 0 .72.72.72 1.2v8h4.21v1.34h-10.49l-.03-1.27zm5.26-11a1.5 1.5 0 1 1 1.53-1.48 1.52 1.52 0 0 1-1.52 1.48h-.01zm12.23 2.44v1.34h-1.46l3.06 7.18 3.06-7.18h-1.46v-1.34h4.52v1.34h-1.62l-3.8 8.85h-1.44l-3.8-8.85h-1.6v-1.34h4.54zm12.42 5.53c.14 2.08 1.77 3.33 4.33 3.33a11.11 11.11 0 0 0 4.43-1.12l.43 1.2a12 12 0 0 1-5 1.2c-4.33 0-5.69-2.87-5.69-5a5.28 5.28 0 0 1 5.09-5.45h.24a4.53 4.53 0 0 1 4.88 4.78 4.79 4.79 0 0 1-.1 1l-8.61.06zm7.18-1.34a3.19 3.19 0 0 0-3.25-3.14h-.1a3.94 3.94 0 0 0-3.8 3.13l7.15.01zm27.29 5.33a6.3 6.3 0 0 1-2.63.67 5 5 0 0 1-4.86-5.16 5.11 5.11 0 0 1 4.86-5.31 10 10 0 0 1 2.63.5v-4l-2.15.29-.22-1.2c.77-.14 2 0 2.51-.69.19-.22.33-.41.65-.41.69 0 .69.67.69 1.2v13.16h1.87v1.34h-3.35v-.39zm0-7.8a4.58 4.58 0 0 0-2.3-.67 3.67 3.67 0 0 0-3.6 3.74v.25a3.59 3.59 0 0 0 3.36 3.8 4.38 4.38 0 0 0 2.54-.86v-6.26zm17.14 7.3a10.19 10.19 0 0 1-4.64 1.2 5.13 5.13 0 0 1-5.47-4.77v-.37a5.23 5.23 0 0 1 5.11-5.34h.37a4.07 4.07 0 0 1 3.7 1.67v1.2l.07 1.2h-1.53v-.67c0-1.56-.79-2.08-2.3-2.08a3.67 3.67 0 0 0-3.8 3.53v.29a3.77 3.77 0 0 0 3.55 4h.42a9.34 9.34 0 0 0 4.07-1.05l.45 1.19zm10.32-.46h3.21v1.35h-8.11v-1.34h3.42V325.4a10.62 10.62 0 0 1-2.46.24h-.67l-.24-1.32a9 9 0 0 0 2.22 0 2.17 2.17 0 0 0 1.27-.57.78.78 0 0 1 .65-.36c.74 0 .72.72.72 1.2l-.01 12.03zm8.88 1.94l7.18-18.52h1.79l-7.18 18.52h-1.79zm35.43-.98a6.3 6.3 0 0 1-2.63.67 5 5 0 0 1-4.86-5.16 5.11 5.11 0 0 1 4.86-5.31 10 10 0 0 1 2.63.5v-4l-2.15.29-.22-1.2c.77-.14 2 0 2.51-.69.19-.22.33-.41.65-.41.69 0 .69.67.69 1.2v13.16h1.87v1.34h-3.35v-.39zm0-7.8a4.58 4.58 0 0 0-2.3-.67 3.67 3.67 0 0 0-3.6 3.74v.25a3.59 3.59 0 0 0 3.36 3.8 4.38 4.38 0 0 0 2.54-.86v-6.26zm17.13 7.3a10.19 10.19 0 0 1-4.64 1.2 5.13 5.13 0 0 1-5.47-4.77v-.37a5.23 5.23 0 0 1 5.11-5.34h.31a4.07 4.07 0 0 1 3.66 1.67v1.2l.07 1.2h-1.53v-.67c0-1.56-.79-2.08-2.3-2.08a3.67 3.67 0 0 0-3.8 3.53v.29a3.77 3.77 0 0 0 3.55 4h.42a9.34 9.34 0 0 0 4.07-1.05l.55 1.19zm14.1-1.7l-1.19 2.59h-8.21v-1.32l4.55-4.86c1.08-1.2 2.39-3 2.39-4.69a2.52 2.52 0 0 0-2.61-2.39 2.73 2.73 0 0 0-2.15.93c0 1-.38 1.89-1.2 1.89-.48 0-.65-.38-.65-.79 0-2.06 2.22-3.37 4.09-3.37a3.9 3.9 0 0 1 4.11 3.67v.06a7.48 7.48 0 0 1-2.22 4.86l-3.91 4.21-.45.45h5.31l.84-1.58 1.3.34zm5.11 3.18l7.18-18.52h1.79l-7.18 18.52h-1.79z" class="B"/><path d="M461.37 152.71h-1.2l-6.6-8.55v8.54h-1.36v-10.9h1.2l6.59 8.55v-8.54h1.36l.01 10.9zm9.48-3.74v.48h-5.83a2.39 2.39 0 0 0 2.49 2.29 3.47 3.47 0 0 0 2.27-.87l.68.87a4.2 4.2 0 0 1-3 1.12 3.85 3.85 0 1 1-.07-7.7 3.59 3.59 0 0 1 3.47 3.7s0 .11-.01.11zm-5.81-.55h4.53a2.2 2.2 0 0 0-2.2-2.14 2.3 2.3 0 0 0-2.33 2.13v.01zm12.88-1.94h-3.1v3.59c0 1.11.59 1.59 1.39 1.59a2.76 2.76 0 0 0 1.51-.5l.6 1a3.72 3.72 0 0 1-2.21.73c-1.6 0-2.56-.87-2.56-2.76v-3.59h-1.58v-1.2h1.6v-2.37h1.28v2.32h3.1l-.03 1.19zm10.13 4.89l2.09-6.05h1.33l-2.66 7.38h-1.52l-2.12-6-2.11 6h-1.49l-2.66-7.38h1.36l2.09 6 2.11-6h1.44l2.14 6.05zm12.36-2.4a3.91 3.91 0 1 1-4-3.85h.06a3.79 3.79 0 0 1 3.91 3.67c.02.08.03.14.03.18zm-6.52 0a2.61 2.61 0 1 0 2.61-2.66 2.56 2.56 0 0 0-2.61 2.51v.15zm13.41-3.57l-.31 1.2a2.91 2.91 0 0 0-1.27-.29 2 2 0 0 0-1.93 2.22v4.11h-1.22v-7.37h1.2v1a2.6 2.6 0 0 1 2.17-1.12 3.3 3.3 0 0 1 1.36.25zm3.01 2.87h1l2.74-3h1.6l-3.3 3.48 3.34 3.9h-1.62l-2.79-3.28h-1v3.28h-1.23v-11.2h1.27l-.01 6.82z" fill="#000"/><path d="M963.612 404.508H.114V.48h963.498v404.028zm-963.2-.295h962.902V.793H.412v403.42z" class="B"/></g><path d="M144.216 247.663v5.067h-1.449v-12.6h4.761c2.835 0 4.455 1.413 4.455 3.771 0 2.35-1.62 3.762-4.455 3.762h-3.312zm0-6.165v4.806h3.267c1.953 0 2.997-.792 2.997-2.403s-1.044-2.403-2.997-2.403h-3.267zm14.121 2.538c.612 0 1.107.081 1.566.288l-.324 1.323c-.423-.225-.972-.342-1.476-.342-1.332 0-2.286 1.044-2.286 2.655v4.77h-1.34v-8.523h1.331v1.197c.585-.873 1.476-1.368 2.53-1.368zm4.96 8.694h-1.35v-8.523h1.35v8.523zm-.676-12.5a.94.94 0 0 1 .954.953c0 .54-.423.945-.954.945a.923.923 0 0 1-.945-.945.93.93 0 0 1 .945-.954zm14.436 3.806c2.115 0 3.564 1.35 3.564 3.411v5.283h-1.34v-4.842c0-1.629-.892-2.574-2.467-2.574-1.43 0-2.61.99-2.61 2.61v4.806h-1.34v-4.842c0-1.629-.883-2.574-2.458-2.574-1.43 0-2.61.99-2.61 2.61v4.806h-1.35v-8.523h1.332v1.215c.702-1.017 1.818-1.386 2.871-1.386 1.503 0 2.646.666 3.195 1.791.675-1.323 2.016-1.79 3.213-1.79zm14.68 8.694h-1.342v-1.269c-.684.873-1.7 1.44-3.114 1.44-2.403 0-4.257-1.872-4.257-4.437 0-2.556 1.854-4.428 4.257-4.428 1.413 0 2.43.576 3.114 1.44v-1.269h1.341v8.523zm-4.294-7.434c-1.827 0-3.05 1.413-3.05 3.168 0 1.764 1.241 3.177 3.05 3.177 1.773 0 3.033-1.368 3.033-3.177 0-1.8-1.26-3.168-3.033-3.168zm11.304-1.26c.612 0 1.107.081 1.566.288l-.324 1.323c-.423-.225-.972-.342-1.476-.342-1.332 0-2.286 1.044-2.286 2.655v4.77h-1.34v-8.523h1.331v1.197c.585-.873 1.476-1.368 2.53-1.368zm4.896 12.33h-1.485l3.177-5.48-3.915-6.679h1.503l3.177 5.346 3.006-5.346h1.476l-6.939 12.16zm21.51-13.85a6.633 6.633 0 0 0-3.798-1.18c-1.899 0-3.258.864-3.258 2.277 0 1.18.936 1.818 2.907 2.043l1.197.144c2.08.261 3.933 1.116 3.933 3.312 0 2.484-2.268 3.79-4.986 3.79-1.818 0-3.78-.64-4.95-1.62l.792-1.153c.855.738 2.52 1.404 4.15 1.404 1.952 0 3.491-.792 3.491-2.295 0-1.224-1.062-1.836-3.05-2.06l-1.27-.145c-2.15-.243-3.717-1.242-3.717-3.33 0-2.394 2.133-3.735 4.77-3.735 1.908 0 3.375.558 4.527 1.377l-.738 1.17zm4.995 10.214h-1.35v-8.523h1.35v8.523zm-.675-12.5a.94.94 0 0 1 .954.953c0 .54-.423.945-.954.945a.923.923 0 0 1-.945-.945.93.93 0 0 1 .945-.954zm9.612 5.192h-3.68v4.302c0 1.332.71 1.917 1.691 1.917.657 0 1.287-.243 1.791-.603l.63 1.017a4.061 4.061 0 0 1-2.529.846c-1.836 0-2.925-1.008-2.925-3.15v-4.329H232.2v-1.215h1.863v-2.709h1.341v2.71h3.681v1.214zm5.922-1.386c2.313 0 3.978 1.81 4.005 4.401 0 .19-.009.351-.027.504h-6.83c.188 1.836 1.475 2.781 3.014 2.781a3.905 3.905 0 0 0 2.7-1.07l.72.917c-1.062 1.017-2.24 1.332-3.5 1.332-2.52 0-4.312-1.79-4.312-4.428 0-2.61 1.81-4.437 4.23-4.437zm-.027 1.197c-1.575 0-2.592 1.08-2.808 2.62h5.472c-.17-1.594-1.215-2.62-2.664-2.62zm467.913-2.018a6.633 6.633 0 0 0-3.798-1.179c-1.899 0-3.258.864-3.258 2.277 0 1.18.936 1.818 2.907 2.043l1.197.144c2.08.261 3.933 1.116 3.933 3.312 0 2.484-2.268 3.79-4.986 3.79-1.818 0-3.78-.64-4.95-1.62l.792-1.153c.855.738 2.52 1.404 4.15 1.404 1.952 0 3.491-.792 3.491-2.295 0-1.224-1.062-1.836-3.05-2.06l-1.27-.145c-2.15-.243-3.717-1.242-3.717-3.33 0-2.394 2.133-3.735 4.77-3.735 1.908 0 3.375.558 4.527 1.377l-.738 1.17zm7.317 1.521c2.313 0 3.978 1.81 4.005 4.401 0 .19-.009.351-.027.504h-6.83c.188 1.836 1.475 2.781 3.014 2.781a3.905 3.905 0 0 0 2.7-1.07l.72.917c-1.062 1.017-2.24 1.332-3.5 1.332-2.52 0-4.312-1.79-4.312-4.428 0-2.61 1.81-4.437 4.23-4.437zm-.027 1.197c-1.575 0-2.592 1.08-2.808 2.62h5.472c-.17-1.594-1.215-2.62-2.664-2.62zm10.296-1.197c1.27 0 2.394.468 3.16 1.341l-.865.91c-.648-.622-1.395-.99-2.33-.99-1.702 0-3.007 1.331-3.007 3.167s1.305 3.177 3.006 3.177c.936 0 1.746-.414 2.358-.999l.837.918c-.783.873-1.89 1.341-3.159 1.341-2.628 0-4.41-1.908-4.41-4.437 0-2.52 1.782-4.428 4.41-4.428zm9.135 0c2.565 0 4.491 1.908 4.491 4.428 0 2.53-1.926 4.437-4.49 4.437s-4.483-1.908-4.483-4.437c0-2.52 1.917-4.428 4.482-4.428zm0 1.26c-1.764 0-3.114 1.332-3.114 3.168s1.35 3.177 3.114 3.177 3.114-1.34 3.114-3.177-1.35-3.168-3.114-3.168zm11.196-1.26c2.106 0 3.555 1.35 3.555 3.411v5.283h-1.34v-4.842c0-1.629-.883-2.574-2.458-2.574-1.43 0-2.61.99-2.61 2.61v4.806h-1.35v-8.523h1.332v1.215c.702-1.017 1.818-1.386 2.871-1.386zm10.215 0c1.413 0 2.43.576 3.114 1.44v-5.706h1.341v12.96h-1.34v-1.269c-.685.873-1.702 1.44-3.115 1.44-2.403 0-4.257-1.872-4.257-4.437 0-2.556 1.854-4.428 4.257-4.428zm.162 1.26c-1.827 0-3.05 1.413-3.05 3.168 0 1.764 1.241 3.177 3.05 3.177 1.773 0 3.033-1.368 3.033-3.177 0-1.8-1.26-3.168-3.033-3.168zm15.507 7.434h-1.34v-1.269c-.685.873-1.702 1.44-3.115 1.44-2.403 0-4.257-1.872-4.257-4.437 0-2.556 1.854-4.428 4.257-4.428 1.413 0 2.43.576 3.114 1.44v-1.269h1.341v8.523zm-4.293-7.434c-1.827 0-3.05 1.413-3.05 3.168 0 1.764 1.241 3.177 3.05 3.177 1.773 0 3.033-1.368 3.033-3.177 0-1.8-1.26-3.168-3.033-3.168zm11.304-1.26c.612 0 1.107.081 1.566.288l-.324 1.323c-.423-.225-.972-.342-1.476-.342-1.332 0-2.286 1.044-2.286 2.655v4.77h-1.34v-8.523h1.331v1.197c.585-.873 1.476-1.368 2.53-1.368zm4.896 12.33h-1.485l3.177-5.48-3.915-6.679h1.503l3.177 5.346 3.006-5.346h1.476l-6.939 12.16zm21.51-13.85a6.633 6.633 0 0 0-3.798-1.18c-1.899 0-3.258.864-3.258 2.277 0 1.18.936 1.818 2.907 2.043l1.197.144c2.08.261 3.933 1.116 3.933 3.312 0 2.484-2.268 3.79-4.986 3.79-1.818 0-3.78-.64-4.95-1.62l.792-1.153c.855.738 2.52 1.404 4.15 1.404 1.952 0 3.491-.792 3.491-2.295 0-1.224-1.062-1.836-3.05-2.06l-1.27-.145c-2.15-.243-3.717-1.242-3.717-3.33 0-2.394 2.133-3.735 4.77-3.735 1.908 0 3.375.558 4.527 1.377l-.738 1.17zm4.995 10.214h-1.35v-8.523h1.35v8.523zm-.675-12.5a.94.94 0 0 1 .954.953c0 .54-.423.945-.954.945a.923.923 0 0 1-.945-.945.93.93 0 0 1 .945-.954zm9.612 5.192h-3.68v4.302c0 1.332.71 1.917 1.691 1.917.657 0 1.287-.243 1.791-.603l.63 1.017a4.061 4.061 0 0 1-2.529.846c-1.836 0-2.925-1.008-2.925-3.15v-4.329h-1.863v-1.215h1.863v-2.709h1.341v2.71h3.681v1.214zm5.922-1.386c2.313 0 3.978 1.81 4.005 4.401 0 .19-.009.351-.027.504h-6.83c.188 1.836 1.475 2.781 3.014 2.781a3.905 3.905 0 0 0 2.7-1.07l.72.917c-1.062 1.017-2.24 1.332-3.5 1.332-2.52 0-4.312-1.79-4.312-4.428 0-2.61 1.81-4.437 4.23-4.437zm-.027 1.197c-1.575 0-2.592 1.08-2.808 2.62h5.472c-.17-1.594-1.215-2.62-2.664-2.62z" fill="#000"/></g><defs ><path id="B" d="M164.73 102h60.71v12.91h-60.71V102zm0-19.63h60.71v12.91h-60.71V82.37zm49.65-24.5h11.05v12.91h-11.05V57.87zm-49.65 63.76h60.71v12.91h-60.71v-12.91zm0 19.62h60.71v12.91h-60.71v-12.91zm0 19.62h60.71v12.91h-60.71v-12.91zm0 19.63h60.71v12.91h-60.71V180.5z"/><path id="C" d="M635.78 102h60.71v12.91h-60.71V102zm0-19.63h60.71v12.91h-60.71V82.37zm49.64-24.5h11.05v12.91h-11.05V57.87zm-49.64 63.76h60.71v12.91h-60.71v-12.91zm0 19.62h60.71v12.91h-60.71v-12.91zm0 19.62h60.71v12.91h-60.71v-12.91zm0 19.63h60.71v12.91h-60.71V180.5z"/></defs></svg>