<svg xmlns="http://www.w3.org/2000/svg" xmlns:xlink="http://www.w3.org/1999/xlink" width="1190" height="421" xmlns:v="https://vecta.io/nano"><style><![CDATA[.B{stroke-width:1.7}.C{fill:#fff}.D{fill-rule:nonzero}.E{stroke:#c72c48}.F{fill:#ba8c9b}.G{stroke:#fff}.H{fill:#c72c48}.I{stroke:#6a6a6a}.J{fill:#bfbfbf}.K{fill:#6a6a6a}.L{stroke:#a9a9a9}]]></style><g fill="none" fill-rule="evenodd"><g class="D"><path d="M1189.246 420.921H.362v-420h1188.884v420zm-1188.508-.3H1188.87V1.221H.738v419.4z" class="C"/><g class="B E"><g class="F"><use xlink:href="#B"/><use xlink:href="#B" x="-6.07" y="5.57"/></g><use xlink:href="#B" x="-12.13" y="11.42" class="C"/></g><use xlink:href="#C" class="B G H"/><g class="E B"><g class="F"><use xlink:href="#B" x="102.57"/><use xlink:href="#B" x="96.5" y="5.57"/></g><use xlink:href="#B" x="90.44" y="11.42" class="C"/></g><use xlink:href="#C" x="102.57" class="B G H"/><g class="E B"><g class="F"><use xlink:href="#B" x="205.14"/><use xlink:href="#B" x="199.07" y="5.57"/></g><use xlink:href="#B" x="193.01" y="11.42" class="C"/></g><use xlink:href="#C" x="205.14" class="B G H"/><g class="E B"><g class="F"><use xlink:href="#B" x="655.44"/><use xlink:href="#B" x="649.37" y="5.57"/></g><use xlink:href="#B" x="643.31" y="11.42" class="C"/></g><use xlink:href="#C" x="655.44" class="B G H"/><g class="E B"><g class="F"><use xlink:href="#B" x="755.23"/><use xlink:href="#B" x="749.15" y="5.57"/></g><use xlink:href="#B" x="743.1" y="11.42" class="C"/></g><use xlink:href="#C" x="755.22" class="B G H"/><g class="I B"><g class="J"><use xlink:href="#B" x="379.51"/><use xlink:href="#B" x="373.43" y="5.57"/></g><use xlink:href="#B" x="367.38" y="11.42" class="C"/></g><use xlink:href="#C" x="379.5" class="K"/><g class="B I"><g class="J"><use xlink:href="#B" x="481.96"/><use xlink:href="#B" x="475.89" y="5.57"/></g><use xlink:href="#B" x="469.83" y="11.42" class="C"/></g><use xlink:href="#C" x="481.96" class="K"/><g class="B I"><g class="J"><use xlink:href="#B" x="855.01"/><use xlink:href="#B" x="848.94" y="5.57"/></g><use xlink:href="#B" x="842.88" y="11.42" class="C"/></g><use xlink:href="#C" x="855.01" class="K"/><g class="B I"><g class="J"><use xlink:href="#B" x="954.79"/><use xlink:href="#B" x="948.72" y="5.57"/></g><use xlink:href="#B" x="942.66" y="11.42" class="C"/></g><use xlink:href="#C" x="954.79" class="K"/></g><g class="L"><rect stroke-width="1.3" stroke-dasharray="1.48" x="43.092" y="43.621" width="331.42" height="223.6" rx="3.32"/><g stroke-width="1.12" stroke-dasharray="1.27"><rect x="410.892" y="43.621" width="243" height="223.6" rx="2.84"/><rect x="689.872" y="43.621" width="454.5" height="223.6" rx="3.89"/></g><path d="M532.652 268.761v65.92m.01-6.01c0-16.24-18.29-31.37-35.62-31.37h-269.18c-17.33 0-31.38-13.16-31.38-29.4m336.18 60.77c0-16.24 19.18-31.37 36.51-31.37h311.56c17.33 0 31.38-13.16 31.38-29.4" stroke-width=".64"/></g><path fill="#636363" d="M532.652 339.531l4.47-6.64h-8.93z" class="D"/><g class="L"><path stroke-width=".48" d="M488.512 379.521l.32-38.858 94.326.773-.318 38.86z"/><path d="M486.542 360.541h-53.27" stroke-width=".51"/></g><path fill="#636363" d="M429.352 360.541l5.36 3.6v-7.21z" class="D"/><path stroke-width=".43" d="M355.132 341.061h73.77v38.86h-73.77z" class="L"/><g fill="#000"><path d="M380.502 355.281c3.41 0 5.59 2.07 5.59 5.28s-2.19 5.28-5.59 5.28h-4v-10.56h4zm-2.7 1.26v8h2.7c2.77 0 4.2-1.63 4.2-4s-1.43-4-4.2-4h-2.7zm19.56 9.3h-1.2l-6.38-8.29v8.28h-1.33v-10.56h1.2l6.38 8.29v-8.28h1.33v10.56zm9.94-8.48a5.53 5.53 0 0 0-3.13-1c-1.54 0-2.65.69-2.65 1.83s.81 1.45 2.39 1.64l.93.11c1.79.22 3.32.94 3.32 2.8 0 2.1-1.91 3.2-4.19 3.2a6.84 6.84 0 0 1-4.16-1.37l.72-1.06a5.64 5.64 0 0 0 3.44 1.17c1.58 0 2.81-.64 2.81-1.83 0-1-.88-1.45-2.53-1.65l-1-.12c-1.74-.21-3.13-1-3.13-2.82 0-2 1.81-3.17 4-3.17a6.46 6.46 0 0 1 3.8 1.15l-.62 1.12z" class="D"/><path d="M162.83 239.421c3.427 0 5.602 2.047 5.602 5.25s-2.175 5.25-5.602 5.25h-3.953v-10.5h3.953zm-2.745 1.14v8.22h2.745c2.842 0 4.335-1.65 4.335-4.11 0-2.483-1.493-4.11-4.335-4.11h-2.745zm17.317 9.36h-1.117v-1.058c-.57.728-1.418 1.2-2.595 1.2-2.003 0-3.548-1.56-3.548-3.697 0-2.13 1.545-3.69 3.548-3.69 1.177 0 2.025.48 2.595 1.2v-1.058h1.117v7.103zm-3.577-6.195c-1.523 0-2.543 1.177-2.543 2.64 0 1.47 1.035 2.648 2.543 2.648 1.477 0 2.527-1.14 2.527-2.648 0-1.5-1.05-2.64-2.527-2.64zm11.025.105h-3.068v3.585c0 1.11.593 1.597 1.41 1.597.548 0 1.073-.202 1.493-.502l.525.847a3.38 3.38 0 0 1-2.108.706c-1.53 0-2.438-.84-2.438-2.625v-3.608h-1.552v-1.013h1.553v-2.257h1.117v2.257h3.068v1.013zm8.67 6.09h-1.118v-1.058c-.57.728-1.417 1.2-2.595 1.2-2.002 0-3.547-1.56-3.547-3.697 0-2.13 1.544-3.69 3.547-3.69 1.178 0 2.025.48 2.595 1.2v-1.058h1.118v7.103zm-3.578-6.195c-1.523 0-2.543 1.177-2.543 2.64 0 1.47 1.035 2.648 2.543 2.648 1.478 0 2.528-1.14 2.528-2.648 0-1.5-1.05-2.64-2.528-2.64zm15.225-4.455c1.83 0 3.458.832 4.283 2.175l-1.005.675c-.698-1.035-1.89-1.688-3.278-1.688-2.355 0-4.155 1.71-4.155 4.238s1.8 4.238 4.155 4.238c1.403 0 2.565-.623 3.278-1.68l.975.72c-.878 1.312-2.438 2.122-4.253 2.122-3.12 0-5.423-2.25-5.423-5.4s2.303-5.4 5.423-5.4zm9.315 3.405c1.928 0 3.315 1.507 3.338 3.667a3.53 3.53 0 0 1-.023.42h-5.692c.157 1.53 1.23 2.318 2.512 2.318.878 0 1.643-.33 2.25-.892l.6.764c-.885.848-1.867 1.11-2.917 1.11-2.1 0-3.593-1.492-3.593-3.69 0-2.175 1.507-3.697 3.525-3.697zm-.022.997c-1.313 0-2.16.9-2.34 2.183h4.56c-.143-1.328-1.013-2.183-2.22-2.183zm8.947-.997c1.755 0 2.963 1.125 2.963 2.842v4.403h-1.118v-4.035c0-1.358-.735-2.145-2.047-2.145-1.193 0-2.175.825-2.175 2.175v4.005h-1.126v-7.103h1.11v1.013c.585-.848 1.516-1.155 2.393-1.155zm10.23 1.155h-3.067v3.585c0 1.11.592 1.597 1.41 1.597.547 0 1.072-.202 1.492-.502l.525.847a3.38 3.38 0 0 1-2.107.706c-1.53 0-2.438-.84-2.438-2.625v-3.608h-1.553v-1.013h1.553v-2.257h1.118v2.257h3.067v1.013zm4.935-1.155c1.928 0 3.315 1.507 3.338 3.667a3.53 3.53 0 0 1-.023.42h-5.692c.157 1.53 1.23 2.318 2.512 2.318.878 0 1.643-.33 2.25-.892l.6.764c-.885.848-1.867 1.11-2.917 1.11-2.1 0-3.593-1.492-3.593-3.69 0-2.175 1.507-3.697 3.525-3.697zm-.022.997c-1.313 0-2.16.9-2.34 2.183h4.56c-.143-1.328-1.013-2.183-2.22-2.183zm8.662-.997c.51 0 .923.067 1.305.24l-.27 1.102c-.382-.19-.803-.288-1.23-.285-1.11 0-1.905.87-1.905 2.213v3.975h-1.118v-7.103h1.11v.998a2.47 2.47 0 0 1 2.108-1.14zm9.93 6.143v-7.943l-3.053 1.095v-1.178l4.208-1.5v9.525h2.753v1.103h-6.848v-1.102h2.94zm234.688-9.398c3.427 0 5.602 2.047 5.602 5.25s-2.175 5.25-5.602 5.25h-3.953v-10.5h3.953zm-2.745 1.14v8.22h2.745c2.842 0 4.335-1.65 4.335-4.11 0-2.483-1.493-4.11-4.335-4.11h-2.745zm17.317 9.36h-1.117v-1.058c-.57.728-1.418 1.2-2.595 1.2-2.003 0-3.548-1.56-3.548-3.697 0-2.13 1.545-3.69 3.548-3.69 1.177 0 2.025.48 2.595 1.2v-1.058h1.117v7.103zm-3.577-6.195c-1.523 0-2.543 1.177-2.543 2.64 0 1.47 1.035 2.648 2.543 2.648 1.477 0 2.527-1.14 2.527-2.648 0-1.5-1.05-2.64-2.527-2.64zm11.025.105h-3.068v3.585c0 1.11.593 1.597 1.41 1.597.548 0 1.073-.202 1.493-.502l.525.847a3.38 3.38 0 0 1-2.108.706c-1.53 0-2.438-.84-2.438-2.625v-3.608h-1.552v-1.013h1.553v-2.257h1.117v2.257h3.068v1.013zm8.67 6.09h-1.118v-1.058c-.57.728-1.417 1.2-2.595 1.2-2.002 0-3.548-1.56-3.548-3.697 0-2.13 1.546-3.69 3.548-3.69 1.178 0 2.025.48 2.595 1.2v-1.058h1.118v7.103zm-3.578-6.195c-1.523 0-2.543 1.177-2.543 2.64 0 1.47 1.036 2.648 2.543 2.648 1.478 0 2.528-1.14 2.528-2.648 0-1.5-1.05-2.64-2.528-2.64zm15.225-4.455c1.83 0 3.458.832 4.283 2.175l-1.005.675c-.698-1.035-1.89-1.688-3.278-1.688-2.355 0-4.155 1.71-4.155 4.238s1.8 4.238 4.155 4.238c1.403 0 2.565-.623 3.278-1.68l.975.72c-.878 1.312-2.438 2.122-4.253 2.122-3.12 0-5.423-2.25-5.423-5.4s2.303-5.4 5.423-5.4zm9.315 3.405c1.928 0 3.315 1.507 3.338 3.667a3.53 3.53 0 0 1-.023.42h-5.692c.157 1.53 1.23 2.318 2.512 2.318.878 0 1.643-.33 2.25-.892l.6.764c-.885.848-1.867 1.11-2.917 1.11-2.1 0-3.593-1.492-3.593-3.69 0-2.175 1.508-3.697 3.525-3.697zm-.022.997c-1.313 0-2.16.9-2.34 2.183h4.56c-.143-1.328-1.013-2.183-2.22-2.183zm8.947-.997c1.755 0 2.963 1.125 2.963 2.842v4.403h-1.118v-4.035c0-1.358-.735-2.145-2.047-2.145-1.193 0-2.176.825-2.176 2.175v4.005h-1.125v-7.103h1.11v1.013c.586-.848 1.516-1.155 2.393-1.155zm10.23 1.155h-3.067v3.585c0 1.11.592 1.597 1.41 1.597.547 0 1.072-.202 1.492-.502l.525.847a3.38 3.38 0 0 1-2.107.706c-1.53 0-2.438-.84-2.438-2.625v-3.608h-1.553v-1.013h1.553v-2.257h1.118v2.257h3.067v1.013zm4.935-1.155c1.928 0 3.315 1.507 3.338 3.667a3.53 3.53 0 0 1-.023.42h-5.692c.157 1.53 1.23 2.318 2.512 2.318.878 0 1.643-.33 2.25-.892l.6.764c-.885.848-1.867 1.11-2.917 1.11-2.1 0-3.593-1.492-3.593-3.69 0-2.175 1.508-3.697 3.525-3.697zm-.022.997c-1.313 0-2.16.9-2.34 2.183h4.56c-.143-1.328-1.013-2.183-2.22-2.183zm8.662-.997c.51 0 .923.067 1.305.24l-.27 1.102c-.382-.19-.803-.288-1.23-.285-1.11 0-1.905.87-1.905 2.213v3.975h-1.118v-7.103h1.11v.998a2.47 2.47 0 0 1 2.108-1.14zm6.548-1.65c.495-.735 1.417-1.74 3.217-1.74 2.13 0 3.353 1.395 3.353 3.247 0 1.298-.728 2.25-1.41 2.97l-3.136 3.316h4.89v1.102h-6.607v-.907l3.968-4.186c.637-.667 1.08-1.395 1.08-2.295 0-1.207-.773-2.145-2.175-2.145-1.193 0-1.838.623-2.34 1.313l-.84-.675zm291.07-1.605c3.427 0 5.602 2.047 5.602 5.25s-2.175 5.25-5.602 5.25h-3.953v-10.5h3.953zm-2.745 1.14v8.22h2.745c2.842 0 4.335-1.65 4.335-4.11 0-2.483-1.493-4.11-4.335-4.11h-2.745zm17.317 9.36h-1.117v-1.058c-.57.728-1.418 1.2-2.595 1.2-2.003 0-3.548-1.56-3.548-3.697 0-2.13 1.545-3.69 3.548-3.69 1.177 0 2.025.48 2.595 1.2v-1.058h1.117v7.103zm-3.577-6.195c-1.523 0-2.543 1.177-2.543 2.64 0 1.47 1.035 2.648 2.543 2.648 1.477 0 2.527-1.14 2.527-2.648 0-1.5-1.05-2.64-2.527-2.64zm11.025.105h-3.068v3.585c0 1.11.593 1.597 1.41 1.597.548 0 1.073-.202 1.493-.502l.525.847a3.38 3.38 0 0 1-2.108.706c-1.53 0-2.438-.84-2.438-2.625v-3.608h-1.552v-1.013h1.552v-2.257h1.118v2.257h3.068v1.013zm8.67 6.09h-1.118v-1.058c-.57.728-1.417 1.2-2.595 1.2-2.002 0-3.548-1.56-3.548-3.697 0-2.13 1.546-3.69 3.548-3.69 1.178 0 2.025.48 2.595 1.2v-1.058h1.118v7.103zm-3.578-6.195c-1.523 0-2.543 1.177-2.543 2.64 0 1.47 1.036 2.648 2.543 2.648 1.478 0 2.528-1.14 2.528-2.648 0-1.5-1.05-2.64-2.528-2.64zm15.225-4.455c1.83 0 3.458.832 4.283 2.175l-1.005.675c-.698-1.035-1.89-1.688-3.278-1.688-2.355 0-4.155 1.71-4.155 4.238s1.8 4.238 4.155 4.238c1.403 0 2.565-.623 3.278-1.68l.975.72c-.878 1.312-2.438 2.122-4.253 2.122-3.12 0-5.423-2.25-5.423-5.4s2.303-5.4 5.423-5.4zm9.315 3.405c1.928 0 3.315 1.507 3.338 3.667a3.53 3.53 0 0 1-.023.42h-5.692c.157 1.53 1.23 2.318 2.512 2.318.878 0 1.643-.33 2.25-.892l.6.764c-.885.848-1.867 1.11-2.917 1.11-2.1 0-3.593-1.492-3.593-3.69 0-2.175 1.508-3.697 3.525-3.697zm-.022.997c-1.313 0-2.16.9-2.34 2.183h4.56c-.143-1.328-1.013-2.183-2.22-2.183zm8.947-.997c1.755 0 2.963 1.125 2.963 2.842v4.403h-1.118v-4.035c0-1.358-.735-2.145-2.047-2.145-1.193 0-2.176.825-2.176 2.175v4.005h-1.125v-7.103h1.11v1.013c.586-.848 1.516-1.155 2.393-1.155zm10.23 1.155h-3.067v3.585c0 1.11.592 1.597 1.41 1.597.547 0 1.072-.202 1.492-.502l.525.847a3.38 3.38 0 0 1-2.107.706c-1.53 0-2.438-.84-2.438-2.625v-3.608h-1.553v-1.013h1.553v-2.257h1.118v2.257h3.067v1.013zm4.935-1.155c1.928 0 3.315 1.507 3.338 3.667a3.53 3.53 0 0 1-.023.42h-5.692c.157 1.53 1.23 2.318 2.512 2.318.878 0 1.643-.33 2.25-.892l.6.764c-.885.848-1.867 1.11-2.917 1.11-2.1 0-3.593-1.492-3.593-3.69 0-2.175 1.508-3.697 3.525-3.697zm-.022.997c-1.313 0-2.16.9-2.34 2.183h4.56c-.143-1.328-1.013-2.183-2.22-2.183zm8.662-.997c.51 0 .923.067 1.305.24l-.27 1.102c-.382-.19-.803-.288-1.23-.285-1.11 0-1.905.87-1.905 2.213v3.975h-1.118v-7.103h1.11v.998a2.47 2.47 0 0 1 2.108-1.14zm9.705-3.39c2.07 0 3.473 1.17 3.473 2.872 0 1.238-.653 2.04-1.643 2.46 1.103.398 1.875 1.253 1.875 2.49 0 2.003-1.755 2.948-3.607 2.948-1.47 0-2.633-.51-3.405-1.38l.742-.772c.66.682 1.598 1.072 2.64 1.072 1.298 0 2.423-.615 2.423-1.92 0-1.215-1.133-1.905-2.535-1.905h-1.38v-1.058h1.372c1.29 0 2.31-.63 2.31-1.875 0-1.132-1.012-1.852-2.332-1.852a2.83 2.83 0 0 0-2.318 1.192l-.832-.712c.6-.893 1.71-1.56 3.217-1.56z"/><path d="M190.592 60.061a3.35 3.35 0 0 1-5.025 2.901 3.35 3.35 0 0 1-1.675-2.901v-4.91h1v4.91a2.34 2.34 0 0 0 3.549 2.153 2.34 2.34 0 0 0 1.121-2.153v-4.83h1l.03 4.83zm7.45-3.28a4.22 4.22 0 0 0-2.39-.74c-1.18 0-2 .53-2 1.4s.62 1.11 1.83 1.26l.71.09c1.37.17 2.54.72 2.54 2.15 0 1.61-1.46 2.45-3.21 2.45a5.23 5.23 0 0 1-3.18-1l.55-.81a4.31 4.31 0 0 0 2.63.89c1.21 0 2.15-.49 2.15-1.4 0-.75-.67-1.11-1.93-1.26l-.75-.09c-1.33-.16-2.39-.78-2.39-2.16 0-1.56 1.38-2.43 3.09-2.43a4.94 4.94 0 0 1 2.91.88l-.56.77zm5.4 3.85h-3.24v-.85h3.24v.85zm7.68 2.63h-5.76v-8.08h5.68v1h-4.68v2.58h4.51v1h-4.51v2.64h4.72l.04.86zm8.95 0h-1.09l-.89-2.2h-3.91l-.88 2.2h-1.06l3.28-8.08h1.26l3.29 8.08zm-5.5-3.2h3.14l-1.57-3.9-1.57 3.9zm12.07-3.28a4.22 4.22 0 0 0-2.39-.74c-1.18 0-2 .53-2 1.4s.62 1.11 1.83 1.26l.71.09c1.37.17 2.54.72 2.54 2.15 0 1.61-1.46 2.45-3.21 2.45a5.23 5.23 0 0 1-3.18-1l.55-.81a4.31 4.31 0 0 0 2.63.89c1.21 0 2.15-.49 2.15-1.4 0-.75-.67-1.11-1.93-1.26l-.75-.09c-1.33-.16-2.39-.78-2.39-2.16 0-1.56 1.38-2.43 3.09-2.43a4.94 4.94 0 0 1 2.91.88l-.56.77zm8.1-.63h-2.76v7.11h-1v-7.11h-2.76v-1h6.52v1zm277.36 3.91a3.35 3.35 0 0 1-5.025 2.901 3.35 3.35 0 0 1-1.675-2.901v-4.91h1v4.91c0 1.29 1.045 2.335 2.335 2.335s2.335-1.045 2.335-2.335v-4.83h1l.03 4.83zm7.45-3.28a4.22 4.22 0 0 0-2.39-.74c-1.18 0-2 .53-2 1.4s.62 1.11 1.83 1.26l.71.09c1.37.17 2.54.72 2.54 2.15 0 1.61-1.46 2.45-3.21 2.45a5.23 5.23 0 0 1-3.18-1l.55-.81a4.31 4.31 0 0 0 2.63.89c1.21 0 2.15-.49 2.15-1.4 0-.75-.67-1.11-1.93-1.26l-.75-.09c-1.33-.16-2.39-.78-2.39-2.16 0-1.56 1.38-2.43 3.09-2.43a4.94 4.94 0 0 1 2.91.88l-.56.77zm5.43 3.85h-3.24v-.85h3.24v.85zm10.21 2.64h-1.21l-2.16-6.74-2.16 6.74h-1.25l-2.59-8.08h1.07l2.16 6.93 2.21-6.94h1.15l2.21 6.94 2.16-6.93h1l-2.59 8.08zm9.79-.01h-5.73v-8.07h5.68v1h-4.66v2.58h4.51v1h-4.51v2.64h4.71v.85zm7.38-6.48a4.22 4.22 0 0 0-2.39-.74c-1.18 0-2 .53-2 1.4s.62 1.11 1.83 1.26l.71.09c1.37.17 2.54.72 2.54 2.15 0 1.61-1.46 2.45-3.21 2.45a5.23 5.23 0 0 1-3.18-1l.55-.81a4.31 4.31 0 0 0 2.63.89c1.21 0 2.15-.49 2.15-1.4 0-.75-.67-1.11-1.93-1.26l-.75-.09c-1.33-.16-2.39-.78-2.39-2.16 0-1.56 1.38-2.43 3.09-2.43a4.94 4.94 0 0 1 2.91.88l-.56.77zm8.06-.63h-2.75v7.11h-1v-7.11h-2.76v-1h6.52l-.01 1zm253.69 7.11h-5.75v-8.07h5.68v1h-4.68v2.58h4.51v1h-4.51v2.64h4.72l.03.85zm8.65-3.2a3.35 3.35 0 1 1-6.7 0v-4.91h1v4.91c0 .834.445 1.605 1.167 2.022s1.613.417 2.335 0 1.168-1.188 1.167-2.022v-4.83h1l.03 4.83zm5.09.57h-3.24v-.85h3.24v.85zm3.99 2.63h-1v-6.76l-2.31 1v-1l3.29-1.4.02 8.16zm174.4 0h-5.73v-8.08h5.68v1h-4.66v2.58h4.51v1h-4.51v2.64h4.72l-.01.86zm8.66-3.2a3.35 3.35 0 1 1-6.7 0v-4.91h1v4.91a2.34 2.34 0 0 0 3.549 2.153 2.34 2.34 0 0 0 1.121-2.153v-4.83h1l.03 4.83zm5.08.57h-3.24v-.85h3.24v.85zm.84-4.22a2.86 2.86 0 0 1 2.49-1.34 2.42 2.42 0 0 1 2.61 2.53 3.3 3.3 0 0 1-1.08 2.27l-2.32 2.46h3.66v.93h-5.1v-.77l3-3.19a2.46 2.46 0 0 0 .81-1.71 1.51 1.51 0 0 0-1.42-1.59h-.19a2.05 2.05 0 0 0-1.76 1l-.7-.59zm-497.33 308.59l-7.49-.06.09-10.55 7.42.06v1.24h-6.09v3.37h5.94v1.25h-5.89v3.44h6.17l-.15 1.25zm10.1-9.21h-3.6l-.08 9.29h-1.33l.08-9.29h-3.6v-1.33l8.52.07.01 1.26zm10.71.85l-1.11.74a3.81 3.81 0 0 0-3.2-1.68 4.16 4.16 0 1 0-.07 8.32 3.77 3.77 0 0 0 3.22-1.62l1.08.8a5.09 5.09 0 0 1-4.31 2.1 5.44 5.44 0 0 1-4.833-8.261 5.44 5.44 0 0 1 4.923-2.609 5 5 0 0 1 4.3 2.21zm6.38-1.97c3.41 0 5.58 2.11 5.55 5.32s-2.23 5.26-5.64 5.23h-4l.09-10.55h4zm-2.7 1.23l-.07 8h2.7c2.77 0 4.21-1.59 4.23-4s-1.4-4-4.17-4h-2.69z" class="D"/></g></g><defs ><path id="B" d="M78.532 77.341h70.38v134.13h-70.38z"/><path id="C" d="M78.812 132.741h45.57v9.69h-45.57v-9.69zm0-14.74h45.57v9.69h-45.57v-9.69zm37.27-18.38h8.3v9.69h-8.3v-9.69zm-37.27 47.85h45.57v9.69h-45.57v-9.69zm0 14.74h45.57v9.69h-45.57v-9.69zm0 14.73h45.57v9.69h-45.57v-9.69zm0 14.74h45.57v9.69h-45.57v-9.69z"/></defs></svg>